<svg id="图层_1" data-name="图层 1" xmlns="http://www.w3.org/2000/svg" viewBox="0 0 100 100"><defs><style>.cls-1{fill:#fff;}</style></defs><title>检查ic</title><g id="Clipboard_2x.png" data-name="Clipboard@2x.png"><path class="cls-1" d="M25,50H52.27a2.27,2.27,0,1,0,0-4.55H25A2.27,2.27,0,0,0,25,50ZM86.36,13.64H68.18V9.09a4.55,4.55,0,0,0-4.55-4.55H54.55a4.55,4.55,0,0,0-9.09,0H36.36a4.55,4.55,0,0,0-4.55,4.55v4.55H13.64a4.55,4.55,0,0,0-4.55,4.55V95.45A4.55,4.55,0,0,0,13.64,100H86.36a4.55,4.55,0,0,0,4.55-4.55V18.18A4.55,4.55,0,0,0,86.36,13.64Zm-50-4.55H63.64v9.09H36.36Zm50,86.36H13.64V31.82H86.36Zm0-68.18H13.64V18.18H31.82a4.55,4.55,0,0,0,4.55,4.55H63.64a4.55,4.55,0,0,0,4.55-4.55H86.36ZM25,77.27H65.91a2.27,2.27,0,0,0,0-4.55H25a2.27,2.27,0,0,0,0,4.55Zm0-13.64H75a2.27,2.27,0,0,0,0-4.55H25a2.27,2.27,0,0,0,0,4.55Z"/></g></svg>