<?xml version="1.0" encoding="utf-8"?>
<!-- Generator: Adobe Illustrator 21.0.2, SVG Export Plug-In . SVG Version: 6.00 Build 0)  -->
<svg version="1.1" id="图层_1" xmlns="http://www.w3.org/2000/svg" xmlns:xlink="http://www.w3.org/1999/xlink" x="0px" y="0px"
	 viewBox="0 0 300 300" style="enable-background:new 0 0 300 300;" xml:space="preserve">
<style type="text/css">
	.st0{opacity:0.9;fill-rule:evenodd;clip-rule:evenodd;fill:#1E2328;}
	.st1{opacity:0.75;fill-rule:evenodd;clip-rule:evenodd;fill:#2EBBD9;}
	.st2{opacity:0.2;fill-rule:evenodd;clip-rule:evenodd;fill:#10EBBF;}
	.st3{fill-rule:evenodd;clip-rule:evenodd;fill:#FFFFFF;}
	.st4{fill:#FFFFFF;}
	.st5{opacity:0.5;fill-rule:evenodd;clip-rule:evenodd;fill:#698596;}
	.st6{font-family:'Arial-BoldMT';}
	.st7{font-size:12px;}
	.st8{font-size:12.0001px;}
	.st9{opacity:0.9;fill-rule:evenodd;clip-rule:evenodd;fill:#E43A3D;}
</style>
<g>
	<g>
		<circle class="st0" cx="203.9" cy="69.7" r="60"/>
		<g>
			<path class="st1" d="M241.7,49.5c-7.2-13.5-21.4-22.7-37.8-22.7c-16.4,0-30.6,9.2-37.8,22.7H241.7z"/>
			<path class="st2" d="M166.1,49.5c-3.2,6-5,12.9-5,20.2c0,23.7,19.2,42.8,42.9,42.8c23.7,0,42.8-19.2,42.8-42.8
				c0-7.3-1.8-14.2-5-20.2H166.1z"/>
		</g>
		<g>
			<g>
				<path class="st3" d="M195.3,69.3v0.9h17.1v-0.9H195.3z M203.5,68h0.9v-0.9h-0.9V68z M204.3,65h-0.9v0.9h0.9V65z M204.3,62.8
					h-0.9v0.9h0.9V62.8z M204.3,60.7h-0.9v0.9h0.9V60.7z M208.2,58.5h-8.6v0.9h8.6V58.5z M203.5,57.3h0.9v-0.9h-0.9V57.3z
					 M204.3,54.3h-0.9v0.9h0.9V54.3z M204.3,52.1h-0.9V53h0.9V52.1z M204.3,50h-0.9v0.9h0.9V50z M208.2,47.8h-8.6v0.9h8.6V47.8z
					 M203.5,46.5h0.9v-0.9h-0.9V46.5z M204.3,43.5h-0.9v0.9h0.9V43.5z M204.3,41.4h-0.9v0.9h0.9V41.4z M204.3,39.3h-0.9v0.9h0.9
					V39.3z M208.2,37.1h-8.6V38h8.6V37.1z M204.3,35h-0.9v0.9h0.9V35z M204.3,32.8h-0.9v0.9h0.9V32.8z M204.3,30.7h-0.9v0.9h0.9
					V30.7z M204.3,28.5h-0.9v0.9h0.9V28.5z M204.3,71.4h-0.9v0.9h0.9V71.4z M203.5,74.4h0.9v-0.9h-0.9V74.4z M203.5,76.5h0.9v-0.9
					h-0.9V76.5z M203.5,78.7h0.9v-0.9h-0.9V78.7z M199.6,80.8h8.6V80h-8.6V80.8z M204.3,82.1h-0.9V83h0.9V82.1z M203.5,85.1h0.9
					v-0.9h-0.9V85.1z M203.5,87.3h0.9v-0.9h-0.9V87.3z M203.5,89.4h0.9v-0.9h-0.9V89.4z M199.6,91.5h8.6v-0.9h-8.6V91.5z
					 M204.3,92.8h-0.9v0.9h0.9V92.8z M203.5,95.8h0.9V95h-0.9V95.8z M203.5,98h0.9v-0.9h-0.9V98z M203.5,100.1h0.9v-0.9h-0.9V100.1z
					 M199.6,102.3h8.6v-0.9h-8.6V102.3z M203.5,104.4h0.9v-0.9h-0.9V104.4z M203.5,106.5h0.9v-0.9h-0.9V106.5z M203.5,108.7h0.9
					v-0.9h-0.9V108.7z M203.5,110.8h0.9V110h-0.9V110.8z"/>
			</g>
		</g>
		<path class="st4" d="M225.4,68.6h-0.2c0,0,0.1-0.2,0.1-0.2v-0.2c0-0.1-0.2,0-0.4,0h-1.3c-0.1,0-0.1-0.1-0.1,0v0.2
			c0,0-0.1,0.2-0.1,0.2h-0.2c-0.1,0-0.1-0.1-0.1,0v0.8h-10.3v-0.6c0-0.7-0.7-1.1-1.4-1.1h-3.7c-0.1,0-0.2-0.1-0.3-0.2l-1.8-1.7
			c-0.2-0.2-0.4-0.2-0.6-0.2h-2.7c-0.2,0-0.4,0-0.6,0.2l-1.8,1.8c-0.1,0.1-0.2,0.2-0.3,0.2h-3.7c-0.7,0-1.2,0.4-1.2,1.1v0.6h-10.3
			v-0.8c0-0.1-0.2,0-0.3,0h-0.2c0,0,0.1-0.2,0.1-0.2v-0.2c0-0.1-0.2,0-0.4,0h-1.3c-0.1,0-0.1-0.1-0.1,0v0.2c0,0-0.1,0.2-0.1,0.2
			h-0.2c-0.1,0-0.1-0.1-0.1,0v2.6c0,0.1,0,0.4,0.1,0.4h2.1c0.1,0,0.3-0.3,0.3-0.4v-0.4h10.3v0.7c0,0.2,0.1,0.6,0.3,0.6h17.1
			c0.2,0,0.6-0.4,0.6-0.6v-0.7h10.3v0.4c0,0.1,0,0.4,0.1,0.4h2.1c0.1,0,0.3-0.3,0.3-0.4v-2.6C225.8,68.5,225.5,68.6,225.4,68.6z
			 M197.9,72h12"/>
		<path class="st5" d="M203.9,11.8c-32,0-57.9,25.9-57.9,57.9s25.9,57.9,57.9,57.9s57.9-25.9,57.9-57.9S235.9,11.8,203.9,11.8z
			 M203.9,114.7c-24.9,0-45-20.1-45-45s20.1-45,45-45c24.9,0,45,20.1,45,45S228.8,114.7,203.9,114.7z"/>
		<text transform="matrix(1 0 0 1 199.5708 22.7238)" class="st4 st6 st7">N</text>
		<text transform="matrix(1 0 0 1 199.9019 125.7961)" class="st4 st6 st7">S</text>
		<text transform="matrix(1 0 0 1 148.0229 72.0929)" class="st4 st6 st7">w</text>
		<text transform="matrix(1 0 0 1 251.1157 72.0929)" class="st4 st6 st7">E</text>
		<text transform="matrix(0.7071 0.7071 -0.7071 0.7071 231.6679 30.9952)" class="st4 st6 st8">NE</text>
		<text transform="matrix(0.7071 0.7071 -0.7071 0.7071 158.0953 102.6867)" class="st4 st6 st8">SW</text>
		<text transform="matrix(0.7071 -0.7071 0.7071 0.7071 163.2764 43.9324)" class="st4 st6 st8">WN</text>
		<text transform="matrix(0.7071 -0.7071 0.7071 0.7071 237.3186 115.1572)" class="st4 st6 st8">SE</text>
		<polygon class="st9" points="209.9,36.3 197.9,36.3 203.9,26.8 		"/>
	</g>
	<g>
		<circle class="st0" cx="203.9" cy="229.7" r="60"/>
		<path class="st2" d="M164.9,247.4c6.7,14.8,21.7,25.2,39,25.2s32.3-10.3,39-25.2H164.9z"/>
		<path class="st1" d="M242.9,247.4c2.5-5.4,3.8-11.4,3.8-17.7c0-23.7-19.2-42.9-42.8-42.9c-23.7,0-42.9,19.2-42.9,42.8
			c0,6.3,1.4,12.3,3.8,17.7H242.9z"/>
		<g>
			<g>
				<path class="st3" d="M195.3,229.3v0.9h17.1v-0.9H195.3z M203.5,228h0.9v-0.9h-0.9V228z M204.3,225h-0.9v0.9h0.9V225z
					 M204.3,222.8h-0.9v0.9h0.9V222.8z M204.3,220.7h-0.9v0.9h0.9V220.7z M208.2,218.5h-8.6v0.9h8.6V218.5z M203.5,217.3h0.9v-0.9
					h-0.9V217.3z M204.3,214.3h-0.9v0.9h0.9V214.3z M204.3,212.1h-0.9v0.9h0.9V212.1z M204.3,210h-0.9v0.9h0.9V210z M208.2,207.8
					h-8.6v0.9h8.6V207.8z M203.5,206.5h0.9v-0.9h-0.9V206.5z M204.3,203.5h-0.9v0.9h0.9V203.5z M204.3,201.4h-0.9v0.9h0.9V201.4z
					 M204.3,199.3h-0.9v0.9h0.9V199.3z M208.2,197.1h-8.6v0.9h8.6V197.1z M204.3,195h-0.9v0.9h0.9V195z M204.3,192.8h-0.9v0.9h0.9
					V192.8z M204.3,190.7h-0.9v0.9h0.9V190.7z M204.3,188.5h-0.9v0.9h0.9V188.5z M204.3,231.4h-0.9v0.9h0.9V231.4z M203.5,234.4h0.9
					v-0.9h-0.9V234.4z M203.5,236.5h0.9v-0.9h-0.9V236.5z M203.5,238.7h0.9v-0.9h-0.9V238.7z M199.6,240.8h8.6V240h-8.6V240.8z
					 M204.3,242.1h-0.9v0.9h0.9V242.1z M203.5,245.1h0.9v-0.9h-0.9V245.1z M203.5,247.3h0.9v-0.9h-0.9V247.3z M203.5,249.4h0.9v-0.9
					h-0.9V249.4z M199.6,251.5h8.6v-0.9h-8.6V251.5z M204.3,252.8h-0.9v0.9h0.9V252.8z M203.5,255.8h0.9V255h-0.9V255.8z M203.5,258
					h0.9v-0.9h-0.9V258z M203.5,260.1h0.9v-0.9h-0.9V260.1z M199.6,262.3h8.6v-0.9h-8.6V262.3z M203.5,264.4h0.9v-0.9h-0.9V264.4z
					 M203.5,266.5h0.9v-0.9h-0.9V266.5z M203.5,268.7h0.9v-0.9h-0.9V268.7z M203.5,270.8h0.9V270h-0.9V270.8z"/>
			</g>
		</g>
		<path class="st4" d="M225.4,228.6h-0.2c0,0,0.1-0.2,0.1-0.2v-0.2c0-0.1-0.2,0-0.4,0h-1.3c-0.1,0-0.1-0.1-0.1,0v0.2
			c0,0-0.1,0.2-0.1,0.2h-0.2c-0.1,0-0.1-0.1-0.1,0v0.8h-10.3v-0.6c0-0.7-0.7-1.1-1.4-1.1h-3.7c-0.1,0-0.2-0.1-0.3-0.2l-1.8-1.7
			c-0.2-0.2-0.4-0.2-0.6-0.2h-2.7c-0.2,0-0.4,0-0.6,0.2l-1.8,1.8c-0.1,0.1-0.2,0.2-0.3,0.2h-3.7c-0.7,0-1.2,0.4-1.2,1.1v0.6h-10.3
			v-0.8c0-0.1-0.2,0-0.3,0h-0.2c0,0,0.1-0.2,0.1-0.2v-0.2c0-0.1-0.2,0-0.4,0h-1.3c-0.1,0-0.1-0.1-0.1,0v0.2c0,0-0.1,0.2-0.1,0.2
			h-0.2c-0.1,0-0.1-0.1-0.1,0v2.6c0,0.1,0,0.4,0.1,0.4h2.1c0.1,0,0.3-0.3,0.3-0.4v-0.4h10.3v0.7c0,0.2,0.1,0.6,0.3,0.6h17.1
			c0.2,0,0.6-0.4,0.6-0.6v-0.7h10.3v0.4c0,0.1,0,0.4,0.1,0.4h2.1c0.1,0,0.3-0.3,0.3-0.4v-2.6C225.8,228.5,225.5,228.6,225.4,228.6z
			 M197.9,232h12"/>
		<path class="st5" d="M203.9,171.8c-32,0-57.9,25.9-57.9,57.9s25.9,57.9,57.9,57.9s57.9-25.9,57.9-57.9S235.9,171.8,203.9,171.8z
			 M203.9,274.7c-24.9,0-45-20.1-45-45c0-24.9,20.1-45,45-45c24.9,0,45,20.1,45,45C248.9,254.5,228.8,274.7,203.9,274.7z"/>
		<text transform="matrix(1 0 0 1 199.5708 182.7238)" class="st4 st6 st7">N</text>
		<text transform="matrix(1 0 0 1 199.9019 285.7961)" class="st4 st6 st7">S</text>
		<text transform="matrix(1 0 0 1 148.0229 232.093)" class="st4 st6 st7">w</text>
		<text transform="matrix(1 0 0 1 251.1157 232.093)" class="st4 st6 st7">E</text>
		<text transform="matrix(0.7071 0.7071 -0.7071 0.7071 231.6684 190.9963)" class="st4 st6 st8">NE</text>
		<text transform="matrix(0.7071 0.7071 -0.7071 0.7071 158.0958 262.6879)" class="st4 st6 st8">SW</text>
		<text transform="matrix(0.7071 -0.7071 0.7071 0.7071 163.2769 203.9336)" class="st4 st6 st8">WN</text>
		<text transform="matrix(0.7071 -0.7071 0.7071 0.7071 237.3183 275.1576)" class="st4 st6 st8">SE</text>
		<polygon class="st9" points="209.9,196.3 197.9,196.3 203.9,186.8 		"/>
	</g>
	<g>
		<path class="st4" d="M89,212.2c-3.7,0.9-25.6,12.6-27.5,14.2c-2.2,1.4-5.1,1.8-8.5,0.8s-9.8-3.6-11-4.1c-0.9-0.4-2.1-0.7-3.4-0.2
			c-1.3,0.6-2.6,1.4-2.6,1.4l10.8,10.6l-4.9,3.5c0,0,0.1,0.5,0.6,1.5c0.2,0.4,21.4-4.8,32.3-10.3c0.9-0.5,1.3,0.7,3.6,0
			c1-0.4,5.5-2.6,6.4-3.3c0.4-0.3-0.2-1-0.7-2c1.4-1.2,14.4-7.6,15.9-11C101,210.9,92.3,211,89,212.2z"/>
		<rect x="42.4" y="244" class="st4" width="52.9" height="4.6"/>
	</g>
	<g>
		<path class="st4" d="M69.8,80.5c1,0.5,6,2.7,7.2,2.9c0.5,0.1,0.7-0.9,1.1-2c2,0.3,16.4,6.4,20.2,5.3c2.7-0.9-3.6-8-6.8-9.8
			c-3.3-2.4-28.4-12-31-12.5c-2.7-0.8-5.1-2.9-6.7-6.4c-1.6-3.5-4-10.5-4.4-11.9c-0.4-1-0.8-2.2-2.3-2.9c-1.4-0.7-2.9-1.1-2.9-1.1
			l-1,16.3l-6.3-1.6c0,0-0.3,0.4-0.8,1.5c-0.2,0.5,19,14.1,31.2,19.1C68.3,78,67.6,79.2,69.8,80.5z"/>
		<rect x="43" y="92.8" class="st4" width="57.1" height="5"/>
	</g>
</g>
</svg>
