<?xml version="1.0" encoding="utf-8"?>
<!-- Generator: Adobe Illustrator 21.0.2, SVG Export Plug-In . SVG Version: 6.00 Build 0)  -->
<svg version="1.1" id="图层_1" xmlns="http://www.w3.org/2000/svg" xmlns:xlink="http://www.w3.org/1999/xlink" x="0px" y="0px"
	 viewBox="0 0 300 300" style="enable-background:new 0 0 300 300;" xml:space="preserve">
<style type="text/css">
	.st0{opacity:0.9;fill-rule:evenodd;clip-rule:evenodd;fill:#1E2328;}
	.st1{opacity:0.75;fill-rule:evenodd;clip-rule:evenodd;fill:#2EBBD9;}
	.st2{opacity:0.2;fill-rule:evenodd;clip-rule:evenodd;fill:#10EBBF;}
	.st3{fill-rule:evenodd;clip-rule:evenodd;fill:#FFFFFF;}
	.st4{fill:#FFFFFF;}
	.st5{opacity:0.5;fill-rule:evenodd;clip-rule:evenodd;fill:#698596;}
	.st6{font-family:'Arial-BoldMT';}
	.st7{font-size:12px;}
	.st8{font-size:12.0001px;}
	.st9{opacity:0.9;fill-rule:evenodd;clip-rule:evenodd;fill:#E43A3D;}
</style>
<g>
	<g>
		<circle class="st0" cx="208.2" cy="69.7" r="60"/>
		<g>
			<path class="st1" d="M248.5,84.3C217.7,73.1,198.9,66.3,168,55c8.1-22.2,32.7-33.7,54.9-25.6S256.6,62.1,248.5,84.3z"/>
			<path class="st2" d="M248.5,84.3C217.7,73.1,198.9,66.3,168,55c-8.1,22.2,3.4,46.8,25.6,54.9S240.4,106.6,248.5,84.3z"/>
		</g>
		<g>
			<g>
				<path class="st3" d="M199.7,69.3v0.9h17.1v-0.9H199.7z M207.8,68h0.9v-0.9h-0.9V68z M208.7,65h-0.9v0.9h0.9V65z M208.7,62.8
					h-0.9v0.9h0.9V62.8z M208.7,60.7h-0.9v0.9h0.9V60.7z M212.5,58.5H204v0.9h8.6V58.5z M207.8,57.3h0.9v-0.9h-0.9V57.3z
					 M208.7,54.3h-0.9v0.9h0.9V54.3z M208.7,52.1h-0.9V53h0.9V52.1z M208.7,50h-0.9v0.9h0.9V50z M212.5,47.8H204v0.9h8.6V47.8z
					 M207.8,46.5h0.9v-0.9h-0.9V46.5z M208.7,43.5h-0.9v0.9h0.9V43.5z M208.7,41.4h-0.9v0.9h0.9V41.4z M208.7,39.3h-0.9v0.9h0.9
					V39.3z M212.5,37.1H204V38h8.6V37.1z M208.7,35h-0.9v0.9h0.9V35z M208.7,32.8h-0.9v0.9h0.9V32.8z M208.7,30.7h-0.9v0.9h0.9V30.7
					z M208.7,28.5h-0.9v0.9h0.9V28.5z M208.7,71.4h-0.9v0.9h0.9V71.4z M207.8,74.4h0.9v-0.9h-0.9V74.4z M207.8,76.5h0.9v-0.9h-0.9
					V76.5z M207.8,78.7h0.9v-0.9h-0.9V78.7z M204,80.8h8.6V80H204V80.8z M208.7,82.1h-0.9V83h0.9V82.1z M207.8,85.1h0.9v-0.9h-0.9
					V85.1z M207.8,87.3h0.9v-0.9h-0.9V87.3z M207.8,89.4h0.9v-0.9h-0.9V89.4z M204,91.5h8.6v-0.9H204V91.5z M208.7,92.8h-0.9v0.9
					h0.9V92.8z M207.8,95.8h0.9V95h-0.9V95.8z M207.8,98h0.9v-0.9h-0.9V98z M207.8,100.1h0.9v-0.9h-0.9V100.1z M204,102.3h8.6v-0.9
					H204V102.3z M207.8,104.4h0.9v-0.9h-0.9V104.4z M207.8,106.5h0.9v-0.9h-0.9V106.5z M207.8,108.7h0.9v-0.9h-0.9V108.7z
					 M207.8,110.8h0.9V110h-0.9V110.8z"/>
			</g>
		</g>
		<path class="st4" d="M229.8,68.6h-0.2c0,0,0.1-0.2,0.1-0.2v-0.2c0-0.1-0.2,0-0.4,0H228c-0.1,0-0.1-0.1-0.1,0v0.2
			c0,0-0.1,0.2-0.1,0.2h-0.2c-0.1,0-0.1-0.1-0.1,0v0.8h-10.3v-0.6c0-0.7-0.7-1.1-1.4-1.1h-3.7c-0.1,0-0.2-0.1-0.3-0.2l-1.8-1.7
			c-0.2-0.2-0.4-0.2-0.6-0.2h-2.7c-0.2,0-0.4,0-0.6,0.2l-1.8,1.8c-0.1,0.1-0.2,0.2-0.3,0.2h-3.7c-0.7,0-1.2,0.4-1.2,1.1v0.6H189
			v-0.8c0-0.1-0.2,0-0.3,0h-0.2c0,0,0.1-0.2,0.1-0.2v-0.2c0-0.1-0.2,0-0.4,0h-1.3c-0.1,0-0.1-0.1-0.1,0v0.2c0,0-0.1,0.2-0.1,0.2
			h-0.2c-0.1,0-0.1-0.1-0.1,0v2.6c0,0.1,0,0.4,0.1,0.4h2.1c0.1,0,0.3-0.3,0.3-0.4v-0.4h10.3v0.7c0,0.2,0.1,0.6,0.3,0.6h17.1
			c0.2,0,0.6-0.4,0.6-0.6v-0.7h10.3v0.4c0,0.1,0,0.4,0.1,0.4h2.1c0.1,0,0.3-0.3,0.3-0.4v-2.6C230.1,68.5,229.9,68.6,229.8,68.6z
			 M202.2,72h12"/>
		<path class="st5" d="M208.2,11.8c-32,0-57.9,25.9-57.9,57.9s25.9,57.9,57.9,57.9s57.9-25.9,57.9-57.9S240.2,11.8,208.2,11.8z
			 M208.2,114.7c-24.9,0-45-20.1-45-45s20.1-45,45-45c24.9,0,45,20.1,45,45S233.1,114.7,208.2,114.7z"/>
		<text transform="matrix(1 0 0 1 203.9111 22.7243)" class="st4 st6 st7">N</text>
		<text transform="matrix(1 0 0 1 204.2422 125.7961)" class="st4 st6 st7">S</text>
		<text transform="matrix(1 0 0 1 152.3633 72.0934)" class="st4 st6 st7">w</text>
		<text transform="matrix(1 0 0 1 255.456 72.0934)" class="st4 st6 st7">E</text>
		<text transform="matrix(0.7071 0.7071 -0.7071 0.7071 236.0069 30.9946)" class="st4 st6 st8">NE</text>
		<text transform="matrix(0.7071 0.7071 -0.7071 0.7071 162.4343 102.6862)" class="st4 st6 st8">SW</text>
		<text transform="matrix(0.7071 -0.7071 0.7071 0.7071 167.6154 43.9319)" class="st4 st6 st8">WN</text>
		<text transform="matrix(0.7071 -0.7071 0.7071 0.7071 241.6568 115.1559)" class="st4 st6 st8">SE</text>
		<polygon class="st9" points="214.2,36.3 202.2,36.3 208.2,26.8 		"/>
	</g>
	<g>
		<circle class="st0" cx="208.2" cy="229.7" r="60"/>
		<g>
			<path class="st1" d="M248.5,215c-30.8,11.2-49.7,18.1-80.5,29.3c-8.1-22.2,3.4-46.8,25.6-54.9S240.4,192.8,248.5,215z"/>
			<path class="st2" d="M248.5,215c-30.8,11.2-49.7,18.1-80.5,29.3c8.1,22.2,32.7,33.7,54.9,25.6C245.1,261.9,256.6,237.3,248.5,215
				z"/>
		</g>
		<g>
			<g>
				<path class="st3" d="M199.7,229.3v0.9h17.1v-0.9H199.7z M207.8,228h0.9v-0.9h-0.9V228z M208.7,225h-0.9v0.9h0.9V225z
					 M208.7,222.8h-0.9v0.9h0.9V222.8z M208.7,220.7h-0.9v0.9h0.9V220.7z M212.5,218.5H204v0.9h8.6V218.5z M207.8,217.3h0.9v-0.9
					h-0.9V217.3z M208.7,214.3h-0.9v0.9h0.9V214.3z M208.7,212.1h-0.9v0.9h0.9V212.1z M208.7,210h-0.9v0.9h0.9V210z M212.5,207.8
					H204v0.9h8.6V207.8z M207.8,206.5h0.9v-0.9h-0.9V206.5z M208.7,203.5h-0.9v0.9h0.9V203.5z M208.7,201.4h-0.9v0.9h0.9V201.4z
					 M208.7,199.3h-0.9v0.9h0.9V199.3z M212.5,197.1H204v0.9h8.6V197.1z M208.7,195h-0.9v0.9h0.9V195z M208.7,192.8h-0.9v0.9h0.9
					V192.8z M208.7,190.7h-0.9v0.9h0.9V190.7z M208.7,188.5h-0.9v0.9h0.9V188.5z M208.7,231.4h-0.9v0.9h0.9V231.4z M207.8,234.4h0.9
					v-0.9h-0.9V234.4z M207.8,236.5h0.9v-0.9h-0.9V236.5z M207.8,238.7h0.9v-0.9h-0.9V238.7z M204,240.8h8.6V240H204V240.8z
					 M208.7,242.1h-0.9v0.9h0.9V242.1z M207.8,245.1h0.9v-0.9h-0.9V245.1z M207.8,247.3h0.9v-0.9h-0.9V247.3z M207.8,249.4h0.9v-0.9
					h-0.9V249.4z M204,251.5h8.6v-0.9H204V251.5z M208.7,252.8h-0.9v0.9h0.9V252.8z M207.8,255.8h0.9V255h-0.9V255.8z M207.8,258
					h0.9v-0.9h-0.9V258z M207.8,260.1h0.9v-0.9h-0.9V260.1z M204,262.3h8.6v-0.9H204V262.3z M207.8,264.4h0.9v-0.9h-0.9V264.4z
					 M207.8,266.5h0.9v-0.9h-0.9V266.5z M207.8,268.7h0.9v-0.9h-0.9V268.7z M207.8,270.8h0.9V270h-0.9V270.8z"/>
			</g>
		</g>
		<path class="st4" d="M229.8,228.6h-0.2c0,0,0.1-0.2,0.1-0.2v-0.2c0-0.1-0.2,0-0.4,0H228c-0.1,0-0.1-0.1-0.1,0v0.2
			c0,0-0.1,0.2-0.1,0.2h-0.2c-0.1,0-0.1-0.1-0.1,0v0.8h-10.3v-0.6c0-0.7-0.7-1.1-1.4-1.1h-3.7c-0.1,0-0.2-0.1-0.3-0.2l-1.8-1.7
			c-0.2-0.2-0.4-0.2-0.6-0.2h-2.7c-0.2,0-0.4,0-0.6,0.2l-1.8,1.8c-0.1,0.1-0.2,0.2-0.3,0.2h-3.7c-0.7,0-1.2,0.4-1.2,1.1v0.6H189
			v-0.8c0-0.1-0.2,0-0.3,0h-0.2c0,0,0.1-0.2,0.1-0.2v-0.2c0-0.1-0.2,0-0.4,0h-1.3c-0.1,0-0.1-0.1-0.1,0v0.2c0,0-0.1,0.2-0.1,0.2
			h-0.2c-0.1,0-0.1-0.1-0.1,0v2.6c0,0.1,0,0.4,0.1,0.4h2.1c0.1,0,0.3-0.3,0.3-0.4v-0.4h10.3v0.7c0,0.2,0.1,0.6,0.3,0.6h17.1
			c0.2,0,0.6-0.4,0.6-0.6v-0.7h10.3v0.4c0,0.1,0,0.4,0.1,0.4h2.1c0.1,0,0.3-0.3,0.3-0.4v-2.6C230.1,228.5,229.9,228.6,229.8,228.6z
			 M202.2,232h12"/>
		<path class="st5" d="M208.2,171.8c-32,0-57.9,25.9-57.9,57.9s25.9,57.9,57.9,57.9s57.9-25.9,57.9-57.9S240.2,171.8,208.2,171.8z
			 M208.2,274.7c-24.9,0-45-20.1-45-45c0-24.9,20.1-45,45-45c24.9,0,45,20.1,45,45C253.2,254.5,233.1,274.7,208.2,274.7z"/>
		<text transform="matrix(1 0 0 1 203.9111 182.7243)" class="st4 st6 st7">N</text>
		<text transform="matrix(1 0 0 1 204.2422 285.7961)" class="st4 st6 st7">S</text>
		<text transform="matrix(1 0 0 1 152.3633 232.0934)" class="st4 st6 st7">w</text>
		<text transform="matrix(1 0 0 1 255.456 232.0934)" class="st4 st6 st7">E</text>
		<text transform="matrix(0.7071 0.7071 -0.7071 0.7071 236.0069 190.9946)" class="st4 st6 st8">NE</text>
		<text transform="matrix(0.7071 0.7071 -0.7071 0.7071 162.4343 262.6862)" class="st4 st6 st8">SW</text>
		<text transform="matrix(0.7071 -0.7071 0.7071 0.7071 167.6154 203.9319)" class="st4 st6 st8">WN</text>
		<text transform="matrix(0.7071 -0.7071 0.7071 0.7071 241.6568 275.1559)" class="st4 st6 st8">SE</text>
		<polygon class="st9" points="214.2,196.3 202.2,196.3 208.2,186.8 		"/>
	</g>
	<path class="st4" d="M117.2,55.3l8.6-4.8l-3.1-1.4L87.8,65.4c-2.3-4-7.1-5.9-11.4-4.3c-4.3,1.6-6.7,6.1-5.9,10.6l-37.2,9.9
		l-1.5,3.1l9.6-1.9c-1.3,0.8-1.9,2.2-1.5,3.4c0.5,1.4,2.3,2.1,4,1.5c1.7-0.6,2.7-2.3,2.2-3.7c-0.3-0.9-1.1-1.5-2.1-1.6l15.8-3.1
		c-0.8,0.7-1.1,1.9-0.7,3c0.5,1.4,2.1,2.2,3.4,1.7c1.4-0.5,2.1-2.1,1.6-3.5c-0.3-0.8-0.9-1.4-1.6-1.7l10.5-2
		c2.5,2.8,6.5,3.9,10.1,2.6c3.6-1.3,5.9-4.7,6.1-8.5l9.2-5.1c-0.4,0.7-0.5,1.5-0.2,2.3c0.5,1.4,2.1,2.2,3.4,1.7
		c1.4-0.5,2.1-2.1,1.6-3.5c-0.4-1.1-1.4-1.8-2.4-1.8l14.1-7.8c-0.6,0.8-0.9,1.7-0.5,2.6c0.5,1.4,2.3,2.1,4,1.5
		c1.7-0.6,2.7-2.3,2.2-3.7C120,55.7,118.6,55.1,117.2,55.3z M78.7,67.4c-1.9,0.7-3.6,1.5-5,2.4l-0.2-1.7l9.7-3.5l1,1.4
		C82.4,66.3,80.6,66.7,78.7,67.4z"/>
	<path class="st4" d="M118.8,242.9l9.6,1.9l-1.5-3.1l-37.1-9.9c0.8-4.5-1.6-9.1-5.9-10.6c-4.3-1.6-9.1,0.4-11.4,4.4l-34.9-16.3
		l-3.1,1.4l8.6,4.8c-1.5-0.2-2.8,0.4-3.3,1.6c-0.5,1.4,0.4,3.1,2.2,3.7c1.7,0.6,3.5,0,4-1.5c0.3-0.9,0.1-1.8-0.5-2.6l14.1,7.8
		c-1.1,0-2,0.7-2.4,1.8c-0.5,1.4,0.2,3,1.6,3.5c1.4,0.5,2.9-0.2,3.4-1.7c0.3-0.8,0.2-1.7-0.2-2.3l9.3,5.2c0.2,3.7,2.4,7.1,6.1,8.5
		c3.6,1.3,7.6,0.2,10.1-2.6l10.3,2c-0.7,0.3-1.3,0.9-1.6,1.7c-0.5,1.4,0.2,3,1.6,3.5c1.4,0.5,2.9-0.2,3.4-1.7c0.4-1.1,0.1-2.2-0.7-3
		l15.8,3.1c-1,0.2-1.8,0.8-2.1,1.6c-0.5,1.4,0.4,3.1,2.2,3.7c1.7,0.6,3.5,0,4-1.5C120.7,245,120,243.6,118.8,242.9z M81.6,227.4
		c-1.9-0.7-3.7-1.1-5.4-1.4l1-1.4l9.7,3.5l-0.2,1.7C85.1,228.9,83.4,228.1,81.6,227.4z"/>
</g>
</svg>
