<?xml version="1.0" encoding="utf-8"?>
<!-- Generator: Adobe Illustrator 21.0.2, SVG Export Plug-In . SVG Version: 6.00 Build 0)  -->
<svg version="1.1" id="图层_1" xmlns="http://www.w3.org/2000/svg" xmlns:xlink="http://www.w3.org/1999/xlink" x="0px" y="0px"
	 viewBox="0 0 1000 320" style="enable-background:new 0 0 1000 320;" xml:space="preserve">
<style type="text/css">
	.st0{fill:#9FA0A0;stroke:#9FA0A0;stroke-miterlimit:10;}
	.st1{fill:#FFFFFF;stroke:#9FA0A0;stroke-miterlimit:10;}
	.st2{fill:#666464;stroke:#9FA0A0;stroke-miterlimit:10;}
	.st3{opacity:0.3;fill:#9B9B9B;}
	.st4{fill:none;stroke:#EB6100;stroke-width:2;stroke-miterlimit:10;}
	.st5{fill:#EB6100;}
	.st6{fill:#698596;}
	.st7{fill:none;}
	.st8{fill:none;stroke:#FFFFFF;stroke-miterlimit:10;}
</style>
<g>
	<g>
		<polygon class="st0" points="577.5,307.3 697.5,266.3 695.1,255.6 578.7,297.8 575.5,303.6 		"/>
		<path class="st1" d="M573.1,307.8c4.3-11.5,3.4-12,6.9-12.9c5.2-2,148.2-60.8,148.2-60.8l-9.5,25.9l-29.9,8.9l3.5-7.7l-112,38.6
			l-2.8,7.5c0,0-1.7,0.4-3.9,1C573.3,308.4,573,308.1,573.1,307.8z"/>
		<polygon class="st0" points="826.4,208.2 821.2,215.5 820.9,205.9 945.4,148 944.9,152.5 		"/>
		<path class="st2" d="M580.3,313.2l111.1-37.8c0.4-0.1,0.7-0.4,0.7-0.8l2.7-14.2l-114.5,39.4l-0.7,12.9
			C579.6,313,579.9,313.3,580.3,313.2z"/>
		<path class="st1" d="M768.4,182.7c-9.5,5.4-25.7,11.9-34.1,28.4c-4.3,8.4-12,27.2-18.6,43.7l-28.9-38.2c0,0-2.7-4-4.9-0.4
			s-4.3,7.2-4.3,7.2c1,2.8,16.8,41.7,26.3,61.3c0,0,0,0,0,0l6.8,15c0.4,0.9,1.6,1.3,2.4,0.7c8.3-5.6,39.3-34.3,58.9-56.4
			c10.1-14.2,12.8-20.1,11.3-40.4C780.1,186.9,778.8,176.2,768.4,182.7z"/>
		<path class="st1" d="M764.9,239.9c1.2-4.7,7.2-23.7,12.3-24.7c3.7-2.6,171.2-72.5,173-72.8c4-2,3.8,2,2.1,5.1
			c-1.7,3.1-4.3,7.6-4.3,7.6l-5.5,3.1c-0.1,0.1-0.3,0-0.3-0.2l1.4-7.4l-120.4,56.2l-1.9,8.8l-55.8,24.8
			C765.1,240.4,764.8,240.2,764.9,239.9z"/>
		<path class="st2" d="M817.1,207.6l8.9,3.5l116.6-55.2l0.6-3.1l-3.3-2.4c-0.3-0.2-0.7-0.2-1-0.1L817,207.1
			C816.8,207.2,816.8,207.5,817.1,207.6z"/>
		<path class="st3" d="M680.6,230.7c0,0,18.3,44.2,23,53.3c3.2-5.5,7.3-16.6,7.3-16.6l-25.8-44.6L680.6,230.7z"/>
		<path class="st3" d="M738.8,205.6c-2.1,0.5,11.9-13.2,23.9-18.4c3.6,0.7,5,8.4,4.9,9.3s-0.7,2.7-2,3.8s-8,6.7-8.3,7.1
			c-0.3,0.4-1.6,1.4-3,0C753,206,749.3,203.3,738.8,205.6z"/>
	</g>
	<g>
		<g>
			<line class="st4" x1="46.6" y1="137.1" x2="46.6" y2="41.4"/>
			<g>
				<polygon class="st5" points="56.6,44.3 46.6,27.1 36.7,44.3 				"/>
			</g>
		</g>
	</g>
	<g>
		<g>
			<line class="st4" x1="596.6" y1="259.7" x2="596.6" y2="164.1"/>
			<g>
				<polygon class="st5" points="606.6,256.8 596.6,274.1 586.7,256.8 				"/>
			</g>
		</g>
	</g>
	<path class="st6" d="M632.6,102.9c-27.8,18.1-35.7,55.2-17.6,83c7.1,10.9,17.1,18.7,28.3,23.1l1.2,23.3l13.5-19.5
		c13.5,1.7,27.7-1.2,40-9.2c27.8-18.1,35.7-55.2,17.6-83C697.5,92.7,660.3,84.8,632.6,102.9z"/>
	<ellipse transform="matrix(0.8385 -0.5449 0.5449 0.8385 23.9449 387.2257)" class="st7" cx="665.2" cy="153.2" rx="60" ry="60"/>
	<path class="st6" d="M223.6,95.1c-16.2,28.9-52.8,39.2-81.7,23c-11.3-6.3-19.8-15.8-24.9-26.7l-23.3,0.3L112.3,77
		c-2.5-13.4-0.6-27.7,6.6-40.5c16.2-28.9,52.8-39.2,81.7-23S239.8,66.2,223.6,95.1z"/>
	<path class="st7" d="M223.6,95.1c-16.2,28.9-52.8,39.2-81.7,23c-11.3-6.3-19.8-15.8-24.9-26.7l-23.3,0.3L112.3,77
		c-2.5-13.4-0.6-27.7,6.6-40.5c16.2-28.9,52.8-39.2,81.7-23S239.8,66.2,223.6,95.1z"/>
	<path class="st0" d="M155.8,58.5L140.4,67l-1,11.1l82,20.6c0.8-1.2,1.5-2.4,2.2-3.6c3.5-6.2,5.7-12.7,6.8-19.3L155.8,58.5z"/>
	<g>
		<polygon class="st0" points="57.1,93.3 157.6,170.6 165.1,162.7 65.6,89 59.1,89.6 		"/>
		<path class="st1" d="M54.2,89.9c12-2.8,11.9-3.8,14.6-1.4c4.6,3.3,132.6,89.9,132.6,89.9l-26.8,6.3l-24-20l8.3-1.3l-94.1-72
			l-7.8,1.8c0,0-1.3-1.2-3-2.7C53.8,90.4,53.9,90,54.2,89.9z"/>
		<polygon class="st0" points="277.3,245.9 269.5,245.6 276.1,240 393.2,311.8 389.2,313.9 		"/>
		<path class="st2" d="M62.2,94.5l92.9,71.7c0.3,0.2,0.7,0.3,1.1,0.1l8-11.4l-96.6-72l-5.5,10.7C61.9,93.8,61.9,94.2,62.2,94.5z"/>
		<path class="st1" d="M266.4,183.5c-9.8-4.9-24.1-14.8-42.5-12.7c-9.3,1.1-29.3,5-46.7,8.6l15.9-45.2c0,0,1.8-4.4-2.4-4.3
			c-4.3,0.1-8.3,0.4-8.3,0.4c-1.8,2.4-25.4,37.1-36.5,55.8c0,0,0,0,0,0l-8.7,14c-0.5,0.9-0.2,2,0.8,2.4c9.2,3.8,50.3,13.8,79.5,17.9
			c17.4,0.5,23.8-0.5,39.9-12.9C269.4,195.6,277.6,188.5,266.4,183.5z"/>
		<path class="st1" d="M216.8,212.2c4.6-1.6,23.7-7.1,27.3-3.4c4.2,1.7,155.1,102.6,156.3,103.9c3.9,2.2,0.5,4.3-3.1,4.6
			c-3.5,0.3-8.7,0.6-8.7,0.6l-5.6-2.9c-0.1-0.1-0.1-0.3,0-0.4l6.9-2.9l-113.4-69.3l-8.4,3.2l-51.5-32.7
			C216.5,212.7,216.6,212.3,216.8,212.2z"/>
		<path class="st2" d="M270.8,249.7l5.9-6.4l111.9,68.3l-2.5,8.4c-0.2,0.3-0.5,0.4-0.8,0.2l-114.5-70
			C270.6,250.1,270.7,249.8,270.8,249.7z"/>
		<path class="st3" d="M177.9,136.9c0,0-26.7,39.7-31.6,48.7c6.3-0.3,17.8-3.1,17.8-3.1l22.9-46.2L177.9,136.9z"/>
		<path class="st3" d="M231,171.5c-1.5-1.5,17.6,2.6,28.5,9.7c1.4,3.4-4.2,8.8-5,9.3c-0.8,0.5-2.7,0.9-4.3,0.4c-1.7-0.5-10-3-10.5-3
			s-2.1-0.6-1.6-2.5C238.5,183.6,238.7,178.9,231,171.5z"/>
	</g>
	<path class="st1" d="M128.8,72.7c-0.8,0.6-0.6,1.7,0.3,2c6,1.9,10.3,3.4,10.3,3.4l17.2-12.8l72.1,17.9c1.6-5.4,2.5-10.9,2.6-16.3
		c-38.1-7.2-64.6-12.3-68.2-13C153.8,50.8,155.2,53.3,128.8,72.7z"/>
	<path class="st2" d="M152.4,73.4c-0.6,0.8-0.2,1.9,0.8,2.1l71.3,18c5.7-10.9,7.7-22.8,6.5-34.2l-76.6-18L152.4,73.4z"/>
	<path class="st8" d="M223.6,95.1c-16.2,28.9-52.8,39.2-81.7,23c-11.3-6.3-19.8-15.8-24.9-26.7l-23.3,0.3L112.3,77
		c-2.5-13.4-0.6-27.7,6.6-40.5c16.2-28.9,52.8-39.2,81.7-23S239.8,66.2,223.6,95.1z"/>
	<path class="st0" d="M636.2,145.5l0.9,9.9l87.5,5.7c1-7.2,0.6-14.7-1.1-21.9l-75.3-3.5L636.2,145.5z"/>
	<path class="st2" d="M636.9,169c-0.4,0.8,0.2,1.7,1,1.7l82.8,5.5c3.9-9.4,5.4-19.8,4.2-30l-74.7-4.7L636.9,169z"/>
	<path class="st1" d="M627.1,152.4c-0.6,0.6-0.2,1.6,0.6,1.7c5.5,0.7,9.5,1.3,9.5,1.3l12.9-13.9l74.7,4.7
		c-0.6-5.1-1.9-10.3-3.8-15.2c-37.3-0.2-63.6-0.4-67-0.5C645.3,129.3,647,131.3,627.1,152.4z"/>
	<path class="st8" d="M632.6,102.9c-27.8,18.1-35.7,55.2-17.6,83c7.1,10.9,17.1,18.7,28.3,23.1l1.2,23.3l13.5-19.5
		c13.5,1.7,27.7-1.2,40-9.2c27.8-18.1,35.7-55.2,17.6-83C697.5,92.7,660.3,84.8,632.6,102.9z"/>
</g>
</svg>
