<?xml version="1.0" encoding="utf-8"?>
<!-- Generator: Adobe Illustrator 21.0.2, SVG Export Plug-In . SVG Version: 6.00 Build 0)  -->
<svg version="1.1" id="图层_1" xmlns="http://www.w3.org/2000/svg" xmlns:xlink="http://www.w3.org/1999/xlink" x="0px" y="0px"
	 viewBox="0 0 1000 320" style="enable-background:new 0 0 1000 320;" xml:space="preserve">
<style type="text/css">
	.st0{fill:#9FA0A0;stroke:#9FA0A0;stroke-miterlimit:10;}
	.st1{fill:#FFFFFF;stroke:#9FA0A0;stroke-miterlimit:10;}
	.st2{fill:#666464;stroke:#9FA0A0;stroke-miterlimit:10;}
	.st3{opacity:0.3;fill:#9B9B9B;}
	.st4{fill:none;stroke:#EB6100;stroke-width:2;stroke-miterlimit:10;}
	.st5{fill:#EB6100;}
	.st6{fill:#698596;}
	.st7{fill:none;}
	.st8{fill:#FFFFFF;}
	.st9{fill:none;stroke:#FFFFFF;stroke-miterlimit:10;}
</style>
<g>
	<polygon class="st0" points="47.6,93.5 149.2,169.4 156.7,161.3 56.1,89.1 49.6,89.8 	"/>
	<path class="st1" d="M44.7,90.1c11.9-2.9,11.8-4,14.6-1.6c4.6,3.2,133.8,88,133.8,88l-26.7,6.7l-24.3-19.7l8.3-1.4L55.4,91.6
		l-7.8,1.9c0,0-1.3-1.1-3.1-2.6C44.3,90.7,44.4,90.2,44.7,90.1z"/>
	<polygon class="st0" points="270,243 260.9,242.8 268.7,237.1 386.8,307.2 382.9,309.3 	"/>
	<path class="st2" d="M44.3,99.1l94,70.3c0.3,0.2,0.7,0.3,1.1,0.1l13.2-5.8L55.4,91.6l-11,6.7C44,98.5,44,98.9,44.3,99.1z"/>
	<path class="st1" d="M258.2,180.8c-9.8-4.7-24.3-14.5-42.7-12.1c-9.3,1.2-29.2,5.4-46.6,9.3l15.2-45.4c0,0,1.8-4.4-2.5-4.2
		c-4.2,0.2-8.3,0.5-8.3,0.5c-1.7,2.4-24.9,37.4-35.7,56.3c0,0,0,0,0,0l-8.5,14.1c-0.5,0.9-0.1,2,0.8,2.4c9.3,3.7,50.5,13,79.8,16.8
		c17.4,0.3,23.8-0.8,39.7-13.5C261.4,192.7,269.5,185.6,258.2,180.8z"/>
	<path class="st1" d="M209.1,210.1c4.5-1.6,23.6-7.5,27.3-3.8c4.2,1.6,156.5,100.4,157.8,101.6c3.9,2.1,0.5,4.2-3,4.6
		c-3.5,0.4-8.7,0.7-8.7,0.7l-5.6-2.8c-0.2-0.1-0.1-0.3,0-0.4l6.9-3l-114.4-67.6l-8.3,3.4l-52-32
		C208.7,210.6,208.8,210.2,209.1,210.1z"/>
	<path class="st2" d="M265.2,234.9l2.2,9.3l111.3,65l2.9-1.3l0.1-4.1c0-0.4-0.2-0.7-0.5-0.9l-115.6-68.4
		C265.4,234.5,265.1,234.7,265.2,234.9z"/>
	<path class="st3" d="M169,135.4c0,0-26.1,40.1-30.9,49.1c6.3-0.4,17.8-3.4,17.8-3.4l22.2-46.5L169,135.4z"/>
	<path class="st3" d="M222.7,169.2c-1.6-1.5,17.7,2.4,28.7,9.3c1.5,3.3-4.1,8.8-4.9,9.3c-0.8,0.5-2.6,1-4.3,0.5
		c-1.7-0.5-10-2.8-10.5-2.8c-0.5,0-2.1-0.6-1.7-2.5C230.3,181.2,230.4,176.6,222.7,169.2z"/>
</g>
<g>
	<polygon class="st0" points="586.8,312.1 706.4,269.8 703.8,259.1 587.9,302.6 584.8,308.5 	"/>
	<path class="st1" d="M582.4,312.7c4.2-11.5,3.2-12,6.8-13c5.2-2.1,147.5-62.4,147.5-62.4l-9.3,26l-29.8,9.3l3.4-7.7l-111.6,39.8
		l-2.7,7.6c0,0-1.7,0.4-3.9,1.1C582.6,313.3,582.3,313,582.4,312.7z"/>
	<polygon class="st0" points="834.6,210.2 830.1,216.7 829.1,208 953,148.8 952.5,153.3 	"/>
	<path class="st2" d="M590.6,308.5l110.7-39.1c0.4-0.1,0.6-0.5,0.7-0.8l-5.2-13l-112.9,41.9l6,10.4
		C589.9,308.4,590.2,308.6,590.6,308.5z"/>
	<path class="st1" d="M776.4,185.4c-9.4,5.5-25.5,12.2-33.8,28.7c-4.2,8.4-11.7,27.3-18.2,43.9l-29.3-37.9c0,0-2.7-3.9-4.9-0.3
		s-4.2,7.2-4.2,7.2c1,2.8,17.3,41.5,27,61c0,0,0,0,0,0l7,14.9c0.4,0.9,1.6,1.2,2.4,0.7c8.2-5.7,38.9-34.7,58.3-57
		c9.9-14.3,12.5-20.2,10.9-40.5C788.1,189.5,786.6,178.8,776.4,185.4z"/>
	<path class="st1" d="M773.5,242.6c1.2-4.7,6.9-23.8,12-24.8c3.7-2.6,170.4-74.4,172.1-74.7c3.9-2.1,3.8,1.9,2.2,5.1
		c-1.7,3.1-4.2,7.6-4.2,7.6l-5.5,3.1c-0.1,0.1-0.3,0-0.3-0.2l1.3-7.4l-119.8,57.5l-1.8,8.8L774,243.1
		C773.7,243.2,773.4,242.9,773.5,242.6z"/>
	<path class="st2" d="M834.3,217.7l-2.2-8.4l118.1-56.8l5.7,6.7c0.2,0.4,0.1,0.7-0.2,0.8L834.6,218
		C834.5,218.1,834.3,217.9,834.3,217.7z"/>
	<path class="st3" d="M689.1,234.4c0,0,18.8,44,23.6,53c3.2-5.5,7.1-16.7,7.1-16.7l-26.3-44.3L689.1,234.4z"/>
	<path class="st3" d="M747,208.6c-2.1,0.5,11.8-13.4,23.7-18.6c3.6,0.6,5.1,8.3,5,9.3s-0.7,2.7-2,3.9c-1.3,1.1-7.9,6.7-8.2,7.1
		s-1.6,1.4-3,0C761.2,208.9,757.4,206.3,747,208.6z"/>
</g>
<g>
	<g>
		<line class="st4" x1="39.2" y1="136.8" x2="39.2" y2="41.1"/>
		<g>
			<polygon class="st5" points="49.1,44 39.2,26.8 29.2,44 			"/>
		</g>
	</g>
</g>
<g>
	<g>
		<line class="st4" x1="589.2" y1="266.4" x2="589.2" y2="170.8"/>
		<g>
			<polygon class="st5" points="599.1,263.5 589.2,280.8 579.2,263.5 			"/>
		</g>
	</g>
</g>
<path class="st6" d="M162,6.8c-33.1,0-60,26.9-60,60c0,13,4.1,25,11.1,34.8l-11.7,20.2l22-9c10.4,8.7,23.9,14,38.5,14
	c33.1,0,60-26.9,60-60S195.2,6.8,162,6.8z"/>
<circle class="st7" cx="162" cy="66.8" r="60"/>
<path class="st6" d="M723.5,187.4c2.5,33-22.2,61.9-55.2,64.4c-12.9,1-25.2-2.2-35.6-8.5l-19.2,13.2l7.3-22.6
	c-9.5-9.7-15.8-22.7-16.9-37.4c-2.5-33,22.2-61.9,55.2-64.4S721,154.4,723.5,187.4z"/>
<path class="st7" d="M723.5,187.4c2.5,33-22.2,61.9-55.2,64.4c-12.9,1-25.2-2.2-35.6-8.5l-19.2,13.2l7.3-22.6
	c-9.5-9.7-15.8-22.7-16.9-37.4c-2.5-33,22.2-61.9,55.2-64.4S721,154.4,723.5,187.4z"/>
<path class="st0" d="M218.6,86.8l-61.2-44l-15.5,1.7l-4.6,8.8l70.3,52.5C212.3,100.2,216.1,93.8,218.6,86.8z"/>
<path class="st8" d="M130.4,45.3c-0.8,0.2-1,1.2-0.4,1.8c4.2,3.6,7.3,6.3,7.3,6.3l18.4-4.6l60.1,44.6c2.3-4.6,4-9.6,5.1-14.8
	c-31.2-20.5-53.2-35-55.9-36.9C158.4,35.8,158.6,38.4,130.4,45.3z"/>
<path class="st2" d="M155.7,48.7l-26.1,15.8c-0.7,0.4-0.8,1.5-0.1,2l66.4,49.7c8.4-5.8,15.3-13.7,19.9-22.9L155.7,48.7z"/>
<path class="st9" d="M162,6.8c-33.1,0-60,26.9-60,60c0,13,4.1,25,11.1,34.8l-11.7,20.2l22-9c10.4,8.7,23.9,14,38.5,14
	c33.1,0,60-26.9,60-60S195.2,6.8,162,6.8z"/>
<path class="st0" d="M723.5,187.4c-0.5-7.1-2.3-13.7-5-19.9l-71.8,26.9l-8.1,15.6l5.4,9.8l79.7-28.3
	C723.6,190.2,723.6,188.8,723.5,187.4z"/>
<path class="st8" d="M632.1,221.3c-0.3,0.9,0.5,1.7,1.4,1.5c6-1.7,10.4-2.9,10.4-2.9l7.2-20.2l70-25c-1.6-5.4-3.9-10.4-6.9-15
	c-35.7,15.1-60.6,25.6-64,26.9C640.8,189.2,643.3,190.5,632.1,221.3z"/>
<path class="st2" d="M709.7,153.6L636,181l16.1,27.8c0,1,0.9,1.7,1.8,1.4l69.4-24.5C722,173.4,717.1,162.4,709.7,153.6z"/>
<path class="st9" d="M723.5,187.4c2.5,33-22.2,61.9-55.2,64.4c-12.9,1-25.2-2.2-35.6-8.5l-19.2,13.2l7.3-22.6
	c-9.5-9.7-15.8-22.7-16.9-37.4c-2.5-33,22.2-61.9,55.2-64.4S721,154.4,723.5,187.4z"/>
</svg>
