<?xml version="1.0" encoding="utf-8"?>
<!-- Generator: Adobe Illustrator 21.0.2, SVG Export Plug-In . SVG Version: 6.00 Build 0)  -->
<svg version="1.1" id="图层_1" xmlns="http://www.w3.org/2000/svg" xmlns:xlink="http://www.w3.org/1999/xlink" x="0px" y="0px"
	 viewBox="0 0 300 300" style="enable-background:new 0 0 300 300;" xml:space="preserve">
<style type="text/css">
	.st0{opacity:0.5;}
	.st1{fill:#2EBBD9;}
	.st2{fill:#FFFFFF;}
	.st3{opacity:0.9;fill:#1E2328;enable-background:new    ;}
	.st4{opacity:0.75;fill:#2EBBD9;enable-background:new    ;}
	.st5{opacity:0.2;fill:#10EBBF;enable-background:new    ;}
	.st6{opacity:0.5;fill:#698596;enable-background:new    ;}
	.st7{font-family:'Arial-BoldMT';}
	.st8{font-size:12px;}
	.st9{font-size:12.0001px;}
	.st10{font-family:'Exo-Bold';}
	.st11{font-size:16px;}
	.st12{opacity:0.9;fill:#E43A3D;enable-background:new    ;}
	.st13{fill:#698596;}
	.st14{font-size:21px;}
	.st15{fill:none;stroke:#FFFFFF;stroke-miterlimit:10;}
</style>
<g>
	<g>
		<g class="st0">
			<path class="st1" d="M76.9,119.3v40l19.5-34.9C90.6,121.2,83.9,119.3,76.9,119.3z"/>
		</g>
		<path class="st2" d="M96.7,185.8l3.2-5.5l-14.1-26.7l8.8-15.2c1.3-2.3,0.5-5.2-1.8-6.6c-2.3-1.3-5.2-0.5-6.6,1.8l-8.8,15.2
			l-30.2,1.1l-3.2,5.5l26.2,5.9l-8.8,15.2l-7.9,1l-2.4,4.2l11.3,2.8l8.1,8.4l2.4-4.2l-3.1-7.4l8.8-15.3L96.7,185.8z"/>
		<g>
			<path class="st1" d="M76.9,120.3c21.5,0,39,17.5,39,39s-17.5,39-39,39s-39-17.5-39-39S55.4,120.3,76.9,120.3 M76.9,119.3
				c-22.1,0-40,17.9-40,40s17.9,40,40,40s40-17.9,40-40S99,119.3,76.9,119.3L76.9,119.3z"/>
		</g>
	</g>
	<g>
		<circle class="st3" cx="196.9" cy="159" r="60"/>
		<g>
			<path class="st4" d="M239.7,159c-32.7,0-52.8,0-85.7,0c0-23.7,19.2-42.8,42.8-42.9C220.5,116.2,239.7,135.4,239.7,159z"/>
			<path class="st5" d="M239.7,159c-32.7,0-52.8,0-85.7,0c0,23.7,19.2,42.8,42.9,42.8C220.5,201.9,239.7,182.7,239.7,159z"/>
		</g>
		<g>
			<g>
				<path class="st2" d="M188.3,158.6v0.9h17.1v-0.9H188.3z M196.4,157.3h0.9v-0.9h-0.9V157.3z M197.3,154.3h-0.9v0.9h0.9V154.3z
					 M197.3,152.2h-0.9v0.8h0.9V152.2z M197.3,150h-0.9v0.9h0.9V150z M201.2,147.9h-8.6v0.9h8.6V147.9z M196.4,146.6h0.9v-0.9h-0.9
					V146.6z M197.3,143.6h-0.9v0.9h0.9V143.6z M197.3,141.5h-0.9v0.9h0.9V141.5z M197.3,139.3h-0.9v0.9h0.9V139.3z M201.2,137.2
					h-8.6v0.8h8.6V137.2z M196.4,135.9h0.9V135h-0.9V135.9z M197.3,132.9h-0.9v0.9h0.9V132.9z M197.3,130.7h-0.9v0.9h0.9V130.7z
					 M197.3,128.6h-0.9v0.9h0.9V128.6z M201.2,126.5h-8.6v0.9h8.6V126.5z M197.3,124.3h-0.9v0.9h0.9V124.3z M197.3,122.2h-0.9v0.8
					h0.9V122.2z M197.3,120h-0.9v0.9h0.9V120z M197.3,117.9h-0.9v0.9h0.9V117.9z M197.3,160.7h-0.9v0.9h0.9V160.7z M196.4,163.7h0.9
					v-0.9h-0.9V163.7z M196.4,165.9h0.9V165h-0.9V165.9z M196.4,168h0.9v-0.9h-0.9V168z M192.6,170.2h8.6v-0.9h-8.6V170.2z
					 M197.3,171.5h-0.9v0.9h0.9V171.5z M196.4,174.5h0.9v-0.9h-0.9V174.5z M196.4,176.6h0.9v-0.9h-0.9V176.6z M196.4,178.7h0.9v-0.9
					h-0.9V178.7z M192.6,180.9h8.6V180h-8.6V180.9z M197.3,182.2h-0.9v0.9h0.9V182.2z M196.4,185.2h0.9v-0.9h-0.9V185.2z
					 M196.4,187.3h0.9v-0.9h-0.9V187.3z M196.4,189.5h0.9v-0.9h-0.9V189.5z M192.6,191.6h8.6v-0.9h-8.6V191.6z M196.4,193.7h0.9
					v-0.9h-0.9V193.7z M196.4,195.9h0.9V195h-0.9V195.9z M196.4,198h0.9v-0.9h-0.9V198z M196.4,200.2h0.9v-0.9h-0.9V200.2z"/>
			</g>
		</g>
		<path class="st2" d="M218.4,157.9h-0.2l0.1-0.2v-0.2c0-0.1-0.2,0-0.4,0h-1.3c-0.1,0-0.1-0.1-0.1,0v0.2l-0.1,0.2h-0.2
			c-0.1,0-0.1-0.1-0.1,0v0.8h-10.3v-0.6c0-0.7-0.7-1.1-1.4-1.1h-3.7c-0.1,0-0.2-0.1-0.3-0.2l-1.8-1.7c-0.2-0.2-0.4-0.2-0.6-0.2h-2.7
			c-0.2,0-0.4,0-0.6,0.2l-1.8,1.8c-0.1,0.1-0.2,0.2-0.3,0.2H189c-0.7,0-1.2,0.4-1.2,1.1v0.6h-10.3V158c0-0.1-0.2,0-0.3,0H177
			l0.1-0.2v-0.2c0-0.1-0.2,0-0.4,0h-1.3c-0.1,0-0.1-0.1-0.1,0v0.2l-0.1,0.2H175c-0.1,0-0.1-0.1-0.1,0v2.6c0,0.1,0,0.4,0.1,0.4h2.1
			c0.1,0,0.3-0.3,0.3-0.4v-0.4h10.3v0.7c0,0.2,0.1,0.6,0.3,0.6h17.1c0.2,0,0.6-0.4,0.6-0.6v-0.7H216v0.4c0,0.1,0,0.4,0.1,0.4h2.1
			c0.1,0,0.3-0.3,0.3-0.4V158C218.7,157.8,218.5,157.9,218.4,157.9z M190.9,161.4h12"/>
		<path class="st6" d="M196.9,101.2c-32,0-57.9,25.9-57.9,57.9s25.9,57.9,57.9,57.9s57.8-26,57.8-58S228.8,101.2,196.9,101.2z
			 M196.9,204c-24.9,0-45-20.1-45-45s20.1-45,45-45s45,20.1,45,45S221.7,204,196.9,204z"/>
		<text transform="matrix(1 0 0 1 192.5427 112.0883)" class="st2 st7 st8">N</text>
		<text transform="matrix(1 0 0 1 192.8738 215.1601)" class="st2 st7 st8">S</text>
		<text transform="matrix(1 0 0 1 140.9949 161.4574)" class="st2 st7 st8">w</text>
		<text transform="matrix(1 0 0 1 244.0876 161.4574)" class="st2 st7 st8">E</text>
		<text transform="matrix(0.7071 0.7071 -0.7071 0.7071 224.6386 120.3586)" class="st2 st7 st9">NE</text>
		<text transform="matrix(0.7071 0.7071 -0.7071 0.7071 151.0664 192.0503)" class="st2 st7 st9">SW</text>
		<text transform="matrix(0.7071 -0.7071 0.7071 0.7071 156.2471 133.2959)" class="st2 st7 st9">WN</text>
		<text transform="matrix(0.7071 -0.7071 0.7071 0.7071 230.2886 204.5196)" class="st2 st7 st9">SE</text>
		<text transform="matrix(1 0 0 1 204.8904 145.7646)" class="st2 st10 st11">60°</text>
		<polygon class="st12" points="202.9,125.6 190.9,125.6 196.9,116.2 		"/>
		<g>
			<path class="st13" d="M239.1,80.3c-13.3,0-24,10.7-24,24c0,5.5,1.8,10.5,4.9,14.6l-3.2,10.9l9.1-5.4c3.8,2.5,8.3,3.9,13.1,3.9
				c13.3,0,24-10.7,24-24C263.1,91.1,252.4,80.3,239.1,80.3z"/>
			<text transform="matrix(1 0 0 1 225.2065 112.9998)" class="st2 st10 st14">60°</text>
			<path class="st15" d="M239.1,80.3c-13.3,0-24,10.7-24,24c0,5.5,1.8,10.5,4.9,14.6l-3.2,10.9l9.1-5.4c3.8,2.5,8.3,3.9,13.1,3.9
				c13.3,0,24-10.7,24-24C263.1,91.1,252.4,80.3,239.1,80.3z"/>
		</g>
	</g>
</g>
</svg>
