<?xml version="1.0" encoding="utf-8"?>
<!-- Generator: Adobe Illustrator 18.0.0, SVG Export Plug-In . SVG Version: 6.00 Build 0)  -->
<!DOCTYPE svg PUBLIC "-//W3C//DTD SVG 1.1//EN" "http://www.w3.org/Graphics/SVG/1.1/DTD/svg11.dtd">
<svg version="1.1" id="图层_1" xmlns="http://www.w3.org/2000/svg" xmlns:xlink="http://www.w3.org/1999/xlink" x="0px" y="0px"
	 viewBox="0 0 100 100" enable-background="new 0 0 100 100" xml:space="preserve">
<g>
	<path fill="#FFFFFF" d="M54.5,82.2c0,0.8-0.5,1.6-1.2,1.7L9.2,91c-1,0.2-1.8-0.5-1.8-1.5V10.5c0-1,0.8-1.7,1.8-1.5l44.1,7.2
		c0.7,0.1,1.2,0.9,1.2,1.7v4.4h4.7v-8c0-1.6-1-3.1-2.3-3.3L3.8,0.8C1.7,0.4,0,1.7,0,3.8v92.5c0,2,1.7,3.4,3.8,3L56.9,89
		c1.3-0.2,2.3-1.7,2.3-3.3v-8h-4.7V82.2z"/>
	<polygon fill="#FFFFFF" points="92.2,42.2 73.8,23.8 66,31.7 78.8,44.5 22.3,44.5 22.3,55.5 78.8,55.5 66,68.3 73.8,76.2 
		92.2,57.8 100,50 	"/>
</g>
</svg>
