<?xml version="1.0" encoding="utf-8"?>
<!-- Generator: Adobe Illustrator 18.0.0, SVG Export Plug-In . SVG Version: 6.00 Build 0)  -->
<!DOCTYPE svg PUBLIC "-//W3C//DTD SVG 1.1//EN" "http://www.w3.org/Graphics/SVG/1.1/DTD/svg11.dtd">
<svg version="1.1" id="图层_1" xmlns="http://www.w3.org/2000/svg" xmlns:xlink="http://www.w3.org/1999/xlink" x="0px" y="0px"
	 viewBox="0 0 380 380" enable-background="new 0 0 380 380" xml:space="preserve">
<g>
	<g opacity="0.3">
		<path fill="#2EBBD9" d="M369,11v358H11V11H369 M370,10H10v360h360V10L370,10z"/>
	</g>
	<g>
		<polygon fill="#10EBBF" stroke="#10EBBF" stroke-miterlimit="10" points="11,360 10,360 10,370 20,370 20,369 11,369 		"/>
		<polygon fill="#10EBBF" stroke="#10EBBF" stroke-miterlimit="10" points="369,360 370,360 370,370 360,370 360,369 369,369 		"/>
		<polygon fill="#10EBBF" stroke="#10EBBF" stroke-miterlimit="10" points="11,20 10,20 10,10 20,10 20,11 11,11 		"/>
		<polygon fill="#10EBBF" stroke="#10EBBF" stroke-miterlimit="10" points="369,20 370,20 370,10 360,10 360,11 369,11 		"/>
	</g>
	<g opacity="5.000000e-002">
		<rect x="20" y="20" fill="#10EBBF" width="340" height="340"/>
	</g>
	<g opacity="0.2">
		<g opacity="0.5">
			<rect x="46.1" y="20" fill="#10EBBF" width="1" height="340"/>
		</g>
		<g opacity="0.5">
			<rect x="72.2" y="20" fill="#10EBBF" width="1" height="340"/>
		</g>
		<g opacity="0.5">
			<rect x="98.2" y="20" fill="#10EBBF" width="1" height="340"/>
		</g>
		<g opacity="0.5">
			<rect x="124.3" y="20" fill="#10EBBF" width="1" height="340"/>
		</g>
		<g opacity="0.5">
			<rect x="150.4" y="20" fill="#10EBBF" width="1" height="340"/>
		</g>
		<g opacity="0.5">
			<rect x="176.5" y="20" fill="#10EBBF" width="1" height="340"/>
		</g>
		<g opacity="0.5">
			<rect x="202.5" y="20" fill="#10EBBF" width="1" height="340"/>
		</g>
		<g opacity="0.5">
			<rect x="228.6" y="20" fill="#10EBBF" width="1" height="340"/>
		</g>
		<g opacity="0.5">
			<rect x="254.7" y="20" fill="#10EBBF" width="1" height="340"/>
		</g>
		<g opacity="0.5">
			<rect x="280.8" y="20" fill="#10EBBF" width="1" height="340"/>
		</g>
		<g opacity="0.5">
			<rect x="306.8" y="20" fill="#10EBBF" width="1" height="340"/>
		</g>
		<g opacity="0.5">
			<rect x="332.9" y="20" fill="#10EBBF" width="1" height="340"/>
		</g>
		<g opacity="0.5">
			<rect x="20" y="332.9" fill="#10EBBF" width="340" height="1"/>
		</g>
		<g opacity="0.5">
			<rect x="20" y="306.8" fill="#10EBBF" width="340" height="1"/>
		</g>
		<g opacity="0.5">
			<rect x="20" y="280.8" fill="#10EBBF" width="340" height="1"/>
		</g>
		<g opacity="0.5">
			<rect x="20" y="254.7" fill="#10EBBF" width="340" height="1"/>
		</g>
		<g opacity="0.5">
			<rect x="20" y="228.6" fill="#10EBBF" width="340" height="1"/>
		</g>
		<g opacity="0.5">
			<rect x="20" y="202.5" fill="#10EBBF" width="340" height="1"/>
		</g>
		<g opacity="0.5">
			<rect x="20" y="176.5" fill="#10EBBF" width="340" height="1"/>
		</g>
		<g opacity="0.5">
			<rect x="20" y="150.4" fill="#10EBBF" width="340" height="1"/>
		</g>
		<g opacity="0.5">
			<rect x="20" y="124.3" fill="#10EBBF" width="340" height="1"/>
		</g>
		<g opacity="0.5">
			<rect x="20" y="98.2" fill="#10EBBF" width="340" height="1"/>
		</g>
		<g opacity="0.5">
			<rect x="20" y="72.2" fill="#10EBBF" width="340" height="1"/>
		</g>
		<g opacity="0.5">
			<rect x="20" y="46.1" fill="#10EBBF" width="340" height="1"/>
		</g>
	</g>
</g>
</svg>
