<?xml version="1.0" encoding="utf-8"?>
<!-- Generator: Adobe Illustrator 18.0.0, SVG Export Plug-In . SVG Version: 6.00 Build 0)  -->
<!DOCTYPE svg PUBLIC "-//W3C//DTD SVG 1.1//EN" "http://www.w3.org/Graphics/SVG/1.1/DTD/svg11.dtd">
<svg version="1.1" id="图层_1" xmlns="http://www.w3.org/2000/svg" xmlns:xlink="http://www.w3.org/1999/xlink" x="0px" y="0px"
	 viewBox="0 0 100 100" enable-background="new 0 0 100 100" xml:space="preserve">
<g>
	<path fill="#FFFFFF" d="M90.4,21.5H82v-1c0-5.3-4.3-9.6-9.6-9.6H49.7c-5.3,0-9.6,4.3-9.6,9.6v1H9.6C4.3,21.5,0,25.8,0,31v48.6
		c0,5.3,4.3,9.6,9.6,9.6h80.8c5.3,0,9.6-4.3,9.6-9.6V31C99.9,25.8,95.6,21.5,90.4,21.5z M14.8,43.7c-4,0-7.2-3.2-7.2-7.2
		s3.2-7.2,7.2-7.2c4,0,7.2,3.2,7.2,7.2S18.7,43.7,14.8,43.7z M61.1,82.9c-15.2,0-27.6-12.3-27.6-27.6c0-15.2,12.3-27.6,27.6-27.6
		s27.6,12.3,27.6,27.6C88.7,70.5,76.3,82.9,61.1,82.9z"/>
	<path fill="#FFFFFF" d="M90.4,21.5h-8.3v-1c0-5.3-4.3-9.6-9.6-9.6H49.8c-5.3,0-9.6,4.3-9.6,9.6v1H9.6c-5.3,0-9.6,4.3-9.6,9.6v48.6
		c0,5.3,4.3,9.6,9.6,9.6h80.8c5.3,0,9.6-4.3,9.6-9.6V31C100,25.8,95.7,21.5,90.4,21.5z M14.8,43.7c-4,0-7.2-3.2-7.2-7.2
		s3.2-7.2,7.2-7.2c4,0,7.2,3.2,7.2,7.2S18.8,43.7,14.8,43.7z M61.2,82.9c-15.2,0-27.6-12.3-27.6-27.6c0-15.2,12.3-27.6,27.6-27.6
		s27.6,12.3,27.6,27.6C88.8,70.5,76.4,82.9,61.2,82.9z"/>
	<circle fill="#FFFFFF" cx="61.1" cy="55.3" r="19.3"/>
</g>
</svg>
