<?xml version="1.0" encoding="utf-8"?>
<!-- Generator: Adobe Illustrator 18.0.0, SVG Export Plug-In . SVG Version: 6.00 Build 0)  -->
<!DOCTYPE svg PUBLIC "-//W3C//DTD SVG 1.1//EN" "http://www.w3.org/Graphics/SVG/1.1/DTD/svg11.dtd">
<svg version="1.1" id="图层_1" xmlns="http://www.w3.org/2000/svg" xmlns:xlink="http://www.w3.org/1999/xlink" x="0px" y="0px"
	 viewBox="0 0 100 100" enable-background="new 0 0 100 100" xml:space="preserve">
<circle opacity="0.9" fill-rule="evenodd" clip-rule="evenodd" fill="#1E2328" cx="1780" cy="937.5" r="140"/>
<g>
	<path opacity="0.75" fill-rule="evenodd" clip-rule="evenodd" fill="#2EBBD9" d="M1878.5,954.9c-75.2-13.3-121.4-21.4-196.9-34.7
		c9.6-54.4,61.4-90.7,115.8-81.1C1851.7,848.7,1888.1,900.5,1878.5,954.9z"/>
	<path opacity="0.2" fill-rule="evenodd" clip-rule="evenodd" fill="#10EBBF" d="M1878.5,954.9c-75.2-13.3-121.4-21.4-196.9-34.7
		c-9.6,54.4,26.7,106.2,81.1,115.8C1817,1045.6,1868.9,1009.3,1878.5,954.9z"/>
</g>
<g>
	<g>
		<path fill-rule="evenodd" clip-rule="evenodd" fill="#FFFFFF" d="M1760,936.5v2h40v-2H1760z M1779,933.5h2v-2h-2V933.5z
			 M1781,926.5h-2v2h2V926.5z M1781,921.5h-2v2h2V921.5z M1781,916.5h-2v2h2V916.5z M1790,911.5h-20v2h20V911.5z M1779,908.5h2v-2
			h-2V908.5z M1781,901.5h-2v2h2V901.5z M1781,896.5h-2v2h2V896.5z M1781,891.5h-2v2h2V891.5z M1790,886.5h-20v2h20V886.5z
			 M1779,883.5h2v-2h-2V883.5z M1781,876.5h-2v2h2V876.5z M1781,871.5h-2v2h2V871.5z M1781,866.5h-2v2h2V866.5z M1790,861.5h-20v2
			h20V861.5z M1781,856.5h-2v2h2V856.5z M1781,851.5h-2v2h2V851.5z M1781,846.5h-2v2h2V846.5z M1781,841.5h-2v2h2V841.5z
			 M1781,941.5h-2v2h2V941.5z M1779,948.5h2v-2h-2V948.5z M1779,953.5h2v-2h-2V953.5z M1779,958.5h2v-2h-2V958.5z M1770,963.5h20v-2
			h-20V963.5z M1781,966.5h-2v2h2V966.5z M1779,973.5h2v-2h-2V973.5z M1779,978.5h2v-2h-2V978.5z M1779,983.5h2v-2h-2V983.5z
			 M1770,988.5h20v-2h-20V988.5z M1781,991.5h-2v2h2V991.5z M1779,998.5h2v-2h-2V998.5z M1779,1003.5h2v-2h-2V1003.5z M1779,1008.5
			h2v-2h-2V1008.5z M1770,1013.5h20v-2h-20V1013.5z M1779,1018.5h2v-2h-2V1018.5z M1779,1023.5h2v-2h-2V1023.5z M1779,1028.5h2v-2
			h-2V1028.5z M1779,1033.5h2v-2h-2V1033.5z"/>
	</g>
</g>
<path fill="#FFFFFF" d="M1830.2,935h-0.5c0,0,0.3-0.5,0.3-0.5V934c0-0.3-0.5,0-0.8,0h-3c-0.3,0-0.2-0.2-0.2,0v0.5
	c0,0-0.3,0.5-0.3,0.5h-0.5c-0.3,0-0.2-0.2-0.2,0v2h-24v-1.5c0-1.7-1.7-2.5-3.3-2.5h-8.6c-0.3,0-0.5-0.3-0.7-0.5l-4.1-4
	c-0.4-0.4-0.9-0.5-1.4-0.5h-6.3c-0.5,0-1,0-1.4,0.4l-4.1,4.2c-0.2,0.2-0.4,0.4-0.7,0.4h-8.6c-1.7,0-2.7,0.9-2.7,2.5v1.5h-24v-2
	c0-0.3-0.5,0-0.8,0h-0.5c0,0,0.3-0.5,0.3-0.5V934c0-0.3-0.5,0-0.8,0h-3c-0.3,0-0.2-0.2-0.2,0v0.5c0,0-0.3,0.5-0.3,0.5h-0.5
	c-0.3,0-0.2-0.2-0.2,0v6c0,0.3-0.1,1,0.2,1h5c0.3,0,0.8-0.7,0.8-1v-1h24v1.5c0,0.6,0.1,1.5,0.7,1.5h40c0.6,0,1.3-0.9,1.3-1.5V940h24
	v1c0,0.3-0.1,1,0.2,1h5c0.3,0,0.8-0.7,0.8-1v-6C1831,934.8,1830.5,935,1830.2,935z M1766,943h28"/>
<path opacity="0.5" fill-rule="evenodd" clip-rule="evenodd" fill="#698596" d="M1780,802.5c-74.6,0-135,60.4-135,135
	s60.4,135,135,135c74.6,0,135-60.4,135-135S1854.6,802.5,1780,802.5z M1780,1042.5c-58,0-105-47-105-105c0-58,47-105,105-105
	c58,0,105,47,105,105C1885,995.5,1838,1042.5,1780,1042.5z"/>
<text transform="matrix(1 0 0 1 1769.8892 827.9579)" fill="#FFFFFF" font-family="'Arial-BoldMT'" font-size="28">N</text>
<text transform="matrix(1 0 0 1 1770.6621 1068.4587)" fill="#FFFFFF" font-family="'Arial-BoldMT'" font-size="28">S</text>
<text transform="matrix(1 0 0 1 1649.61 943.1532)" fill="#FFFFFF" font-family="'Arial-BoldMT'" font-size="28">w</text>
<text transform="matrix(1 0 0 1 1890.1617 943.1532)" fill="#FFFFFF" font-family="'Arial-BoldMT'" font-size="28">E</text>
<text transform="matrix(0.7071 0.7071 -0.7071 0.7071 1844.6973 847.1708)" fill="#FFFFFF" font-family="'Arial-BoldMT'" font-size="28">NE</text>
<text transform="matrix(0.7071 0.7071 -0.7071 0.7071 1673.0282 1014.4506)" fill="#FFFFFF" font-family="'Arial-BoldMT'" font-size="28">SW</text>
<text transform="matrix(0.7071 -0.7071 0.7071 0.7071 1685.1166 877.3569)" fill="#FFFFFF" font-family="'Arial-BoldMT'" font-size="28">WN</text>
<text transform="matrix(0.7071 -0.7071 0.7071 0.7071 1857.8779 1043.5446)" fill="#FFFFFF" font-family="'Arial-BoldMT'" font-size="28">SE</text>
<text transform="matrix(1 0 0 1 1798.7021 906.5377)" fill="#FFFFFF" font-family="'Exo-Bold'" font-size="37.3333">60°</text>
<polygon opacity="0.9" fill-rule="evenodd" clip-rule="evenodd" fill="#E43A3D" points="1794,859.5 1766,859.5 1780,837.5 "/>
<path fill="#FFFFFF" d="M67.5,48.9v-0.6h-1v0.6H66v1h-8.2v-1c0-0.6-0.4-1-1-1h-3.1l-0.5-0.7c-0.4-0.5-1-0.8-1.4-0.8h-3.2
	c-0.4,0-1,0.3-1.4,0.8l-0.6,0.7h-3.1c-0.6,0-1,0.4-1,1v1h-8.2v-1h-0.5v-0.6h-1v0.6H32V52h2v-1h8.2v1h15.4v-1H66v1h2v-3.1H67.5z"/>
</svg>
