<?xml version="1.0" encoding="utf-8"?>
<!-- Generator: Adobe Illustrator 18.0.0, SVG Export Plug-In . SVG Version: 6.00 Build 0)  -->
<!DOCTYPE svg PUBLIC "-//W3C//DTD SVG 1.1//EN" "http://www.w3.org/Graphics/SVG/1.1/DTD/svg11.dtd">
<svg version="1.1" id="图层_1" xmlns="http://www.w3.org/2000/svg" xmlns:xlink="http://www.w3.org/1999/xlink" x="0px" y="0px"
	 viewBox="0 0 100 100" enable-background="new 0 0 100 100" xml:space="preserve">
<g>
	<path fill="#FFFFFF" d="M99.8,85.2L82.8,34c-0.4-1.3-1.7-2.2-3-2.2H60.3l-4,7.8h17.9c0.7,0,1.3,0.5,1.5,1.1L87.6,79
		c0.3,1-0.5,2.1-1.5,2.1H13.6c-1.1,0-1.8-1-1.5-2.1l11.8-38.2c0.2-0.7,0.8-1.1,1.5-1.1h5.1L27,31.8h-6.7c-1.4,0-2.6,0.9-3,2.2
		L0.2,85.2c-0.7,2.1,0.9,4.2,3,4.2h93.6C99,89.4,100.5,87.3,99.8,85.2z"/>
	<path fill="#FFFFFF" d="M44.1,10.6c-8,0-14.4,6.5-14.4,14.4s14.4,30.4,14.4,30.4S58.6,32.9,58.6,25S52.1,10.6,44.1,10.6z
		 M44.1,31.4c-3.5,0-6.4-2.9-6.4-6.4s2.9-6.4,6.4-6.4c3.5,0,6.4,2.9,6.4,6.4S47.7,31.4,44.1,31.4z"/>
	<g>
		<g>
			<path fill="none" stroke="#FFFFFF" stroke-width="2" stroke-miterlimit="10" d="M23.5,77.8c0.2-0.8,0.6-1.8,1.1-2.8"/>
			<path fill="none" stroke="#FFFFFF" stroke-width="2" stroke-miterlimit="10" stroke-dasharray="6.2889,6.2889" d="M28.3,70
				c4.2-4.5,10.8-8.9,19.4-9.9c12.4-1.4,18.1-6.3,20.6-11.8"/>
			<path fill="none" stroke="#FFFFFF" stroke-width="2" stroke-miterlimit="10" d="M69.4,45.3c0.3-1,0.4-2,0.6-2.9"/>
		</g>
	</g>
</g>
</svg>
