<?xml version="1.0" encoding="utf-8"?>
<!-- Generator: Adobe Illustrator 18.0.0, SVG Export Plug-In . SVG Version: 6.00 Build 0)  -->
<!DOCTYPE svg PUBLIC "-//W3C//DTD SVG 1.1//EN" "http://www.w3.org/Graphics/SVG/1.1/DTD/svg11.dtd">
<svg version="1.1" id="图层_1" xmlns="http://www.w3.org/2000/svg" xmlns:xlink="http://www.w3.org/1999/xlink" x="0px" y="0px"
	 viewBox="0 0 100 100" enable-background="new 0 0 100 100" xml:space="preserve">
<g>
	<path fill="#FFFFFF" d="M85,11.9C76.3,4.5,65.1,0,52.8,0C27,0,5.9,19.4,3.1,44.4h16.8c2.7-15.8,16.3-27.8,32.8-27.8
		c7.7,0,14.7,2.7,20.3,7.1L58,38.9h38.9V0L85,11.9z"/>
	<path fill="#FFFFFF" d="M15,88.1c8.7,7.4,19.9,11.9,32.2,11.9c25.7,0,46.9-19.4,49.7-44.4H80.1c-2.7,15.8-16.3,27.8-32.8,27.8
		c-7.7,0-14.7-2.7-20.3-7.1L42,61.1H3.1V100L15,88.1z"/>
</g>
</svg>
