<?xml version="1.0" encoding="utf-8"?>
<!-- Generator: Adobe Illustrator 18.0.0, SVG Export Plug-In . SVG Version: 6.00 Build 0)  -->
<!DOCTYPE svg PUBLIC "-//W3C//DTD SVG 1.1//EN" "http://www.w3.org/Graphics/SVG/1.1/DTD/svg11.dtd">
<svg version="1.1" id="图层_1" xmlns="http://www.w3.org/2000/svg" xmlns:xlink="http://www.w3.org/1999/xlink" x="0px" y="0px"
	 viewBox="0 0 100 100" enable-background="new 0 0 100 100" xml:space="preserve">
<path fill="#FFFFFF" d="M50,0C22.4,0,0,22.4,0,50c0,27.6,22.4,50,50,50s50-22.4,50-50C100,22.4,77.6,0,50,0z M50,90
	c-22.1,0-40-17.9-40-40s17.9-40,40-40s40,17.9,40,40S72.1,90,50,90z"/>
<g>
	<path fill="#FFFFFF" d="M45.6,65.9V52.8c0-1.2,0.4-2.2,1.2-3.1c0.9-0.9,1.9-1.3,3.1-1.3h8.7V30.9H41.2v8.8h-8.8v-8.8
		c0-2.4,0.8-4.5,2.5-6.2c1.7-1.7,3.8-2.6,6.2-2.6h17.5c2.4,0,4.5,0.9,6.2,2.6c1.7,1.7,2.6,3.7,2.6,6.2v17.5c0,2.5-0.9,4.5-2.6,6.2
		c-1.7,1.7-3.7,2.5-6.2,2.5h-4.4v8.8H45.6z M45.6,83.4v-8.8h8.7v8.8H45.6z"/>
</g>
</svg>
