<?xml version="1.0" encoding="utf-8"?>
<!-- Generator: Adobe Illustrator 18.0.0, SVG Export Plug-In . SVG Version: 6.00 Build 0)  -->
<!DOCTYPE svg PUBLIC "-//W3C//DTD SVG 1.1//EN" "http://www.w3.org/Graphics/SVG/1.1/DTD/svg11.dtd">
<svg version="1.1" id="图层_1" xmlns="http://www.w3.org/2000/svg" xmlns:xlink="http://www.w3.org/1999/xlink" x="0px" y="0px"
	 viewBox="0 0 290 242" enable-background="new 0 0 290 242" xml:space="preserve">
<g>
	<path fill="#FFFFFF" d="M276.5,28.2h-32.3V10.8c0-3.2-2.6-5.8-5.8-5.8h-46.7c-3.2,0-5.8,2.6-5.8,5.8v17.4h-81.7V10.8
		c0-3.2-2.6-5.8-5.8-5.8H51.7c-3.2,0-5.8,2.6-5.8,5.8v17.4H13.5C8.8,28.2,5,32,5,36.7v191.9c0,4.7,3.8,8.5,8.5,8.5h263
		c4.7,0,8.5-3.8,8.5-8.5V36.7C285,32,281.2,28.2,276.5,28.2z M206,15h7V8h4v7h7v4h-7v7h-4v-7h-7V15z M66,15h18v4H66V15z M275,225.5
		c0,1.1-0.9,2-2,2H17c-1.1,0-2-0.9-2-2v-185c0-1.1,0.9-2,2-2h256c1.1,0,2,0.9,2,2V225.5z"/>
</g>
<g>
	<rect x="87.5" y="48.5" fill="#10EBBF" width="52.5" height="169"/>
	<rect x="25" y="48.5" fill="#10EBBF" width="52.5" height="169"/>
	<rect x="212.5" y="48.5" fill="#10EBBF" width="52.5" height="169"/>
	<rect x="150" y="48.5" fill="#10EBBF" width="52.5" height="169"/>
</g>
</svg>
