<?xml version="1.0" encoding="utf-8"?>
<!-- Generator: Adobe Illustrator 18.0.0, SVG Export Plug-In . SVG Version: 6.00 Build 0)  -->
<!DOCTYPE svg PUBLIC "-//W3C//DTD SVG 1.1//EN" "http://www.w3.org/Graphics/SVG/1.1/DTD/svg11.dtd">
<svg version="1.1" id="图层_1" xmlns="http://www.w3.org/2000/svg" xmlns:xlink="http://www.w3.org/1999/xlink" x="0px" y="0px"
	 viewBox="0 0 240 240" enable-background="new 0 0 240 240" xml:space="preserve">
<g opacity="5.000000e-002">
	<rect x="7.2" y="7" fill="#2EBBD9" width="226" height="226"/>
</g>
<g>
	<path fill="#FFFFFF" d="M100.2,115c-8.3,0-15,6.7-15,15c0,8.3,6.7,15,15,15s15-6.7,15-15C115.2,121.7,108.4,115,100.2,115z
		 M100.2,136.3c-3.5,0-6.3-2.8-6.3-6.3c0-3.5,2.8-6.2,6.3-6.2s6.3,2.8,6.3,6.2C106.4,133.5,103.6,136.3,100.2,136.3z"/>
	<path fill="#FFFFFF" d="M140.2,115c-8.3,0-15,6.7-15,15c0,8.3,6.7,15,15,15s15-6.7,15-15C155.2,121.7,148.4,115,140.2,115z
		 M140.2,136.3c-3.5,0-6.3-2.8-6.3-6.3c0-3.5,2.8-6.2,6.3-6.2s6.3,2.8,6.3,6.2C146.4,133.5,143.6,136.3,140.2,136.3z"/>
	<path fill="#FFFFFF" d="M155.2,93.7c0,0-1.9-0.4-5-0.8V77.5c0-1.4-1.1-2.5-2.5-2.5h-25v-2.2l29.5-7.9c1.3-0.4,2.1-1.7,1.8-3.1v0
		c-0.4-1.3-1.7-2.1-3.1-1.8l-31.4,8.4c-1.2,0.3-1.9,1.4-1.8,2.6c0,0,0,0.1,0,0.1V75h-25c-1.4,0-2.5,1.1-2.5,2.5v15.3
		c-3.1,0.5-5,0.8-5,0.8c-6.8,0.8-12.5,5.5-12.5,12.3v56.7c0,6.8,5.6,12.3,12.5,12.3h1.3l5,5h57.5l5-5h1.3c6.9,0,12.5-5.5,12.5-12.3
		V106C167.7,99.2,161.3,95.3,155.2,93.7z M146.4,77.5c0.7,0,1.3,0.6,1.3,1.3v13.7c-2.5-0.4-5.5-0.8-8.8-1.2l0,0l-1.3-2.5
		c0,0-1.6-0.2-4-0.4l-2.2-3.9c0-0.3-0.3-0.6-0.6-0.6h-5.6l-1.3-5c0-0.7-0.6-1.3-1.3-1.3H146.4z M128.9,95c0,1.4-1.1,2.5-2.5,2.5
		s-2.5-1.1-2.5-2.5c0-1.4,1.1-2.5,2.5-2.5S128.9,93.6,128.9,95z M92.7,78.8c0-0.7,0.6-1.3,1.3-1.3h23.8c-0.7,0-1.3,0.6-1.3,1.3
		l-1.3,5h-5.6c-0.3,0-0.6,0.3-0.6,0.6l-2.2,3.9c-2.4,0.2-4,0.4-4,0.4l-1.3,2.5l0,0c-3.2,0.4-6.2,0.8-8.8,1.2V78.8z M116.4,95
		c0,1.4-1.1,2.5-2.5,2.5s-2.5-1.1-2.5-2.5c0-1.4,1.1-2.5,2.5-2.5S116.4,93.6,116.4,95z M161.4,147.5c0,0-12.4,5-41.3,5
		s-41.3-5-41.3-5v-37.6c0-7.5,4.9-9.8,10.9-10.5c0,0,6.2-1.1,13.9-2l1.5,3.9l-1.3,7.5l5,3.8h11.3h11.3l5-3.8l-1.3-7.5l1.5-3.9
		c7.8,0.9,13.9,2,13.9,2c5.3,1.3,10.9,3.2,10.9,10.5V147.5z"/>
</g>
<path fill="#E43A3D" d="M180.1,67.1l0.1-0.1l-3.5-3.5c0,0,0,0,0,0l-3.5-3.5l-0.1,0.1c-14.1-12.5-32.6-20-52.9-20
	c-44.2,0-80,35.8-80,80c0,20.3,7.6,38.8,20,52.9l-0.1,0.1l7.1,7.1l0.1-0.1c14.1,12.5,32.6,20,52.9,20c44.2,0,80-35.8,80-80
	C200.2,99.7,192.6,81.2,180.1,67.1z M50.2,120c0-38.7,31.3-70,70-70c17.5,0,33.5,6.5,45.8,17.1l-98.7,98.7
	C56.6,153.5,50.2,137.5,50.2,120z M120.2,190c-17.5,0-33.5-6.5-45.8-17.1l98.7-98.7c10.6,12.3,17.1,28.3,17.1,45.8
	C190.2,158.7,158.8,190,120.2,190z"/>
</svg>
