<?xml version="1.0" encoding="utf-8"?>
<!-- Generator: Adobe Illustrator 18.0.0, SVG Export Plug-In . SVG Version: 6.00 Build 0)  -->
<!DOCTYPE svg PUBLIC "-//W3C//DTD SVG 1.1//EN" "http://www.w3.org/Graphics/SVG/1.1/DTD/svg11.dtd">
<svg version="1.1" id="图层_1" xmlns="http://www.w3.org/2000/svg" xmlns:xlink="http://www.w3.org/1999/xlink" x="0px" y="0px"
	 viewBox="0 0 240 240" enable-background="new 0 0 240 240" xml:space="preserve">
<g opacity="5.000000e-002">
	<rect x="7.2" y="7" fill="#2EBBD9" width="226" height="226"/>
</g>
<g>
	<polygon fill="none" stroke="#2EBBD9" stroke-miterlimit="10" points="104.5,199.3 200.2,179.3 171.5,146.6 92.7,135.3 40.2,168.9 
			"/>
	<g>
		<path fill="#FFFFFF" d="M132.2,128.1l7.6,11.1c-0.1,0.3-0.2,0.5-0.2,0.8c-0.2,2,1.2,4,3.1,4.6c1.9,0.5,3.6-0.7,3.7-2.8
			c0.1-2-1.3-4-3.1-4.4c-0.3-0.1-0.6,0-0.8,0l-7.9-11.3c0.4-0.7,0.2-1.7,0.4-2.7c0.2-1.8-4.9-4.7-4.7-6.1c0.2-1,1.2-7.4,1.7-10.9
			l13.1-7.7c0.2,0.1,0.6,0.2,0.9,0.3c1.5,0.3,2.8-0.5,2.9-1.7c0.1-1.2-1-2.3-2.4-2.6c-1.4-0.2-2.6,0.5-2.7,1.7
			c0,0.2,0.1,0.4,0.1,0.5l-8.3,5c0.2-0.2,0.4-0.5,0.5-1c-0.5-2.2-6-4.9-7.8-5.2c-1.8-0.3-2.3-0.4-4.1-0.7c-1.8-0.3-7.6,0.3-8.9,2.1
			c-0.1,0.4-0.2,0.6-0.3,0.8l-4.8-6.8c0.1-0.1,0.2-0.3,0.3-0.5c0.3-1-0.4-2.1-1.6-2.3c-1.2-0.2-2.5,0.5-2.8,1.5
			c-0.4,1,0.3,2.1,1.6,2.3c0.2,0,0.7,0.1,0.9,0.1l8,11.2c-0.9,3.3-2.4,9.2-2.6,10.2c-0.3,1.3-5.7,1.7-6.1,3.4
			c-0.2,0.8-0.5,1.6-0.5,2.4l-10.2,6.1c-0.2-0.1-0.4-0.3-0.7-0.3c-1.5-0.4-3.2,0.6-3.7,2.2c-0.6,1.7,0.1,3.4,1.7,3.8
			c1.5,0.4,3.2-0.6,3.8-2.3c0.1-0.3,0.1-0.5,0.1-0.8l9.8-6c0.1,0.1,0.1,0.1,0.2,0.1c1.3,0.3,11.8,2.9,11.8,2.9s11,2.7,12.4,3
			C132.1,128,132.2,128,132.2,128.1z"/>
		<path fill="#FFFFFF" d="M105,98.2l0.7-2.1c-2.3-0.4-5.7-3.9-4.5-7c1.2-3,4.9-5,8.5-4.4c3.6,0.6,5.5,4.7,5,6.6l2.3,0.4
			c1-3.8-1.9-8-6.7-8.7c-4.6-0.7-9.6,1.8-11.2,5.7C97.4,92.9,100.4,97.3,105,98.2z"/>
		<path fill="#FFFFFF" d="M146.7,90.5c4.2,0.7,7.6,4.1,7.6,7.7c-0.1,3.8-5.6,5.9-8.4,5.4l-0.2,2.4c5.6,1.1,11.3-2.3,11.3-7.4
			c0-4.8-4.8-9.2-10.4-10c-5.4-0.8-10.2,2.3-10.8,6.4l2.5,0.4C138.8,91.2,142.6,89.9,146.7,90.5z"/>
		<path fill="#FFFFFF" d="M91.7,137.7c-4.7-1.4-6.6-6.9-4.7-11.8c1.8-4.7,8.2-7.1,10.8-6.4l0.9-2.7c-5.1-1.2-11.9,2.5-14.4,8.6
			c-2.7,6.6,0.1,13.9,6.4,15.8c6.5,1.9,13.7-3.4,15.5-9.9l-2.9-0.8C102.4,133.7,96.4,139.1,91.7,137.7z"/>
		<path fill="#FFFFFF" d="M144.2,127.6l-0.2,3.2c3.2,0.8,9.6,7,9.5,13c-0.1,6.4-5.3,10.5-11.3,8.7c-5.8-1.7-10.1-6.8-9.2-14
			l-3.2-0.9c-1,7.1,4.1,16.6,12,19c8.2,2.5,15.2-3.1,15.2-11.8C157,136.7,150.6,129.1,144.2,127.6z"/>
	</g>
	<linearGradient id="SVGID_1_" gradientUnits="userSpaceOnUse" x1="120.1594" y1="199.2763" x2="120.1594" y2="40.7237">
		<stop  offset="0" style="stop-color:#2EBBD9"/>
		<stop  offset="1" style="stop-color:#2EBBD9;stop-opacity:0"/>
	</linearGradient>
	<polygon opacity="0.3" fill="url(#SVGID_1_)" points="40.2,40.7 200.2,40.7 200.2,179.3 104.5,199.3 40.2,169.3 	"/>
	<linearGradient id="SVGID_2_" gradientUnits="userSpaceOnUse" x1="120.1594" y1="179.2919" x2="120.1594" y2="40.7237">
		<stop  offset="0" style="stop-color:#2EBBD9"/>
		<stop  offset="1" style="stop-color:#2EBBD9;stop-opacity:0"/>
	</linearGradient>
	<polygon opacity="0.3" fill="url(#SVGID_2_)" points="40.2,40.7 200.2,40.7 200.2,179.3 171.5,146.6 92.7,135.3 40.2,169.3 	"/>
</g>
</svg>
