<?xml version="1.0" encoding="utf-8"?>
<!-- Generator: Adobe Illustrator 18.0.0, SVG Export Plug-In . SVG Version: 6.00 Build 0)  -->
<!DOCTYPE svg PUBLIC "-//W3C//DTD SVG 1.1//EN" "http://www.w3.org/Graphics/SVG/1.1/DTD/svg11.dtd">
<svg version="1.1" id="图层_1" xmlns="http://www.w3.org/2000/svg" xmlns:xlink="http://www.w3.org/1999/xlink" x="0px" y="0px"
	 viewBox="0 0 240 240" enable-background="new 0 0 240 240" xml:space="preserve">
<g>
	<g opacity="5.000000e-002">
		<rect x="7" y="7" fill="#2EBBD9" width="226" height="226"/>
	</g>
	<g>
		<g>
			<path fill="#FFFFFF" d="M200.6,144.4l1.4,7.5c0.1,0.1,0.3,0.1,0.4,0.2c0.9,0.7,1.1,2.1,0.6,3c-0.6,1-1.7,1.1-2.6,0.4
				c-0.8-0.8-1.1-2.1-0.5-3c0.1-0.1,0.2-0.2,0.3-0.3l-1.3-7.7c-0.5-0.1-0.8-0.6-1.2-0.9c-0.8-0.6,0.1-3.9-0.6-4.3
				c-0.5-0.3-3.4-2.5-5-3.7l-8.3,2.2c-0.1,0.1-0.2,0.3-0.2,0.4c-0.5,0.7-1.3,0.9-1.8,0.5c-0.5-0.4-0.5-1.3-0.1-2
				c0.5-0.7,1.3-0.8,1.8-0.4c0.1,0.1,0.1,0.2,0.2,0.3l5.3-1.3c-0.2,0-0.4,0-0.6-0.2c-0.7-1.1,0.4-4.3,1-5.2c0.6-0.9,0.8-1.1,1.4-1.9
				c0.6-0.9,3.2-2.9,4.4-2.7c0.2,0.1,0.3,0.2,0.4,0.2l-0.8-4.6c-0.1,0-0.2,0-0.3-0.1c-0.6-0.3-0.7-1-0.3-1.5
				c0.4-0.6,1.2-0.8,1.7-0.5c0.6,0.3,0.7,1,0.3,1.5c-0.1,0.1-0.3,0.3-0.3,0.4l1.3,7.7c1.7,1,4.6,2.7,5.1,3c0.6,0.4,2.9-1.6,3.8-1.1
				c0.4,0.2,0.8,0.4,1.1,0.8l6.5-1.6c0-0.1,0.1-0.3,0.1-0.4c0.4-0.7,1.5-1,2.4-0.6c0.9,0.4,1.3,1.4,0.9,2.2c-0.4,0.8-1.5,1-2.4,0.6
				c-0.1-0.1-0.2-0.2-0.3-0.3l-6.3,1.5c0,0,0,0.1,0,0.1c-0.4,0.6-3.5,5.8-3.5,5.8S201,143.7,200.6,144.4
				C200.6,144.4,200.6,144.4,200.6,144.4z"/>
			<path fill="#FFFFFF" d="M199.5,121.7l-1.1-0.5c0.7-1.1,0.7-3.8-1-4.6c-1.7-0.7-3.9,0-5.1,1.6c-1.2,1.7-0.3,4.1,0.6,4.6l-0.8,1.1
				c-1.9-1.1-2.4-3.9-0.8-6.1c1.6-2.1,4.6-3.1,6.8-2.2C200.4,116.6,201,119.5,199.5,121.7z"/>
			<path fill="#FFFFFF" d="M179.8,135.2c-1.4,1.9-1.4,4.7,0,6.1c1.5,1.5,4.6,0.1,5.5-1.2l1,0.9c-1.8,2.7-5.4,3.6-7.4,1.5
				c-1.9-1.9-1.7-5.6,0.2-8.1c1.8-2.5,5-3.1,6.8-1.8l-0.8,1.2C183.2,132.4,181.2,133.3,179.8,135.2z"/>
			<path fill="#FFFFFF" d="M220.6,132.1c1.3-2.4-0.1-5.4-2.9-6.6c-2.6-1.1-6.1,0.5-6.9,1.7l-1.4-0.7c1.5-2.5,5.7-3.8,9.2-2.3
				c3.7,1.6,5.5,5.6,3.7,8.8c-1.8,3.4-6.8,4.1-10.1,2.2l0.8-1.4C214.7,134.8,219.2,134.6,220.6,132.1z"/>
			<path fill="#FFFFFF" d="M195.6,149l1.4,1.2c-1,1.6-1,6.6,1.4,8.9c2.6,2.5,6.3,2.1,8-1c1.6-3,1.3-6.7-1.9-9.3l0.9-1.6
				c3.2,2.4,5,8.3,2.8,12.4c-2.3,4.2-7.3,4.8-10.8,1.4C194.1,157.8,193.7,152.2,195.6,149z"/>
		</g>
		<g>
			<path fill="#FFFFFF" d="M70.3,135.3l-24.6-24.6c-0.5-0.5-1.1-0.7-1.7-0.6c-0.6,0-1.2,0.2-1.7,0.6l-24.6,24.6
				c-0.8,0.8-0.9,2-0.4,2.9c0.8,1.2,2.5,1.4,3.5,0.4l22.8-22.8c0.2-0.2,0.6-0.2,0.8,0l22.8,22.8c1,1,2.7,0.9,3.5-0.4
				C71.2,137.3,71.1,136.1,70.3,135.3z"/>
			<path fill="#FFFFFF" d="M22.1,141.6v18.6c0,0.9,0.8,1.7,1.7,1.7h14.1c0.3,0,0.6-0.3,0.6-0.6v-19.1c0-0.3,0.3-0.6,0.6-0.6h10.1
				c0.3,0,0.6,0.3,0.6,0.6v19.1c0,0.3,0.3,0.6,0.6,0.6h14.1c0.9,0,1.7-0.8,1.7-1.7v-18.6L44.4,120c-0.2-0.2-0.6-0.2-0.8,0
				L22.1,141.6z"/>
		</g>
		<g>
			<path opacity="0.35" fill="#2EBBD9" d="M160.6,156.4l-7.1-14.4h2.4c1.4,0,2.3-2.3,1.4-4l-10.2-20.7h2c0.8,0,1.3-1.3,0.8-2.3
				L140.8,96c-0.4-0.8-1.3-0.8-1.7,0l-9.2,18.8c-0.5,1,0,2.3,0.8,2.3h2l-10.2,20.7c-0.8,1.7,0,4,1.4,4h2.4l-7.1,14.4
				c-1,2,0,4.8,1.7,4.8h13.6l-1.8,12.8h6.1v-12.8v-53.4l1.6,15.6l3.7-9l-3.2,14.4l1,13.8l5.7-12.2l-4.9,21.7l1.2,9.2h14.8
				C160.6,161.1,161.6,158.4,160.6,156.4z M136.1,139.8l-5.2-13.5l5.8,8.4L136.1,139.8z"/>
			<path fill="#2EBBD9" d="M147,161.4l-8.3-17h2.8c1.7,0,2.7-2.7,1.7-4.7l-11.9-24.3h2.4c1,0,1.5-1.6,1-2.7l-10.8-22.1
				c-0.5-1-1.5-1-2,0L111,112.7c-0.6,1.1,0,2.7,1,2.7h2.4l-11.9,24.3c-1,2,0,4.7,1.7,4.7h2.8l-8.3,17c-1.2,2.3,0,5.6,2,5.6h16
				l-2.1,15h7.1v-15v-62.6l1.9,18.3l4.4-10.5l-3.7,16.9l1.2,16.2l6.6-14.3l-5.8,25.5l1.5,10.8H145C147,167,148.2,163.8,147,161.4z
				 M118.3,141.9l-6.1-15.9l6.8,9.9L118.3,141.9z"/>
		</g>
		
			<line fill="none" stroke="#FFFFFF" stroke-width="2" stroke-miterlimit="10" stroke-dasharray="4" x1="200.3" y1="108.6" x2="200.3" y2="68.3"/>
		
			<line fill="none" stroke="#FFFFFF" stroke-width="2" stroke-miterlimit="10" stroke-dasharray="4" x1="200.3" y1="68.3" x2="42.9" y2="68.3"/>
		
			<line fill="none" stroke="#FFFFFF" stroke-width="2" stroke-miterlimit="10" stroke-dasharray="4" x1="43.9" y1="68.3" x2="43.9" y2="103.9"/>
		<polygon fill="#FFFFFF" points="126.2,58 108.3,68.3 126.2,78.6 		"/>
		<polygon fill="#FFFFFF" points="210.6,98.8 200.3,80.9 190,98.8 		"/>
		<polygon fill="#FFFFFF" points="54.2,87.7 43.9,105.6 33.6,87.7 		"/>
	</g>
</g>
</svg>
