<?xml version="1.0" encoding="utf-8"?>
<!-- Generator: Adobe Illustrator 18.0.0, SVG Export Plug-In . SVG Version: 6.00 Build 0)  -->
<!DOCTYPE svg PUBLIC "-//W3C//DTD SVG 1.1//EN" "http://www.w3.org/Graphics/SVG/1.1/DTD/svg11.dtd">
<svg version="1.1" id="图层_1" xmlns="http://www.w3.org/2000/svg" xmlns:xlink="http://www.w3.org/1999/xlink" x="0px" y="0px"
	 viewBox="0 0 240 240" enable-background="new 0 0 240 240" xml:space="preserve">
<g>
	<g opacity="5.000000e-002">
		<rect x="7" y="7" fill="#2EBBD9" width="226" height="226"/>
	</g>
	<g>
		
			<radialGradient id="SVGID_1_" cx="82.9529" cy="385.8854" r="55.0588" gradientTransform="matrix(1.4703 0 2.822507e-005 1.3904 -2.3783 -416.9524)" gradientUnits="userSpaceOnUse">
			<stop  offset="0" style="stop-color:#2EBBD9"/>
			<stop  offset="1" style="stop-color:#2EBBD9;stop-opacity:0"/>
		</radialGradient>
		<path opacity="0.5" fill="url(#SVGID_1_)" d="M119.6,123l50.9-50.9C142.4,44,96.8,44,68.7,72.1L119.6,123z"/>
		
			<radialGradient id="SVGID_2_" cx="547.6641" cy="971.1613" r="55.0942" gradientTransform="matrix(0.1244 -1.4216 1.3443 0.1176 -1268.7941 804.3124)" gradientUnits="userSpaceOnUse">
			<stop  offset="0" style="stop-color:#2EBBD9"/>
			<stop  offset="1" style="stop-color:#2EBBD9;stop-opacity:0"/>
		</radialGradient>
		<path opacity="0.5" fill="url(#SVGID_2_)" d="M108.2,140.3L63.3,86.7c-29.6,24.8-33.4,68.9-8.6,98.5L108.2,140.3z"/>
		
			<radialGradient id="SVGID_3_" cx="544.0712" cy="840.765" r="55.0942" gradientTransform="matrix(-0.1244 -1.4216 -1.3443 0.1176 1333.0553 815.321)" gradientUnits="userSpaceOnUse">
			<stop  offset="0" style="stop-color:#2EBBD9"/>
			<stop  offset="1" style="stop-color:#2EBBD9;stop-opacity:0"/>
		</radialGradient>
		<path opacity="0.5" fill="url(#SVGID_3_)" d="M131.8,141.1l44.9-53.6c29.6,24.8,33.4,68.9,8.6,98.5L131.8,141.1z"/>
		<g>
			<path fill="#FFFFFF" d="M137.5,159.5l12.4,10.8c-0.1,0.3-0.2,0.7-0.1,1c0.2,2.3,2.4,4.2,4.8,4.2c2.4,0,4.2-1.9,3.9-4.2
				c-0.3-2.3-2.4-4.1-4.8-4.1c-0.4,0-0.7,0.1-1,0.2l-12.8-11c0.3-1-0.1-2.2-0.2-3.4c-0.1-2.3-7.8-4.5-7.9-6.2
				c-0.1-1.4-0.4-9.7-0.6-14.4l16-13.4c0.3,0.1,0.9,0.1,1.2,0.1c2,0,3.7-1.3,3.5-2.9c-0.2-1.6-1.9-2.9-3.9-2.9c-2,0-3.5,1.3-3.3,2.9
				c0,0.3,0.2,0.5,0.3,0.7l-10.1,8.7c0.3-0.4,0.4-0.8,0.4-1.5c-1.3-2.8-9.8-5.1-12.5-5.1c-2.8,0-3.4,0-6.2,0
				c-2.8,0-11.2,2.3-12.6,5.1c0,0.5-0.1,0.9-0.1,1.2l-9.8-8.4c0.1-0.2,0.2-0.5,0.2-0.7c0.1-1.6-1.4-2.9-3.4-2.9s-3.8,1.3-4,2.9
				c-0.2,1.6,1.3,2.9,3.4,2.9c0.3,0,1.2-0.1,1.5-0.1l16.2,13.6c-0.2,4.7-0.5,12.9-0.6,14.2c-0.1,1.8-7.7,3.9-7.9,6.2
				c-0.1,1.1-0.2,2.2,0.1,3.2l-13.1,11.1c-0.3-0.1-0.7-0.2-1.1-0.2c-2.4,0-4.6,1.8-4.8,4.1c-0.3,2.3,1.5,4.2,3.9,4.2
				s4.6-1.9,4.8-4.2c0-0.4-0.1-0.7-0.1-1l12.4-10.8c0.1,0,0.2,0.1,0.4,0.1c1.9,0,17.7,0,17.7,0s15.7,0,17.7,0
				C137.4,159.5,137.4,159.5,137.5,159.5z"/>
			<path fill="#FFFFFF" d="M89.2,128.4l0.3-3.1c-3.8,0-10.6-4.1-9.9-9c0.7-4.7,6-8.6,11.9-8.6c5.9,0,10.4,5.5,10.2,8.4h3.7
				c0.3-5.7-5.7-11.1-13.5-11.1c-7.8,0-14.9,4.9-15.9,11.2C74.9,122.8,81.6,128.4,89.2,128.4z"/>
			<path fill="#FFFFFF" d="M147.8,107.7c5.9,0,11.2,3.8,11.8,8.6c0.7,4.9-6.1,8.9-9.9,8.9l0.3,3.1c7.6,0,14.2-5.7,13.2-12.2
				c-1-6.3-8.3-11.1-16.1-11.1c-7.8,0-13.6,5.4-13.4,11.1h3.7C137.1,110.4,141.9,107.7,147.8,107.7z"/>
			<path fill="#FFFFFF" d="M83.5,184.4c-7.5,0-12.7-6.2-11.7-13.2c1-6.7,10-11.9,14.2-11.9l0.4-3.8c-8.3,0-17.6,7.1-19,16
				c-1.5,9.4,5.8,17.5,16,17.5c10.2,0,18.7-8.9,19.2-17.4h-4.4C97.9,175.7,91,184.4,83.5,184.4z"/>
			<path fill="#FFFFFF" d="M152.9,155.5l0.4,3.8c4.2,0,13.2,5.3,14.1,12c1,7-4.4,13-11.9,13c-7.5,0-14-4.4-14.6-12.9h-4.4
				c0.4,8.5,9.1,17.4,19.3,17.4c10.2,0,17.4-8.1,15.9-17.5C170.4,162.5,161.2,155.5,152.9,155.5z"/>
		</g>
		<g>
			<path fill="none" stroke="#FFFFFF" stroke-miterlimit="10" d="M67.5,174.4c-4.8-5.8-8.5-12.6-10.6-20.4c-5.6-20.9,2-42.1,17.8-55
				"/>
			<path fill="none" stroke="#FFFFFF" stroke-miterlimit="10" d="M86.4,159.6c-2.9-3.3-5.1-7.3-6.4-11.8
				c-3.1-11.7,1.3-23.6,10.3-30.6"/>
		</g>
		<g>
			<path fill="none" stroke="#FFFFFF" stroke-miterlimit="10" d="M173.8,175.5c4.8-5.8,8.5-12.6,10.6-20.4c5.6-20.9-2-42.1-17.8-55"
				/>
			<path fill="none" stroke="#FFFFFF" stroke-miterlimit="10" d="M154.9,160.8c2.9-3.3,5.1-7.3,6.4-11.8
				c3.1-11.7-1.3-23.6-10.3-30.6"/>
		</g>
		<g>
			<path fill="none" stroke="#FFFFFF" stroke-miterlimit="10" d="M157.3,83.6c-5.3-5.3-11.9-9.6-19.4-12.3
				c-20.3-7.4-42.2-1.6-56.3,12.9"/>
			<path fill="none" stroke="#FFFFFF" stroke-miterlimit="10" d="M140.9,101.1c-3-3.2-6.8-5.8-11.2-7.4c-11.4-4.1-23.6-0.8-31.4,7.6
				"/>
		</g>
	</g>
</g>
</svg>
