<?xml version="1.0" encoding="utf-8"?>
<!-- Generator: Adobe Illustrator 18.0.0, SVG Export Plug-In . SVG Version: 6.00 Build 0)  -->
<!DOCTYPE svg PUBLIC "-//W3C//DTD SVG 1.1//EN" "http://www.w3.org/Graphics/SVG/1.1/DTD/svg11.dtd">
<svg version="1.1" id="图层_1" xmlns="http://www.w3.org/2000/svg" xmlns:xlink="http://www.w3.org/1999/xlink" x="0px" y="0px"
	 viewBox="0 0 740 480" enable-background="new 0 0 740 480" xml:space="preserve">
<g>
	<g opacity="0.3">
		<path fill="#2EBBD9" d="M734,6v468H6V6H734 M735,5H5v470h730V5L735,5z"/>
	</g>
	<polygon fill="#2EBBD9" stroke="#2EBBD9" stroke-miterlimit="10" points="6,465 5,465 5,475 15,475 15,474 6,474 	"/>
	<polygon fill="#2EBBD9" stroke="#2EBBD9" stroke-miterlimit="10" points="734,465 735,465 735,475 725,475 725,474 734,474 	"/>
	<polygon fill="#2EBBD9" stroke="#2EBBD9" stroke-miterlimit="10" points="6,15 5,15 5,5 15,5 15,6 6,6 	"/>
	<polygon fill="#2EBBD9" stroke="#2EBBD9" stroke-miterlimit="10" points="734,15 735,15 735,5 725,5 725,6 734,6 	"/>
</g>
</svg>
