<?xml version="1.0" encoding="utf-8"?>
<!-- Generator: Adobe Illustrator 18.0.0, SVG Export Plug-In . SVG Version: 6.00 Build 0)  -->
<!DOCTYPE svg PUBLIC "-//W3C//DTD SVG 1.1//EN" "http://www.w3.org/Graphics/SVG/1.1/DTD/svg11.dtd">
<svg version="1.1" id="图层_1" xmlns="http://www.w3.org/2000/svg" xmlns:xlink="http://www.w3.org/1999/xlink" x="0px" y="0px"
	 viewBox="0 0 240 240" enable-background="new 0 0 240 240" xml:space="preserve">
<g opacity="5.000000e-002">
	<rect x="7.2" y="7" fill="#2EBBD9" width="226" height="226"/>
</g>
<g>
	<path fill="#FFFFFF" d="M158.7,57.8h-20.7V45.9c0-3.3-2.7-5.9-5.9-5.9h-23.7c-3.3,0-5.9,2.7-5.9,5.9v11.9H81.6
		c-3.3,0-5.9,2.7-5.9,5.9v130.4c0,3.3,2.7,5.9,5.9,5.9h77c3.3,0,5.9-2.7,5.9-5.9V63.7C164.6,60.4,162,57.8,158.7,57.8z M155.7,188.1
		c0,1.6-1.3,3-3,3H87.6c-1.6,0-3-1.3-3-3V69.6c0-1.6,1.3-3,3-3h65.2c1.6,0,3,1.3,3,3V188.1z"/>
	<path fill="#10EBBF" d="M90.5,182.2c0,1.6,1.3,3,3,3h53.3c1.6,0,3-1.3,3-3v-14.8H90.5V182.2z"/>
	<rect x="90.5" y="143.7" fill="#10EBBF" width="59.3" height="17.8"/>
	<rect x="90.5" y="120" fill="#10EBBF" width="59.3" height="17.8"/>
</g>
</svg>
