<?xml version="1.0" encoding="utf-8"?>
<!-- Generator: Adobe Illustrator 18.0.0, SVG Export Plug-In . SVG Version: 6.00 Build 0)  -->
<!DOCTYPE svg PUBLIC "-//W3C//DTD SVG 1.1//EN" "http://www.w3.org/Graphics/SVG/1.1/DTD/svg11.dtd">
<svg version="1.1" id="图层_1" xmlns="http://www.w3.org/2000/svg" xmlns:xlink="http://www.w3.org/1999/xlink" x="0px" y="0px"
	 viewBox="0 0 100 100" enable-background="new 0 0 100 100" xml:space="preserve">
<g>
	<path fill="#FFFFFF" d="M50,0C31.8,11.9,9.4,5.7,9.4,5.7s0,31.2,0,47.2c0,29.1,40.6,47,40.6,47s40.6-17.9,40.6-47
		c0-16,0-47.2,0-47.2S68.2,11.9,50,0z M85.7,52.7c0,26-35.7,41.9-35.7,41.9s-35.7-16-35.7-41.9c0-14.3,0-40.5,0-40.5S34,16,50,5.4
		c16,10.6,35.7,6.7,35.7,6.7S85.7,38.4,85.7,52.7z"/>
	<path fill="#FFFFFF" d="M50,15.7c-12,8.2-26.9,5.2-26.9,5.2s0,20.2,0,31.2c0,20,26.9,32.3,26.9,32.3s26.9-12.3,26.9-32.3
		c0-11,0-31.2,0-31.2S62,23.8,50,15.7z M65.6,51.6H54.7v10.9h-9.4V51.6H34.4v-9.4h10.9V31.3h9.4v10.9h10.9V51.6z"/>
</g>
</svg>
