<?xml version="1.0" encoding="utf-8"?>
<!-- Generator: Adobe Illustrator 18.0.0, SVG Export Plug-In . SVG Version: 6.00 Build 0)  -->
<!DOCTYPE svg PUBLIC "-//W3C//DTD SVG 1.1//EN" "http://www.w3.org/Graphics/SVG/1.1/DTD/svg11.dtd">
<svg version="1.1" id="图层_1" xmlns="http://www.w3.org/2000/svg" xmlns:xlink="http://www.w3.org/1999/xlink" x="0px" y="0px"
	 viewBox="0 0 240 240" enable-background="new 0 0 240 240" xml:space="preserve">
<g opacity="5.000000e-002">
	<rect x="7.2" y="7" fill="#2EBBD9" width="226" height="226"/>
</g>
<g>
	<g>
		<path fill="#FFFFFF" d="M104.5,125.5l-4.1,21.4c-0.4,0.2-0.8,0.3-1.2,0.7c-2.5,2.1-3.3,6-1.7,8.7c1.6,2.8,4.9,3.2,7.3,1
			c2.4-2.2,3-6,1.5-8.7c-0.2-0.4-0.6-0.7-0.9-1l3.8-22c1.3-0.4,2.3-1.7,3.5-2.7c2.4-1.8-0.2-11.1,1.6-12.4c1.4-1,9.8-7.1,14.4-10.5
			l23.9,6.2c0.1,0.3,0.5,1,0.7,1.3c1.4,2,3.8,2.7,5.3,1.4c1.4-1.3,1.5-3.8,0.1-5.7c-1.4-1.9-3.6-2.4-5.1-1.2
			c-0.2,0.2-0.4,0.5-0.5,0.7L138,99c0.6,0,1.1-0.1,1.7-0.6c1.9-3.1-1.2-12.4-3-14.9c-1.7-2.5-2.2-3.1-3.9-5.5
			c-1.7-2.4-9.1-8.3-12.6-7.7c-0.5,0.3-0.9,0.5-1.3,0.6l2.3-13.2c0.3-0.1,0.6-0.1,0.8-0.2c1.6-0.8,1.9-2.8,0.7-4.4
			c-1.2-1.6-3.4-2.3-5-1.5c-1.6,0.8-2,2.7-0.8,4.4c0.2,0.3,0.8,0.9,1,1.1l-3.6,22c-4.8,2.8-13.2,7.8-14.6,8.6
			c-1.9,1.1-8.5-4.5-10.9-3.1c-1.2,0.7-2.4,1.3-3.3,2.2L67,82c-0.1-0.4-0.2-0.8-0.4-1.1c-1.3-2.1-4.3-2.9-6.8-1.7
			c-2.6,1.2-3.7,4-2.4,6.2c1.3,2.2,4.4,3,7,1.6c0.4-0.2,0.7-0.5,1-0.8l18.1,4.3c0,0.1,0.1,0.3,0.1,0.4c1.1,1.8,10.2,16.7,10.2,16.7
			s9.5,15.7,10.7,17.7C104.5,125.4,104.5,125.4,104.5,125.5z"/>
		<path fill="#FFFFFF" d="M107.6,60.3l3.2-1.6c-2.1-3.1-2.1-11,2.9-13.2c4.8-2.1,11.3,0,14.7,4.7c3.5,4.7,1,11.6-1.8,13.2l2.2,3.1
			c5.5-3.2,6.9-11.3,2.3-17.5c-4.5-6.1-13.1-9-19.4-6.3C105,45.5,103.3,54,107.6,60.3z"/>
		<path fill="#FFFFFF" d="M164,99.1c4.1,5.6,4.1,13.4-0.1,17.4c-4.4,4.2-13.1,0.3-15.7-3.4l-2.9,2.5c5.2,7.7,15.5,10.2,21.4,4.4
			c5.5-5.5,4.9-16-0.5-23.4c-5.3-7.2-14.3-9-19.6-5.1L149,95C154.2,91,160,93.6,164,99.1z"/>
		<path fill="#FFFFFF" d="M47.2,90.2c-3.8-6.9,0.3-15.4,8.2-18.9c7.5-3.3,17.5,1.3,19.7,5l4.1-2c-4.4-7.2-16.4-10.8-26.4-6.6
			c-10.7,4.5-15.7,16-10.7,25.4c5.2,9.6,19.5,11.8,29,6.4l-2.4-4.1C64,97.8,51,97.2,47.2,90.2z"/>
		<path fill="#FFFFFF" d="M118.8,138.7l-3.9,3.4c2.8,4.6,3,18.9-4,25.6c-7.4,7.2-18,5.9-22.9-2.9c-4.7-8.6-3.7-19.4,5.5-26.6
			l-2.7-4.7c-9.3,7-14.3,23.7-8,35.5c6.5,12.2,21,13.9,30.9,3.9C123,163.7,124.3,147.7,118.8,138.7z"/>
	</g>
	<g>
		<path fill="none" stroke="#E43A3D" stroke-width="5" stroke-miterlimit="10" d="M167.8,146.6c0,10.7-8.7,19.4-19.4,19.4"/>
		<path fill="none" stroke="#E43A3D" stroke-width="5" stroke-miterlimit="10" d="M182.4,146.6c0,18.8-15.2,34-34,34"/>
		<path fill="none" stroke="#E43A3D" stroke-width="5" stroke-miterlimit="10" d="M200.2,146.6c0,28.6-23.2,51.7-51.7,51.7"/>
	</g>
	
		<line fill="none" stroke="#E43A3D" stroke-width="2" stroke-miterlimit="10" stroke-dasharray="4" x1="124.1" y1="110.6" x2="153" y2="149.4"/>
</g>
</svg>
