<?xml version="1.0" encoding="utf-8"?>
<!-- Generator: Adobe Illustrator 18.0.0, SVG Export Plug-In . SVG Version: 6.00 Build 0)  -->
<!DOCTYPE svg PUBLIC "-//W3C//DTD SVG 1.1//EN" "http://www.w3.org/Graphics/SVG/1.1/DTD/svg11.dtd">
<svg version="1.1" id="图层_1" xmlns="http://www.w3.org/2000/svg" xmlns:xlink="http://www.w3.org/1999/xlink" x="0px" y="0px"
	 viewBox="0 0 240 240" enable-background="new 0 0 240 240" xml:space="preserve">
<g opacity="5.000000e-002">
	<rect x="7" y="7" fill="#2EBBD9" width="226" height="226"/>
</g>
<g>
	<g>
		<path fill="#FFFFFF" d="M137.9,81.6l12.4,10.8c-0.1,0.3-0.2,0.7-0.1,1c0.2,2.3,2.4,4.2,4.8,4.2c2.4,0,4.2-1.9,3.9-4.2
			c-0.3-2.3-2.4-4.1-4.8-4.1c-0.4,0-0.7,0.1-1,0.2l-12.8-11c0.3-1-0.1-2.2-0.2-3.4c-0.1-2.3-7.8-4.5-7.9-6.2
			c-0.1-1.4-0.4-9.7-0.6-14.4l16-13.4c0.3,0.1,0.9,0.1,1.2,0.1c2,0,3.7-1.3,3.5-2.9c-0.2-1.6-1.9-2.9-3.9-2.9c-2,0-3.5,1.3-3.3,2.9
			c0,0.3,0.2,0.5,0.3,0.7l-10.1,8.7c0.3-0.4,0.4-0.8,0.4-1.5c-1.3-2.8-9.8-5.1-12.5-5.1c-2.8,0-3.4,0-6.2,0
			c-2.8,0-11.2,2.3-12.6,5.1c0,0.5-0.1,0.9-0.1,1.2L94.5,39c0.1-0.2,0.2-0.5,0.2-0.7c0.1-1.6-1.4-2.9-3.4-2.9c-2,0-3.8,1.3-4,2.9
			c-0.2,1.6,1.3,2.9,3.4,2.9c0.3,0,1.2-0.1,1.5-0.1l16.2,13.6c-0.2,4.7-0.5,12.9-0.6,14.2c-0.1,1.8-7.7,3.9-7.9,6.2
			c-0.1,1.1-0.2,2.2,0.1,3.2L87.1,89.4c-0.3-0.1-0.7-0.2-1.1-0.2c-2.4,0-4.6,1.8-4.8,4.1c-0.3,2.3,1.5,4.2,3.9,4.2s4.6-1.9,4.8-4.2
			c0-0.4-0.1-0.7-0.1-1L102,81.5c0.1,0,0.2,0.1,0.4,0.1c1.9,0,17.7,0,17.7,0s15.7,0,17.7,0C137.8,81.6,137.8,81.6,137.9,81.6z"/>
		<path fill="#FFFFFF" d="M89.6,50.4l0.3-3.1c-3.8,0-10.6-4.1-9.9-9c0.7-4.7,6-8.6,11.9-8.6c5.9,0,10.4,5.5,10.2,8.4h3.7
			C106,32.4,100,27,92.2,27c-7.8,0-14.9,4.9-15.9,11.2C75.3,44.8,82,50.4,89.6,50.4z"/>
		<path fill="#FFFFFF" d="M148.2,29.7c5.9,0,11.2,3.8,11.8,8.6c0.7,4.9-6.1,8.9-9.9,8.9l0.3,3.1c7.6,0,14.2-5.7,13.2-12.2
			c-1-6.3-8.3-11.1-16.1-11.1c-7.8,0-13.6,5.4-13.4,11.1l3.7,0C137.5,32.4,142.3,29.7,148.2,29.7z"/>
		<path fill="#FFFFFF" d="M83.9,106.4c-7.5,0-12.7-6.2-11.7-13.2c1-6.7,10-11.9,14.2-11.9l0.4-3.8c-8.3,0-17.6,7.1-19,16
			c-1.5,9.4,5.8,17.5,16,17.5s18.7-8.9,19.2-17.4l-4.4,0C98.3,97.8,91.4,106.4,83.9,106.4z"/>
		<path fill="#FFFFFF" d="M153.3,77.6l0.4,3.8c4.2,0,13.2,5.3,14.1,12c1,7-4.4,13-11.9,13c-7.5,0-14-4.4-14.6-12.9H137
			c0.4,8.5,9.1,17.4,19.3,17.4s17.4-8.1,15.9-17.5C170.8,84.5,161.6,77.6,153.3,77.6z"/>
	</g>
	<polygon fill="#FFFFFF" points="136,185.3 120,213 104,185.3 	"/>
	
		<line fill="none" stroke="#FFFFFF" stroke-width="2" stroke-miterlimit="10" stroke-dasharray="6" x1="120" y1="97.3" x2="120" y2="172.9"/>
</g>
</svg>
