<?xml version="1.0" encoding="utf-8"?>
<!-- Generator: Adobe Illustrator 18.0.0, SVG Export Plug-In . SVG Version: 6.00 Build 0)  -->
<!DOCTYPE svg PUBLIC "-//W3C//DTD SVG 1.1//EN" "http://www.w3.org/Graphics/SVG/1.1/DTD/svg11.dtd">
<svg version="1.1" id="图层_1" xmlns="http://www.w3.org/2000/svg" xmlns:xlink="http://www.w3.org/1999/xlink" x="0px" y="0px"
	 viewBox="0 0 240 240" enable-background="new 0 0 240 240" xml:space="preserve">
<g opacity="5.000000e-002">
	<rect x="7.2" y="7" fill="#2EBBD9" width="226" height="226"/>
</g>
<path fill="#FFFFFF" d="M171.9,62.1c0,0,27.1-13.6,28.9-14.1c4.2-3,20.5-5.5,23.5-1.3c4.9,6.2-9.4,15.7-12.1,17.3
	c-3.8,2-28.9,13.2-28.9,13.2l-14.1,37.7l-8.1,5.9V86.2l-29.9,10.6c0,0-4.2,2.6-10.4-2.2c-6.2-4.8-17.4-14.8-17.4-14.8l7.9-2.7
	l16.7,5.3l25-11.6l-14-11.3l9.3-2.2L171.9,62.1z"/>
<line fill="none" stroke="#FFFFFF" stroke-miterlimit="10" x1="98.9" y1="89.3" x2="53.1" y2="106.3"/>
<line fill="none" stroke="#FFFFFF" stroke-miterlimit="10" x1="148.3" y1="101.5" x2="118.9" y2="112.4"/>
<line fill="none" stroke="#FFFFFF" stroke-miterlimit="10" x1="128.3" y1="58.8" x2="98.9" y2="69.7"/>
<path fill-rule="evenodd" clip-rule="evenodd" fill="#FFFFFF" d="M24.9,162.1c2.7-3,1.8-4.6,2-6.7c0.2-2.1-2-4.2-1.6-6.4
	c0.4-2.1,1.1-16.1,2.8-17.8c3.8-3.8,6.5-7.9,8.3-9c1.7-1.1,4.9-0.4,4.9-0.4c0,0,2.7-1.6,4.4-1.8c1-0.1,3.2,1.7,0.6,6
	c-1.3,2.2-3.7,2.9-3.6,2.7c0,0-0.5,1.1-0.9,1.6c-0.7,0.8-1.7,0.9-1.8,0.8l1.5,0.6c0,0,1.3-1.4,3.9-2.5c1.9-0.8,4.4-1.7,7.3-2.7
	c1.7-0.6,3.4-1.6,5.2-2.2c1.7-0.6,3.5-0.8,5.2-1.4c3.7-1.3,7.7-3.1,11.2-4.2c7.7-2.3,14.3-3.2,16.6-2.4c2,0.7,2.8,3.3,0.9,4.9
	c-2,1.6-6.8,2.2-10.3,4c-1,0.5-2.4,1.5-3.3,2c-2.2,1.1-4.1,1.8-5.7,2.5c-1.7,0.8-2.9,1.9-2.9,1.9c0,0.1,2.5,0,6.1-2.1
	c2.5-1.5,5-3.1,7.5-4.5c1.9-1,4.5-1.1,6.8-2.1c3.5-1.6,6.2-1.9,7.6-1.3c0.5,0.2,3.1,2.1,1.8,4c-1.2,1.8-4.6,2.9-7.9,4.9
	c-1.4,0.8-2.3,2-3.7,2.8c-2.7,1.8-6.9,2.7-8.9,4.3c-2.7,2.3-2.9,3.2-3,3.2c-0.1,0,2.4-1.2,5.4-2.4c1.2-0.5,2.5-0.8,3.7-1.6
	c4.7-3,9.8-6.2,12.3-6.5c2.1-0.3,3.6,2.6,1.8,4.9c-0.8,1.1-3.2,2.5-6,4.3c-1.5,1-2.6,2.5-4.3,3.7c-2.2,1.5-4.7,3.1-6.9,4
	c-3.1,1.4-4.7,2.6-5.4,3c-1.1,0.6-1.3,1.4-1.4,1.3c0,0,6.1-3.6,11.1-6.8c3.3-2.1,5.1-3.7,7-3.5c1.2,0.2,3.7,2.2-2.1,7.2
	c-2,1.8-8,7.3-8.7,7.7c-1.3,0.8-2.9,2-5,3.5c-1,0.7-2.1,1.8-3.2,2.6c-1.7,1.2-4.3,2.1-6,3.3c-1.4,1-3.4,3.1-4.5,4.1
	c-1.3,1.1-3.1,2.3-4.1,2.4c-3.7,0.7-3.4,2-3.7,3.9C54.9,183.8,19.4,168.3,24.9,162.1"/>
</svg>
