<?xml version="1.0" encoding="utf-8"?>
<!-- Generator: Adobe Illustrator 18.0.0, SVG Export Plug-In . SVG Version: 6.00 Build 0)  -->
<!DOCTYPE svg PUBLIC "-//W3C//DTD SVG 1.1//EN" "http://www.w3.org/Graphics/SVG/1.1/DTD/svg11.dtd">
<svg version="1.1" id="图层_1" xmlns="http://www.w3.org/2000/svg" xmlns:xlink="http://www.w3.org/1999/xlink" x="0px" y="0px"
	 viewBox="0 0 100 100" enable-background="new 0 0 100 100" xml:space="preserve">
<g>
	<path fill="#FFFFFF" d="M18,18c-1.1-1.1-2.3-2.3-3.3-3.3c-1.2,1.2-2.3,2.4-3.3,3.7c-0.5,0.6-0.9,1.2-1.3,1.8
		c-0.5,0.7-1.1,1.4-1.6,2.2c-0.5,0.7-0.9,1.4-1.3,2.2c-0.4,0.7-0.8,1.3-1.2,2c-0.4,0.7-0.7,1.5-1.1,2.3c-0.3,0.7-0.7,1.4-1,2.2
		c-0.3,0.7-0.5,1.5-0.8,2.2c-0.3,0.8-0.6,1.6-0.8,2.4c-0.2,0.7-0.4,1.5-0.6,2.3c-0.2,0.8-0.4,1.6-0.6,2.5c-0.2,0.9-0.3,1.8-0.4,2.6
		c-0.1,0.7-0.2,1.5-0.3,2.2C0.1,46.7,0,48.3,0,50c0,0,0,0,0,0c0,1.7,0.1,3.3,0.2,4.9c0.1,0.7,0.2,1.5,0.3,2.2
		C0.7,58,0.8,58.9,1,59.8c0.2,0.8,0.4,1.6,0.6,2.5c0.2,0.8,0.4,1.5,0.6,2.3c0.2,0.8,0.5,1.6,0.8,2.4c0.3,0.8,0.5,1.5,0.8,2.3
		c0.3,0.7,0.7,1.4,1,2.1c0.4,0.8,0.7,1.5,1.1,2.3c0.4,0.7,0.8,1.3,1.2,2c0.4,0.7,0.9,1.5,1.3,2.2c0.5,0.7,1,1.4,1.6,2.1
		c0.5,0.6,0.9,1.2,1.4,1.8c1,1.2,2.1,2.4,3.2,3.6c0,0,0,0,0.1,0.1c1.1-1.1,2.2-2.2,3.3-3.3C9.8,73.8,4.7,62.5,4.7,50
		C4.7,37.5,9.8,26.2,18,18z"/>
	<path fill="#FFFFFF" d="M24.6,24.6c-1.1-1.1-2.2-2.2-3.3-3.3C13.9,28.6,9.4,38.8,9.4,50c0,11.2,4.5,21.4,11.9,28.7
		c1.1-1.1,2.2-2.2,3.3-3.3C18.1,68.9,14.1,59.9,14.1,50C14.1,40.1,18.1,31.1,24.6,24.6z"/>
	<path fill="#FFFFFF" d="M31.2,31.2c-1.1-1.1-2.2-2.2-3.3-3.3c-5.7,5.7-9.2,13.5-9.2,22.1s3.5,16.4,9.2,22.1
		c1.1-1.1,2.2-2.2,3.3-3.3C26.4,64,23.4,57.3,23.4,50C23.4,42.7,26.4,36,31.2,31.2z"/>
	<path fill="#FFFFFF" d="M99.8,45.1c-0.1-0.7-0.2-1.5-0.3-2.2c-0.1-0.9-0.2-1.8-0.4-2.7c-0.2-0.8-0.4-1.6-0.6-2.5
		c-0.2-0.8-0.4-1.5-0.6-2.3c-0.2-0.8-0.5-1.6-0.8-2.4c-0.3-0.8-0.5-1.5-0.8-2.3c-0.3-0.7-0.7-1.4-1-2.1c-0.4-0.8-0.7-1.5-1.1-2.3
		c-0.4-0.7-0.8-1.3-1.2-2c-0.4-0.7-0.9-1.5-1.3-2.2c-0.5-0.7-1-1.4-1.6-2.1c-0.5-0.6-0.9-1.2-1.4-1.8c-1-1.2-2.1-2.4-3.2-3.6
		c0,0,0,0-0.1-0.1c-1.1,1.1-2.2,2.2-3.3,3.3c8.2,8.2,13.3,19.5,13.3,32c0,12.5-5.1,23.8-13.3,32c1.1,1.1,2.3,2.3,3.3,3.3
		c1.2-1.2,2.3-2.4,3.3-3.7c0.5-0.6,0.9-1.2,1.3-1.8c0.5-0.7,1.1-1.4,1.6-2.2c0.5-0.7,0.9-1.4,1.3-2.2c0.4-0.7,0.8-1.3,1.2-2
		c0.4-0.7,0.7-1.5,1.1-2.3c0.3-0.7,0.7-1.4,1-2.2c0.3-0.7,0.5-1.5,0.8-2.2c0.3-0.8,0.6-1.6,0.8-2.4c0.2-0.7,0.4-1.5,0.6-2.3
		c0.2-0.8,0.4-1.6,0.6-2.5c0.2-0.9,0.3-1.8,0.4-2.6c0.1-0.7,0.2-1.5,0.3-2.2c0.2-1.6,0.2-3.3,0.2-4.9c0,0,0,0,0,0
		C100,48.3,99.9,46.7,99.8,45.1z"/>
	<path fill="#FFFFFF" d="M78.7,21.3c-1.1,1.1-2.2,2.2-3.3,3.3c6.5,6.5,10.5,15.5,10.5,25.4c0,9.9-4,18.9-10.5,25.4
		c1.1,1.1,2.2,2.2,3.3,3.3c7.4-7.4,11.9-17.5,11.9-28.7C90.6,38.8,86.1,28.6,78.7,21.3z"/>
	<path fill="#FFFFFF" d="M72.1,27.9c-1.1,1.1-2.2,2.2-3.3,3.3c4.8,4.8,7.8,11.4,7.8,18.8c0,7.3-3,14-7.8,18.8
		c1.1,1.1,2.2,2.2,3.3,3.3c5.7-5.7,9.2-13.5,9.2-22.1S77.8,33.6,72.1,27.9z"/>
	<path fill="#FFFFFF" d="M53.1,21.5h-6.3c-3.4,0-6.3,2.8-6.3,6.3v18.8c0,3.4,2.8,6.3,6.3,6.3v25.8h6.3V52.7c3.4,0,6.3-2.8,6.3-6.3
		V27.7C59.4,24.3,56.6,21.5,53.1,21.5z"/>
</g>
</svg>
