<?xml version="1.0" encoding="utf-8"?>
<!-- Generator: Adobe Illustrator 18.0.0, SVG Export Plug-In . SVG Version: 6.00 Build 0)  -->
<!DOCTYPE svg PUBLIC "-//W3C//DTD SVG 1.1//EN" "http://www.w3.org/Graphics/SVG/1.1/DTD/svg11.dtd">
<svg version="1.1" id="图层_1" xmlns="http://www.w3.org/2000/svg" xmlns:xlink="http://www.w3.org/1999/xlink" x="0px" y="0px"
	 viewBox="0 0 96 96" enable-background="new 0 0 96 96" xml:space="preserve">
<path fill="#8EA7AF" d="M93.1,16H82v-6c0-1.1-0.9-2-2-2H64c-1.1,0-2,0.9-2,2v6H34v-6c0-1.1-0.9-2-2-2H16c-1.1,0-2,0.9-2,2v6H2.9
	C1.3,16,0,17.3,0,18.9v66.2C0,86.7,1.3,88,2.9,88h90.2c1.6,0,2.9-1.3,2.9-2.9V18.9C96,17.3,94.7,16,93.1,16z M39,78l6-25H32l8-23h20
	l-8,15h12L39,78z"/>
</svg>
