<?xml version="1.0" encoding="utf-8"?>
<!-- Generator: Adobe Illustrator 18.0.0, SVG Export Plug-In . SVG Version: 6.00 Build 0)  -->
<!DOCTYPE svg PUBLIC "-//W3C//DTD SVG 1.1//EN" "http://www.w3.org/Graphics/SVG/1.1/DTD/svg11.dtd">
<svg version="1.1" id="图层_1" xmlns="http://www.w3.org/2000/svg" xmlns:xlink="http://www.w3.org/1999/xlink" x="0px" y="0px"
	 viewBox="0 0 96 96" enable-background="new 0 0 96 96" xml:space="preserve">
<g>
	<g opacity="0.35">
		<path d="M93.1,17H82v-6c0-1.1-0.9-2-2-2H64c-1.1,0-2,0.9-2,2v6H34v-6c0-1.1-0.9-2-2-2H16c-1.1,0-2,0.9-2,2v6H2.9
			C1.3,17,0,18.3,0,19.9v66.2C0,87.7,1.3,89,2.9,89h90.2c1.6,0,2.9-1.3,2.9-2.9V19.9C96,18.3,94.7,17,93.1,17z M37.9,79l5.6-26.2H30
			L39,31h22.5l-9,15.3l13.5,0L37.9,79z"/>
	</g>
	<g>
		<path fill="#FFFFFF" d="M93.1,16H82v-6c0-1.1-0.9-2-2-2H64c-1.1,0-2,0.9-2,2v6H34v-6c0-1.1-0.9-2-2-2H16c-1.1,0-2,0.9-2,2v6H2.9
			C1.3,16,0,17.3,0,18.9v66.2C0,86.7,1.3,88,2.9,88h90.2c1.6,0,2.9-1.3,2.9-2.9V18.9C96,17.3,94.7,16,93.1,16z M37.9,78l5.6-26.2H30
			L39,30h22.5l-9,15.3l13.5,0L37.9,78z"/>
	</g>
</g>
</svg>
