<?xml version="1.0" encoding="utf-8"?>
<!-- Generator: Adobe Illustrator 18.0.0, SVG Export Plug-In . SVG Version: 6.00 Build 0)  -->
<!DOCTYPE svg PUBLIC "-//W3C//DTD SVG 1.1//EN" "http://www.w3.org/Graphics/SVG/1.1/DTD/svg11.dtd">
<svg version="1.1" id="图层_1" xmlns="http://www.w3.org/2000/svg" xmlns:xlink="http://www.w3.org/1999/xlink" x="0px" y="0px"
	 viewBox="0 0 420 54" enable-background="new 0 0 420 54" xml:space="preserve">
<g>
	<g opacity="0.35">
		<path d="M410.3,55H9.7c-2.1,0-4.1-1.7-4.3-3.9l-4.9-46C0.2,2.8,1.8,1,4,1h412c2.2,0,3.8,1.8,3.6,4.1l-4.9,46
			C414.4,53.3,412.5,55,410.3,55z"/>
	</g>
	<g>
		<path fill="#2EBBD9" d="M410.3,54H9.7c-2.1,0-4.1-1.7-4.3-3.9l-4.9-46C0.2,1.8,1.8,0,4,0h412c2.2,0,3.8,1.8,3.6,4.1l-4.9,46
			C414.4,52.3,412.5,54,410.3,54z"/>
	</g>
</g>
</svg>
