<?xml version="1.0" encoding="utf-8"?>
<!-- Generator: Adobe Illustrator 18.0.0, SVG Export Plug-In . SVG Version: 6.00 Build 0)  -->
<!DOCTYPE svg PUBLIC "-//W3C//DTD SVG 1.1//EN" "http://www.w3.org/Graphics/SVG/1.1/DTD/svg11.dtd">
<svg version="1.1" id="图层_1" xmlns="http://www.w3.org/2000/svg" xmlns:xlink="http://www.w3.org/1999/xlink" x="0px" y="0px"
	 viewBox="0 0 100 100" enable-background="new 0 0 100 100" xml:space="preserve">
<g>
	<g>
		<path fill="#FFFFFF" d="M81.3,90.6c0,1.7-1.4,3.1-3.1,3.1H9.4c-1.7,0-3.1-1.4-3.1-3.1V21.9c0-1.7,1.4-3.1,3.1-3.1H50v-6.3H6.3
			c-3.5,0-6.3,2.8-6.3,6.3v75c0,3.5,2.8,6.3,6.3,6.3h75c3.5,0,6.3-2.8,6.3-6.3V50h-6.3V90.6z"/>
		<path fill="#FFFFFF" d="M98.2,10.7l-8.8-8.8c-2.4-2.4-6.4-2.4-8.8,0L20.8,61.5l-6.6,24.3l24.3-6.6l59.7-59.7
			C100.6,17.1,100.6,13.1,98.2,10.7z M34.1,74.8l-8.8-8.8l46.5-46.5l8.8,8.8L34.1,74.8z M85.1,23.8l-8.8-8.8l8.7-8.7l8.8,8.8
			L85.1,23.8z"/>
	</g>
</g>
</svg>
