<?xml version="1.0" encoding="utf-8"?>
<!-- Generator: Adobe Illustrator 18.0.0, SVG Export Plug-In . SVG Version: 6.00 Build 0)  -->
<!DOCTYPE svg PUBLIC "-//W3C//DTD SVG 1.1//EN" "http://www.w3.org/Graphics/SVG/1.1/DTD/svg11.dtd">
<svg version="1.1" id="图层_1" xmlns="http://www.w3.org/2000/svg" xmlns:xlink="http://www.w3.org/1999/xlink" x="0px" y="0px"
	 viewBox="0 0 350 46" enable-background="new 0 0 350 46" xml:space="preserve">
<g>
	<g opacity="0.35">
		<path fill="#10EBBF" d="M341.9,45.9H8c-1.7,0-3.4-1.4-3.6-3.3L0.4,4.3C0.1,2.4,1.5,0.9,3.3,0.9h343.3c1.8,0,3.2,1.5,3,3.4
			l-4.1,38.3C345.3,44.5,343.7,45.9,341.9,45.9z"/>
	</g>
	<g>
		<path fill="#10EBBF" d="M341.9,45.1H8c-1.7,0-3.4-1.4-3.6-3.3L0.4,3.5C0.1,1.6,1.5,0.1,3.3,0.1h343.3c1.8,0,3.2,1.5,3,3.4
			l-4.1,38.3C345.3,43.7,343.7,45.1,341.9,45.1z"/>
	</g>
</g>
</svg>
