<?xml version="1.0" encoding="utf-8"?>
<!-- Generator: Adobe Illustrator 18.0.0, SVG Export Plug-In . SVG Version: 6.00 Build 0)  -->
<!DOCTYPE svg PUBLIC "-//W3C//DTD SVG 1.1//EN" "http://www.w3.org/Graphics/SVG/1.1/DTD/svg11.dtd">
<svg version="1.1" id="图层_1" xmlns="http://www.w3.org/2000/svg" xmlns:xlink="http://www.w3.org/1999/xlink" x="0px" y="0px"
	 viewBox="0 0 100 100" enable-background="new 0 0 100 100" xml:space="preserve">
<g>
	<path fill="#FFFFFF" d="M57.6,64.9L35.1,42.4c-2.2-2.2-2.4-5.7-0.4-7.7c2-2,5.5-1.8,7.7,0.4l22.5,22.5c2.2,2.2,2.4,5.7,0.4,7.7
		C63.3,67.3,59.8,67.1,57.6,64.9z"/>
	<path fill="#FFFFFF" d="M1.8,19.3L19.3,1.8c2.4-2.4,6.4-2.4,8.8,0L57.3,31c2.4,2.4,2.4,6.4,0,8.8l-2.9,2.9l-6-6
		c0.5-1.2,0.4-2.6-0.6-3.5L25.9,11.3c-1.2-1.2-3.2-1.2-4.4,0L11.3,21.5c-1.2,1.2-1.2,3.2,0,4.4l21.9,21.9c0.9,0.9,2.4,1.1,3.5,0.6
		l6,6l-2.9,2.9c-2.4,2.4-6.4,2.4-8.8,0L1.8,28.1C-0.6,25.7-0.6,21.7,1.8,19.3z"/>
	<path fill="#FFFFFF" d="M42.7,60.2l2.9-2.9l6,6c-0.5,1.2-0.4,2.6,0.6,3.5l21.9,21.9c1.2,1.2,3.2,1.2,4.4,0l10.2-10.2
		c1.2-1.2,1.2-3.2,0-4.4L66.8,52.2c-0.9-0.9-2.4-1.1-3.5-0.6l-6-6l2.9-2.9c2.4-2.4,6.4-2.4,8.8,0l29.2,29.2c2.4,2.4,2.4,6.4,0,8.8
		L80.7,98.2c-2.4,2.4-6.4,2.4-8.8,0L42.7,69C40.3,66.6,40.3,62.6,42.7,60.2z"/>
</g>
</svg>
