<?xml version="1.0" encoding="utf-8"?>
<!-- Generator: Adobe Illustrator 18.0.0, SVG Export Plug-In . SVG Version: 6.00 Build 0)  -->
<!DOCTYPE svg PUBLIC "-//W3C//DTD SVG 1.1//EN" "http://www.w3.org/Graphics/SVG/1.1/DTD/svg11.dtd">
<svg version="1.1" id="图层_1" xmlns="http://www.w3.org/2000/svg" xmlns:xlink="http://www.w3.org/1999/xlink" x="0px" y="0px"
	 viewBox="0 0 100 100" enable-background="new 0 0 100 100" xml:space="preserve">
<path fill="#FFFFFF" d="M95.3,15.6H75V6.3C75,2.8,72.2,0,68.8,0H31.3C27.8,0,25,2.8,25,6.3v9.4H4.7c-0.9,0-1.6,0.7-1.6,1.6v6.3
	c0,0.9,0.7,1.6,1.6,1.6h10.9v62.5c0,6.9,5.6,12.5,12.5,12.5h43.8c6.9,0,12.5-5.6,12.5-12.5V25h10.9c0.9,0,1.6-0.7,1.6-1.6v-6.3
	C96.9,16.3,96.2,15.6,95.3,15.6z M35.9,84.4h-9.4V40.6h9.4V84.4z M54.7,84.4h-9.4V40.6h9.4V84.4z M73.4,84.4h-9.4V40.6h9.4V84.4z
	 M34.4,9.4h31.3v6.3H34.4V9.4z"/>
</svg>
