<?xml version="1.0" encoding="utf-8"?>
<!-- Generator: Adobe Illustrator 18.0.0, SVG Export Plug-In . SVG Version: 6.00 Build 0)  -->
<!DOCTYPE svg PUBLIC "-//W3C//DTD SVG 1.1//EN" "http://www.w3.org/Graphics/SVG/1.1/DTD/svg11.dtd">
<svg version="1.1" id="图层_1" xmlns="http://www.w3.org/2000/svg" xmlns:xlink="http://www.w3.org/1999/xlink" x="0px" y="0px"
	 viewBox="0 0 96 96" enable-background="new 0 0 96 96" xml:space="preserve">
<g>
	<image overflow="visible" width="126" height="127" xlink:href="445F4215.png"  transform="matrix(1 0 0 1 -15 -15)">
	</image>
	<g>
		<g opacity="0.35">
			<path d="M52,56.6V3c0-1.1-0.9-2-2-2h-4c-1.1,0-2,0.9-2,2v53.6c-6.3,1.8-11,7.5-11,14.4s4.7,12.7,11,14.4V95c0,1.1,0.9,2,2,2h4
				c1.1,0,2-0.9,2-2v-9.6c6.3-1.8,11-7.5,11-14.4S58.3,58.3,52,56.6z M48,79c-4.4,0-8-3.6-8-8s3.6-8,8-8s8,3.6,8,8S52.4,79,48,79z"
				/>
			<path d="M19,12.6V3c0-1.1-0.9-2-2-2h-4c-1.1,0-2,0.9-2,2v9.6C4.7,14.3,0,20.1,0,27s4.7,12.7,11,14.4V95c0,1.1,0.9,2,2,2h4
				c1.1,0,2-0.9,2-2V41.4c6.3-1.8,11-7.5,11-14.4S25.3,14.3,19,12.6z M15,35c-4.4,0-8-3.6-8-8s3.6-8,8-8s8,3.6,8,8S19.4,35,15,35z"
				/>
			<path d="M85,24.6V3c0-1.1-0.9-2-2-2h-4c-1.1,0-2,0.9-2,2v21.6c-6.3,1.8-11,7.5-11,14.4s4.7,12.7,11,14.4V95c0,1.1,0.9,2,2,2h4
				c1.1,0,2-0.9,2-2V53.4c6.3-1.8,11-7.5,11-14.4S91.3,26.3,85,24.6z M81,47c-4.4,0-8-3.6-8-8s3.6-8,8-8s8,3.6,8,8S85.4,47,81,47z"
				/>
		</g>
		<g>
			<g>
				<path fill="#FFFFFF" d="M52,55.6V2c0-1.1-0.9-2-2-2h-4c-1.1,0-2,0.9-2,2v53.6c-6.3,1.8-11,7.5-11,14.4s4.7,12.7,11,14.4V94
					c0,1.1,0.9,2,2,2h4c1.1,0,2-0.9,2-2v-9.6c6.3-1.8,11-7.5,11-14.4S58.3,57.3,52,55.6z M48,78c-4.4,0-8-3.6-8-8s3.6-8,8-8
					s8,3.6,8,8S52.4,78,48,78z"/>
				<path fill="#FFFFFF" d="M19,11.6V2c0-1.1-0.9-2-2-2h-4c-1.1,0-2,0.9-2,2v9.6C4.7,13.3,0,19.1,0,26s4.7,12.7,11,14.4V94
					c0,1.1,0.9,2,2,2h4c1.1,0,2-0.9,2-2V40.4c6.3-1.8,11-7.5,11-14.4S25.3,13.3,19,11.6z M15,34c-4.4,0-8-3.6-8-8s3.6-8,8-8
					s8,3.6,8,8S19.4,34,15,34z"/>
				<path fill="#FFFFFF" d="M85,23.6V2c0-1.1-0.9-2-2-2h-4c-1.1,0-2,0.9-2,2v21.6c-6.3,1.8-11,7.5-11,14.4s4.7,12.7,11,14.4V94
					c0,1.1,0.9,2,2,2h4c1.1,0,2-0.9,2-2V52.4c6.3-1.8,11-7.5,11-14.4S91.3,25.3,85,23.6z M81,46c-4.4,0-8-3.6-8-8s3.6-8,8-8
					s8,3.6,8,8S85.4,46,81,46z"/>
			</g>
		</g>
	</g>
</g>
</svg>
