<?xml version="1.0" encoding="utf-8"?>
<!-- Generator: Adobe Illustrator 18.0.0, SVG Export Plug-In . SVG Version: 6.00 Build 0)  -->
<!DOCTYPE svg PUBLIC "-//W3C//DTD SVG 1.1//EN" "http://www.w3.org/Graphics/SVG/1.1/DTD/svg11.dtd">
<svg version="1.1" id="图层_1" xmlns="http://www.w3.org/2000/svg" xmlns:xlink="http://www.w3.org/1999/xlink" x="0px" y="0px"
	 viewBox="0 0 96 96" enable-background="new 0 0 96 96" xml:space="preserve">
<g>
	<g opacity="0.35">
		<polygon points="45.7,27.8 19,1.1 5.2,14.9 31.9,41.7 		"/>
		<polygon points="69.3,51.4 55.4,65.3 82.2,92 96,78.2 		"/>
		<path d="M63.9,33.2c-3.8-3.8-10-3.8-13.8,0l-18,17.7c-3.9,3.8-3.9,10,0,13.9v0c3.8,3.8,10,3.8,13.8,0l18-17.7
			C67.7,43.2,67.8,37,63.9,33.2z M57.7,43.9c-2.6,0-4.7-2.1-4.7-4.7c0-2.6,2.1-4.7,4.7-4.7c2.6,0,4.7,2.1,4.7,4.7
			C62.4,41.8,60.3,43.9,57.7,43.9z"/>
		<path d="M38.7,77.8c-5.4,0-10.3-2.2-13.8-5.7c-3.5-3.5-5.7-8.4-5.7-13.8h-3.7c0,12.9,10.4,23.3,23.3,23.3V77.8L38.7,77.8z"/>
		<path d="M38.7,85.3c-7.5,0-14.2-3-19.1-7.9c-4.9-4.9-7.9-11.6-7.9-19.1H7.9c0,17,13.8,30.8,30.8,30.8V85.3L38.7,85.3z"/>
		<path d="M38.7,93.2c-9.7,0-18.4-3.9-24.7-10.2C7.6,76.6,3.7,67.9,3.7,58.2H0c0,21.4,17.3,38.7,38.7,38.7V93.2L38.7,93.2z"/>
	</g>
	<g>
		<g>
			<polygon fill="#FFFFFF" points="45.7,26.8 19,0.1 5.2,13.9 31.9,40.7 			"/>
			<polygon fill="#FFFFFF" points="69.3,50.4 55.4,64.3 82.2,91 96,77.2 			"/>
			<path fill="#FFFFFF" d="M63.9,32.2c-3.8-3.8-10-3.8-13.8,0l-18,17.7c-3.9,3.8-3.9,10,0,13.9v0c3.8,3.8,10,3.8,13.8,0l18-17.7
				C67.7,42.2,67.8,36,63.9,32.2z M57.7,42.9c-2.6,0-4.7-2.1-4.7-4.7c0-2.6,2.1-4.7,4.7-4.7c2.6,0,4.7,2.1,4.7,4.7
				C62.4,40.8,60.3,42.9,57.7,42.9z"/>
			<path fill="#FFFFFF" d="M38.7,76.8c-5.4,0-10.3-2.2-13.8-5.7c-3.5-3.5-5.7-8.4-5.7-13.8h-3.7c0,12.9,10.4,23.3,23.3,23.3V76.8
				L38.7,76.8z"/>
			<path fill="#FFFFFF" d="M38.7,84.3c-7.5,0-14.2-3-19.1-7.9c-4.9-4.9-7.9-11.6-7.9-19.1H7.9c0,17,13.8,30.8,30.8,30.8V84.3
				L38.7,84.3z"/>
			<path fill="#FFFFFF" d="M38.7,92.2c-9.7,0-18.4-3.9-24.7-10.2C7.6,75.6,3.7,66.9,3.7,57.2H0c0,21.4,17.3,38.7,38.7,38.7V92.2
				L38.7,92.2z"/>
		</g>
	</g>
</g>
</svg>
