<?xml version="1.0" encoding="utf-8"?>
<!-- Generator: Adobe Illustrator 16.0.0, SVG Export Plug-In . SVG Version: 6.00 Build 0)  -->
<!DOCTYPE svg PUBLIC "-//W3C//DTD SVG 1.1//EN" "http://www.w3.org/Graphics/SVG/1.1/DTD/svg11.dtd">
<svg version="1.1" id="图层_1" xmlns="http://www.w3.org/2000/svg" xmlns:xlink="http://www.w3.org/1999/xlink" x="0px" y="0px"
	 width="40px" height="40px" viewBox="0 0 40 40" enable-background="new 0 0 40 40" xml:space="preserve">
<g id="gps">
	<g>
		<polygon fill="#8EA6B1" points="19.037,11.374 7.881,0.217 2.155,6.089 13.312,17.1 		"/>
		<polygon fill="#8EA6B1" points="28.872,21.21 23.001,26.935 34.158,38.092 39.883,32.22 		"/>
		<path fill="#8EA6B1" d="M26.523,13.576c-1.613-1.614-4.109-1.614-5.725,0l-7.487,7.34c-1.614,1.615-1.614,4.111,0,5.725
			c1.616,1.615,4.111,1.615,5.726,0l7.486-7.34C28.139,17.833,28.139,15.191,26.523,13.576z M24.028,17.98
			c-1.027,0-1.908-0.88-1.908-1.908c0-1.027,0.881-1.909,1.908-1.909s1.908,0.881,1.908,1.909
			C25.937,17.1,25.056,17.98,24.028,17.98z"/>
		<path fill="#8EA6B1" d="M8.027,23.999H6.413c0,5.284,4.404,9.688,9.689,9.688v-1.614l0,0c-2.202,0-4.257-0.882-5.725-2.349
			C8.908,28.256,8.027,26.2,8.027,23.999z"/>
		<path fill="#8EA6B1" d="M4.945,23.999H3.33c0,7.046,5.725,12.771,12.772,12.771v-1.614c-3.083,0-5.872-1.322-7.927-3.229
			C6.119,29.871,4.945,27.081,4.945,23.999z"/>
		<path fill="#8EA6B1" d="M1.568,23.999H0.1C0.1,32.807,7.293,40,16.102,40v-1.615c-3.964,0-7.634-1.614-10.276-4.257
			C3.183,31.633,1.568,27.963,1.568,23.999z"/>
	</g>
</g>
</svg>
