<?xml version="1.0" encoding="utf-8"?>
<!-- Generator: Adobe Illustrator 18.0.0, SVG Export Plug-In . SVG Version: 6.00 Build 0)  -->
<!DOCTYPE svg PUBLIC "-//W3C//DTD SVG 1.1//EN" "http://www.w3.org/Graphics/SVG/1.1/DTD/svg11.dtd">
<svg version="1.1" id="图层_1" xmlns="http://www.w3.org/2000/svg" xmlns:xlink="http://www.w3.org/1999/xlink" x="0px" y="0px"
	 viewBox="0 0 96 96" enable-background="new 0 0 96 96" xml:space="preserve">
<g>
	<image overflow="visible" width="126" height="127" xlink:href="C9DFCAF7.png"  transform="matrix(1 0 0 1 -15 -15)">
	</image>
	<g>
		<g opacity="0.35">
			<path d="M85.3,56.6c0.1-0.4,0.4-0.7,0.8-0.7l9.5-1.1c0.2-1.9,0.4-3.8,0.4-5.7c0-1.9-0.1-3.8-0.4-5.7l-9.5-1.1
				c-0.4,0-0.7-0.3-0.8-0.7l-1.2-4.5c-0.1-0.4,0-0.8,0.4-1.1l7.7-5.7c-1.5-3.5-3.4-6.9-5.7-9.9L77.6,24c-0.4,0.2-0.8,0.1-1.1-0.2
				l-3.3-3.3c-0.3-0.3-0.4-0.7-0.2-1.1l3.8-8.8c-3-2.3-6.4-4.2-9.9-5.7l-5.7,7.7c-0.2,0.3-0.7,0.5-1.1,0.4l-4.5-1.2
				c-0.4-0.1-0.7-0.4-0.7-0.8l-1.1-9.5C51.8,1.1,49.9,1,48,1s-3.8,0.1-5.7,0.4l-1.1,9.5c0,0.4-0.3,0.7-0.7,0.8l-4.5,1.2
				c-0.4,0.1-0.8,0-1.1-0.4l-5.7-7.7c-3.5,1.5-6.9,3.4-9.9,5.7l3.8,8.8c0.2,0.4,0.1,0.8-0.2,1.1l-3.3,3.3c-0.3,0.3-0.7,0.4-1.1,0.2
				l-8.8-3.8c-2.3,3-4.2,6.4-5.7,9.9l7.7,5.7c0.3,0.2,0.5,0.7,0.4,1.1l-1.2,4.5c-0.1,0.4-0.4,0.7-0.8,0.7l-9.5,1.1
				C0.1,45.2,0,47.1,0,49c0,1.9,0.1,3.8,0.4,5.7l9.5,1.1c0.4,0,0.7,0.3,0.8,0.7l1.2,4.5c0.1,0.4,0,0.8-0.4,1.1l-7.7,5.7
				c1.5,3.5,3.4,6.9,5.7,9.9l8.8-3.8c0.4-0.2,0.8-0.1,1.1,0.2l3.3,3.3c0.3,0.3,0.4,0.7,0.2,1.1l-3.8,8.8c3,2.3,6.4,4.2,9.9,5.7
				l5.7-7.7c0.2-0.3,0.7-0.5,1.1-0.4l4.5,1.2c0.4,0.1,0.7,0.4,0.7,0.8l1.1,9.5c1.9,0.2,3.8,0.4,5.7,0.4s3.8-0.1,5.7-0.4l1.1-9.5
				c0-0.4,0.3-0.7,0.7-0.8l4.5-1.2c0.4-0.1,0.8,0,1.1,0.4l5.7,7.7c3.5-1.5,6.9-3.4,9.9-5.7L73,78.6c-0.2-0.4-0.1-0.8,0.2-1.1
				l3.3-3.3c0.3-0.3,0.7-0.4,1.1-0.2l8.8,3.8c2.3-3,4.2-6.4,5.7-9.9l-7.7-5.7c-0.3-0.2-0.5-0.7-0.4-1.1L85.3,56.6z M74.5,37.2
				L62,41.3c-2.3-4.1-6.3-7.1-11-8V20.2C61.5,21.2,70.4,28,74.5,37.2z M39,49c0-5,4-9,9-9s9,4,9,9c0,5-4,9-9,9S39,54,39,49z
				 M45,20.2v13.1c-4.8,0.9-8.8,3.9-11,8l-12.5-4.1C25.6,28,34.5,21.2,45,20.2z M19,49c0-2.1,0.2-4.1,0.6-6.1L32.1,47
				c-0.1,0.7-0.1,1.3-0.1,2c0,4.2,1.7,8.1,4.3,10.9l-7.7,10.6C22.7,65.3,19,57.6,19,49z M48,78c-5.3,0-10.3-1.4-14.5-3.9l7.7-10.6
				c2.1,1,4.4,1.5,6.8,1.5s4.7-0.6,6.8-1.5l7.7,10.6C58.3,76.6,53.3,78,48,78z M67.4,70.6l-7.7-10.6C62.3,57.1,64,53.2,64,49
				c0-0.7-0.1-1.3-0.1-2l12.5-4.1c0.4,2,0.6,4,0.6,6.1C77,57.6,73.3,65.3,67.4,70.6z"/>
			<circle cx="48" cy="49" r="4"/>
		</g>
		<g>
			<g>
				<path fill="#FFFFFF" d="M85.3,55.6c0.1-0.4,0.4-0.7,0.8-0.7l9.5-1.1c0.2-1.9,0.4-3.8,0.4-5.7c0-1.9-0.1-3.8-0.4-5.7l-9.5-1.1
					c-0.4,0-0.7-0.3-0.8-0.7l-1.2-4.5c-0.1-0.4,0-0.8,0.4-1.1l7.7-5.7c-1.5-3.5-3.4-6.9-5.7-9.9L77.6,23c-0.4,0.2-0.8,0.1-1.1-0.2
					l-3.3-3.3c-0.3-0.3-0.4-0.7-0.2-1.1l3.8-8.8c-3-2.3-6.4-4.2-9.9-5.7l-5.7,7.7c-0.2,0.3-0.7,0.5-1.1,0.4l-4.5-1.2
					c-0.4-0.1-0.7-0.4-0.7-0.8l-1.1-9.5C51.8,0.1,49.9,0,48,0s-3.8,0.1-5.7,0.4l-1.1,9.5c0,0.4-0.3,0.7-0.7,0.8l-4.5,1.2
					c-0.4,0.1-0.8,0-1.1-0.4l-5.7-7.7c-3.5,1.5-6.9,3.4-9.9,5.7l3.8,8.8c0.2,0.4,0.1,0.8-0.2,1.1l-3.3,3.3c-0.3,0.3-0.7,0.4-1.1,0.2
					l-8.8-3.8c-2.3,3-4.2,6.4-5.7,9.9l7.7,5.7c0.3,0.2,0.5,0.7,0.4,1.1l-1.2,4.5c-0.1,0.4-0.4,0.7-0.8,0.7l-9.5,1.1
					C0.1,44.2,0,46.1,0,48c0,1.9,0.1,3.8,0.4,5.7l9.5,1.1c0.4,0,0.7,0.3,0.8,0.7l1.2,4.5c0.1,0.4,0,0.8-0.4,1.1l-7.7,5.7
					c1.5,3.5,3.4,6.9,5.7,9.9l8.8-3.8c0.4-0.2,0.8-0.1,1.1,0.2l3.3,3.3c0.3,0.3,0.4,0.7,0.2,1.1l-3.8,8.8c3,2.3,6.4,4.2,9.9,5.7
					l5.7-7.7c0.2-0.3,0.7-0.5,1.1-0.4l4.5,1.2c0.4,0.1,0.7,0.4,0.7,0.8l1.1,9.5c1.9,0.2,3.8,0.4,5.7,0.4s3.8-0.1,5.7-0.4l1.1-9.5
					c0-0.4,0.3-0.7,0.7-0.8l4.5-1.2c0.4-0.1,0.8,0,1.1,0.4l5.7,7.7c3.5-1.5,6.9-3.4,9.9-5.7L73,77.6c-0.2-0.4-0.1-0.8,0.2-1.1
					l3.3-3.3c0.3-0.3,0.7-0.4,1.1-0.2l8.8,3.8c2.3-3,4.2-6.4,5.7-9.9l-7.7-5.7c-0.3-0.2-0.5-0.7-0.4-1.1L85.3,55.6z M74.5,36.2
					L62,40.3c-2.3-4.1-6.3-7.1-11-8V19.2C61.5,20.2,70.4,27,74.5,36.2z M39,48c0-5,4-9,9-9s9,4,9,9c0,5-4,9-9,9S39,53,39,48z
					 M45,19.2v13.1c-4.8,0.9-8.8,3.9-11,8l-12.5-4.1C25.6,27,34.5,20.2,45,19.2z M19,48c0-2.1,0.2-4.1,0.6-6.1L32.1,46
					c-0.1,0.7-0.1,1.3-0.1,2c0,4.2,1.7,8.1,4.3,10.9l-7.7,10.6C22.7,64.3,19,56.6,19,48z M48,77c-5.3,0-10.3-1.4-14.5-3.9l7.7-10.6
					c2.1,1,4.4,1.5,6.8,1.5s4.7-0.6,6.8-1.5l7.7,10.6C58.3,75.6,53.3,77,48,77z M67.4,69.6l-7.7-10.6C62.3,56.1,64,52.2,64,48
					c0-0.7-0.1-1.3-0.1-2l12.5-4.1c0.4,2,0.6,4,0.6,6.1C77,56.6,73.3,64.3,67.4,69.6z"/>
				<circle fill="#FFFFFF" cx="48" cy="48" r="4"/>
			</g>
		</g>
	</g>
</g>
</svg>
