<?xml version="1.0" encoding="utf-8"?>
<!-- Generator: Adobe Illustrator 21.0.2, SVG Export Plug-In . SVG Version: 6.00 Build 0)  -->
<svg version="1.1" id="图层_1" xmlns="http://www.w3.org/2000/svg" xmlns:xlink="http://www.w3.org/1999/xlink" x="0px" y="0px"
	 viewBox="0 0 100 100" style="enable-background:new 0 0 100 100;" xml:space="preserve">
<style type="text/css">
	.st0{fill:#2EBAD8;}
	.st1{fill:#FFFFFF;}
</style>
<g>
	<circle class="st0" cx="50" cy="50" r="50"/>
	<g>
		<g>
			<path class="st1" d="M65,39.4h-1.9V25H36.9v14.4H35c-1,0-1.9,0.8-1.9,1.9v30c0,7.2,5.9,13.1,13.1,13.1h1.9V100h3.8V84.4h1.9
				c7.2,0,13.1-5.9,13.1-13.1v-30C66.9,40.2,66,39.4,65,39.4z M61.3,39.4H38.8V26.9h22.5V39.4z"/>
			<rect x="40.6" y="30.6" class="st1" width="5.6" height="1.9"/>
			<rect x="53.8" y="30.6" class="st1" width="5.6" height="1.9"/>
		</g>
		<g>
			<circle class="st0" cx="50" cy="75.6" r="3.8"/>
			<path class="st0" d="M57.3,54.4h-3.8v3.8H55v1.7l-4.5,4.5V51.3h3.3L50,45.6l-3.8,5.6h3.3v16.8L45,63.6v-1.8
				c0.8-0.2,1.4-0.9,1.4-1.8c0-1-0.8-1.9-1.9-1.9S42.7,59,42.7,60c0,0.9,0.6,1.6,1.4,1.8v2c0,0.1,0.1,0.2,0.1,0.3l0,0l5.3,5.3l0,0
				v2.5H50h0.5v-6.2l5.3-5.3l0,0c0.1-0.1,0.1-0.2,0.1-0.3v-1.9h1.4V54.4z"/>
		</g>
	</g>
</g>
</svg>
