<?xml version="1.0" encoding="utf-8"?>
<!-- Generator: Adobe Illustrator 18.0.0, SVG Export Plug-In . SVG Version: 6.00 Build 0)  -->
<!DOCTYPE svg PUBLIC "-//W3C//DTD SVG 1.1//EN" "http://www.w3.org/Graphics/SVG/1.1/DTD/svg11.dtd">
<svg version="1.1" id="图层_1" xmlns="http://www.w3.org/2000/svg" xmlns:xlink="http://www.w3.org/1999/xlink" x="0px" y="0px"
	 viewBox="0 42 100 16" enable-background="new 0 42 100 16" xml:space="preserve">
<g>
	<polygon fill="#FFFFFF" points="20.1,52.9 20.1,52.9 18.7,43.2 15.4,43.2 14.1,52.9 14.1,52.9 13.2,43.2 9.5,43.2 11.7,56.9 
		15.9,56.9 17,47.7 17,47.7 18.2,56.9 22.3,56.9 24.5,43.2 20.9,43.2 	"/>
	<path fill="#FFFFFF" d="M30.8,56.9h3.9l-3.2-13.7h-4.8l-3.2,13.7h3.9l0.4-2.1h2.6L30.8,56.9L30.8,56.9z M30,51.8h-1.7l0.9-5.6l0,0
		L30,51.8z"/>
	<polygon fill="#FFFFFF" points="33.4,46.5 36,46.5 36,56.9 39.8,56.9 39.8,46.5 42.4,46.5 42.4,43.2 33.4,43.2 	"/>
	<polygon fill="#FFFFFF" points="43.1,46.5 45.7,46.5 45.7,56.9 49.5,56.9 49.5,46.5 52.1,46.5 52.1,43.2 43.1,43.2 	"/>
	<path fill="#FFFFFF" d="M56.5,49.3v-5.7h10.9v5.7h-7.3c-0.3,0.4-0.6,0.8-0.9,1.2H68c0,0.4,0,1.3-0.1,2.5c0,0.5-0.1,0.9-0.1,1.2
		c0,1.7-0.9,2.6-2.5,2.5c-0.2,0-0.4,0-0.8,0c-0.5,0-0.9,0.1-1.2,0.1c0-0.2-0.1-0.4-0.2-0.7c-0.1-0.3-0.1-0.6-0.2-0.8
		c0.5,0,1.1,0.1,1.7,0.1c1,0.1,1.5-0.4,1.6-1.3c0.1-0.9,0.1-1.6,0.1-2.2h-1.7c-0.6,2.2-2.1,3.9-4.4,5.2c-0.4-0.3-0.8-0.7-1.2-0.9
		c2.2-1.1,3.6-2.6,4.1-4.3h-1.8c-1,2.1-2.9,3.7-5.6,4.7l-0.1-0.1c-0.4-0.5-0.7-0.8-0.9-1.1c2.5-0.9,4.2-2,5.1-3.6h-1.9
		c-0.8,0.7-1.6,1.3-2.3,1.8c-0.2-0.4-0.6-0.8-1-1.1c1.5-0.8,2.7-1.9,3.6-3.2L56.5,49.3L56.5,49.3z M58.1,47v1.2h7.7V47H58.1L58.1,47
		z M58.1,44.8v1.1h7.7v-1.1H58.1L58.1,44.8z M70.1,45.4v-1.5h13.4v1.5h-9.4l-0.2,2H81l-0.2,6.9c0,0.6,0.2,0.9,0.6,0.8h0.3
		c0.5,0,0.8-0.2,0.9-0.8c0-0.1,0-0.3,0.1-0.6c0.1-0.9,0.1-1.5,0.1-1.8c0.1,0,0.3,0.1,0.5,0.2c0.4,0.1,0.6,0.2,0.8,0.2
		c0,0.9-0.1,1.7-0.3,2.6c-0.1,1.1-0.7,1.6-2,1.6H81c-1.2,0-1.8-0.6-1.7-1.9l0.2-5.8h-5.6L73,54.6c0.3-0.1,0.9-0.2,1.5-0.3
		c1.6-0.2,2.8-0.4,3.8-0.6c0,0.2,0,0.4-0.1,0.8c0,0.3,0,0.6-0.1,0.7c-2.3,0.3-4.1,0.6-5.3,0.9c-0.5,0.1-0.9,0.3-1.2,0.5l-0.9-1.5
		c0.4-0.4,0.7-0.8,0.7-1.3l1-8.3h-2.3V45.4z M77.3,52.9l0.9-1.2c-1.1-0.7-2.1-1.4-3-2l-0.9,1.1C75.6,51.6,76.6,52.3,77.3,52.9
		L77.3,52.9z M85.9,49.5l-1-0.4c0.4-1.4,0.6-3,0.8-4.9l1.1,0.1c0,0.2-0.1,0.6-0.1,1c-0.1,0.3-0.1,0.6-0.1,0.8h0.9V43H89v3.2h1.3v1.3
		H89v2.8l1.3-0.4c0,0.6,0,1.1,0.1,1.5l-1.3,0.4v5.1h-1.5v-4.7c-0.7,0.2-1.5,0.5-2.3,0.7l-0.1-1.6c0.1,0,0.3-0.1,0.5-0.1
		c0.4-0.1,1.1-0.2,1.9-0.5v-3.2h-1.1C86.2,48.2,86,48.9,85.9,49.5L85.9,49.5z M90.9,46.1v-1.3h2.9V43h1.5v1.7h3V46h-3v1.7H99V49
		h-8.6v-1.3h3.5V46L90.9,46.1L90.9,46.1z M90.5,52v-1.3h5.2v-1.1h1.5v1.1h1.7V52h-1.7v3c0,1.2-0.6,1.8-1.8,1.8c-0.7,0-1.4,0.1-2,0.1
		c0-0.2-0.1-0.6-0.2-1c0-0.2-0.1-0.4-0.1-0.5c0.4,0,0.9,0.1,1.6,0.1s1-0.2,1-0.8V52H90.5L90.5,52z M92.6,55.1l1.2-0.9
		c-0.6-0.7-1.2-1.3-1.9-1.9l-1,0.8C91.5,53.7,92.1,54.4,92.6,55.1z"/>
	<path fill="#FFFFFF" d="M1,56.8h7.8v-3H4.2v-2.5h4.4v-2.4H4.2v-2.5h4.4v-3H1C1,47.7,1,52.3,1,56.8z"/>
</g>
</svg>
