<?xml version="1.0" encoding="utf-8"?>
<!-- Generator: Adobe Illustrator 18.0.0, SVG Export Plug-In . SVG Version: 6.00 Build 0)  -->
<!DOCTYPE svg PUBLIC "-//W3C//DTD SVG 1.1//EN" "http://www.w3.org/Graphics/SVG/1.1/DTD/svg11.dtd">
<svg version="1.1" id="图层_1" xmlns="http://www.w3.org/2000/svg" xmlns:xlink="http://www.w3.org/1999/xlink" x="0px" y="0px"
	 viewBox="0 0 673 74" enable-background="new 0 0 673 74" xml:space="preserve">
<g>
	<g>
		
			<linearGradient id="SVGID_1_" gradientUnits="userSpaceOnUse" x1="-2427" y1="61" x2="-2247" y2="61" gradientTransform="matrix(-1 0 0 1 -1787 0)">
			<stop  offset="0" style="stop-color:#E43A3D;stop-opacity:0"/>
			<stop  offset="1" style="stop-color:#E43A3D"/>
		</linearGradient>
		<rect x="460" y="58" opacity="0.5" fill="url(#SVGID_1_)" width="180" height="6"/>
		
			<linearGradient id="SVGID_2_" gradientUnits="userSpaceOnUse" x1="-2433.6001" y1="49.4" x2="-2253.6001" y2="49.4" gradientTransform="matrix(-1 0 0 1 -1787 0)">
			<stop  offset="0" style="stop-color:#E43A3D;stop-opacity:0"/>
			<stop  offset="1" style="stop-color:#E43A3D"/>
		</linearGradient>
		<rect x="466.6" y="46.4" opacity="0.6" fill="url(#SVGID_2_)" width="180" height="6"/>
		
			<linearGradient id="SVGID_3_" gradientUnits="userSpaceOnUse" x1="-2440.2" y1="37.8" x2="-2260.2" y2="37.8" gradientTransform="matrix(-1 0 0 1 -1787 0)">
			<stop  offset="0" style="stop-color:#E43A3D;stop-opacity:0"/>
			<stop  offset="1" style="stop-color:#E43A3D"/>
		</linearGradient>
		<rect x="473.2" y="34.8" opacity="0.7" fill="url(#SVGID_3_)" width="180" height="6"/>
		
			<linearGradient id="SVGID_4_" gradientUnits="userSpaceOnUse" x1="-2446.8" y1="26.2" x2="-2266.8" y2="26.2" gradientTransform="matrix(-1 0 0 1 -1787 0)">
			<stop  offset="0" style="stop-color:#E43A3D;stop-opacity:0"/>
			<stop  offset="1" style="stop-color:#E43A3D"/>
		</linearGradient>
		<rect x="479.8" y="23.2" opacity="0.8" fill="url(#SVGID_4_)" width="180" height="6"/>
		
			<linearGradient id="SVGID_5_" gradientUnits="userSpaceOnUse" x1="-2453.3999" y1="14.6" x2="-2273.3999" y2="14.6" gradientTransform="matrix(-1 0 0 1 -1787 0)">
			<stop  offset="0" style="stop-color:#E43A3D;stop-opacity:0"/>
			<stop  offset="1" style="stop-color:#E43A3D"/>
		</linearGradient>
		<rect x="486.4" y="11.6" opacity="0.9" fill="url(#SVGID_5_)" width="180" height="6"/>
		
			<linearGradient id="SVGID_6_" gradientUnits="userSpaceOnUse" x1="-2460" y1="3" x2="-2280" y2="3" gradientTransform="matrix(-1 0 0 1 -1787 0)">
			<stop  offset="0" style="stop-color:#E43A3D;stop-opacity:0"/>
			<stop  offset="1" style="stop-color:#E43A3D"/>
		</linearGradient>
		<rect x="493" fill="url(#SVGID_6_)" width="180" height="6"/>
	</g>
	<g>
		<linearGradient id="SVGID_7_" gradientUnits="userSpaceOnUse" x1="33" y1="61" x2="213" y2="61">
			<stop  offset="0" style="stop-color:#E43A3D;stop-opacity:0"/>
			<stop  offset="1" style="stop-color:#E43A3D"/>
		</linearGradient>
		<rect x="33" y="58" opacity="0.5" fill="url(#SVGID_7_)" width="180" height="6"/>
		<linearGradient id="SVGID_8_" gradientUnits="userSpaceOnUse" x1="26.4" y1="49.4" x2="206.4" y2="49.4">
			<stop  offset="0" style="stop-color:#E43A3D;stop-opacity:0"/>
			<stop  offset="1" style="stop-color:#E43A3D"/>
		</linearGradient>
		<rect x="26.4" y="46.4" opacity="0.6" fill="url(#SVGID_8_)" width="180" height="6"/>
		<linearGradient id="SVGID_9_" gradientUnits="userSpaceOnUse" x1="19.8" y1="37.8" x2="199.8" y2="37.8">
			<stop  offset="0" style="stop-color:#E43A3D;stop-opacity:0"/>
			<stop  offset="1" style="stop-color:#E43A3D"/>
		</linearGradient>
		<rect x="19.8" y="34.8" opacity="0.7" fill="url(#SVGID_9_)" width="180" height="6"/>
		<linearGradient id="SVGID_10_" gradientUnits="userSpaceOnUse" x1="13.2" y1="26.2" x2="193.2" y2="26.2">
			<stop  offset="0" style="stop-color:#E43A3D;stop-opacity:0"/>
			<stop  offset="1" style="stop-color:#E43A3D"/>
		</linearGradient>
		<rect x="13.2" y="23.2" opacity="0.8" fill="url(#SVGID_10_)" width="180" height="6"/>
		<linearGradient id="SVGID_11_" gradientUnits="userSpaceOnUse" x1="6.6" y1="14.6" x2="186.6" y2="14.6">
			<stop  offset="0" style="stop-color:#E43A3D;stop-opacity:0"/>
			<stop  offset="1" style="stop-color:#E43A3D"/>
		</linearGradient>
		<rect x="6.6" y="11.6" opacity="0.9" fill="url(#SVGID_11_)" width="180" height="6"/>
		<linearGradient id="SVGID_12_" gradientUnits="userSpaceOnUse" x1="0" y1="3" x2="180" y2="3">
			<stop  offset="0" style="stop-color:#E43A3D;stop-opacity:0"/>
			<stop  offset="1" style="stop-color:#E43A3D"/>
		</linearGradient>
		<rect fill="url(#SVGID_12_)" width="180" height="6"/>
	</g>
	<g>
		
			<image overflow="visible" opacity="0.75" width="354" height="104" xlink:href="E3894E5E.png"  transform="matrix(1 0 0 1 159.5 -15)">
		</image>
		<g>
			<linearGradient id="SVGID_13_" gradientUnits="userSpaceOnUse" x1="336.5" y1="74" x2="336.5" y2="-7.272320e-009">
				<stop  offset="0" style="stop-color:#161D21"/>
				<stop  offset="1" style="stop-color:#26333B"/>
			</linearGradient>
			<path fill="url(#SVGID_13_)" d="M440.5,74h-208c-8.8,0-19.1-5.4-23.1-12.6L174.5,0h324l-34.9,61.4C459.6,68.6,449.3,74,440.5,74z
				"/>
		</g>
	</g>
	<g>
		
			<image overflow="visible" opacity="0.5" width="214" height="46" xlink:href="E3894E62.png"  transform="matrix(1 0 0 1 229.5 2)">
		</image>
		<g>
			<g>
				<linearGradient id="SVGID_14_" gradientUnits="userSpaceOnUse" x1="270.5246" y1="10.4984" x2="270.5246" y2="37.8216">
					<stop  offset="0" style="stop-color:#FFFFFF"/>
					<stop  offset="0.4892" style="stop-color:#9FA0A0"/>
					<stop  offset="1" style="stop-color:#B5B5B6"/>
				</linearGradient>
				<polygon fill="url(#SVGID_14_)" points="276.7,29.9 276.6,29.9 273.9,10.5 267.2,10.5 264.8,29.9 264.7,29.9 262.9,10.5 
					255.5,10.5 260,37.8 268.3,37.8 270.5,19.5 270.6,19.5 272.9,37.8 281,37.8 285.5,10.5 278.4,10.5 				"/>
				<linearGradient id="SVGID_15_" gradientUnits="userSpaceOnUse" x1="294.7852" y1="10.4984" x2="294.7852" y2="37.8216">
					<stop  offset="0" style="stop-color:#FFFFFF"/>
					<stop  offset="0.4892" style="stop-color:#9FA0A0"/>
					<stop  offset="1" style="stop-color:#B5B5B6"/>
				</linearGradient>
				<path fill="url(#SVGID_15_)" d="M298.1,37.8h7.9l-6.4-27.3H290l-6.5,27.3h7.9l0.8-4.2h5.1L298.1,37.8L298.1,37.8z M296.5,27.7
					H293l1.8-11.2h0.1L296.5,27.7z"/>
				<linearGradient id="SVGID_16_" gradientUnits="userSpaceOnUse" x1="312.3375" y1="10.4984" x2="312.3375" y2="37.8216">
					<stop  offset="0" style="stop-color:#FFFFFF"/>
					<stop  offset="0.4892" style="stop-color:#9FA0A0"/>
					<stop  offset="1" style="stop-color:#B5B5B6"/>
				</linearGradient>
				<polygon fill="url(#SVGID_16_)" points="303.3,16.9 308.5,16.9 308.5,37.8 316.2,37.8 316.2,16.9 321.3,16.9 321.3,10.5 
					303.3,10.5 				"/>
				<linearGradient id="SVGID_17_" gradientUnits="userSpaceOnUse" x1="331.738" y1="10.4984" x2="331.738" y2="37.8216">
					<stop  offset="0" style="stop-color:#FFFFFF"/>
					<stop  offset="0.4892" style="stop-color:#9FA0A0"/>
					<stop  offset="1" style="stop-color:#B5B5B6"/>
				</linearGradient>
				<polygon fill="url(#SVGID_17_)" points="322.7,16.9 327.9,16.9 327.9,37.8 335.6,37.8 335.6,16.9 340.7,16.9 340.7,10.5 
					322.7,10.5 				"/>
				<linearGradient id="SVGID_18_" gradientUnits="userSpaceOnUse" x1="390.2532" y1="10" x2="390.2532" y2="38">
					<stop  offset="0" style="stop-color:#FFFFFF"/>
					<stop  offset="0.4892" style="stop-color:#9FA0A0"/>
					<stop  offset="1" style="stop-color:#B5B5B6"/>
				</linearGradient>
				<path fill="url(#SVGID_18_)" d="M349.6,22.6V11.2h21.8v11.4h-14.6c-0.5,0.9-1.1,1.6-1.7,2.3h17.7c0,0.9-0.1,2.5-0.2,5
					c-0.1,1.1-0.1,1.9-0.1,2.3c-0.1,3.5-1.7,5.2-5,5c-0.3,0-0.8,0-1.5,0c-1,0.1-1.8,0.1-2.3,0.1c-0.1-0.3-0.2-0.8-0.4-1.4
					c-0.2-0.6-0.3-1.1-0.3-1.5c1,0.1,2.2,0.1,3.5,0.1c2,0.2,3.1-0.7,3.1-2.7c0.2-1.7,0.2-3.2,0.2-4.4h-3.4
					c-1.2,4.4-4.2,7.9-8.8,10.5c-0.7-0.7-1.5-1.3-2.4-1.9c4.5-2.3,7.3-5.1,8.3-8.6h-3.6c-2.1,4.2-5.9,7.3-11.3,9.4
					c-0.1-0.1-0.2-0.2-0.2-0.2c-0.7-0.9-1.3-1.6-1.9-2.1c5-1.7,8.4-4.1,10.1-7.1h-3.7c-1.6,1.5-3.1,2.7-4.7,3.6
					c-0.5-0.8-1.1-1.5-2-2.2c3-1.6,5.4-3.7,7.1-6.3H349.6L349.6,22.6z M352.7,17.9v2.3h15.5v-2.3H352.7L352.7,17.9z M352.7,13.6v2.2
					h15.5v-2.2H352.7L352.7,13.6z M376.6,14.9v-3h26.9v3h-18.7l-0.5,4h14.2l-0.5,13.8c-0.1,1.2,0.3,1.7,1.2,1.6h0.6
					c1,0.1,1.6-0.5,1.7-1.6c0-0.2,0-0.6,0.1-1.2c0.2-1.8,0.2-3,0.2-3.5c0.2,0.1,0.6,0.2,1,0.4c0.7,0.2,1.2,0.4,1.5,0.5
					c-0.1,1.7-0.3,3.5-0.6,5.3c-0.2,2.2-1.5,3.2-4,3.2h-1.6c-2.5,0.1-3.6-1.2-3.5-3.8l0.3-11.7H384l-1.4,11.5c0.7-0.2,1.7-0.3,3-0.6
					c3.1-0.5,5.6-0.9,7.6-1.2c0,0.3,0,0.9-0.1,1.6c0,0.7,0,1.2-0.1,1.4c-4.7,0.6-8.2,1.2-10.6,1.7c-0.9,0.2-1.7,0.5-2.4,0.9
					l-1.9-2.9c0.9-0.7,1.3-1.6,1.4-2.7l2.1-16.7H376.6L376.6,14.9z M391.2,29.8l1.9-2.3c-2.2-1.5-4.2-2.8-6.1-4l-1.9,2.1
					C387.6,27.3,389.6,28.7,391.2,29.8L391.2,29.8z M408.3,23.1l-2.1-0.7c0.8-2.7,1.3-6,1.5-9.8l2.2,0.2c-0.1,0.5-0.2,1.1-0.2,2
					c-0.2,0.7-0.2,1.2-0.2,1.6h1.9V10h2.9v6.4h2.6v2.7h-2.6v5.6l2.6-0.7c0,1.2,0,2.1,0.1,2.9l-2.7,0.8v10.1h-2.9v-9.4
					c-1.5,0.5-3,0.9-4.7,1.4l-0.2-3.3c0.2-0.1,0.6-0.2,1-0.2c0.8-0.2,2.1-0.5,3.8-0.9v-6.3h-2.2C408.8,20.5,408.6,21.8,408.3,23.1
					L408.3,23.1z M418.4,16.2v-2.7h5.8V10h3v3.5h6.1v2.7h-6.1v3.4h7.2v2.7h-17.2v-2.7h7v-3.4H418.4L418.4,16.2z M417.4,28.1v-2.7
					h10.5v-2.2h3v2.2h3.4v2.7h-3.4v5.8c0.1,2.4-1.1,3.6-3.6,3.6c-1.4,0.1-2.8,0.1-4.1,0.1c-0.1-0.5-0.2-1.1-0.3-2
					c-0.1-0.5-0.2-0.8-0.2-1c0.7,0.1,1.8,0.1,3.3,0.1c1.4,0.1,2.1-0.5,2-1.6v-5H417.4L417.4,28.1z M421.8,34.2l2.3-1.8
					c-1.2-1.3-2.4-2.6-3.8-3.8l-2,1.6C419.6,31.4,420.7,32.7,421.8,34.2z"/>
				<linearGradient id="SVGID_19_" gradientUnits="userSpaceOnUse" x1="246.3426" y1="10.4173" x2="246.3426" y2="37.5776">
					<stop  offset="0" style="stop-color:#FFFFFF"/>
					<stop  offset="0.4892" style="stop-color:#9FA0A0"/>
					<stop  offset="1" style="stop-color:#B5B5B6"/>
				</linearGradient>
				<path fill="url(#SVGID_19_)" d="M238.6,37.6h15.6v-6.1H245v-5.1h8.8v-4.9H245v-5.1h8.8v-6.1h-15.2
					C238.6,19.5,238.6,28.5,238.6,37.6z"/>
			</g>
		</g>
	</g>
</g>
</svg>
