<?xml version="1.0" encoding="utf-8"?>
<!-- Generator: Adobe Illustrator 18.0.0, SVG Export Plug-In . SVG Version: 6.00 Build 0)  -->
<!DOCTYPE svg PUBLIC "-//W3C//DTD SVG 1.1//EN" "http://www.w3.org/Graphics/SVG/1.1/DTD/svg11.dtd">
<svg version="1.1" id="图层_1" xmlns="http://www.w3.org/2000/svg" xmlns:xlink="http://www.w3.org/1999/xlink" x="0px" y="0px"
	 viewBox="0 0 96 96" enable-background="new 0 0 96 96" xml:space="preserve">
<path fill="#8EA7AF" d="M90,14H6c-3.3,0-6,2.9-6,6.4v55.3C0,79.1,2.7,82,6,82h84c3.3,0,6-2.9,6-6.4V20.4C96,16.9,93.3,14,90,14z
	 M88,70.3c0,1.8-1.3,3.2-3,3.2H11c-1.7,0-3-1.4-3-3.2V39.2l37.9,15.4c1.4,0.5,2.9,0.5,4.2,0L88,39.2V70.3z M88,29L49.5,44.7
	c-0.9,0.4-2,0.4-2.9,0L8,29v-3.3c0-1.8,1.3-3.2,3-3.2h74c1.7,0,3,1.4,3,3.2V29z"/>
</svg>
