<?xml version="1.0" encoding="utf-8"?>
<!-- Generator: Adobe Illustrator 18.0.0, SVG Export Plug-In . SVG Version: 6.00 Build 0)  -->
<!DOCTYPE svg PUBLIC "-//W3C//DTD SVG 1.1//EN" "http://www.w3.org/Graphics/SVG/1.1/DTD/svg11.dtd">
<svg version="1.1" xmlns="http://www.w3.org/2000/svg" xmlns:xlink="http://www.w3.org/1999/xlink" x="0px" y="0px"
	 viewBox="0 0 40 40" enable-background="new 0 0 40 40" xml:space="preserve">
<g id="more" display="none">
	<rect x="6" y="6" display="inline" fill="#8EA6B1" width="4" height="4"/>
	<rect x="12" y="6" display="inline" fill="#8EA6B1" width="22" height="4"/>
	<rect x="6" y="18" display="inline" fill="#8EA6B1" width="4" height="4"/>
	<rect x="12" y="18" display="inline" fill="#8EA6B1" width="22" height="4"/>
	<rect x="6" y="30" display="inline" fill="#8EA6B1" width="4" height="4"/>
	<rect x="12" y="30" display="inline" fill="#8EA6B1" width="22" height="4"/>
</g>
<g id="set" display="none">
	<g display="inline">
		<circle fill="#8EA6B1" cx="20" cy="20" r="3.2"/>
		<path fill="#8EA6B1" d="M17.3,8.2c0.4,1.1,1.5,1.9,2.7,1.9c1.2,0,2.3-0.8,2.7-1.9c1.3,0.3,2.6,0.8,3.7,1.5
			c-0.2,0.4-0.3,0.8-0.3,1.2c0,0.8,0.3,1.5,0.8,2c0.5,0.5,1.3,0.8,2,0.8c0.4,0,0.8-0.1,1.2-0.3c0.7,1.1,1.2,2.4,1.5,3.7
			c-1.1,0.4-1.9,1.5-1.9,2.7c0,1.2,0.8,2.3,1.9,2.7c-0.3,1.3-0.8,2.6-1.5,3.7c-0.4-0.2-0.8-0.3-1.2-0.3c-0.8,0-1.5,0.3-2,0.8
			c-0.5,0.5-0.8,1.3-0.8,2c0,0.4,0.1,0.8,0.3,1.2c-1.1,0.7-2.4,1.2-3.7,1.5c-0.4-1.1-1.5-1.9-2.7-1.9c-1.2,0-2.3,0.8-2.7,1.9
			c-1.3-0.3-2.6-0.8-3.7-1.5c0.5-1.1,0.3-2.4-0.6-3.2c-0.5-0.5-1.3-0.8-2-0.8c-0.4,0-0.8,0.1-1.2,0.3c-0.7-1.1-1.2-2.4-1.5-3.7
			c1.1-0.4,1.9-1.5,1.9-2.7c0-1.2-0.8-2.3-1.9-2.7c0.3-1.3,0.8-2.6,1.5-3.7c0.4,0.2,0.8,0.3,1.2,0.3c0.8,0,1.5-0.3,2-0.8
			c0.5-0.5,0.8-1.3,0.8-2c0-0.4-0.1-0.8-0.3-1.2C14.7,9.1,16,8.5,17.3,8.2 M20,26.8c3.7,0,6.8-3,6.8-6.8s-3-6.8-6.8-6.8
			c-3.7,0-6.8,3-6.8,6.8S16.3,26.8,20,26.8 M18.1,7.2c-2.1,0.3-4.1,1.2-5.8,2.4l0.1,0.1c0.8,0.8,0.8,2,0,2.8
			c-0.4,0.4-0.9,0.6-1.4,0.6c-0.5,0-1-0.2-1.4-0.6l-0.1-0.1c-1.2,1.7-2.1,3.6-2.4,5.8l0.1,0c1.1,0,2,0.9,2,2s-0.9,2-2,2l-0.1,0
			c0.3,2.1,1.2,4.1,2.4,5.8l0.1-0.1c0.4-0.4,0.9-0.6,1.4-0.6c0.5,0,1,0.2,1.4,0.6c0.8,0.8,0.8,2,0,2.8l-0.1,0.1
			c1.7,1.2,3.6,2.1,5.8,2.4l0-0.1c0-1.1,0.9-2,2-2c1.1,0,2,0.9,2,2l0,0.1c2.1-0.3,4.1-1.2,5.8-2.4l-0.1-0.1c-0.8-0.8-0.8-2,0-2.8
			c0.4-0.4,0.9-0.6,1.4-0.6s1,0.2,1.4,0.6l0.1,0.1c1.2-1.7,2.1-3.6,2.4-5.8l-0.1,0c-1.1,0-2-0.9-2-2s0.9-2,2-2l0.1,0
			c-0.3-2.1-1.2-4.1-2.4-5.8l-0.1,0.1c-0.4,0.4-0.9,0.6-1.4,0.6s-1-0.2-1.4-0.6c-0.8-0.8-0.8-2,0-2.8l0.1-0.1
			c-1.7-1.2-3.6-2.1-5.8-2.4l0,0.1c0,1.1-0.9,2-2,2C18.9,9.2,18,8.3,18.1,7.2L18.1,7.2z M20,25.8c-3.2,0-5.8-2.6-5.8-5.8
			c0-3.2,2.6-5.8,5.8-5.8c3.2,0,5.8,2.6,5.8,5.8C25.8,23.2,23.2,25.8,20,25.8z"/>
	</g>
</g>
<g id="图层_3" display="none">
	<g display="inline">
		<g>
			<path fill="#8EA6B1" d="M13.5,15.1c-3.3,0-6,2.7-6,6C7.4,22.6,8,24,8.9,25l4.6,5.5l4.5-5.5c0.9-1.1,1.5-2.4,1.5-4
				C19.5,17.8,16.8,15.1,13.5,15.1z M13.5,25.9c-2.6,0-4.8-2.1-4.8-4.8c0-2.6,2.1-4.8,4.8-4.8s4.8,2.1,4.8,4.8
				C18.2,23.7,16.1,25.9,13.5,25.9z"/>
		</g>
		<g>
			<path fill="#8EA6B1" d="M30.1,6.4c-2.1,0-3.8,1.7-3.8,3.8c0,0.9,0.3,1.8,0.9,2.5l2.9,3.1l2.9-3.1c0.6-0.7,0.9-1.5,0.9-2.5
				C33.9,8.1,32.2,6.4,30.1,6.4z M30.1,13.2c-1.7,0-3-1.3-3-3c0-1.7,1.3-3,3-3c1.7,0,3,1.3,3,3C33.1,11.8,31.8,13.2,30.1,13.2z"/>
		</g>
		<g>
			<path fill="#8EA6B1" d="M16.8,29.8c0.9,0.2,1.6,0.5,2.1,0.8c0.2,0.2,0.4,0.3,0.5,0.4c0.1,0.1,0.1,0.2,0.1,0.3
				c0,0.1-0.1,0.3-0.4,0.6c-0.4,0.4-1.2,0.7-2.3,1c-1,0.3-2.3,0.4-3.7,0.4c-1.8,0-3.5-0.3-4.6-0.7c-0.6-0.2-1-0.4-1.3-0.7
				C7.1,31.7,7,31.5,7,31.4c0-0.1,0-0.2,0.1-0.3c0.2-0.2,0.5-0.5,0.9-0.7c0.5-0.2,1.1-0.4,1.7-0.6c0.3-0.1,0.4-0.3,0.4-0.6
				c-0.1-0.3-0.3-0.4-0.6-0.4c-1,0.2-1.8,0.5-2.4,0.9c-0.3,0.2-0.6,0.4-0.8,0.7c-0.2,0.3-0.3,0.6-0.3,0.9c0,0.5,0.3,1,0.7,1.3
				c0.6,0.5,1.5,0.9,2.6,1.2c1.1,0.3,2.5,0.4,3.9,0.4c1.9,0,3.6-0.3,4.9-0.7c0.6-0.2,1.2-0.5,1.6-0.9c0.4-0.3,0.7-0.8,0.7-1.3
				c0-0.3-0.1-0.6-0.3-0.9c-0.3-0.4-0.7-0.7-1.3-1c-0.5-0.3-1.2-0.5-1.9-0.6c-0.3-0.1-0.5,0.1-0.6,0.4
				C16.4,29.5,16.6,29.7,16.8,29.8L16.8,29.8z"/>
		</g>
		<circle fill="#8EA6B1" cx="13.5" cy="21.2" r="2.2"/>
		<circle fill="#8EA6B1" cx="30.1" cy="10.2" r="1.4"/>
		<g>
			<path fill="#8EA6B1" d="M33,27.2c-1.2-1.2-2.5-1.8-3.8-2.4c-3.6-1.6-11.1-5.7-0.5-8.9c0,0-6.5,0-7.2,3.9
				c-0.7,3.8,6.5,6.8,6.6,6.9c0,0,0,0,0,0c0,0,3.7,1.7,3.3,3c-0.3,1.1-5.1,1-5.1,1h-4.4c0,0.2,0.1,0.4,0.1,0.5
				c0,0.8-0.4,1.4-0.8,1.9c-0.2,0.2-0.4,0.4-0.6,0.5h7.3c0,0,0,0,0,0c0,0,6.3-0.1,6.3-4.2C34,29.5,34.1,28.4,33,27.2z"/>
		</g>
	</g>
</g>
<g id="图层_4">
	<path fill-rule="evenodd" clip-rule="evenodd" fill="#8EA6B1" d="M26.1,32.1l-8.5-6.3l11.7-16l-15,13.5l-7.4-5.5L32.5,6.6
		L26.1,32.1z M13.3,32.1v-6.4l4.8,3.2L13.3,32.1z"/>
</g>
</svg>
