<?xml version="1.0" encoding="utf-8"?>
<!-- Generator: Adobe Illustrator 18.0.0, SVG Export Plug-In . SVG Version: 6.00 Build 0)  -->
<!DOCTYPE svg PUBLIC "-//W3C//DTD SVG 1.1//EN" "http://www.w3.org/Graphics/SVG/1.1/DTD/svg11.dtd">
<svg version="1.1" id="图层_1" xmlns="http://www.w3.org/2000/svg" xmlns:xlink="http://www.w3.org/1999/xlink" x="0px" y="0px"
	 viewBox="0 0 96 96" enable-background="new 0 0 96 96" xml:space="preserve">
<g>
	<image overflow="visible" width="126" height="127" xlink:href="8D0F09BC.png"  transform="matrix(1 0 0 1 -15 -15)">
	</image>
	<g>
		<g opacity="0.35">
			<path d="M25,31C13.4,31,4,40.4,4,52c0,11.6,21,33,21,33s21-21.4,21-33C46,40.4,36.6,31,25,31z M25.4,67.9c-8.8,0-16-7.2-16-16
				s7.2-16,16-16s16,7.2,16,16S34.2,67.9,25.4,67.9z"/>
			<circle cx="25.4" cy="51.9" r="7"/>
			<path d="M37,78.2L35.5,80c6.2,1.2,10.5,3.5,10.5,6c0,3.9-9.4,7-21,7S4,89.9,4,86c0-2.6,4.2-4.8,10.5-6L13,78.2
				c-7.8,1.7-13,5-13,8.8c0,5.5,11.2,10,25,10s25-4.5,25-10C50,83.2,44.7,79.9,37,78.2z"/>
			<path d="M78,35c-15.1,0.5-41.6,14.1-9,33c28.8,14.1,10.5,17-15,17c1.2,6-2.2,8.5-6,10c9.8,0,62.4,3.8,44-23
				c-6.4-9.3-30.3-15.8-32.7-23C57.7,43.3,68.1,36.8,78,35z"/>
			<path d="M83,1c-7.2,0-13,5.8-13,13s13,21,13,21s13-13.8,13-21S90.2,1,83,1z M83,24c-5.5,0-10-4.5-10-10c0-5.5,4.5-10,10-10
				s10,4.5,10,10C93,19.5,88.5,24,83,24z"/>
			<circle cx="83" cy="14" r="4"/>
		</g>
		<g>
			<g>
				<g>
					<path fill="#FFFFFF" d="M25,30C13.4,30,4,39.4,4,51c0,11.6,21,33,21,33s21-21.4,21-33C46,39.4,36.6,30,25,30z M25.4,66.9
						c-8.8,0-16-7.2-16-16s7.2-16,16-16s16,7.2,16,16S34.2,66.9,25.4,66.9z"/>
					<circle fill="#FFFFFF" cx="25.4" cy="50.9" r="7"/>
				</g>
				<path fill="#FFFFFF" d="M37,77.2L35.5,79c6.2,1.2,10.5,3.5,10.5,6c0,3.9-9.4,7-21,7S4,88.9,4,85c0-2.6,4.2-4.8,10.5-6L13,77.2
					c-7.8,1.7-13,5-13,8.8c0,5.5,11.2,10,25,10s25-4.5,25-10C50,82.2,44.7,78.9,37,77.2z"/>
				<path fill="#FFFFFF" d="M78,34c-15.1,0.5-41.6,14.1-9,33c28.8,14.1,10.5,17-15,17c1.2,6-2.2,8.5-6,10c9.8,0,62.4,3.8,44-23
					c-6.4-9.3-30.3-15.8-32.7-23C57.7,42.3,68.1,35.8,78,34z"/>
				<g>
					<path fill="#FFFFFF" d="M83,0c-7.2,0-13,5.8-13,13s13,21,13,21s13-13.8,13-21S90.2,0,83,0z M83,23c-5.5,0-10-4.5-10-10
						c0-5.5,4.5-10,10-10s10,4.5,10,10C93,18.5,88.5,23,83,23z"/>
					<circle fill="#FFFFFF" cx="83" cy="13" r="4"/>
				</g>
			</g>
		</g>
	</g>
</g>
</svg>
