<?xml version="1.0" encoding="utf-8"?>
<!-- Generator: Adobe Illustrator 18.0.0, SVG Export Plug-In . SVG Version: 6.00 Build 0)  -->
<!DOCTYPE svg PUBLIC "-//W3C//DTD SVG 1.1//EN" "http://www.w3.org/Graphics/SVG/1.1/DTD/svg11.dtd">
<svg version="1.1" id="图层_1" xmlns="http://www.w3.org/2000/svg" xmlns:xlink="http://www.w3.org/1999/xlink" x="0px" y="0px"
	 viewBox="0 0 96 96" enable-background="new 0 0 96 96" xml:space="preserve">
<g>
	<path fill="#8EA7AF" d="M65,68l10.8,10.9c-0.1,0.3-0.2,0.6-0.2,1c0,2.2,1.8,4,4,4s4-1.8,4-4c0-2.2-1.8-4-4-4c-0.3,0-0.7,0.1-1,0.2
		L67.5,64.8c0.4-1.1,0-2.3,0-3.6c0-2.5-7.5-4.9-7.5-6.9c0-1.5,0-11.3,0-17L78,20c0.3,0.1,1,0.2,1.3,0.2c2.2,0,4.2-1.8,4.2-4
		c0-2.2-1.7-4-3.9-4s-4,1.8-4,4c0,0.3,0.1,0.7,0.2,1L64.2,28.7c0.3-0.5,0.5-1.1,0.5-1.9C63.5,23.1,54.5,20,51.4,20c-3,0-3.7,0-6.7,0
		c-3,0-12.1,3.1-13.3,6.8c0,0.7,0,1.2-0.1,1.6L20.1,17.2c0.1-0.3,0.2-0.6,0.2-1c0-2.2-1.8-4-4-4s-4,1.8-4,4c0,2.2,1.8,4,4,4
		c0.3,0,1.3-0.1,1.6-0.2L36,37.6c0,5.7,0,15.2,0,16.7c0,2-7.4,4.4-7.4,6.9c0,1.2-0.1,2.4,0.3,3.4L17.5,75.9
		c-0.3-0.1-0.7-0.2-1.1-0.2c-2.2,0-4,1.8-4,4c0,2.2,1.8,4,4,4s4-1.8,4-4c0-0.3-0.1-0.7-0.2-1L31,67.9c0.1,0,0.2,0.1,0.3,0.1
		c1.8,0,16.8,0,16.8,0s14.9,0,16.8,0C64.9,68,64.9,68,65,68z"/>
	<path fill="#8EA7AF" d="M16,32.3v-4c-4,0-11.9-5.4-11.9-12S9.6,4.1,16.2,4.1c6.6,0,12.1,7.9,12.1,11.9h4c0-8-7.2-15.9-16-15.9
		S0.1,7.3,0.1,16.2C0.1,25.1,8,32.3,16,32.3z"/>
	<path fill="#8EA7AF" d="M79.9,4.1c6.6,0,12,5.6,12,12.2S84,28.2,80,28.2v4c8,0,15.9-7.3,15.9-16.2c0-8.9-7.5-16-16.4-16
		S63.6,8,63.6,16h4C67.6,8,73.2,4.1,79.9,4.1z"/>
	<path fill="#8EA7AF" d="M16.1,91.9c-6.6,0-12-5.6-12-12.3C4.1,73,12,67.7,16,67.7v-4c-8,0-15.9,7.4-15.9,16.2c0,8.9,7.4,16,16.3,16
		s16-7.9,16-15.9h-4C28.4,84,22.8,91.9,16.1,91.9z"/>
	<path fill="#8EA7AF" d="M80,63.8v4c4,0,11.8,5.4,11.8,12c0,6.6-5.5,12.1-12.1,12.1c-6.6,0-12.1-3.9-12.1-11.9h-4c0,8,7.2,16,16,16
		s16.2-7.2,16.2-16.1C95.9,71,88,63.8,80,63.8z"/>
</g>
</svg>
