<?xml version="1.0" encoding="utf-8"?>
<!-- Generator: Adobe Illustrator 18.0.0, SVG Export Plug-In . SVG Version: 6.00 Build 0)  -->
<!DOCTYPE svg PUBLIC "-//W3C//DTD SVG 1.1//EN" "http://www.w3.org/Graphics/SVG/1.1/DTD/svg11.dtd">
<svg version="1.1" id="图层_1" xmlns="http://www.w3.org/2000/svg" xmlns:xlink="http://www.w3.org/1999/xlink" x="0px" y="0px"
	 viewBox="0 0 96 96" enable-background="new 0 0 96 96" xml:space="preserve">
<g>
	<path fill="#8EA7AF" d="M32,44c-6.6,0-12,5.4-12,12c0,6.6,5.4,12,12,12s12-5.4,12-12C44,49.4,38.6,44,32,44z M32,61
		c-2.8,0-5-2.2-5-5s2.2-5,5-5s5,2.2,5,5S34.8,61,32,61z"/>
	<path fill="#8EA7AF" d="M64,44c-6.6,0-12,5.4-12,12c0,6.6,5.4,12,12,12s12-5.4,12-12C76,49.4,70.6,44,64,44z M64,61
		c-2.8,0-5-2.2-5-5s2.2-5,5-5c2.8,0,5,2.2,5,5S66.8,61,64,61z"/>
	<path fill="#8EA7AF" d="M76,27c0,0-1.5-0.3-4-0.7V14c0-1.1-0.9-2-2-2H50v-1.7l23.6-6.3c1.1-0.3,1.7-1.4,1.4-2.4v0
		c-0.3-1.1-1.4-1.7-2.4-1.4L47.5,6.8C46.5,7.1,45.9,8,46,8.9c0,0,0,0.1,0,0.1v3H26c-1.1,0-2,0.9-2,2v12.3c-2.5,0.4-4,0.7-4,0.7
		c-5.4,0.7-10,4.4-10,9.9v45.3c0,5.4,4.5,9.9,10,9.9h1l4,4h46l4-4h1c5.5,0,10-4.4,10-9.9V36.8C86,31.4,80.9,28.2,76,27z M69,14
		c0.5,0,1,0.5,1,1v11c-2-0.3-4.4-0.6-7-0.9l0,0l-1-2c0,0-1.3-0.2-3.2-0.4L57,19.5c0-0.3-0.2-0.5-0.5-0.5H52l-1-4c0-0.5-0.5-1-1-1H69
		z M55,28c0,1.1-0.9,2-2,2s-2-0.9-2-2c0-1.1,0.9-2,2-2S55,26.9,55,28z M26,15c0-0.5,0.5-1,1-1h19c-0.5,0-1,0.5-1,1l-1,4h-4.5
		c-0.3,0-0.5,0.2-0.5,0.5l-1.8,3.1C35.3,22.8,34,23,34,23l-1,2l0,0c-2.6,0.3-5,0.6-7,0.9V15z M45,28c0,1.1-0.9,2-2,2s-2-0.9-2-2
		c0-1.1,0.9-2,2-2S45,26.9,45,28z M81,70c0,0-9.9,4-33,4s-33-4-33-4V39.9c0-6,4-7.8,8.7-8.4c0,0,4.9-0.9,11.1-1.6L36,33l-1,6l4,3h9
		h9l4-3l-1-6l1.2-3.1c6.2,0.7,11.1,1.6,11.1,1.6c4.2,1.1,8.7,2.5,8.7,8.4V70z"/>
</g>
</svg>
