<?xml version="1.0" encoding="utf-8"?>
<!-- Generator: Adobe Illustrator 18.0.0, SVG Export Plug-In . SVG Version: 6.00 Build 0)  -->
<!DOCTYPE svg PUBLIC "-//W3C//DTD SVG 1.1//EN" "http://www.w3.org/Graphics/SVG/1.1/DTD/svg11.dtd">
<svg version="1.1" id="图层_1" xmlns="http://www.w3.org/2000/svg" xmlns:xlink="http://www.w3.org/1999/xlink" x="0px" y="0px"
	 viewBox="0 0 96 96" enable-background="new 0 0 96 96" xml:space="preserve">
<g>
	<g opacity="0.35">
		<path d="M96,46.1l0-21.8c0-3-2.5-5.5-5.5-5.5l-36.3,0c-3,0-5.5,2.5-5.5,5.5l0,3.6l7.4,0c0.4-1.1,1.4-1.8,2.6-1.8l27.3,0
			c1.5,0,2.7,1.2,2.7,2.7l0,12.7c0,1.5-1.2,2.7-2.7,2.7l-27.3,0c-1.2,0-2.2-0.8-2.6-1.8h-7.4v3.6c0,3,2.5,5.5,5.5,5.5l36.3,0
			C93.5,51.5,96,49.1,96,46.1z"/>
		<path d="M50.4,55.5l-2.6-2.6l-5.3,5.3c0.5,1,0.3,2.3-0.5,3.1L22.8,80.5c-1.1,1.1-2.8,1.1-3.9,0l-9-9c-1.1-1.1-1.1-2.8,0-3.9
			l19.3-19.3c0.8-0.8,2.1-1,3.1-0.5l5.3-5.3L35,40c-2.1-2.1-5.6-2.1-7.7,0L1.6,65.7c-2.1,2.1-2.1,5.6,0,7.7L17,88.9
			c2.1,2.1,5.6,2.1,7.7,0l25.7-25.7C52.5,61,52.5,57.6,50.4,55.5z"/>
		<path d="M60,73.5h-3c-0.3,0-0.5-0.2-0.5-0.5V62c0-0.3,0.2-0.5,0.5-0.5h3c0.3,0,0.5,0.2,0.5,0.5v11C60.5,73.3,60.3,73.5,60,73.5z"
			/>
		<path d="M34.8,20.7l-2.1,2.1c-0.2,0.2-0.5,0.2-0.7,0l-7.8-7.8c-0.2-0.2-0.2-0.5,0-0.7l2.1-2.1c0.2-0.2,0.5-0.2,0.7,0l7.8,7.8
			C35,20.2,35,20.5,34.8,20.7z"/>
		<path d="M74.7,59.6l-0.8,2.9c-0.1,0.3-0.3,0.4-0.6,0.4L62.6,60c-0.3-0.1-0.4-0.3-0.4-0.6l0.8-2.9c0.1-0.3,0.3-0.4,0.6-0.4L74.3,59
			C74.6,59.1,74.7,59.4,74.7,59.6z"/>
		<path d="M28.5,27v3c0,0.3-0.2,0.5-0.5,0.5H17c-0.3,0-0.5-0.2-0.5-0.5v-3c0-0.3,0.2-0.5,0.5-0.5h11C28.3,26.5,28.5,26.8,28.5,27z"
			/>
		<path d="M43,19.5h-3c-0.3,0-0.5-0.2-0.5-0.5V8c0-0.3,0.2-0.5,0.5-0.5h3c0.3,0,0.5,0.2,0.5,0.5v11C43.5,19.3,43.3,19.5,43,19.5z"/>
	</g>
	<g>
		<g>
			<path fill="#E43A3D" d="M96,45.1l0-21.8c0-3-2.5-5.5-5.5-5.5l-36.3,0c-3,0-5.5,2.5-5.5,5.5l0,3.6l7.4,0c0.4-1.1,1.4-1.8,2.6-1.8
				l27.3,0c1.5,0,2.7,1.2,2.7,2.7l0,12.7c0,1.5-1.2,2.7-2.7,2.7l-27.3,0c-1.2,0-2.2-0.8-2.6-1.8h-7.4v3.6c0,3,2.5,5.5,5.5,5.5
				l36.3,0C93.5,50.5,96,48.1,96,45.1z"/>
			<path fill="#E43A3D" d="M50.4,54.5l-2.6-2.6l-5.3,5.3c0.5,1,0.3,2.3-0.5,3.1L22.8,79.5c-1.1,1.1-2.8,1.1-3.9,0l-9-9
				c-1.1-1.1-1.1-2.8,0-3.9l19.3-19.3c0.8-0.8,2.1-1,3.1-0.5l5.3-5.3L35,39c-2.1-2.1-5.6-2.1-7.7,0L1.6,64.7c-2.1,2.1-2.1,5.6,0,7.7
				L17,87.9c2.1,2.1,5.6,2.1,7.7,0l25.7-25.7C52.5,60,52.5,56.6,50.4,54.5z"/>
			<path fill="#E43A3D" d="M60,72.5h-3c-0.3,0-0.5-0.2-0.5-0.5V61c0-0.3,0.2-0.5,0.5-0.5h3c0.3,0,0.5,0.2,0.5,0.5v11
				C60.5,72.3,60.3,72.5,60,72.5z"/>
			<path fill="#E43A3D" d="M34.8,19.7l-2.1,2.1c-0.2,0.2-0.5,0.2-0.7,0l-7.8-7.8c-0.2-0.2-0.2-0.5,0-0.7l2.1-2.1
				c0.2-0.2,0.5-0.2,0.7,0l7.8,7.8C35,19.2,35,19.5,34.8,19.7z"/>
			<path fill="#E43A3D" d="M74.7,58.6l-0.8,2.9c-0.1,0.3-0.3,0.4-0.6,0.4L62.6,59c-0.3-0.1-0.4-0.3-0.4-0.6l0.8-2.9
				c0.1-0.3,0.3-0.4,0.6-0.4L74.3,58C74.6,58.1,74.7,58.4,74.7,58.6z"/>
			<path fill="#E43A3D" d="M28.5,26v3c0,0.3-0.2,0.5-0.5,0.5H17c-0.3,0-0.5-0.2-0.5-0.5v-3c0-0.3,0.2-0.5,0.5-0.5h11
				C28.3,25.5,28.5,25.8,28.5,26z"/>
			<path fill="#E43A3D" d="M43,18.5h-3c-0.3,0-0.5-0.2-0.5-0.5V7c0-0.3,0.2-0.5,0.5-0.5h3c0.3,0,0.5,0.2,0.5,0.5v11
				C43.5,18.3,43.3,18.5,43,18.5z"/>
		</g>
	</g>
</g>
</svg>
