<?xml version="1.0" encoding="utf-8"?>
<!-- Generator: Adobe Illustrator 18.0.0, SVG Export Plug-In . SVG Version: 6.00 Build 0)  -->
<!DOCTYPE svg PUBLIC "-//W3C//DTD SVG 1.1//EN" "http://www.w3.org/Graphics/SVG/1.1/DTD/svg11.dtd">
<svg version="1.1" id="图层_1" xmlns="http://www.w3.org/2000/svg" xmlns:xlink="http://www.w3.org/1999/xlink" x="0px" y="0px"
	 viewBox="0 0 96 96" enable-background="new 0 0 96 96" xml:space="preserve">
<g>
	<path fill="#E43A3D" d="M1.4,75.8l37.8-65.7c3.9-6.8,13.7-6.8,17.6,0l37.8,65.7c3.9,6.8-1,15.2-8.8,15.2H10.2
		C2.3,91-2.5,82.5,1.4,75.8z"/>
	<path fill="#FFFFFF" d="M10.5,76.8l33.9-59.8c1.6-2.7,5.5-2.7,7,0l33.9,59.8c1.6,2.7-0.4,6.2-3.5,6.2H14.1
		C10.9,83,9,79.6,10.5,76.8z"/>
	<g>
		<path fill="#E43A3D" d="M48,63.5c1.1,0,2-0.9,2-2l3-29c0-2.8-2.3-5-5-5s-5,2.3-5,5l3,29C46,62.6,46.9,63.5,48,63.5z"/>
		<circle fill="#E43A3D" cx="48" cy="71.5" r="5"/>
	</g>
</g>
</svg>
