<?xml version="1.0" encoding="utf-8"?>
<!-- Generator: Adobe Illustrator 18.0.0, SVG Export Plug-In . SVG Version: 6.00 Build 0)  -->
<!DOCTYPE svg PUBLIC "-//W3C//DTD SVG 1.1//EN" "http://www.w3.org/Graphics/SVG/1.1/DTD/svg11.dtd">
<svg version="1.1" id="图层_1" xmlns="http://www.w3.org/2000/svg" xmlns:xlink="http://www.w3.org/1999/xlink" x="0px" y="0px"
	 viewBox="0 0 100 100" enable-background="new 0 0 100 100" xml:space="preserve">
<g>
	<g opacity="0.35">
		<path d="M57.4,65.6l-22-22C33.2,41.4,33,37.9,35,36s5.4-1.8,7.6,0.4l22,22c2.2,2.2,2.4,5.6,0.4,7.6S59.6,67.8,57.4,65.6z"/>
		<path d="M2.8,20.9L19.9,3.8c2.4-2.4,6.2-2.4,8.6,0l28.6,28.6c2.4,2.4,2.4,6.2,0,8.6l-2.9,2.9L48.4,38c0.5-1.1,0.3-2.5-0.6-3.4
			L26.4,13.1c-1.2-1.2-3.1-1.2-4.3,0l-10,10c-1.2,1.2-1.2,3.1,0,4.3l21.5,21.5c0.9,0.9,2.3,1.1,3.4,0.6l5.9,5.9L40,58.2
			c-2.4,2.4-6.2,2.4-8.6,0L2.8,29.5C0.4,27.2,0.4,23.3,2.8,20.9z"/>
		<path d="M42.8,61l2.9-2.9l5.9,5.9c-0.5,1.1-0.3,2.5,0.6,3.4l21.5,21.5c1.2,1.2,3.1,1.2,4.3,0l10-10c1.2-1.2,1.2-3.1,0-4.3
			L66.5,53.1c-0.9-0.9-2.3-1.1-3.4-0.6l-5.9-5.9l2.9-2.9c2.4-2.4,6.2-2.4,8.6,0l28.6,28.6c2.4,2.4,2.4,6.2,0,8.6L80.1,98.2
			c-2.4,2.4-6.2,2.4-8.6,0L42.8,69.6C40.5,67.2,40.5,63.4,42.8,61z"/>
	</g>
	<g>
		<g>
			<path fill="#8EA6B1" d="M57.4,64.6l-22-22C33.2,40.4,33,36.9,35,35s5.4-1.8,7.6,0.4l22,22c2.2,2.2,2.4,5.6,0.4,7.6
				S59.6,66.8,57.4,64.6z"/>
			<path fill="#8EA6B1" d="M2.8,19.9L19.9,2.8c2.4-2.4,6.2-2.4,8.6,0l28.6,28.6c2.4,2.4,2.4,6.2,0,8.6l-2.9,2.9L48.4,37
				c0.5-1.1,0.3-2.5-0.6-3.4L26.4,12.1c-1.2-1.2-3.1-1.2-4.3,0l-10,10c-1.2,1.2-1.2,3.1,0,4.3l21.5,21.5c0.9,0.9,2.3,1.1,3.4,0.6
				l5.9,5.9L40,57.2c-2.4,2.4-6.2,2.4-8.6,0L2.8,28.5C0.4,26.2,0.4,22.3,2.8,19.9z"/>
			<path fill="#8EA6B1" d="M42.8,60l2.9-2.9l5.9,5.9c-0.5,1.1-0.3,2.5,0.6,3.4l21.5,21.5c1.2,1.2,3.1,1.2,4.3,0l10-10
				c1.2-1.2,1.2-3.1,0-4.3L66.5,52.1c-0.9-0.9-2.3-1.1-3.4-0.6l-5.9-5.9l2.9-2.9c2.4-2.4,6.2-2.4,8.6,0l28.6,28.6
				c2.4,2.4,2.4,6.2,0,8.6L80.1,97.2c-2.4,2.4-6.2,2.4-8.6,0L42.8,68.6C40.5,66.2,40.5,62.4,42.8,60z"/>
		</g>
	</g>
</g>
</svg>
