<?xml version="1.0" encoding="utf-8"?>
<!-- Generator: Adobe Illustrator 18.0.0, SVG Export Plug-In . SVG Version: 6.00 Build 0)  -->
<!DOCTYPE svg PUBLIC "-//W3C//DTD SVG 1.0//EN" "http://www.w3.org/TR/2001/REC-SVG-20010904/DTD/svg10.dtd">
<svg version="1.0" id="图层_1" xmlns="http://www.w3.org/2000/svg" xmlns:xlink="http://www.w3.org/1999/xlink" x="0px" y="0px"
	 viewBox="0 0 100 100" enable-background="new 0 0 100 100" xml:space="preserve">
<g>
	<circle fill="#FFFFFF" cx="50" cy="50" r="37.7"/>
	<g>
		<path opacity="0.75" fill="#FFFFFF" enable-background="new    " d="M5,72.3l5.3-3c-2.3-5-4-10.3-4.3-16H0C0.3,60,2.3,66.3,5,72.3
			z"/>
		<path opacity="0.5" fill="#FFFFFF" enable-background="new    " d="M0,47h6.3c0.3-5.7,2-11,4.3-16l-5.3-3C2.3,33.7,0.3,40,0,47z"
			/>
		<path opacity="0.75" fill="#FFFFFF" enable-background="new    " d="M47,100v-6.3c-5.7-0.3-11-2-16-4.3l-3,5.3
			C33.7,97.7,40,99.7,47,100z"/>
		<path opacity="0.5" fill="#FFFFFF" enable-background="new    " d="M31,10.7c5-2.3,10.3-4,16-4.3V0c-7,0.3-13.3,2.3-19,5L31,10.7z
			"/>
		<path opacity="0.5" fill="#FFFFFF" enable-background="new    " d="M69,89.3c-5,2.3-10.3,4-16,4.3v6.3c7-0.3,13.3-2.3,19-5
			L69,89.3z"/>
		<path opacity="0.75" fill="#FFFFFF" enable-background="new    " d="M53,0v6.3c5.7,0.3,11,2,16,4.3l3-5.3C66.3,2.3,60,0.3,53,0z"
			/>
		<path opacity="0.75" fill="#FFFFFF" enable-background="new    " d="M13.7,25.3c3-4.7,7-8.7,11.7-11.7l-3-5.3
			c-5.7,3.7-10.3,8.3-14,14L13.7,25.3z"/>
		<path opacity="0.5" fill="#FFFFFF" enable-background="new    " d="M25.3,86.3c-4.7-3-8.7-7-11.7-11.7l-5.3,3
			c3.7,5.7,8.3,10.3,14,14L25.3,86.3z"/>
		<path opacity="0.75" fill="#FFFFFF" enable-background="new    " d="M86.3,74.7c-3,4.7-7,8.7-11.7,11.7l3,5.3
			c5.7-3.7,10.3-8.3,14-14L86.3,74.7z"/>
		<path opacity="0.75" fill="#FFFFFF" enable-background="new    " d="M95,27.7l-5.3,3c2.3,5,4,10.3,4.3,16h6
			C99.7,40,97.7,33.7,95,27.7z"/>
		<path opacity="0.5" fill="#FFFFFF" enable-background="new    " d="M74.7,13.7c4.7,3,8.7,7,11.7,11.7l5.3-3
			c-3.7-5.7-8.3-10.3-14-14L74.7,13.7z"/>
		<path opacity="0.5" fill="#FFFFFF" enable-background="new    " d="M100,53h-6.3c-0.3,5.7-2,11-4.3,16l5.3,3
			C97.7,66.3,99.7,60,100,53z"/>
	</g>
</g>
</svg>
