<?xml version="1.0" encoding="utf-8"?>
<!-- Generator: Adobe Illustrator 18.0.0, SVG Export Plug-In . SVG Version: 6.00 Build 0)  -->
<!DOCTYPE svg PUBLIC "-//W3C//DTD SVG 1.0//EN" "http://www.w3.org/TR/2001/REC-SVG-20010904/DTD/svg10.dtd">
<svg version="1.0" id="图层_1" xmlns="http://www.w3.org/2000/svg" xmlns:xlink="http://www.w3.org/1999/xlink" x="0px" y="0px"
	 viewBox="0 0 100 100" enable-background="new 0 0 100 100" xml:space="preserve">
<g>
</g>
<g opacity="0.35">
	<path fill="#FFFFFF" d="M50,7.2l-9.6,11.4h19.3L50,7.2z M50,11.3l-4.7,5.6h9.5L50,11.3z M50,9.4l7,8.3l-7,0.9l-7-0.9L50,9.4z"/>
	<path fill="#FFFFFF" d="M50,92.8l-9.6-11.4h19.3L50,92.8z M50,88.7l-4.7-5.6h9.5L50,88.7z M50,90.6l7-8.3l-7-0.9l-7,0.9L50,90.6z"
		/>
	<path fill="#FFFFFF" d="M7.2,50l11.4,9.6V40.4L7.2,50z M11.3,50l5.6,4.7v-9.5L11.3,50z M9.4,50l8.3-7l0.9,7l-0.9,7L9.4,50z"/>
	<path fill="#FFFFFF" d="M92.8,50l-11.4,9.6V40.4L92.8,50z M88.7,50l-5.6,4.7v-9.5L88.7,50z M90.6,50l-8.3-7l-0.9,7l0.9,7L90.6,50z"
		/>
</g>
<path opacity="0.5" fill="#FFFFFF" d="M50,0C22.4,0,0,22.4,0,50s22.4,50,50,50s50-22.4,50-50S77.6,0,50,0z M50,98.2
	C23.4,98.2,1.8,76.6,1.8,50S23.4,1.8,50,1.8S98.2,23.4,98.2,50S76.6,98.2,50,98.2z"/>
<path opacity="0.35" fill="#FFFFFF" d="M50,3.6C24.4,3.6,3.6,24.4,3.6,50S24.4,96.4,50,96.4S96.4,75.6,96.4,50S75.6,3.6,50,3.6z
	 M50,95.7C24.8,95.7,4.3,75.2,4.3,50S24.8,4.3,50,4.3S95.7,24.8,95.7,50S75.2,95.7,50,95.7z"/>
</svg>
