<?xml version="1.0" encoding="utf-8"?>
<!-- Generator: Adobe Illustrator 18.0.0, SVG Export Plug-In . SVG Version: 6.00 Build 0)  -->
<!DOCTYPE svg PUBLIC "-//W3C//DTD SVG 1.1//EN" "http://www.w3.org/Graphics/SVG/1.1/DTD/svg11.dtd">
<svg version="1.1" id="图层_1" xmlns="http://www.w3.org/2000/svg" xmlns:xlink="http://www.w3.org/1999/xlink" x="0px" y="0px"
	 viewBox="0 0 100 100" enable-background="new 0 0 100 100" xml:space="preserve">
<path fill="#FFFFFF" d="M99.9,48.4c-0.8-26.4-22-47.5-48.4-48.4V0h-3.1v0.1C22.1,0.9,0.9,22.1,0.1,48.4H0v3.1h0.1
	c0.8,26.4,22,47.5,48.4,48.4v0.1h3.1v-0.1c26.4-0.8,47.5-22,48.4-48.4h0.1L99.9,48.4L99.9,48.4z M90.5,48.4h-9.4
	c-0.8-16-13.6-28.8-29.6-29.6V9.5C72.7,10.3,89.7,27.3,90.5,48.4z M48.4,40.8c-3.9,0.7-7,3.7-7.7,7.7H28.2
	C29,37.6,37.6,29,48.4,28.2V40.8z M40.8,51.6c0.7,3.9,3.7,7,7.7,7.7v12.6C37.6,71,29,62.4,28.2,51.6H40.8z M51.6,59.2
	c3.9-0.7,7-3.7,7.7-7.7h12.6C71,62.4,62.4,71,51.6,71.8V59.2z M59.2,48.4c-0.7-3.9-3.7-7-7.7-7.7V28.2C62.4,29,71,37.6,71.8,48.4
	H59.2z M48.4,9.5v9.4c-16,0.8-28.8,13.6-29.6,29.6H9.5C10.3,27.3,27.3,10.3,48.4,9.5z M9.5,51.6h9.4c0.8,16,13.6,28.8,29.6,29.6v9.4
	C27.3,89.7,10.3,72.7,9.5,51.6z M51.6,90.5v-9.4c16-0.8,28.8-13.6,29.6-29.6h9.4C89.7,72.7,72.7,89.7,51.6,90.5z"/>
</svg>
