<?xml version="1.0" encoding="utf-8"?>
<!-- Generator: Adobe Illustrator 18.0.0, SVG Export Plug-In . SVG Version: 6.00 Build 0)  -->
<!DOCTYPE svg PUBLIC "-//W3C//DTD SVG 1.1//EN" "http://www.w3.org/Graphics/SVG/1.1/DTD/svg11.dtd">
<svg version="1.1" id="图层_1" xmlns="http://www.w3.org/2000/svg" xmlns:xlink="http://www.w3.org/1999/xlink" x="0px" y="0px"
	 viewBox="0 0 100 100" enable-background="new 0 0 100 100" xml:space="preserve">
<g>
	<path fill="#FFFFFF" d="M96.4,36.9l-7.2-10.2l-5.1,3.6l4.6,6.5c-2.4-0.5-4.9-0.8-7.4-0.8c-16.1,0-29.7,10.1-35.1,24.3
		C41.8,53.1,33.9,48.4,25,48.4c-13.8,0-25,11.2-25,25h6.3C6.3,63,14.6,54.6,25,54.6S43.8,63,43.8,73.4H50c0-17.3,14-31.3,31.3-31.3
		c2.3,0,4.4,0.3,6.6,0.7l-6.8,4.7l3.6,5.1l10.2-7.2L100,42L96.4,36.9z"/>
</g>
</svg>
