<?xml version="1.0" encoding="utf-8"?>
<!-- Generator: Adobe Illustrator 18.0.0, SVG Export Plug-In . SVG Version: 6.00 Build 0)  -->
<!DOCTYPE svg PUBLIC "-//W3C//DTD SVG 1.1//EN" "http://www.w3.org/Graphics/SVG/1.1/DTD/svg11.dtd">
<svg version="1.1" id="图层_1" xmlns="http://www.w3.org/2000/svg" xmlns:xlink="http://www.w3.org/1999/xlink" x="0px" y="0px"
	 viewBox="0 0 120 180" enable-background="new 0 0 120 180" xml:space="preserve">
<g>
	<path fill="#698596" d="M86.5,37.1c-0.8,0-1.5,0.7-1.5,1.5v3.5h-4.9v-8.2h0C79.9,22.8,73.3,9.2,60,9.2C46.7,9.2,40.1,22.8,40,33.8
		h0v7.6H35v-3.5c0-0.8-0.7-1.5-1.5-1.5S32,37.1,32,37.9v39c0,0.8,0.7,1.5,1.5,1.5s1.5-0.7,1.5-1.5v-3.5h4.9v9.1
		c0,2.1,0.8,4.1,2.3,5.6L56,102v39.3l-19.9,2c-1.1,0-2,0.9-2,2v6c0,1.1,0.9,2,2,2l19.9-2v15.5c0,2.2,1.8,4,4,4h0c2.2,0,4-1.8,4-4
		v-15.5l20.1,2c1.1,0,2-0.9,2-2v-6c0-1.1-0.9-2-2-2l-20.1-2v-39.6l13.7-13.5c1.5-1.5,2.4-3.5,2.4-5.7v-8.4H85v3.5
		c0,0.8,0.7,1.5,1.5,1.5s1.5-0.7,1.5-1.5v-39C88,37.7,87.3,37.1,86.5,37.1z M39.9,71.4H35v-28h4.9V71.4z M45,31.2
		c0-8.3,6.7-18,15-18c8.3,0,15,9.7,15,18C66.1,31.2,58,31.2,45,31.2z M85,72.1h-4.9v-28H85V72.1z"/>
	<circle opacity="0.5" fill="#2EBBD9" cx="60" cy="90.3" r="50"/>
	<circle opacity="0.5" fill="#E43A3D" cx="60" cy="74.3" r="50"/>
	<circle fill="#FFFFFF" cx="60" cy="73.9" r="5"/>
</g>
</svg>
