<?xml version="1.0" encoding="utf-8"?>
<!-- Generator: Adobe Illustrator 18.0.0, SVG Export Plug-In . SVG Version: 6.00 Build 0)  -->
<!DOCTYPE svg PUBLIC "-//W3C//DTD SVG 1.1//EN" "http://www.w3.org/Graphics/SVG/1.1/DTD/svg11.dtd">
<svg version="1.1" id="图层_1" xmlns="http://www.w3.org/2000/svg" xmlns:xlink="http://www.w3.org/1999/xlink" x="0px" y="0px"
	 viewBox="0 0 200 200" enable-background="new 0 0 200 200" xml:space="preserve">
<g>
	<path fill="#698596" d="M100,100L100,100c-1.7,1-3.9,0.4-4.8-1.4L65.4,42.4l2.1-1.2l33.8,53.9C102.3,96.8,101.7,99,100,100z"/>
	<circle opacity="0.5" fill="#E43A3D" cx="65.4" cy="40.1" r="26.4"/>
	<circle fill="#FFFFFF" cx="65.4" cy="40.1" r="6"/>
	<path fill="#698596" d="M100,100L100,100c0,2-1.6,3.5-3.6,3.5l-63.6-2.3v-2.4l63.6-2.3C98.4,96.5,100,98,100,100z"/>
	<circle opacity="0.5" fill="#2EBBD9" cx="30.8" cy="100" r="26.4"/>
	<circle fill="#FFFFFF" cx="30.8" cy="100" r="6"/>
	<path fill="#698596" d="M100,100L100,100c1.7,1,2.3,3.2,1.2,4.9l-33.8,53.9l-2.1-1.2l29.8-56.2C96.1,99.6,98.3,99,100,100z"/>
	<circle opacity="0.5" fill="#E43A3D" cx="65.4" cy="159.9" r="26.4"/>
	<circle fill="#FFFFFF" cx="65.4" cy="159.9" r="6"/>
	<path fill="#698596" d="M100,100L100,100c1.7-1,3.9-0.4,4.8,1.4l29.8,56.2l-2.1,1.2l-33.8-53.9C97.7,103.2,98.3,101,100,100z"/>
	<circle opacity="0.5" fill="#2EBBD9" cx="134.6" cy="159.9" r="26.4"/>
	<circle fill="#FFFFFF" cx="134.6" cy="159.9" r="6"/>
	<path fill="#698596" d="M100,100L100,100c0-2,1.6-3.5,3.6-3.5l63.6,2.3v2.4l-63.6,2.3C101.6,103.5,100,102,100,100z"/>
	<circle opacity="0.5" fill="#E43A3D" cx="169.2" cy="100" r="26.4"/>
	<circle fill="#FFFFFF" cx="169.2" cy="100" r="6"/>
	<path fill="#698596" d="M100,100L100,100c-1.7-1-2.3-3.2-1.2-4.9l33.8-53.9l2.1,1.2l-29.8,56.2C103.9,100.4,101.7,101,100,100z"/>
	<circle opacity="0.5" fill="#2EBBD9" cx="134.6" cy="40.1" r="26.4"/>
	<circle fill="#FFFFFF" cx="134.6" cy="40.1" r="6"/>
	<polygon fill="#698596" points="93.9,123 83.2,116.8 77,106.1 77,93.9 83.2,83.2 93.9,77 106.1,77 116.8,83.2 123,93.9 123,106.1 
		116.8,116.8 106.1,123 	"/>
	<g>
		<polygon fill="#FFFFFF" points="95.2,100.2 98.2,113.9 98.2,86.1 88.5,101.6 		"/>
		<polygon fill="#FFFFFF" points="101.8,86.1 101.8,113.9 104.8,100.2 111.5,101.6 		"/>
	</g>
</g>
</svg>
