<?xml version="1.0" encoding="utf-8"?>
<!-- Generator: Adobe Illustrator 18.0.0, SVG Export Plug-In . SVG Version: 6.00 Build 0)  -->
<!DOCTYPE svg PUBLIC "-//W3C//DTD SVG 1.1//EN" "http://www.w3.org/Graphics/SVG/1.1/DTD/svg11.dtd">
<svg version="1.1" id="图层_1" xmlns="http://www.w3.org/2000/svg" xmlns:xlink="http://www.w3.org/1999/xlink" x="0px" y="0px"
	 viewBox="0 0 200 200" enable-background="new 0 0 200 200" xml:space="preserve">
<g>
	<path fill="#698596" d="M100,100L100,100c-2,0-3.5-1.6-3.5-3.6l2.3-63.6h2.4l2.3,63.6C103.5,98.4,102,100,100,100z"/>
	<circle opacity="0.5" fill="#E43A3D" cx="100" cy="30.8" r="26.4"/>
	<circle fill="#FFFFFF" cx="100" cy="30.8" r="6"/>
	<path fill="#698596" d="M100,100L100,100c-1,1.7-3.2,2.3-4.9,1.2L41.2,67.4l1.2-2.1l56.2,29.8C100.4,96.1,101,98.3,100,100z"/>
	<circle opacity="0.5" fill="#2EBBD9" cx="40.1" cy="65.4" r="26.4"/>
	<circle fill="#FFFFFF" cx="40.1" cy="65.4" r="6"/>
	<path fill="#698596" d="M100,100L100,100c1,1.7,0.4,3.9-1.4,4.8l-56.2,29.8l-1.2-2.1l53.9-33.8C96.8,97.7,99,98.3,100,100z"/>
	<circle opacity="0.5" fill="#E43A3D" cx="40.1" cy="134.6" r="26.4"/>
	<circle fill="#FFFFFF" cx="40.1" cy="134.6" r="6"/>
	<path fill="#698596" d="M100,100L100,100c2,0,3.5,1.6,3.5,3.6l-2.3,63.6h-2.4l-2.3-63.6C96.5,101.6,98,100,100,100z"/>
	<circle opacity="0.5" fill="#2EBBD9" cx="100" cy="169.2" r="26.4"/>
	<circle fill="#FFFFFF" cx="100" cy="169.2" r="6"/>
	<path fill="#698596" d="M100,100L100,100c1-1.7,3.2-2.3,4.9-1.2l53.9,33.8l-1.2,2.1l-56.2-29.8C99.6,103.9,99,101.7,100,100z"/>
	<circle opacity="0.5" fill="#E43A3D" cx="159.9" cy="134.6" r="26.4"/>
	<circle fill="#FFFFFF" cx="159.9" cy="134.6" r="6"/>
	<path fill="#698596" d="M100,100L100,100c-1-1.7-0.4-3.9,1.4-4.8l56.2-29.8l1.2,2.1l-53.9,33.8C103.2,102.3,101,101.7,100,100z"/>
	<circle opacity="0.5" fill="#2EBBD9" cx="159.9" cy="65.4" r="26.4"/>
	<circle fill="#FFFFFF" cx="159.9" cy="65.4" r="6"/>
	<polygon fill="#698596" points="93.9,123 83.2,116.8 77,106.1 77,93.9 83.2,83.2 93.9,77 106.1,77 116.8,83.2 123,93.9 123,106.1 
		116.8,116.8 106.1,123 	"/>
	<g>
		<polygon fill="#FFFFFF" points="95.2,100.2 98.2,113.9 98.2,86.1 88.5,101.6 		"/>
		<polygon fill="#FFFFFF" points="101.8,86.1 101.8,113.9 104.8,100.2 111.5,101.6 		"/>
	</g>
</g>
</svg>
