<?xml version="1.0" encoding="utf-8"?>
<!-- Generator: Adobe Illustrator 18.0.0, SVG Export Plug-In . SVG Version: 6.00 Build 0)  -->
<!DOCTYPE svg PUBLIC "-//W3C//DTD SVG 1.1//EN" "http://www.w3.org/Graphics/SVG/1.1/DTD/svg11.dtd">
<svg version="1.1" id="图层_1" xmlns="http://www.w3.org/2000/svg" xmlns:xlink="http://www.w3.org/1999/xlink" x="0px" y="0px"
	 viewBox="0 0 460 400" enable-background="new 0 0 460 400" xml:space="preserve">
<path opacity="0.15" fill="#2EBBD9" d="M78.1,389.6l69-72.3c-22.9-21.9-37.1-52.7-37.1-86.8c0-66.3,53.7-120,120-120
	s120,53.7,120,120c0,34.1-14.3,65-37.1,86.8l69,72.3c42-40.1,68.1-96.5,68.1-159.1c0-121.5-98.5-220-220-220S10,109,10,230.5
	C10,293.1,36.1,349.6,78.1,389.6z"/>
<linearGradient id="SVGID_1_" gradientUnits="userSpaceOnUse" x1="230" y1="335.5" x2="230" y2="125.5">
	<stop  offset="0.2653" style="stop-color:#2EBBD9;stop-opacity:0"/>
	<stop  offset="1" style="stop-color:#2EBBD9"/>
</linearGradient>
<path fill="url(#SVGID_1_)" d="M230,125.5c-58,0-105,47-105,105c0,58,47,105,105,105c58,0,105-47,105-105
	C335,172.5,288,125.5,230,125.5z M230,333.5c-56.9,0-103-46.1-103-103c0-56.9,46.1-103,103-103s103,46.1,103,103
	C333,287.4,286.9,333.5,230,333.5z"/>
<g opacity="0.5">
	<path fill="#2EBBD9" d="M230,11.5c29.6,0,58.2,5.8,85.2,17.2c26.1,11,49.5,26.8,69.6,46.9c20.1,20.1,35.9,43.5,46.9,69.6
		c11.4,27,17.2,55.7,17.2,85.2c0,30.5-6.1,59.9-18.2,87.6c-11.6,26.4-28,50-48.8,70.1l-67.7-70.9c23.7-23,36.7-53.8,36.7-86.8
		c0-66.7-54.3-121-121-121s-121,54.3-121,121c0,33,13,63.8,36.7,86.8l-67.7,70.9c-20.9-20.1-37.3-43.7-48.8-70.1
		C17.1,290.4,11,261,11,230.5c0-29.6,5.8-58.2,17.2-85.2c11-26.1,26.8-49.5,46.9-69.6c20.1-20.1,43.5-35.9,69.6-46.9
		C171.8,17.3,200.4,11.5,230,11.5 M230,10.5c-121.5,0-220,98.5-220,220c0,62.6,26.1,119.1,68.1,159.1l69-72.3
		c-22.9-21.9-37.1-52.7-37.1-86.8c0-66.3,53.7-120,120-120s120,53.7,120,120c0,34.1-14.3,65-37.1,86.8l69,72.3
		c42-40.1,68.1-96.5,68.1-159.1C450,109,351.5,10.5,230,10.5L230,10.5z"/>
</g>
</svg>
