<?xml version="1.0" encoding="utf-8"?>
<!-- Generator: Adobe Illustrator 18.0.0, SVG Export Plug-In . SVG Version: 6.00 Build 0)  -->
<!DOCTYPE svg PUBLIC "-//W3C//DTD SVG 1.1//EN" "http://www.w3.org/Graphics/SVG/1.1/DTD/svg11.dtd">
<svg version="1.1" id="图层_1" xmlns="http://www.w3.org/2000/svg" xmlns:xlink="http://www.w3.org/1999/xlink" x="0px" y="0px"
	 viewBox="0 0 220 220" enable-background="new 0 0 220 220" xml:space="preserve">
<g>
	<path fill="#698596" d="M104.5,107.7L104.5,107.7c-0.8,1.8-2.9,2.6-4.7,1.8L41.9,83.1l0.9-2.2l59.6,22.2
		C104.3,103.8,105.2,105.9,104.5,107.7z"/>
	<circle opacity="0.5" fill="#E43A3D" cx="40.5" cy="81.2" r="26.4"/>
	<circle fill="#FFFFFF" cx="40.5" cy="81.2" r="6"/>
	<path fill="#698596" d="M104.5,112.3L104.5,112.3c0.8,1.8-0.2,3.9-2,4.6l-59.6,22.2l-0.9-2.2l57.9-26.4
		C101.6,109.6,103.7,110.5,104.5,112.3z"/>
	<circle opacity="0.5" fill="#2EBBD9" cx="40.5" cy="138.8" r="26.4"/>
	<circle fill="#FFFFFF" cx="40.5" cy="138.8" r="6"/>
	<path fill="#698596" d="M107.7,115.5L107.7,115.5c1.8,0.8,2.6,2.9,1.8,4.7l-26.4,57.9l-2.2-0.9l22.2-59.6
		C103.8,115.7,105.9,114.8,107.7,115.5z"/>
	<circle opacity="0.5" fill="#E43A3D" cx="81.2" cy="179.5" r="26.4"/>
	<circle fill="#FFFFFF" cx="81.2" cy="179.5" r="6"/>
	<path fill="#698596" d="M112.3,115.5L112.3,115.5c1.8-0.8,3.9,0.2,4.6,2l22.2,59.6l-2.2,0.9l-26.4-57.9
		C109.6,118.4,110.5,116.3,112.3,115.5z"/>
	<circle opacity="0.5" fill="#2EBBD9" cx="138.8" cy="179.5" r="26.4"/>
	<circle fill="#FFFFFF" cx="138.8" cy="179.5" r="6"/>
	<path fill="#698596" d="M115.5,112.3L115.5,112.3c0.8-1.8,2.9-2.6,4.7-1.8l57.9,26.4l-0.9,2.2l-59.6-22.2
		C115.7,116.2,114.8,114.1,115.5,112.3z"/>
	<circle opacity="0.5" fill="#E43A3D" cx="179.5" cy="138.8" r="26.4"/>
	<circle fill="#FFFFFF" cx="179.5" cy="138.8" r="6"/>
	<path fill="#698596" d="M115.5,107.7L115.5,107.7c-0.8-1.8,0.2-3.9,2-4.6l59.6-22.2l0.9,2.2l-57.9,26.4
		C118.4,110.4,116.3,109.5,115.5,107.7z"/>
	<circle opacity="0.5" fill="#2EBBD9" cx="179.5" cy="81.2" r="26.4"/>
	<circle fill="#FFFFFF" cx="179.5" cy="81.2" r="6"/>
	<path fill="#698596" d="M112.3,104.5L112.3,104.5c-1.8-0.8-2.6-2.9-1.8-4.7l26.4-57.9l2.2,0.9l-22.2,59.6
		C116.2,104.3,114.1,105.2,112.3,104.5z"/>
	<circle opacity="0.5" fill="#E43A3D" cx="138.8" cy="40.5" r="26.4"/>
	<circle fill="#FFFFFF" cx="138.8" cy="40.5" r="6"/>
	<path fill="#698596" d="M107.7,104.5L107.7,104.5c-1.8,0.8-3.9-0.2-4.6-2L80.9,42.8l2.2-0.9l26.4,57.9
		C110.4,101.6,109.5,103.7,107.7,104.5z"/>
	<circle opacity="0.5" fill="#2EBBD9" cx="81.2" cy="40.5" r="26.4"/>
	<circle fill="#FFFFFF" cx="81.2" cy="40.5" r="6"/>
	<polygon fill="#698596" points="103.9,133 93.2,126.8 87,116.1 87,103.9 93.2,93.2 103.9,87 116.1,87 126.8,93.2 133,103.9 
		133,116.1 126.8,126.8 116.1,133 	"/>
	<g>
		<polygon fill="#FFFFFF" points="105.2,110.2 108.2,123.9 108.2,96.1 98.5,111.6 		"/>
		<polygon fill="#FFFFFF" points="111.8,96.1 111.8,123.9 114.8,110.2 121.5,111.6 		"/>
	</g>
</g>
</svg>
