<?xml version="1.0" encoding="utf-8"?>
<!-- Generator: Adobe Illustrator 18.0.0, SVG Export Plug-In . SVG Version: 6.00 Build 0)  -->
<!DOCTYPE svg PUBLIC "-//W3C//DTD SVG 1.1//EN" "http://www.w3.org/Graphics/SVG/1.1/DTD/svg11.dtd">
<svg version="1.1" id="图层_1" xmlns="http://www.w3.org/2000/svg" xmlns:xlink="http://www.w3.org/1999/xlink" x="0px" y="0px"
	 viewBox="0 0 220 220" enable-background="new 0 0 220 220" xml:space="preserve">
<g>
	<path fill="#698596" d="M110,104L110,104c-2,0-3.5-1.6-3.5-3.6l2.3-63.6h2.4l2.3,63.6C113.5,102.4,112,104,110,104z"/>
	<circle opacity="0.5" fill="#E43A3D" cx="110" cy="34.8" r="26.4"/>
	<circle fill="#FFFFFF" cx="110" cy="34.8" r="6"/>
	<path fill="#698596" d="M105.8,105.8L105.8,105.8c-1.4,1.4-3.7,1.4-5-0.1L57.4,59.1l1.7-1.7l46.6,43.4
		C107.1,102.1,107.1,104.4,105.8,105.8z"/>
	<circle opacity="0.5" fill="#2EBBD9" cx="56.8" cy="56.8" r="26.4"/>
	<circle fill="#FFFFFF" cx="56.8" cy="56.8" r="6"/>
	<path fill="#698596" d="M104,110L104,110c0,2-1.6,3.5-3.6,3.5l-63.6-2.3v-2.4l63.6-2.3C102.4,106.5,104,108,104,110z"/>
	<circle opacity="0.5" fill="#E43A3D" cx="34.8" cy="110" r="26.4"/>
	<circle fill="#FFFFFF" cx="34.8" cy="110" r="6"/>
	<path fill="#698596" d="M105.8,114.2L105.8,114.2c1.4,1.4,1.4,3.7-0.1,5l-46.6,43.4l-1.7-1.7l43.4-46.6
		C102.1,112.9,104.4,112.9,105.8,114.2z"/>
	<circle opacity="0.5" fill="#2EBBD9" cx="56.8" cy="163.2" r="26.4"/>
	<circle fill="#FFFFFF" cx="56.8" cy="163.2" r="6"/>
	<path fill="#698596" d="M110,116L110,116c2,0,3.5,1.6,3.5,3.6l-2.3,63.6h-2.4l-2.3-63.6C106.5,117.6,108,116,110,116z"/>
	<circle opacity="0.5" fill="#E43A3D" cx="110" cy="185.2" r="26.4"/>
	<circle fill="#FFFFFF" cx="110" cy="185.2" r="6"/>
	<path fill="#698596" d="M114.2,114.2L114.2,114.2c1.4-1.4,3.7-1.4,5,0.1l43.4,46.6l-1.7,1.7l-46.6-43.4
		C112.9,117.9,112.9,115.6,114.2,114.2z"/>
	<circle opacity="0.5" fill="#2EBBD9" cx="163.2" cy="163.2" r="26.4"/>
	<circle fill="#FFFFFF" cx="163.2" cy="163.2" r="6"/>
	<path fill="#698596" d="M116,110L116,110c0-2,1.6-3.5,3.6-3.5l63.6,2.3v2.4l-63.6,2.3C117.6,113.5,116,112,116,110z"/>
	<circle opacity="0.5" fill="#E43A3D" cx="185.2" cy="110" r="26.4"/>
	<circle fill="#FFFFFF" cx="185.2" cy="110" r="6"/>
	<path fill="#698596" d="M114.2,105.8L114.2,105.8c-1.4-1.4-1.4-3.7,0.1-5l46.6-43.4l1.7,1.7l-43.4,46.6
		C117.9,107.1,115.6,107.1,114.2,105.8z"/>
	<circle opacity="0.5" fill="#2EBBD9" cx="163.2" cy="56.8" r="26.4"/>
	<circle fill="#FFFFFF" cx="163.2" cy="56.8" r="6"/>
	<polygon fill="#698596" points="103.9,133 93.2,126.8 87,116.1 87,103.9 93.2,93.2 103.9,87 116.1,87 126.8,93.2 133,103.9 
		133,116.1 126.8,126.8 116.1,133 	"/>
	<g>
		<polygon fill="#FFFFFF" points="105.2,110.2 108.2,123.9 108.2,96.1 98.5,111.6 		"/>
		<polygon fill="#FFFFFF" points="111.8,96.1 111.8,123.9 114.8,110.2 121.5,111.6 		"/>
	</g>
</g>
</svg>
