<?xml version="1.0" encoding="utf-8"?>
<!-- Generator: Adobe Illustrator 18.0.0, SVG Export Plug-In . SVG Version: 6.00 Build 0)  -->
<!DOCTYPE svg PUBLIC "-//W3C//DTD SVG 1.1//EN" "http://www.w3.org/Graphics/SVG/1.1/DTD/svg11.dtd">
<svg version="1.1" id="图层_1" xmlns="http://www.w3.org/2000/svg" xmlns:xlink="http://www.w3.org/1999/xlink" x="0px" y="0px"
	 viewBox="0 0 180 180" enable-background="new 0 0 180 180" xml:space="preserve">
<g>
	<circle opacity="0.5" fill="#2EBBD9" cx="41.1" cy="47.1" r="26.4"/>
	<circle opacity="0.5" fill="#E43A3D" cx="41.1" cy="144.9" r="26.4"/>
	<circle opacity="0.5" fill="#2EBBD9" cx="138.9" cy="144.9" r="26.4"/>
	<circle opacity="0.5" fill="#E43A3D" cx="138.9" cy="47.1" r="26.4"/>
	<path fill="#698596" d="M90,84L90,84c-1.4,1.4-3.7,1.4-5-0.1L41.6,37.3l1.7-1.7L89.9,79C91.4,80.3,91.4,82.6,90,84z"/>
	<circle opacity="0.5" fill="#E43A3D" cx="41.1" cy="35.1" r="26.4"/>
	<circle fill="#FFFFFF" cx="41.1" cy="35.1" r="6"/>
	<path fill="#698596" d="M90,84L90,84c1.4,1.4,1.4,3.7-0.1,5l-46.6,43.4l-1.7-1.7L85,84.1C86.3,82.6,88.6,82.6,90,84z"/>
	<circle opacity="0.5" fill="#2EBBD9" cx="41.1" cy="132.9" r="26.4"/>
	<circle fill="#FFFFFF" cx="41.1" cy="132.9" r="6"/>
	<path fill="#698596" d="M90,84L90,84c1.4-1.4,3.7-1.4,5,0.1l43.4,46.6l-1.7,1.7L90.1,89C88.6,87.7,88.6,85.4,90,84z"/>
	<circle opacity="0.5" fill="#E43A3D" cx="138.9" cy="132.9" r="26.4"/>
	<circle fill="#FFFFFF" cx="138.9" cy="132.9" r="6"/>
	<path fill="#698596" d="M90,84L90,84c-1.4-1.4-1.4-3.7,0.1-5l46.6-43.4l1.7,1.7L95,83.9C93.7,85.4,91.4,85.4,90,84z"/>
	<circle opacity="0.5" fill="#2EBBD9" cx="138.9" cy="35.1" r="26.4"/>
	<circle fill="#FFFFFF" cx="138.9" cy="35.1" r="6"/>
	<polygon fill="#698596" points="83.9,107 73.2,100.8 67,90.1 67,77.9 73.2,67.2 83.9,61 96.1,61 106.8,67.2 113,77.9 113,90.1 
		106.8,100.8 96.1,107 	"/>
	<g>
		<polygon fill="#FFFFFF" points="85.2,84.2 88.2,97.9 88.2,70.1 78.5,85.6 		"/>
		<polygon fill="#FFFFFF" points="91.8,70.1 91.8,97.9 94.8,84.2 101.5,85.6 		"/>
	</g>
</g>
</svg>
