<?xml version="1.0" encoding="utf-8"?>
<!-- Generator: Adobe Illustrator 18.0.0, SVG Export Plug-In . SVG Version: 6.00 Build 0)  -->
<!DOCTYPE svg PUBLIC "-//W3C//DTD SVG 1.1//EN" "http://www.w3.org/Graphics/SVG/1.1/DTD/svg11.dtd">
<svg version="1.1" id="图层_1" xmlns="http://www.w3.org/2000/svg" xmlns:xlink="http://www.w3.org/1999/xlink" x="0px" y="0px"
	 viewBox="0 0 320 180" enable-background="new 0 0 320 180" xml:space="preserve">
<g>
	<path fill="#698596" d="M308.4,65.3c-0.1-6.6-3.1-16.1-17-15.5c-2.6,0-109.5,3-121.8,3.3c0.8-6.4,1.2-12.5,1.2-17.6
		c0.5-12.8-10.8-22.8-10.8-22.8s-11.3,10-10.8,22.8c0,5.1,0.4,11.2,1.2,17.6c-12.3-0.3-119.2-3.3-121.8-3.3
		c-13.9-0.6-16.9,8.9-17,15.5C45.1,69,98.1,74.8,130,78.3v68V161v3.3l30,3l30-3V161v-14.7v-68C221.9,74.8,274.9,69,308.4,65.3z
		 M189,146.6l-29,8.7l-29-8.7V78.4c12,1.3,21,2.3,24.5,2.7c0.8,3.4,1.7,6.5,2.6,9.2c-9,0.3-16.1,2.4-16.1,5c0,2.8,8.1,5,18,5
		c9.9,0,18-2.2,18-5c0-2.6-7-4.7-16.1-5c0.9-2.7,1.8-5.8,2.6-9.2c3.5-0.4,12.4-1.4,24.5-2.7V146.6z"/>
	<g>
		<path opacity="0.5" fill="#E43A3D" d="M107.2,68.8l-72.4-5.5v4.5c23.1,2.5,49.8,5.4,72.4,7.9V68.8z"/>
		<path opacity="0.5" fill="#E43A3D" d="M112.5,69.2v7.1c18.8,2.1,34.1,3.7,40.9,4.5v-8.5L112.5,69.2z"/>
	</g>
	<g opacity="0.5">
		<path fill="#E43A3D" d="M212.8,68.8l72.4-5.5v4.5c-23.1,2.5-49.8,5.4-72.4,7.9V68.8z"/>
		<path fill="#E43A3D" d="M207.5,69.2v7.1c-18.8,2.1-34.1,3.7-40.9,4.5v-8.5L207.5,69.2z"/>
	</g>
	<polygon opacity="0.5" fill="#E43A3D" points="132.1,164.5 158,167.1 158,161.3 132.1,155 	"/>
	<g opacity="0.5">
		<polygon fill="#E43A3D" points="187.9,164.5 162,167.1 162,161.3 187.9,155 		"/>
	</g>
</g>
</svg>
