<?xml version="1.0" encoding="utf-8"?>
<!-- Generator: Adobe Illustrator 18.0.0, SVG Export Plug-In . SVG Version: 6.00 Build 0)  -->
<!DOCTYPE svg PUBLIC "-//W3C//DTD SVG 1.1//EN" "http://www.w3.org/Graphics/SVG/1.1/DTD/svg11.dtd">
<svg version="1.1" id="图层_1" xmlns="http://www.w3.org/2000/svg" xmlns:xlink="http://www.w3.org/1999/xlink" x="0px" y="0px"
	 viewBox="0 0 350 300" enable-background="new 0 0 350 300" xml:space="preserve">
<polygon opacity="0.5" fill="#10EBBF" points="340,46.9 290.4,46.9 320.4,10.9 340,10.9 "/>
<g>
	<polygon fill="#FFFFFF" points="322.8,19 323.7,32.5 328.7,32.5 329.6,19 	"/>
	<rect x="323.7" y="35.8" fill="#FFFFFF" width="5.1" height="5.1"/>
</g>
<g opacity="0.3">
	<path fill="#10EBBF" d="M344,6.9v286h-36.5l-19.7-27.6l-0.3-0.4H287H63h-0.5l-0.3,0.4l-19.7,27.6H6V6.9H344 M345,5.9H5v288h38
		l20-28h224l20,28h38V5.9L345,5.9z"/>
</g>
<polygon opacity="0.3" fill="#10EBBF" points="280,46.9 10,46.9 10,10.9 310,10.9 "/>
<polygon fill="#10EBBF" stroke="#10EBBF" stroke-miterlimit="10" points="6,284.1 5,284.1 5,294.1 15,294.1 15,293.1 6,293.1 "/>
<polygon fill="#10EBBF" stroke="#10EBBF" stroke-miterlimit="10" points="344,284.1 345,284.1 345,294.1 335,294.1 335,293.1 
	344,293.1 "/>
<polygon fill="#10EBBF" stroke="#10EBBF" stroke-miterlimit="10" points="6,15.9 5,15.9 5,5.9 15,5.9 15,6.9 6,6.9 "/>
<polygon fill="#10EBBF" stroke="#10EBBF" stroke-miterlimit="10" points="344,15.9 345,15.9 345,5.9 335,5.9 335,6.9 344,6.9 "/>
</svg>
