<?xml version="1.0" encoding="utf-8"?>
<!-- Generator: Adobe Illustrator 18.0.0, SVG Export Plug-In . SVG Version: 6.00 Build 0)  -->
<!DOCTYPE svg PUBLIC "-//W3C//DTD SVG 1.1//EN" "http://www.w3.org/Graphics/SVG/1.1/DTD/svg11.dtd">
<svg version="1.1" id="图层_1" xmlns="http://www.w3.org/2000/svg" xmlns:xlink="http://www.w3.org/1999/xlink" x="0px" y="0px"
	 viewBox="0 0 280 200" enable-background="new 0 0 280 200" xml:space="preserve">
<g>
	<path fill="#698596" d="M154.3,173.4h-8.1l4.1-83.9c12.5-0.5,81.4-3.3,120.7-4.4c-7.9-24.9-39.7-29.8-48.7-29.8
		c-8.2,0-60.9,0-70.4,0V25.4c0-6.6-5.4-18-12-18h0c-6.6,0-12,11.4-12,18v29.8c-10,0-62,0-70.2,0c-9,0-40.7,4.9-48.7,29.8
		c39.1,1.2,107.5,3.9,120.5,4.4l4.1,83.9h-8.1c-10.6,0-25.2,8.6-25.2,19.2h79.2C179.5,182,164.9,173.4,154.3,173.4z"/>
	<path opacity="0.5" fill="#E43A3D" d="M43.2,86.2c28.5,1,59.6,2.2,76.3,2.9v-7.9l-76.3-2.8V86.2z"/>
	<path opacity="0.5" fill="#E43A3D" d="M236.8,86.2c-28.5,1-59.6,2.2-76.3,2.9v-7.9l76.3-2.8V86.2z"/>
	<polygon opacity="0.5" fill="#E43A3D" points="142.9,183 142.9,175.8 136.9,175.8 136.9,183 113.5,183 113.5,192.6 136.9,192.6 
		142.9,192.6 166.3,192.6 166.3,183 	"/>
</g>
</svg>
