<?xml version="1.0" encoding="utf-8"?>
<!-- Generator: Adobe Illustrator 18.0.0, SVG Export Plug-In . SVG Version: 6.00 Build 0)  -->
<!DOCTYPE svg PUBLIC "-//W3C//DTD SVG 1.1//EN" "http://www.w3.org/Graphics/SVG/1.1/DTD/svg11.dtd">
<svg version="1.1" id="图层_1" xmlns="http://www.w3.org/2000/svg" xmlns:xlink="http://www.w3.org/1999/xlink" x="0px" y="0px"
	 viewBox="0 0 260 200" enable-background="new 0 0 260 200" xml:space="preserve">
<g>
	<path fill="#698596" d="M142,106L142,106c1.4-1.4,3.7-1.4,5,0.1l43.4,46.6l-1.7,1.7L142.1,111C140.6,109.7,140.6,107.4,142,106z"/>
	<path fill="#698596" d="M118,106L118,106c1.4,1.4,1.4,3.7-0.1,5l-46.6,43.4l-1.7-1.7l43.4-46.6C114.3,104.7,116.6,104.6,118,106z"
		/>
	<path fill="#698596" d="M130,94L130,94c-1,1.7-3.2,2.3-4.9,1.2L46.3,47.1l1.2-2.1l81.2,44.2C130.4,90.2,131,92.3,130,94z"/>
	<circle opacity="0.5" fill="#E43A3D" cx="45.1" cy="45" r="32.4"/>
	<circle fill="#FFFFFF" cx="45.1" cy="45" r="6"/>
	<circle opacity="0.5" fill="#2EBBD9" cx="69.1" cy="155" r="32.4"/>
	<circle opacity="0.5" fill="#E43A3D" cx="190.9" cy="155" r="32.4"/>
	<path fill="#698596" d="M130,94L130,94c-1-1.7-0.4-3.9,1.4-4.8L212.5,45l1.2,2.1l-78.9,48.2C133.2,96.3,131,95.7,130,94z"/>
	<circle opacity="0.5" fill="#2EBBD9" cx="214.9" cy="45" r="32.4"/>
	<circle fill="#FFFFFF" cx="214.9" cy="45" r="6"/>
	<circle fill="#FFFFFF" cx="69.1" cy="155" r="6"/>
	<circle fill="#FFFFFF" cx="190.9" cy="155" r="6"/>
	<polygon fill="#698596" points="123.9,117 113.2,110.8 107,100.2 107,87.9 113.2,77.2 123.9,71.1 136.1,71.1 146.8,77.2 153,87.9 
		153,100.2 146.8,110.8 136.1,117 	"/>
	<g>
		<polygon fill="#FFFFFF" points="125.2,94.3 128.2,107.9 128.2,80.1 118.5,95.7 		"/>
		<polygon fill="#FFFFFF" points="131.8,80.1 131.8,107.9 134.8,94.3 141.5,95.7 		"/>
	</g>
</g>
</svg>
