<?xml version="1.0" encoding="utf-8"?>
<!-- Generator: Adobe Illustrator 18.0.0, SVG Export Plug-In . SVG Version: 6.00 Build 0)  -->
<!DOCTYPE svg PUBLIC "-//W3C//DTD SVG 1.1//EN" "http://www.w3.org/Graphics/SVG/1.1/DTD/svg11.dtd">
<svg version="1.1" id="图层_1" xmlns="http://www.w3.org/2000/svg" xmlns:xlink="http://www.w3.org/1999/xlink" x="0px" y="0px"
	 viewBox="0 0 170 170" enable-background="new 0 0 170 170" xml:space="preserve">
<g>
	<path fill="#698596" d="M85,85L85,85c-1.4,1.4-3.7,1.4-5-0.1L36.6,38.3l1.7-1.7L84.9,80C86.4,81.3,86.4,83.6,85,85z"/>
	<circle opacity="0.5" fill="#E43A3D" cx="36.1" cy="36.1" r="26.4"/>
	<circle fill="#FFFFFF" cx="36.1" cy="36.1" r="6"/>
	<path fill="#698596" d="M85,85L85,85c1.4,1.4,1.4,3.7-0.1,5l-46.6,43.4l-1.7-1.7L80,85.1C81.3,83.6,83.6,83.6,85,85z"/>
	<circle opacity="0.5" fill="#2EBBD9" cx="36.1" cy="133.9" r="26.4"/>
	<circle fill="#FFFFFF" cx="36.1" cy="133.9" r="6"/>
	<path fill="#698596" d="M85,85L85,85c1.4-1.4,3.7-1.4,5,0.1l43.4,46.6l-1.7,1.7L85.1,90C83.6,88.7,83.6,86.4,85,85z"/>
	<circle opacity="0.5" fill="#E43A3D" cx="133.9" cy="133.9" r="26.4"/>
	<circle fill="#FFFFFF" cx="133.9" cy="133.9" r="6"/>
	<path fill="#698596" d="M85,85L85,85c-1.4-1.4-1.4-3.7,0.1-5l46.6-43.4l1.7,1.7L90,84.9C88.7,86.4,86.4,86.4,85,85z"/>
	<circle opacity="0.5" fill="#2EBBD9" cx="133.9" cy="36.1" r="26.4"/>
	<circle fill="#FFFFFF" cx="133.9" cy="36.1" r="6"/>
	<polygon fill="#698596" points="78.9,108 68.2,101.8 62,91.1 62,78.9 68.2,68.2 78.9,62 91.1,62 101.8,68.2 108,78.9 108,91.1 
		101.8,101.8 91.1,108 	"/>
	<g>
		<polygon fill="#FFFFFF" points="80.2,85.2 83.2,98.9 83.2,71.1 73.5,86.6 		"/>
		<polygon fill="#FFFFFF" points="86.8,71.1 86.8,98.9 89.8,85.2 96.5,86.6 		"/>
	</g>
</g>
</svg>
