<?xml version="1.0" encoding="utf-8"?>
<!-- Generator: Adobe Illustrator 18.0.0, SVG Export Plug-In . SVG Version: 6.00 Build 0)  -->
<!DOCTYPE svg PUBLIC "-//W3C//DTD SVG 1.1//EN" "http://www.w3.org/Graphics/SVG/1.1/DTD/svg11.dtd">
<svg version="1.1" id="图层_1" xmlns="http://www.w3.org/2000/svg" xmlns:xlink="http://www.w3.org/1999/xlink" x="0px" y="0px"
	 viewBox="0 0 120 200" enable-background="new 0 0 120 200" xml:space="preserve">
<g>
	<path fill="#2EBBD9" d="M98.4,32.5c0-13.2-10.8-24-24-24H45.6c-13.2,0-24,10.8-24,24v150.7c0,0.3,0.1,0.6,0.4,0.9
		c1.2,1.2,2.1,2.1,3.2,3.2v2.9c0,0.7,0.5,1.2,1.2,1.2h67.2c0.7,0,1.2-0.5,1.2-1.2v-2.9c1.1-1.1,2-2,3.3-3.3c0.2-0.2,0.4-0.5,0.4-0.9
		V32.5z"/>
	<path fill="#FFFFFF" d="M43.8,23.9v-9.7c0-0.3-0.3-0.6-0.6-0.6c-2.3,0-10.7,0.6-13.4,6.8c-0.2,0.6,0,1.2,0.5,1.5
		c3.1,1.8,6.6,3.6,7.4,4.1c0.1,0.1,0.3,0.1,0.4,0l5.2-1.6C43.7,24.3,43.8,24.1,43.8,23.9z"/>
	<path fill="#FFFFFF" d="M75,23.9v-9.7c0-0.3,0.3-0.6,0.6-0.6c2.3,0,10.7,0.6,13.4,6.8c0.2,0.6,0,1.2-0.5,1.5
		c-3.1,1.8-6.6,3.6-7.4,4.1c-0.1,0.1-0.3,0.1-0.4,0l-5.2-1.6C75.2,24.3,75,24.1,75,23.9z"/>
	<polygon fill="#FFFFFF" points="78,56.4 42,56.4 28.8,63.5 34.8,82.8 85.2,82.8 91.2,63.6 	"/>
	<path fill="#FFFFFF" d="M27.6,72.9v66.4l2.1,7.4c0,0,3.3-7.6,3.3-17.3s2.1-33.7-3.3-56.5C28.4,72.9,27.6,72.9,27.6,72.9z"/>
	<path fill="#FFFFFF" d="M92.4,72.9v66.4l-2.1,7.4c0,0-3.3-7.6-3.3-17.3s-2.1-33.7,3.3-56.5C91.6,72.9,92.4,72.9,92.4,72.9z"/>
	<g>
		<path fill="#FFFFFF" d="M46.8,180.4c3.6,0.4,7.8,0.7,12,0.7v-45.6h-12V180.4z"/>
		<path fill="#FFFFFF" d="M73.2,135.6h-12v45.6c4.2-0.1,8.4-0.4,12-0.7V135.6z"/>
		<path fill="#FFFFFF" d="M44.4,135.6h-9.6v43.2c0,0,3.9,0.8,9.6,1.4V135.6z"/>
		<path fill="#FFFFFF" d="M75.6,135.6v44.6c5.7-0.7,9.6-1.4,9.6-1.4v-43.2H75.6z"/>
	</g>
	<path fill="#E43A3D" d="M17.6,78.4H6.4c-2.2,0-4-1.8-4-4V44c0-2.2,1.8-4,4-4h11.2c2.2,0,4,1.8,4,4v30.4
		C21.6,76.6,19.8,78.4,17.6,78.4z"/>
	<path fill="#E43A3D" d="M113.6,78.4h-11.2c-2.2,0-4-1.8-4-4V44c0-2.2,1.8-4,4-4h11.2c2.2,0,4,1.8,4,4v30.4
		C117.6,76.6,115.8,78.4,113.6,78.4z"/>
	<path fill="#E43A3D" d="M17.6,169.4H6.4c-2.2,0-4-1.8-4-4V135c0-2.2,1.8-4,4-4h11.2c2.2,0,4,1.8,4,4v30.4
		C21.6,167.6,19.8,169.4,17.6,169.4z"/>
	<path fill="#E43A3D" d="M113.6,169.4h-11.2c-2.2,0-4-1.8-4-4V135c0-2.2,1.8-4,4-4h11.2c2.2,0,4,1.8,4,4v30.4
		C117.6,167.6,115.8,169.4,113.6,169.4z"/>
</g>
</svg>
