<?xml version="1.0" encoding="utf-8"?>
<!-- Generator: Adobe Illustrator 18.0.0, SVG Export Plug-In . SVG Version: 6.00 Build 0)  -->
<!DOCTYPE svg PUBLIC "-//W3C//DTD SVG 1.1//EN" "http://www.w3.org/Graphics/SVG/1.1/DTD/svg11.dtd">
<svg version="1.1" id="图层_1" xmlns="http://www.w3.org/2000/svg" xmlns:xlink="http://www.w3.org/1999/xlink" x="0px" y="0px"
	 viewBox="0 0 260 180" enable-background="new 0 0 260 180" xml:space="preserve">
<g>
	<path fill="#698596" d="M56.2,101.2L56.2,101.2c-1.6,0-3,1.4-2.9,3l1.9,43h2l1.9-43C59.2,102.5,57.9,101.2,56.2,101.2z"/>
	<path fill="#698596" d="M206.2,101.2L206.2,101.2c-1.6,0-3,1.4-2.9,3l1.9,43h2l1.9-43C209.2,102.5,207.9,101.2,206.2,101.2z"/>
	<path fill="#698596" d="M56.2,78.8L56.2,78.8c-1.6,0-3-1.4-2.9-3l1.9-43h2l1.9,43C59.2,77.5,57.9,78.8,56.2,78.8z"/>
	<circle opacity="0.5" fill="#E43A3D" cx="56.2" cy="31.2" r="27"/>
	<circle fill="#FFFFFF" cx="56.2" cy="31.2" r="5"/>
	<path fill="#698596" d="M206.2,78.8L206.2,78.8c-1.6,0-3-1.4-2.9-3l1.9-43h2l1.9,43C209.2,77.5,207.9,78.8,206.2,78.8z"/>
	<circle opacity="0.5" fill="#2EBBD9" cx="206.2" cy="31.2" r="27"/>
	<circle fill="#FFFFFF" cx="206.2" cy="31.2" r="5"/>
	<circle opacity="0.5" fill="#2EBBD9" cx="56.2" cy="148.8" r="27"/>
	<circle fill="#FFFFFF" cx="56.2" cy="148.8" r="5"/>
	<circle opacity="0.5" fill="#E43A3D" cx="206.2" cy="148.8" r="27"/>
	<circle fill="#FFFFFF" cx="206.2" cy="148.8" r="5"/>
	<polygon fill="#698596" points="130,38.7 8.4,97.1 8.4,123.5 114.8,98.5 130,98.5 145.2,98.5 251.6,123.5 251.6,97.1 	"/>
	<polygon opacity="0.5" fill="#E43A3D" points="19.9,120.8 104.9,100.9 104.9,88.2 19.9,110.7 	"/>
	<polygon opacity="0.5" fill="#E43A3D" points="240.1,120.8 155.1,100.9 155.1,88.2 240.1,110.7 	"/>
</g>
</svg>
