<?xml version="1.0" encoding="utf-8"?>
<!-- Generator: Adobe Illustrator 18.0.0, SVG Export Plug-In . SVG Version: 6.00 Build 0)  -->
<!DOCTYPE svg PUBLIC "-//W3C//DTD SVG 1.1//EN" "http://www.w3.org/Graphics/SVG/1.1/DTD/svg11.dtd">
<svg version="1.1" id="图层_1" xmlns="http://www.w3.org/2000/svg" xmlns:xlink="http://www.w3.org/1999/xlink" x="0px" y="0px"
	 viewBox="0 0 340 180" enable-background="new 0 0 340 180" xml:space="preserve">
<g>
	<polygon fill="#698596" points="170,62.1 18,135.1 18,168.1 151,136.8 170,136.8 189,136.8 322,168.1 322,135.1 	"/>
	<polygon opacity="0.5" fill="#E43A3D" points="32.3,164.7 138.6,139.7 138.6,123.9 32.3,152.1 	"/>
	<polygon opacity="0.5" fill="#E43A3D" points="307.7,164.7 201.4,139.7 201.4,123.9 307.7,152.1 	"/>
	<path fill="#698596" d="M75,116.6L75,116.6c-1.6,0-3-1.4-2.9-3l1.9-63h2l1.9,63C78,115.2,76.6,116.6,75,116.6z"/>
	<circle opacity="0.5" fill="#E43A3D" cx="75" cy="48.9" r="37"/>
	<circle fill="#FFFFFF" cx="75" cy="48.9" r="5"/>
	<path fill="#698596" d="M265,116.6L265,116.6c-1.6,0-3-1.4-2.9-3l1.9-63h2l1.9,63C268,115.2,266.6,116.6,265,116.6z"/>
	<circle opacity="0.5" fill="#2EBBD9" cx="265" cy="48.9" r="37"/>
	<circle fill="#FFFFFF" cx="265" cy="48.9" r="5"/>
</g>
</svg>
