<?xml version="1.0" encoding="utf-8"?>
<!-- Generator: Adobe Illustrator 18.0.0, SVG Export Plug-In . SVG Version: 6.00 Build 0)  -->
<!DOCTYPE svg PUBLIC "-//W3C//DTD SVG 1.1//EN" "http://www.w3.org/Graphics/SVG/1.1/DTD/svg11.dtd">
<svg version="1.1" id="图层_1" xmlns="http://www.w3.org/2000/svg" xmlns:xlink="http://www.w3.org/1999/xlink" x="0px" y="0px"
	 viewBox="0 0 240 220" enable-background="new 0 0 240 220" xml:space="preserve">
<g>
	<path fill="#698596" d="M230.2,133.8c-1.8-1.6-53.8-55.8-54.5-57c-1.9-2.2-4.6-2.8-7.6-2.9c-13.8,0-38.4-1.4-34.9-42.2
		c0-2.5-2.7-2.5-5.6-9.6c-2.9-7.1-2.1-11.8-7.5-11.8s-4.6,4.7-7.5,11.8c-2.9,7.1-5.6,7.1-5.6,9.6c3.4,40.7-21.2,42.2-34.9,42.2
		c-3.1,0.1-5.8,0.7-7.6,2.9c-0.7,1.3-52.7,55.4-54.5,57c-1.8,1.6-3.3,2.8-3.3,5.1c0,3.8,0,18.1,0,20.5c0,1.2,0.5,1.8,2.2,0.9
		c1.6-0.9,56.8-39.7,111.3-38.7c54.5-0.9,109.6,37.8,111.3,38.7c1.6,0.9,2.2,0.3,2.2-0.9c0-2.4,0-16.7,0-20.5
		C233.4,136.6,232,135.4,230.2,133.8z"/>
	<path opacity="0.5" fill="#E43A3D" d="M16.6,144.1v11.1c11.3-7,33.8-19.6,59.9-27.2l-10.7-16.5L16.6,144.1z"/>
	<path opacity="0.5" fill="#E43A3D" d="M223.4,144.1v11.1c-11.3-7-33.8-19.6-59.9-27.2l10.7-16.5L223.4,144.1z"/>
	<path fill="#698596" d="M114,38.5L114,38.5c0,2-1.6,3.5-3.6,3.5l-63.6-2.3v-2.4l63.6-2.3C112.4,35,114,36.5,114,38.5z"/>
	<circle opacity="0.5" fill="#E43A3D" cx="44.8" cy="50.5" r="26.4"/>
	<circle opacity="0.5" fill="#E43A3D" cx="195.2" cy="50.5" r="26.4"/>
	<circle opacity="0.5" fill="#E43A3D" cx="120" cy="183.3" r="26.4"/>
	<circle opacity="0.5" fill="#2EBBD9" cx="44.8" cy="38.5" r="26.4"/>
	<circle fill="#FFFFFF" cx="44.8" cy="38.5" r="6"/>
	<path fill="#698596" d="M126,38.5L126,38.5c0-2,1.6-3.5,3.6-3.5l63.6,2.3v2.4L129.6,42C127.6,42,126,40.5,126,38.5z"/>
	<circle opacity="0.5" fill="#2EBBD9" cx="195.2" cy="38.5" r="26.4"/>
	<circle fill="#FFFFFF" cx="195.2" cy="38.5" r="6"/>
	<path fill="#698596" d="M120,102.1L120,102.1c2,0,3.5,1.6,3.5,3.6l-2.3,63.6h-2.4l-2.3-63.6C116.5,103.7,118,102.1,120,102.1z"/>
	<circle opacity="0.5" fill="#2EBBD9" cx="120" cy="171.3" r="26.4"/>
	<circle fill="#FFFFFF" cx="120" cy="171.3" r="6"/>
</g>
</svg>
