<?xml version="1.0" encoding="utf-8"?>
<!-- Generator: Adobe Illustrator 18.0.0, SVG Export Plug-In . SVG Version: 6.00 Build 0)  -->
<!DOCTYPE svg PUBLIC "-//W3C//DTD SVG 1.1//EN" "http://www.w3.org/Graphics/SVG/1.1/DTD/svg11.dtd">
<svg version="1.1" id="图层_1" xmlns="http://www.w3.org/2000/svg" xmlns:xlink="http://www.w3.org/1999/xlink" x="0px" y="0px"
	 viewBox="0 0 320 200" enable-background="new 0 0 320 200" xml:space="preserve">
<g>
	<path fill="#698596" d="M106.2,92.2L106.2,92.2c-1.6,0-3,1.4-2.9,3l1.9,43h2l1.9-43C109.2,93.5,107.9,92.2,106.2,92.2z"/>
	<path fill="#698596" d="M216.2,92.2L216.2,92.2c-1.6,0-3,1.4-2.9,3l1.9,43h2l1.9-43C219.2,93.5,217.9,92.2,216.2,92.2z"/>
	<path fill="#698596" d="M171.9,173.8h-6.8l3.4-69.9c10.4-0.4,67.8-2.7,100.6-3.7c-6.6-20.7-33.1-24.8-40.6-24.8
		c-6.8,0-50.7,0-58.6,0V50.5c0-5.5-4.5-15-10-15h0c-5.5,0-10,9.5-10,15v24.9c-8.4,0-51.7,0-58.5,0c-7.5,0-34,4.1-40.6,24.8
		c32.6,1,89.5,3.2,100.4,3.7l3.4,69.9h-6.8c-8.8,0-21,7.2-21,16h66C192.9,181,180.7,173.8,171.9,173.8z"/>
	<path opacity="0.5" fill="#E43A3D" d="M79.3,101.2c23.7,0.8,49.7,1.9,63.6,2.4V97l-63.6-2.3V101.2z"/>
	<path opacity="0.5" fill="#E43A3D" d="M240.7,101.2c-23.7,0.8-49.7,1.9-63.6,2.4V97l63.6-2.3V101.2z"/>
	<polygon opacity="0.5" fill="#E43A3D" points="162.4,181.8 162.4,175.8 157.4,175.8 157.4,181.8 137.9,181.8 137.9,189.8 
		157.4,189.8 162.4,189.8 181.9,189.8 181.9,181.8 	"/>
	<path fill="#698596" d="M106.2,84.8L106.2,84.8c-1.6,0-3-1.4-2.9-3l1.9-43h2l1.9,43C109.2,83.5,107.9,84.8,106.2,84.8z"/>
	<circle opacity="0.5" fill="#E43A3D" cx="106.2" cy="37.2" r="27"/>
	<circle fill="#FFFFFF" cx="106.2" cy="37.2" r="5"/>
	<path fill="#698596" d="M216.2,84.8L216.2,84.8c-1.6,0-3-1.4-2.9-3l1.9-43h2l1.9,43C219.2,83.5,217.9,84.8,216.2,84.8z"/>
	<circle opacity="0.5" fill="#2EBBD9" cx="216.2" cy="37.2" r="27"/>
	<circle fill="#FFFFFF" cx="216.2" cy="37.2" r="5"/>
	<circle opacity="0.5" fill="#2EBBD9" cx="106.2" cy="139.8" r="27"/>
	<circle fill="#FFFFFF" cx="106.2" cy="139.8" r="5"/>
	<circle opacity="0.5" fill="#E43A3D" cx="216.2" cy="139.8" r="27"/>
	<circle fill="#FFFFFF" cx="216.2" cy="139.8" r="5"/>
</g>
</svg>
