<?xml version="1.0" encoding="utf-8"?>
<!-- Generator: Adobe Illustrator 18.0.0, SVG Export Plug-In . SVG Version: 6.00 Build 0)  -->
<!DOCTYPE svg PUBLIC "-//W3C//DTD SVG 1.1//EN" "http://www.w3.org/Graphics/SVG/1.1/DTD/svg11.dtd">
<svg version="1.1" id="图层_1" xmlns="http://www.w3.org/2000/svg" xmlns:xlink="http://www.w3.org/1999/xlink" x="0px" y="0px"
	 viewBox="0 0 190 190" enable-background="new 0 0 190 190" xml:space="preserve">
<g>
	<circle opacity="0.5" fill="#2EBBD9" cx="35.1" cy="49.1" r="26.4"/>
	<circle opacity="0.5" fill="#E43A3D" cx="95" cy="152.9" r="26.4"/>
	<circle opacity="0.5" fill="#2EBBD9" cx="154.9" cy="49.1" r="26.4"/>
	<path fill="#698596" d="M95,71.7L95,71.7c-1,1.7-3.2,2.3-4.9,1.2L36.2,39.1l1.2-2.1l56.2,29.8C95.4,67.8,96,70,95,71.7z"/>
	<circle opacity="0.5" fill="#E43A3D" cx="35.1" cy="37.1" r="26.4"/>
	<circle fill="#FFFFFF" cx="35.1" cy="37.1" r="6"/>
	<path fill="#698596" d="M95,71.7L95,71.7c2,0,3.5,1.6,3.5,3.6l-2.3,63.6h-2.4l-2.3-63.6C91.5,73.3,93,71.7,95,71.7z"/>
	<circle opacity="0.5" fill="#2EBBD9" cx="95" cy="140.9" r="26.4"/>
	<circle fill="#FFFFFF" cx="95" cy="140.9" r="6"/>
	<path fill="#698596" d="M95,71.7L95,71.7c-1-1.7-0.4-3.9,1.4-4.8l56.2-29.8l1.2,2.1L99.9,72.9C98.2,74,96,73.4,95,71.7z"/>
	<circle opacity="0.5" fill="#E43A3D" cx="154.9" cy="37.1" r="26.4"/>
	<circle fill="#FFFFFF" cx="154.9" cy="37.1" r="6"/>
	<polygon fill="#698596" points="88.9,94.7 78.2,88.5 72,77.9 72,65.6 78.2,54.9 88.9,48.8 101.1,48.8 111.8,54.9 118,65.6 
		118,77.9 111.8,88.5 101.1,94.7 	"/>
	<g>
		<polygon fill="#FFFFFF" points="90.2,71.9 93.2,85.6 93.2,57.8 83.5,73.3 		"/>
		<polygon fill="#FFFFFF" points="96.8,57.8 96.8,85.6 99.8,71.9 106.5,73.3 		"/>
	</g>
</g>
</svg>
