<?xml version="1.0" encoding="utf-8"?>
<!-- Generator: Adobe Illustrator 18.0.0, SVG Export Plug-In . SVG Version: 6.00 Build 0)  -->
<!DOCTYPE svg PUBLIC "-//W3C//DTD SVG 1.1//EN" "http://www.w3.org/Graphics/SVG/1.1/DTD/svg11.dtd">
<svg version="1.1" id="图层_1" xmlns="http://www.w3.org/2000/svg" xmlns:xlink="http://www.w3.org/1999/xlink" x="0px" y="0px"
	 viewBox="0 0 190 170" enable-background="new 0 0 190 170" xml:space="preserve">
<g>
	<path fill="#698596" d="M95,67.7L95,67.7c-1,1.7-3.2,2.3-4.9,1.2L36.2,35.1l1.2-2.1l56.2,29.8C95.4,63.8,96,66,95,67.7z"/>
	<circle opacity="0.5" fill="#E43A3D" cx="35.1" cy="33.1" r="26.4"/>
	<circle fill="#FFFFFF" cx="35.1" cy="33.1" r="6"/>
	<path fill="#698596" d="M95,67.7L95,67.7c2,0,3.5,1.6,3.5,3.6l-2.3,63.6h-2.4l-2.3-63.6C91.5,69.3,93,67.7,95,67.7z"/>
	<circle opacity="0.5" fill="#E43A3D" cx="95" cy="136.9" r="26.4"/>
	<circle fill="#FFFFFF" cx="95" cy="136.9" r="6"/>
	<path fill="#698596" d="M95,67.7L95,67.7c-1-1.7-0.4-3.9,1.4-4.8l56.2-29.8l1.2,2.1L99.9,68.9C98.2,70,96,69.4,95,67.7z"/>
	<circle opacity="0.5" fill="#E43A3D" cx="154.9" cy="33.1" r="26.4"/>
	<circle fill="#FFFFFF" cx="154.9" cy="33.1" r="6"/>
	<polygon fill="#698596" points="88.9,90.7 78.2,84.5 72,73.9 72,61.6 78.2,50.9 88.9,44.8 101.1,44.8 111.8,50.9 118,61.6 
		118,73.9 111.8,84.5 101.1,90.7 	"/>
	<g>
		<polygon fill="#FFFFFF" points="90.2,67.9 93.2,81.6 93.2,53.8 83.5,69.3 		"/>
		<polygon fill="#FFFFFF" points="96.8,53.8 96.8,81.6 99.8,67.9 106.5,69.3 		"/>
	</g>
</g>
</svg>
