<?xml version="1.0" encoding="utf-8"?>
<!-- Generator: Adobe Illustrator 18.0.0, SVG Export Plug-In . SVG Version: 6.00 Build 0)  -->
<!DOCTYPE svg PUBLIC "-//W3C//DTD SVG 1.1//EN" "http://www.w3.org/Graphics/SVG/1.1/DTD/svg11.dtd">
<svg version="1.1" id="图层_1" xmlns="http://www.w3.org/2000/svg" xmlns:xlink="http://www.w3.org/1999/xlink" x="0px" y="0px"
	 viewBox="0 0 100 100" enable-background="new 0 0 100 100" xml:space="preserve">
<g>
	<path fill="#FFFFFF" d="M96.9,56.3h-6.2c-1.7,0-3.1,1.4-3.1,3.1v25c0,1.7-1.4,3.1-3.1,3.1H15.6c-1.7,0-3.1-1.4-3.1-3.1v-25
		c0-1.7-1.4-3.1-3.1-3.1H3.1c-1.7,0-3.1,1.4-3.1,3.1v34.4c0,3.5,2.8,6.3,6.3,6.3h87.5c3.5,0,6.3-2.8,6.3-6.3V59.4
		C100,57.6,98.6,56.3,96.9,56.3z"/>
	<path fill="#FFFFFF" d="M47.6,75.9c1.3,1.6,3.6,1.6,4.9,0l18.5-23.1c1.6-2,0.2-5.1-2.4-5.1h-9.1V3.1C59.4,1.4,58,0,56.2,0H43.7
		c-1.7,0-3.1,1.4-3.1,3.1v44.5h-9.1c-2.6,0-4.1,3-2.4,5.1L47.6,75.9z"/>
</g>
</svg>
