<?xml version="1.0" encoding="utf-8"?>
<!-- Generator: Adobe Illustrator 18.0.0, SVG Export Plug-In . SVG Version: 6.00 Build 0)  -->
<!DOCTYPE svg PUBLIC "-//W3C//DTD SVG 1.1//EN" "http://www.w3.org/Graphics/SVG/1.1/DTD/svg11.dtd">
<svg version="1.1" id="图层_1" xmlns="http://www.w3.org/2000/svg" xmlns:xlink="http://www.w3.org/1999/xlink" x="0px" y="0px"
	 viewBox="0 0 100 100" enable-background="new 0 0 100 100" xml:space="preserve">
<g>
	<g opacity="0.35">
		<path d="M95.8,81.3l-46-46c0.9-2.6,1.4-5.3,1.4-8.2C51.2,13.2,40,2,26.1,2c-2.9,0-5.6,0.5-8.2,1.4L33,18.4l-3.7,11.9L17.4,34
			L2.4,18.9C1.5,21.5,1,24.2,1,27.1C1,41,12.2,52.2,26.1,52.2c2.9,0,5.6-0.5,8.2-1.4l46,46c4.3,4.3,11.3,4.3,15.5,0
			S100.1,85.5,95.8,81.3z M82.5,90.1c-1.8-1.8-1.8-4.8,0-6.7s4.8-1.8,6.7,0c1.8,1.8,1.8,4.8,0,6.7S84.3,92,82.5,90.1z"/>
	</g>
	<g>
		<g>
			<path fill="#2EBBD9" d="M95.8,80.3l-46-46c0.9-2.6,1.4-5.3,1.4-8.2C51.2,12.2,40,1,26.1,1c-2.9,0-5.6,0.5-8.2,1.4L33,17.4
				l-3.7,11.9L17.4,33L2.4,17.9C1.5,20.5,1,23.2,1,26.1C1,40,12.2,51.2,26.1,51.2c2.9,0,5.6-0.5,8.2-1.4l46,46
				c4.3,4.3,11.3,4.3,15.5,0S100.1,84.5,95.8,80.3z M82.5,89.1c-1.8-1.8-1.8-4.8,0-6.7s4.8-1.8,6.7,0c1.8,1.8,1.8,4.8,0,6.7
				S84.3,91,82.5,89.1z"/>
		</g>
	</g>
</g>
</svg>
