<?xml version="1.0" encoding="utf-8"?>
<!-- Generator: Adobe Illustrator 16.0.0, SVG Export Plug-In . SVG Version: 6.00 Build 0)  -->
<!DOCTYPE svg PUBLIC "-//W3C//DTD SVG 1.1//EN" "http://www.w3.org/Graphics/SVG/1.1/DTD/svg11.dtd">
<svg version="1.1" id="图层_1" xmlns="http://www.w3.org/2000/svg" xmlns:xlink="http://www.w3.org/1999/xlink" x="0px" y="0px"
	 width="256px" height="256px" viewBox="0 0 256 256" enable-background="new 0 0 256 256" xml:space="preserve">
<g>
	<path fill="#0F0F0F" d="M170.789,182.636c-0.039,0.413-0.063,0.83-0.063,1.253c0,7.274,5.897,13.172,13.172,13.172
		s13.172-5.897,13.172-13.172s-5.897-13.173-13.172-13.173c-0.539,0-1.067,0.042-1.59,0.105
		c-14.824-8.523-24.814-24.504-24.814-42.832c0-18.317,9.979-34.289,24.79-42.817c0.53,0.065,1.066,0.109,1.614,0.109
		c7.274,0,13.172-5.898,13.172-13.172c0-7.273-5.897-13.172-13.172-13.172s-13.172,5.898-13.172,13.172
		c0,0.532,0.041,1.053,0.102,1.569c-8.485,14.973-24.532,25.094-42.974,25.094c-18.274,0-34.199-9.946-42.74-24.7
		c0.096-0.643,0.162-1.294,0.162-1.963c0-7.273-5.898-13.172-13.172-13.172c-7.273,0-13.172,5.898-13.172,13.172
		c0,7.274,5.898,13.172,13.172,13.172c0.467,0,0.928-0.026,1.382-0.073c14.777,8.535,24.731,24.489,24.731,42.781
		c0,18.302-9.963,34.262-24.752,42.797c-0.447-0.046-0.901-0.07-1.36-0.07c-7.273,0-13.172,5.898-13.172,13.173
		s5.898,13.172,13.172,13.172c7.274,0,13.172-5.897,13.172-13.172c0-0.568-0.048-1.124-0.118-1.673
		c8.557-14.698,24.463-24.588,42.695-24.588C146.261,157.628,162.293,167.707,170.789,182.636z"/>
	<path fill="#0F0F0F" d="M72.105,118.211c5.115,0,10.021-0.868,14.618-2.405l-3.132-9.364c-3.613,1.209-7.465,1.891-11.485,1.891
		c-20.009,0-36.224-16.218-36.224-36.224c0-20.005,16.215-36.223,36.224-36.223c20.002,0,36.223,16.218,36.223,36.223
		c0,4.019-0.682,7.871-1.889,11.482l9.364,3.132c1.538-4.597,2.404-9.5,2.404-14.615c0-25.459-20.646-46.1-46.102-46.1
		C46.643,26.009,26,46.649,26,72.109C26,97.572,46.643,118.211,72.105,118.211z"/>
	<path fill="#0F0F0F" d="M149.563,83.59c-1.206-3.612-1.888-7.462-1.888-11.481c0-20.005,16.214-36.223,36.223-36.223
		c20.003,0,36.224,16.218,36.224,36.223c0,20.006-16.221,36.224-36.224,36.224c-4.02,0-7.876-0.682-11.489-1.891l-3.133,9.364
		c4.602,1.537,9.506,2.405,14.622,2.405c25.457,0,46.103-20.639,46.103-46.103c0-25.459-20.646-46.1-46.103-46.1
		c-25.463,0-46.105,20.641-46.105,46.1c0,5.113,0.868,10.018,2.405,14.615L149.563,83.59z"/>
	<path fill="#0F0F0F" d="M183.897,137.788c-5.116,0-10.023,0.868-14.622,2.405l3.133,9.363c3.613-1.209,7.47-1.891,11.489-1.891
		c20.003,0,36.224,16.217,36.224,36.223s-16.221,36.224-36.224,36.224c-20.009,0-36.223-16.218-36.223-36.224
		c0-4.017,0.679-7.869,1.888-11.477l-9.368-3.133c-1.537,4.596-2.402,9.496-2.402,14.609c0,25.463,20.643,46.103,46.105,46.103
		c25.457,0,46.103-20.64,46.103-46.103C230,158.429,209.354,137.788,183.897,137.788z"/>
	<path fill="#0F0F0F" d="M106.441,172.412c1.207,3.607,1.887,7.46,1.887,11.477c0,20.006-16.221,36.224-36.223,36.224
		c-20.009,0-36.224-16.218-36.224-36.224s16.215-36.223,36.224-36.223c4.02,0,7.874,0.682,11.487,1.891l3.132-9.363
		c-4.599-1.539-9.504-2.405-14.619-2.405C46.643,137.788,26,158.429,26,183.889c0,25.463,20.643,46.103,46.105,46.103
		c25.457,0,46.102-20.64,46.102-46.103c0-5.113-0.866-10.014-2.404-14.609L106.441,172.412z"/>
</g>
<g>
	<path fill="#E60012" d="M157.493,123.989c0-18.917,10.644-35.333,26.26-43.631c-0.411-6.541-5.557-11.743-12.072-12.248
		c-8.232,15.83-24.749,26.661-43.827,26.661c-19.074,0-35.594-10.832-43.824-26.661c-6.516,0.505-11.664,5.707-12.074,12.248
		c15.616,8.297,26.261,24.714,26.261,43.631c0,18.918-10.645,35.334-26.261,43.634c0.415,6.606,5.66,11.851,12.267,12.266
		c8.298-15.616,24.714-26.261,43.631-26.261c18.918,0,35.331,10.645,43.628,26.261c6.612-0.415,11.854-5.659,12.271-12.269
		C168.137,159.323,157.493,142.907,157.493,123.989z"/>
	<path fill="#E60012" d="M83.591,102.442c-3.613,1.209-7.465,1.891-11.485,1.891c-20.009,0-36.224-16.218-36.224-36.224
		c0-20.005,16.215-36.223,36.224-36.223c20.002,0,36.223,16.218,36.223,36.223c0,4.019-0.682,7.871-1.889,11.482l9.364,3.132
		c1.538-4.597,2.404-9.5,2.404-14.615c0-25.459-20.646-46.1-46.102-46.1C46.643,22.009,26,42.649,26,68.109
		c0,25.463,20.643,46.103,46.105,46.103c5.115,0,10.021-0.868,14.618-2.405L83.591,102.442z"/>
	<path fill="#E60012" d="M183.897,22.009c-25.463,0-46.105,20.641-46.105,46.1c0,5.113,0.868,10.018,2.405,14.615l9.365-3.134
		c-1.206-3.612-1.888-7.462-1.888-11.481c0-20.005,16.214-36.223,36.223-36.223c20.003,0,36.224,16.218,36.224,36.223
		c0,20.006-16.221,36.224-36.224,36.224c-4.02,0-7.876-0.682-11.489-1.891l-3.133,9.364c4.602,1.537,9.506,2.405,14.622,2.405
		c25.457,0,46.103-20.639,46.103-46.103C230,42.649,209.354,22.009,183.897,22.009z"/>
	<path fill="#E60012" d="M183.897,133.788c-5.116,0-10.023,0.868-14.622,2.405l3.133,9.363c3.613-1.209,7.47-1.891,11.489-1.891
		c20.003,0,36.224,16.217,36.224,36.223s-16.221,36.224-36.224,36.224c-20.009,0-36.223-16.218-36.223-36.224
		c0-4.017,0.679-7.869,1.888-11.477l-9.368-3.133c-1.537,4.596-2.402,9.496-2.402,14.609c0,25.463,20.643,46.103,46.105,46.103
		c25.457,0,46.103-20.64,46.103-46.103C230,154.429,209.354,133.788,183.897,133.788z"/>
	<path fill="#E60012" d="M106.441,168.412c1.207,3.607,1.887,7.46,1.887,11.477c0,20.006-16.221,36.224-36.223,36.224
		c-20.009,0-36.224-16.218-36.224-36.224s16.215-36.223,36.224-36.223c4.02,0,7.874,0.682,11.487,1.891l3.132-9.363
		c-4.599-1.539-9.504-2.405-14.619-2.405C46.643,133.788,26,154.429,26,179.889c0,25.463,20.643,46.103,46.105,46.103
		c25.457,0,46.102-20.64,46.102-46.103c0-5.113-0.866-10.014-2.404-14.609L106.441,168.412z"/>
	<circle fill="#E60012" cx="72.104" cy="68.109" r="13.172"/>
	<circle fill="#E60012" cx="183.897" cy="68.109" r="13.172"/>
	<circle fill="#E60012" cx="72.104" cy="179.889" r="13.172"/>
	<circle fill="#E60012" cx="183.897" cy="179.889" r="13.172"/>
	<polygon fill="#FFFFFF" points="127.854,101.422 106.449,146.575 127.854,135.873 149.26,146.575 	"/>
</g>
</svg>
