<?xml version="1.0" encoding="utf-8"?>
<!-- Generator: Adobe Illustrator 18.0.0, SVG Export Plug-In . SVG Version: 6.00 Build 0)  -->
<!DOCTYPE svg PUBLIC "-//W3C//DTD SVG 1.1//EN" "http://www.w3.org/Graphics/SVG/1.1/DTD/svg11.dtd">
<svg version="1.1" id="图层_1" xmlns="http://www.w3.org/2000/svg" xmlns:xlink="http://www.w3.org/1999/xlink" x="0px" y="0px"
	 viewBox="0 0 100 100" enable-background="new 0 0 100 100" xml:space="preserve">
<path fill="#FFE200" d="M94.2,25H69.8v-2.4c0-1.3-1-2.4-2.3-2.4h-2.3c-1.3,0-2.3,1.1-2.3,2.4V25h-4.7v-2c0-1.2-0.1-2.3-0.2-3.5
	C57.2,14.3,54.7,0,50,0s-7.2,14.3-7.9,19.5c-0.2,1.2-0.2,2.3-0.2,3.5v2h-4.7v-2.4c0-1.3-1-2.4-2.3-2.4h-2.3c-1.3,0-2.3,1.1-2.3,2.4
	V25H5.8C2.6,25,0,27.7,0,31v6c0,1.3,1,2.4,2.3,2.4l32.4,2.4h7.2v3.8c0,3.4,0.2,6.7,0.7,10c0.8,5.6,2.2,18.4,3.7,28.8l-12.1,3
	c-0.9,0.2-1.7,1.2-1.7,2.1V96c0,0.9,0.7,1.7,1.7,1.7h14.5c0.4,1.5,0.8,2.4,1.2,2.4s0.8-0.9,1.2-2.4h14.5c0.9,0,1.7-0.7,1.7-1.7v-6.6
	c0-0.9-0.7-1.8-1.7-2.1l-12.1-3c1.5-10.6,3-23.5,3.8-29.2c0.5-3.3,0.7-6.5,0.7-9.8v-3.5h7.2l32.4-2.4c1.3,0,2.3-1.1,2.3-2.4v-6
	C100,27.7,97.4,25,94.2,25z"/>
</svg>
