<?xml version="1.0" encoding="utf-8"?>
<!-- Generator: Adobe Illustrator 18.0.0, SVG Export Plug-In . SVG Version: 6.00 Build 0)  -->
<!DOCTYPE svg PUBLIC "-//W3C//DTD SVG 1.1//EN" "http://www.w3.org/Graphics/SVG/1.1/DTD/svg11.dtd">
<svg version="1.1" id="图层_1" xmlns="http://www.w3.org/2000/svg" xmlns:xlink="http://www.w3.org/1999/xlink" x="0px" y="0px"
	 viewBox="0 0 96 96" enable-background="new 0 0 96 96" xml:space="preserve">
<g>
	<path fill="#8EA6B1" d="M40.8,55.1c3.9,3.9,10.2,3.9,14.1,0c3.9-3.9,26.9-41,26.9-41s-37.1,23-41,26.9
		C36.9,44.9,36.9,51.2,40.8,55.1z M44.3,44.5c2-2,5.1-2,7.1,0c2,2,2,5.1,0,7.1c-2,2-5.1,2-7.1,0C42.4,49.6,42.4,46.5,44.3,44.5z"/>
	<path fill="#8EA6B1" d="M58.6,22.1l18.9-11.9C69.3,3.8,59.1,0,48,0C21.5,0,0,21.5,0,48c0,1.1,0,2.1,0.1,3.2C1.6,31.5,18,16,38,16
		C45.6,16,52.7,18.2,58.6,22.1z"/>
	<path fill="#8EA6B1" d="M75.5,48H96c0-11.1-3.8-21.4-10.1-29.5L72.9,39C74.1,41.9,75,44.9,75.5,48z"/>
	<path fill="#8EA6B1" d="M77.7,77.7c-0.7-0.7-2-0.8-2.7-0.1C67.8,84.1,58.4,88,48,88c-10.4,0-19.8-3.9-26.9-10.4
		c-0.8-0.7-2-0.7-2.7,0.1l-2.8,2.8c-0.8,0.8-0.8,2.1,0.1,2.9C24.1,91.2,35.5,96,48,96s23.9-4.8,32.4-12.6c0.8-0.8,0.9-2.1,0.1-2.9
		L77.7,77.7z"/>
</g>
</svg>
