<?xml version="1.0" encoding="utf-8"?>
<!-- Generator: Adobe Illustrator 18.0.0, SVG Export Plug-In . SVG Version: 6.00 Build 0)  -->
<!DOCTYPE svg PUBLIC "-//W3C//DTD SVG 1.1//EN" "http://www.w3.org/Graphics/SVG/1.1/DTD/svg11.dtd">
<svg version="1.1" id="图层_1" xmlns="http://www.w3.org/2000/svg" xmlns:xlink="http://www.w3.org/1999/xlink" x="0px" y="0px"
	 viewBox="0 0 96 96" enable-background="new 0 0 96 96" xml:space="preserve">
<path fill="#FFFFFF" d="M52.4,85.1l7.3-44c0.2-1,1-1.7,2-1.7h14.1c1.7,0,2.6-1.9,1.6-3.2L49.6,1.4c-0.8-1-2.3-1-3.1,0L18.6,36.1
	c-1,1.3-0.1,3.2,1.6,3.2h14.1c1,0,1.8,0.7,2,1.7l7.3,43.8c0.2,1.3-0.8,2.5-2.1,2.5H2c-1.1,0-2,0.9-2,2v4c0,1.1,0.9,2,2,2h92
	c1.1,0,2-0.9,2-2v-4c0-1.1-0.9-2-2-2H54.4C53.1,87.4,52.2,86.3,52.4,85.1z"/>
</svg>
