<?xml version="1.0" encoding="utf-8"?>
<!-- Generator: Adobe Illustrator 18.0.0, SVG Export Plug-In . SVG Version: 6.00 Build 0)  -->
<!DOCTYPE svg PUBLIC "-//W3C//DTD SVG 1.1//EN" "http://www.w3.org/Graphics/SVG/1.1/DTD/svg11.dtd">
<svg version="1.1" xmlns="http://www.w3.org/2000/svg" xmlns:xlink="http://www.w3.org/1999/xlink" x="0px" y="0px"
	 viewBox="0 0 96 96" enable-background="new 0 0 96 96" xml:space="preserve">
<g id="more" display="none">
	<g display="inline">
		<path fill="#8EA6B1" d="M23,87h72c0.6,0,1-0.4,1-1V74c0-0.6-0.4-1-1-1H23c-0.6,0-1,0.4-1,1v12C22,86.6,22.4,87,23,87z"/>
		<path fill="#8EA6B1" d="M0,72v16c0,0.6,0.4,1,1,1h16c0.6,0,1-0.4,1-1V72c0-0.6-0.4-1-1-1H1C0.4,71,0,71.4,0,72z M13.5,85h-9
			C4.2,85,4,84.8,4,84.5v-9C4,75.2,4.2,75,4.5,75h9c0.3,0,0.5,0.2,0.5,0.5v9C14,84.8,13.8,85,13.5,85z"/>
		<path fill="#8EA6B1" d="M23,22h72c0.6,0,1-0.4,1-1V9c0-0.6-0.4-1-1-1H23c-0.6,0-1,0.4-1,1v12C22,21.6,22.4,22,23,22z"/>
		<path fill="#8EA6B1" d="M0,7v16c0,0.6,0.4,1,1,1h16c0.6,0,1-0.4,1-1V7c0-0.6-0.4-1-1-1H1C0.4,6,0,6.4,0,7z M13.5,20h-9
			C4.2,20,4,19.8,4,19.5v-9C4,10.2,4.2,10,4.5,10h9c0.3,0,0.5,0.2,0.5,0.5v9C14,19.8,13.8,20,13.5,20z"/>
		<path fill="#8EA6B1" d="M23,55h72c0.6,0,1-0.4,1-1V42c0-0.6-0.4-1-1-1H23c-0.6,0-1,0.4-1,1v12C22,54.6,22.4,55,23,55z"/>
		<path fill="#8EA6B1" d="M0,40v16c0,0.6,0.4,1,1,1h16c0.6,0,1-0.4,1-1V40c0-0.6-0.4-1-1-1H1C0.4,39,0,39.4,0,40z M13.5,53h-9
			C4.2,53,4,52.8,4,52.5v-9C4,43.2,4.2,43,4.5,43h9c0.3,0,0.5,0.2,0.5,0.5v9C14,52.8,13.8,53,13.5,53z"/>
	</g>
</g>
<g id="set" display="none">
	<g display="inline">
		<path fill="#8EA6B1" d="M85.3,55.6c0.1-0.4,0.4-0.7,0.8-0.7l9.5-1.1c0.2-1.9,0.4-3.8,0.4-5.7c0-1.9-0.1-3.8-0.4-5.7l-9.5-1.1
			c-0.4,0-0.7-0.3-0.8-0.7l-1.2-4.5c-0.1-0.4,0-0.8,0.4-1.1l7.7-5.7c-1.5-3.5-3.4-6.9-5.7-9.9L77.6,23c-0.4,0.2-0.8,0.1-1.1-0.2
			l-3.3-3.3c-0.3-0.3-0.4-0.7-0.2-1.1l3.8-8.8c-3-2.3-6.4-4.2-9.9-5.7l-5.7,7.7c-0.2,0.3-0.7,0.5-1.1,0.4l-4.5-1.2
			c-0.4-0.1-0.7-0.4-0.7-0.8l-1.1-9.5C51.8,0.1,49.9,0,48,0s-3.8,0.1-5.7,0.4l-1.1,9.5c0,0.4-0.3,0.7-0.7,0.8l-4.5,1.2
			c-0.4,0.1-0.8,0-1.1-0.4l-5.7-7.7c-3.5,1.5-6.9,3.4-9.9,5.7l3.8,8.8c0.2,0.4,0.1,0.8-0.2,1.1l-3.3,3.3c-0.3,0.3-0.7,0.4-1.1,0.2
			l-8.8-3.8c-2.3,3-4.2,6.4-5.7,9.9l7.7,5.7c0.3,0.2,0.5,0.7,0.4,1.1l-1.2,4.5c-0.1,0.4-0.4,0.7-0.8,0.7l-9.5,1.1
			C0.1,44.2,0,46.1,0,48c0,1.9,0.1,3.8,0.4,5.7l9.5,1.1c0.4,0,0.7,0.3,0.8,0.7l1.2,4.5c0.1,0.4,0,0.8-0.4,1.1l-7.7,5.7
			c1.5,3.5,3.4,6.9,5.7,9.9l8.8-3.8c0.4-0.2,0.8-0.1,1.1,0.2l3.3,3.3c0.3,0.3,0.4,0.7,0.2,1.1l-3.8,8.8c3,2.3,6.4,4.2,9.9,5.7
			l5.7-7.7c0.2-0.3,0.7-0.5,1.1-0.4l4.5,1.2c0.4,0.1,0.7,0.4,0.7,0.8l1.1,9.5c1.9,0.2,3.8,0.4,5.7,0.4s3.8-0.1,5.7-0.4l1.1-9.5
			c0-0.4,0.3-0.7,0.7-0.8l4.5-1.2c0.4-0.1,0.8,0,1.1,0.4l5.7,7.7c3.5-1.5,6.9-3.4,9.9-5.7L73,77.6c-0.2-0.4-0.1-0.8,0.2-1.1l3.3-3.3
			c0.3-0.3,0.7-0.4,1.1-0.2l8.8,3.8c2.3-3,4.2-6.4,5.7-9.9l-7.7-5.7c-0.3-0.2-0.5-0.7-0.4-1.1L85.3,55.6z M74.5,36.2L62,40.3
			c-2.3-4.1-6.3-7.1-11-8V19.2C61.5,20.2,70.4,27,74.5,36.2z M39,48c0-5,4-9,9-9s9,4,9,9c0,5-4,9-9,9S39,53,39,48z M45,19.2v13.1
			c-4.8,0.9-8.8,3.9-11,8l-12.5-4.1C25.6,27,34.5,20.2,45,19.2z M19,48c0-2.1,0.2-4.1,0.6-6.1L32.1,46c-0.1,0.7-0.1,1.3-0.1,2
			c0,4.2,1.7,8.1,4.3,10.9l-7.7,10.6C22.7,64.3,19,56.6,19,48z M48,77c-5.3,0-10.3-1.4-14.5-3.9l7.7-10.6c2.1,1,4.4,1.5,6.8,1.5
			s4.7-0.6,6.8-1.5l7.7,10.6C58.3,75.6,53.3,77,48,77z M67.4,69.6l-7.7-10.6C62.3,56.1,64,52.2,64,48c0-0.7-0.1-1.3-0.1-2l12.5-4.1
			c0.4,2,0.6,4,0.6,6.1C77,56.6,73.3,64.3,67.4,69.6z"/>
		<circle fill="#8EA6B1" cx="48" cy="48" r="4"/>
	</g>
</g>
<g id="point" display="none">
	<g display="inline">
		<g>
			<path fill="#8EA6B1" d="M25,30C13.4,30,4,39.4,4,51c0,11.6,21,33,21,33s21-21.4,21-33C46,39.4,36.6,30,25,30z M25.4,66.9
				c-8.8,0-16-7.2-16-16s7.2-16,16-16s16,7.2,16,16S34.2,66.9,25.4,66.9z"/>
			<circle fill="#8EA6B1" cx="25.4" cy="50.9" r="7"/>
		</g>
		<path fill="#8EA6B1" d="M37,77.2L35.5,79c6.2,1.2,10.5,3.5,10.5,6c0,3.9-9.4,7-21,7S4,88.9,4,85c0-2.6,4.2-4.8,10.5-6L13,77.2
			c-7.8,1.7-13,5-13,8.8c0,5.5,11.2,10,25,10s25-4.5,25-10C50,82.2,44.7,78.9,37,77.2z"/>
		<path fill="#8EA6B1" d="M78,34c-15.1,0.5-41.6,14.1-9,33c28.8,14.1,10.5,17-15,17c1.2,6-2.2,8.5-6,10c9.8,0,62.4,3.8,44-23
			c-6.4-9.3-30.3-15.8-32.7-23C57.7,42.3,68.1,35.8,78,34z"/>
		<g>
			<path fill="#8EA6B1" d="M83,0c-7.2,0-13,5.8-13,13s13,21,13,21s13-13.8,13-21S90.2,0,83,0z M83,23c-5.5,0-10-4.5-10-10
				c0-5.5,4.5-10,10-10s10,4.5,10,10C93,18.5,88.5,23,83,23z"/>
			<circle fill="#8EA6B1" cx="83" cy="13" r="4"/>
		</g>
	</g>
</g>
<g id="fly" display="none">
	<path display="inline" fill-rule="evenodd" clip-rule="evenodd" fill="#8EA6B1" d="M72,96L40,72l45-60L28,63L0,42L96,0L72,96z
		 M24,96V72l18,12L24,96z"/>
</g>
<g id="add_point" display="none">
	<g display="inline">
		<path fill="#8EA6B1" d="M48,0C26.5,0,9,17.5,9,39c0,28,39,57,39,57s39-29.4,39-57C87,17.5,69.5,0,48,0z M48,69
			c-16.6,0-30-13.4-30-30S31.4,9,48,9s30,13.4,30,30S64.6,69,48,69z"/>
		<path fill="#8EA6B1" d="M63,43H33c-0.6,0-1-0.4-1-1v-6c0-0.6,0.4-1,1-1h30c0.6,0,1,0.4,1,1v6C64,42.6,63.6,43,63,43z"/>
		<path fill="#8EA6B1" d="M52,24v30c0,0.6-0.4,1-1,1h-6c-0.6,0-1-0.4-1-1V24c0-0.6,0.4-1,1-1h6C51.6,23,52,23.4,52,24z"/>
	</g>
</g>
<g id="load" display="none">
	<g display="inline">
		<g>
			<path fill="#8EA6B1" d="M50.8,86.2c-7.9,0-14.5-5-14.8-14.2c0-0.4,0-6,0-6V37h14L29,15L7,37h14v35c0,0.3,0,0.7,0,1
				c0,12.6,6.9,23,19.4,23C50,96,58.6,90.3,62,82C61.7,82.2,54.6,86.2,50.8,86.2z"/>
		</g>
		<g>
			<path fill="#8EA6B1" d="M45.2,9.8c7.9,0,14.5,5,14.8,14.2c0,0.4,0,6,0,6v29H46l21,22l22-22H75V24c0-0.3,0-0.7,0-1
				c0-12.6-6.9-23-19.4-23C46,0,37.4,5.7,34,14C34.3,13.8,41.4,9.8,45.2,9.8z"/>
		</g>
	</g>
</g>
<g id="follow" display="none">
	<g display="inline">
		<path opacity="0.75" fill="#8EA6B1" d="M48,37c-6.1,0-11,4.9-11,11s4.9,11,11,11s11-4.9,11-11S54.1,37,48,37z M48,53
			c-2.8,0-5-2.2-5-5s2.2-5,5-5s5,2.2,5,5S50.8,53,48,53z"/>
		<path opacity="0.75" fill="#8EA6B1" d="M94,44h-8.2c-1.9-17.8-16-31.9-33.8-33.8V2c0-1.1-0.9-2-2-2h-4c-1.1,0-2,0.9-2,2v8.2
			c-17.8,1.9-31.9,16-33.8,33.8H2c-1.1,0-2,0.9-2,2v4c0,1.1,0.9,2,2,2h8.2c1.9,17.8,16,31.9,33.8,33.8V94c0,1.1,0.9,2,2,2h4
			c1.1,0,2-0.9,2-2v-8.2c17.8-1.9,31.9-16,33.8-33.8H94c1.1,0,2-0.9,2-2v-4C96,44.9,95.1,44,94,44z M52,77.7V74c0-1.1-0.9-2-2-2h-4
			c-1.1,0-2,0.9-2,2v3.7C30.6,75.9,20.1,65.4,18.3,52H22c1.1,0,2-0.9,2-2v-4c0-1.1-0.9-2-2-2h-3.7C20.1,30.6,30.6,20.1,44,18.3V22
			c0,1.1,0.9,2,2,2h4c1.1,0,2-0.9,2-2v-3.7C65.4,20.1,75.9,30.6,77.7,44H74c-1.1,0-2,0.9-2,2v4c0,1.1,0.9,2,2,2h3.7
			C75.9,65.4,65.4,75.9,52,77.7z"/>
	</g>
</g>
<g id="map" display="none">
	<g display="inline">
		<path fill="#8EA6B1" d="M48,58.2l45-29.1L48,0L3,29.1l3.7,2.4L48,58.2z"/>
		<polygon fill="#8EA6B1" points="81.3,42.7 80.3,42 77.2,46.6 78.3,47.3 80.8,48.8 82.6,50 48,71.5 13.4,50 15.2,48.8 18.8,46.6 
			15.8,42 12.1,44.3 3,50 48,78 93,50 83.8,44.3 		"/>
		<polygon fill="#8EA6B1" points="77.2,44.8 77.2,44.8 77.2,44.8 		"/>
		<polygon fill="#8EA6B1" points="81.3,60.7 80.3,60 77.2,64.6 78.3,65.3 80.8,66.8 82.6,68 48,89.5 13.4,68 15.2,66.8 18.8,64.6 
			15.8,60 12.1,62.3 3,68 48,96 93,68 83.8,62.3 		"/>
		<polygon fill="#8EA6B1" points="77.2,63.4 77.2,63.4 77.2,63.4 		"/>
	</g>
</g>
<g id="fangda" display="none">
	<g display="inline">
		<path fill="#8EA6B1" d="M53,34H42V23c0-0.6-0.4-1-1-1h-6c-0.6,0-1,0.4-1,1v11H23c-0.6,0-1,0.4-1,1v6c0,0.6,0.4,1,1,1h11v11
			c0,0.6,0.4,1,1,1h6c0.6,0,1-0.4,1-1V42h11c0.6,0,1-0.4,1-1v-6C54,34.4,53.6,34,53,34z"/>
		<path fill="#8EA6B1" d="M74.8,64.9L72,67.7l-5.1-5.1C72.6,56,76,47.4,76,38C76,17,59,0,38,0S0,17,0,38s17,38,38,38
			c9.4,0,18-3.4,24.7-9.1l5.1,5.1l-2.8,2.8L86.1,96l9.9-9.9L74.8,64.9z M38,68C21.4,68,8,54.6,8,38S21.4,8,38,8s30,13.4,30,30
			S54.6,68,38,68z"/>
	</g>
</g>
<g id="图层_10">
	<path fill="#8EA6B1" d="M52.4,85.1l7.3-44c0.2-1,1-1.7,2-1.7h14.1c1.7,0,2.6-1.9,1.6-3.2L49.6,1.4c-0.8-1-2.3-1-3.1,0L18.6,36.1
		c-1,1.3-0.1,3.2,1.6,3.2h14.1c1,0,1.8,0.7,2,1.7l7.3,43.8c0.2,1.3-0.8,2.5-2.1,2.5H2c-1.1,0-2,0.9-2,2v4c0,1.1,0.9,2,2,2h92
		c1.1,0,2-0.9,2-2v-4c0-1.1-0.9-2-2-2H54.4C53.1,87.4,52.2,86.3,52.4,85.1z"/>
</g>
<g id="图层_11" display="none">
	<g display="inline">
		<path fill="#8EA6B1" d="M48,28.5L48,28.5c-1.1,0-2-0.9-2-2v-8c0-1.1,0.9-2,2-2h0c1.1,0,2,0.9,2,2v8C50,27.6,49.1,28.5,48,28.5z"/>
		<g>
			<path fill="#8EA6B1" d="M50,6.5C22.6,5.4,0,27.3,0,54.5c0,13.2,5.4,25.2,14,33.9c1.7,1.7,4.4,1.6,6-0.2c1.3-1.6,1.2-3.9-0.2-5.3
				C12.1,75.1,7.5,64.3,8.1,52.4c1-20.5,18.2-37.3,38.7-37.9C69.4,13.8,88,32,88,54.5c0,11.1-4.5,21.1-11.8,28.3
				c-1.4,1.4-1.5,3.8-0.2,5.3c1.5,1.8,4.3,1.9,6,0.2c8.9-8.9,14.3-21.3,14-35C95.4,28.4,74.9,7.5,50,6.5z"/>
			<path fill="#8EA6B1" d="M36,31.7c1-0.6,1.3-1.8,0.7-2.7l-4-6.9c-0.6-1-1.8-1.3-2.7-0.7s-1.3,1.8-0.7,2.7l4,6.9
				C33.8,31.9,35,32.2,36,31.7z"/>
			<path fill="#8EA6B1" d="M26.5,37.7l-6.9-4c-1-0.6-2.2-0.2-2.7,0.7c-0.6,1-0.2,2.2,0.7,2.7l6.9,4c1,0.6,2.2,0.2,2.7-0.7
				S27.4,38.3,26.5,37.7z"/>
			<path fill="#8EA6B1" d="M79.2,34.5c-0.6-1-1.8-1.3-2.7-0.7l-6.9,4c-1,0.6-1.3,1.8-0.7,2.7s1.8,1.3,2.7,0.7l6.9-4
				C79.4,36.6,79.7,35.4,79.2,34.5z"/>
			<path fill="#8EA6B1" d="M62.7,30.9l4-6.9c0.6-1,0.2-2.2-0.7-2.7s-2.2-0.2-2.7,0.7l-4,6.9c-0.6,1-0.2,2.2,0.7,2.7
				S62.2,31.9,62.7,30.9z"/>
			<path fill="#8EA6B1" d="M45.2,54.3c-1.4,1.7-1.1,4.3,0.7,5.6c1.7,1.4,4.3,1.1,5.6-0.7c1.4-1.7,11.6-21.4,11.6-21.4
				S46.6,52.6,45.2,54.3z"/>
			<path fill="#8EA6B1" d="M66,72H30c-1.1,0-2,1.4-2,2.5c0,1.1,0.9,2.5,2,2.5h36c1.1,0,2-1.4,2-2.5C68,73.4,67.1,72,66,72z"/>
			<path fill="#8EA6B1" d="M58,82H38c-1.1,0-2,0.9-2,2c0,1.1,0.9,2,2,2h20c1.1,0,2-0.9,2-2C60,82.9,59.1,82,58,82z"/>
		</g>
	</g>
</g>
</svg>
