<?xml version="1.0" encoding="utf-8"?>
<!-- Generator: Adobe Illustrator 18.0.0, SVG Export Plug-In . SVG Version: 6.00 Build 0)  -->
<!DOCTYPE svg PUBLIC "-//W3C//DTD SVG 1.1//EN" "http://www.w3.org/Graphics/SVG/1.1/DTD/svg11.dtd">
<svg version="1.1" id="图层_1" xmlns="http://www.w3.org/2000/svg" xmlns:xlink="http://www.w3.org/1999/xlink" x="0px" y="0px"
	 viewBox="0 0 200 200" enable-background="new 0 0 200 200" xml:space="preserve">
<path opacity="0.75" fill-rule="evenodd" clip-rule="evenodd" d="M100,0C44.8,0,0,44.8,0,100c0,55.2,44.8,100,100,100
	s100-44.8,100-100C200,44.8,155.2,0,100,0z M100,170c-38.7,0-70-31.3-70-70c0-38.7,31.3-70,70-70s70,31.3,70,70
	C170,138.7,138.7,170,100,170z"/>
<g>
	<rect x="99.5" y="8" fill="#FFFFFF" width="1" height="12"/>
	
		<rect x="71.7" y="16.4" transform="matrix(-0.2588 -0.9659 0.9659 -0.2588 81.5091 96.4049)" fill="#FFFFFF" width="12" height="1"/>
	<rect x="51" y="25" transform="matrix(-0.5 -0.866 0.866 -0.5 63.3974 87.6461)" fill="#FFFFFF" width="12" height="1"/>
	
		<rect x="33.2" y="38.7" transform="matrix(-0.7071 -0.7071 0.7071 -0.7071 39.1889 94.6102)" fill="#FFFFFF" width="12" height="1"/>
	<rect x="19.5" y="56.5" transform="matrix(-0.866 -0.5 0.5 -0.866 19.1243 119.1243)" fill="#FFFFFF" width="12" height="1"/>
	<rect x="168.5" y="56.5" transform="matrix(0.866 -0.5 0.5 0.866 -5.1243 94.8759)" fill="#FFFFFF" width="12" height="1"/>
	
		<rect x="160.3" y="33.2" transform="matrix(-0.7071 -0.7071 0.7071 -0.7071 246.8172 180.6064)" fill="#FFFFFF" width="1" height="12"/>
	<rect x="142.5" y="19.5" transform="matrix(-0.866 -0.5 0.5 -0.866 254.078 119.1276)" fill="#FFFFFF" width="1" height="12"/>
	
		<rect x="121.8" y="10.9" transform="matrix(-0.9659 -0.2588 0.2588 -0.9659 235.9679 64.9296)" fill="#FFFFFF" width="1" height="12"/>
</g>
</svg>
