<?xml version="1.0" encoding="utf-8"?>
<!-- Generator: Adobe Illustrator 18.0.0, SVG Export Plug-In . SVG Version: 6.00 Build 0)  -->
<!DOCTYPE svg PUBLIC "-//W3C//DTD SVG 1.1//EN" "http://www.w3.org/Graphics/SVG/1.1/DTD/svg11.dtd">
<svg version="1.1" id="图层_1" xmlns="http://www.w3.org/2000/svg" xmlns:xlink="http://www.w3.org/1999/xlink" x="0px" y="0px"
	 viewBox="0 0 100 100" enable-background="new 0 0 100 100" xml:space="preserve">
<path opacity="0.9" fill="#1E2328" enable-background="new    " d="M50,0C22.4,0,0,22.4,0,50s22.4,50,50,50s50-22.4,50-50
	S77.6,0,50,0z M50,85c-19.3,0-35-15.7-35-35s15.7-35,35-35s35,15.7,35,35S69.3,85,50,85z"/>
<path opacity="0.5" fill="#698596" enable-background="new    " d="M50,2C23.5,2,2,23.5,2,50s21.5,48,48,48s48-21.5,48-48
	S76.5,2,50,2z M50,87c-20.4,0-37-16.6-37-37s16.6-37,37-37s37,16.6,37,37S70.4,87,50,87z"/>
<g enable-background="new    ">
	<path fill="#FFFFFF" d="M47.1,10.4V3.2h1.4l3,4.8V3.2h1.3v7.2h-1.5l-2.9-4.7v4.7H47.1z"/>
</g>
<g enable-background="new    ">
	<path fill="#FFFFFF" d="M47,94.1l1.4-0.1c0.1,0.5,0.3,0.8,0.5,1s0.6,0.3,1,0.3c0.5,0,0.8-0.1,1.1-0.3c0.2-0.2,0.4-0.4,0.4-0.7
		c0-0.2,0-0.3-0.1-0.4s-0.3-0.2-0.5-0.3c-0.2-0.1-0.6-0.2-1.2-0.3c-0.8-0.2-1.3-0.4-1.6-0.7c-0.4-0.4-0.7-0.9-0.7-1.4
		c0-0.4,0.1-0.7,0.3-1s0.5-0.6,0.9-0.7s0.9-0.2,1.4-0.2c0.9,0,1.6,0.2,2,0.6s0.7,0.9,0.7,1.6l-1.4,0.1c-0.1-0.4-0.2-0.6-0.4-0.8
		c-0.2-0.2-0.5-0.2-0.9-0.2s-0.7,0.1-1,0.3c-0.2,0.1-0.2,0.3-0.2,0.4c0,0.2,0.1,0.3,0.2,0.4c0.2,0.2,0.6,0.3,1.3,0.5
		s1.2,0.3,1.6,0.5c0.3,0.2,0.6,0.4,0.8,0.7c0.2,0.3,0.3,0.7,0.3,1.1s-0.1,0.8-0.3,1.2c-0.2,0.4-0.6,0.6-1,0.8
		c-0.4,0.2-0.9,0.3-1.6,0.3c-0.9,0-1.6-0.2-2.1-0.6C47.4,95.5,47.1,94.9,47,94.1z"/>
</g>
<g enable-background="new    ">
	<path fill="#FFFFFF" d="M5.8,52.4l-1.6-5.2h1.3l1,3.4l0.9-3.4h1.3l0.9,3.4l1-3.4H12l-1.7,5.2H8.9L8,49.1l-0.9,3.3
		C7.1,52.4,5.8,52.4,5.8,52.4z"/>
</g>
<g enable-background="new    ">
	<path fill="#FFFFFF" d="M89.4,52.4v-7.2h5.3v1.2h-3.9V48h3.6v1.2h-3.6v1.9h4v1.2L89.4,52.4L89.4,52.4z"/>
</g>
<g enable-background="new    ">
	<path fill="#FFFFFF" d="M72.9,18.3l5.1-5.1l1,1l-1.3,5.5l3.4-3.4l0.9,0.9l-5.1,5.1l-1-1l1.3-5.3l-3.3,3.3L72.9,18.3z"/>
	<path fill="#FFFFFF" d="M78,23.4l5.1-5.1l3.8,3.8L86,23l-2.7-2.7l-1.1,1.1l2.5,2.5l-0.9,0.9l-2.5-2.5l-1.4,1.4l2.8,2.8l-0.9,0.9
		L78,23.4z"/>
</g>
<g enable-background="new    ">
	<path fill="#FFFFFF" d="M13.5,75.6l1.1,0.9c-0.3,0.4-0.4,0.8-0.4,1.1c0,0.3,0.2,0.7,0.5,1s0.6,0.5,1,0.5c0.3,0,0.6-0.1,0.7-0.2
		s0.2-0.3,0.2-0.4c0-0.2,0-0.3-0.1-0.6c-0.1-0.2-0.3-0.5-0.6-1c-0.4-0.7-0.6-1.2-0.7-1.7c0-0.6,0.2-1.1,0.6-1.5
		c0.3-0.3,0.6-0.4,0.9-0.5c0.4-0.1,0.8,0,1.1,0.1c0.4,0.2,0.8,0.4,1.2,0.8c0.6,0.6,1,1.3,1,1.9s-0.2,1.1-0.6,1.6l-1.1-1
		c0.2-0.3,0.3-0.6,0.3-0.8c0-0.3-0.2-0.5-0.5-0.8s-0.6-0.5-0.9-0.5c-0.2,0-0.3,0-0.5,0.2c-0.1,0.1-0.2,0.3-0.2,0.5s0.2,0.7,0.6,1.3
		c0.4,0.6,0.6,1.1,0.7,1.5s0.1,0.7,0,1.1s-0.3,0.7-0.6,1c-0.3,0.3-0.6,0.5-1.1,0.6s-0.8,0.1-1.2-0.1s-0.8-0.5-1.3-0.9
		c-0.6-0.6-1-1.3-1-1.9C12.8,76.9,13,76.2,13.5,75.6z"/>
	<path fill="#FFFFFF" d="M17.6,83l3.9-6.3l1,1L19.7,82l4.4-2.6l1.2,1.2L22.7,85l4.3-2.8l1,1L21.7,87l-1.1-1.1l2.8-4.8l-4.8,2.8
		L17.6,83z"/>
</g>
<g enable-background="new    ">
	<path fill="#FFFFFF" d="M18,27.4l-6.3-3.9l1-1l4.2,2.7l-2.6-4.4l1.2-1.2l4.4,2.6l-2.8-4.3l1-1l3.8,6.3l-1.1,1.1L16,21.5l2.8,4.8
		L18,27.4z"/>
	<path fill="#FFFFFF" d="M24,21.4l-5.1-5.1l1-1l5.5,1.3L22,13.3l1-0.9l5.1,5.1l-1,1l-5.3-1.3l3.3,3.3L24,21.4z"/>
</g>
<g enable-background="new    ">
	<path fill="#FFFFFF" d="M76.6,85.5l0.9-1.1c0.4,0.3,0.8,0.4,1.1,0.4c0.3,0,0.7-0.2,1-0.5s0.5-0.6,0.5-1c0-0.3-0.1-0.6-0.2-0.7
		s-0.3-0.2-0.4-0.2s-0.3,0-0.6,0.1c-0.2,0.1-0.5,0.3-1,0.6c-0.7,0.4-1.2,0.6-1.7,0.7c-0.6,0-1.1-0.2-1.5-0.6
		c-0.3-0.3-0.4-0.6-0.5-0.9c-0.1-0.4,0-0.8,0.1-1.1c0.2-0.4,0.4-0.8,0.8-1.2c0.6-0.6,1.3-1,1.9-1s1.1,0.2,1.6,0.6l-1,1.1
		c-0.3-0.2-0.6-0.3-0.8-0.3c-0.3,0-0.5,0.2-0.8,0.5s-0.5,0.6-0.5,0.9c0,0.2,0,0.3,0.2,0.5c0.1,0.1,0.3,0.2,0.5,0.2s0.7-0.2,1.3-0.6
		c0.6-0.4,1.1-0.6,1.5-0.7s0.7-0.1,1.1,0s0.7,0.3,1,0.6c0.3,0.3,0.5,0.6,0.6,1.1c0.1,0.4,0.1,0.8-0.1,1.2c-0.2,0.4-0.5,0.8-0.9,1.3
		c-0.6,0.6-1.3,1-1.9,1C77.9,86.2,77.2,86,76.6,85.5z"/>
	<path fill="#FFFFFF" d="M83.2,82.2l-5.1-5.1l3.8-3.8l0.9,0.9L80,77l1.1,1.1l2.5-2.5l0.9,0.9L82,78.9l1.4,1.4l2.8-2.8l0.9,0.9
		L83.2,82.2z"/>
</g>
</svg>
