<?xml version="1.0" encoding="utf-8"?>
<!-- Generator: Adobe Illustrator 22.1.0, SVG Export Plug-In . SVG Version: 6.00 Build 0)  -->
<svg version="1.1" id="图层_1" xmlns="http://www.w3.org/2000/svg" xmlns:xlink="http://www.w3.org/1999/xlink" x="0px" y="0px"
	 viewBox="0 0 100 100" style="enable-background:new 0 0 100 100;" xml:space="preserve">
<style type="text/css">
	.st0{fill:#FFFFFF;}
</style>
<g>
	<path class="st0" d="M9.4,50C9.4,27.6,27.6,9.4,50,9.4c9.6,0,18.4,3.4,25.4,9L66.7,27c-1,1-0.3,2.7,1.1,2.7l22.8,0
		c0.9,0,1.6-0.7,1.6-1.6l0-22.8c0-1.4-1.7-2.1-2.7-1.1L82,11.7C73.4,4.4,62.2,0,50,0C22.4,0,0,22.4,0,50c0,0.8,0,1.7,0.1,2.5
		c0.2,3.3,3.7,5.3,6.7,3.9c1.8-0.8,2.8-2.6,2.7-4.6C9.4,51.2,9.4,50.6,9.4,50z"/>
	<path class="st0" d="M99.9,47.5c-0.2-3.3-3.7-5.3-6.7-3.9c-1.8,0.8-2.8,2.6-2.7,4.6c0,0.6,0,1.2,0,1.8c0,22.4-18.2,40.6-40.6,40.6
		c-9.1,0-17.4-3-24.1-8l9-9c1-1,0.3-2.7-1.1-2.7l-22.8,0c-0.9,0-1.6,0.7-1.6,1.6l0,22.8c0,1.4,1.7,2.1,2.7,1.1l7.1-7.1
		C27.6,96,38.3,100,50,100c27.6,0,50-22.4,50-50C100,49.2,100,48.3,99.9,47.5z"/>
	<g>
		<path class="st0" d="M50,50L50,50c-0.5,0.2-1.1,0-1.3-0.5l-7.2-16.9l0.6-0.3l8.3,16.3C50.7,49.1,50.5,49.8,50,50z"/>
		<path class="st0" d="M38.7,39.8c-2.1-0.8-3.8-2.3-4.7-4.3c-2-4.2-0.1-9.2,4.1-11.1c2-0.9,4.3-1,6.4-0.3c2.1,0.8,3.8,2.3,4.7,4.3
			l0,0l0,0c0.9,2,1,4.3,0.3,6.4c-0.8,2.1-2.3,3.8-4.3,4.7C43.1,40.5,40.8,40.6,38.7,39.8z M43.9,25.5c-1.7-0.6-3.6-0.5-5.2,0.2
			c-3.4,1.6-4.9,5.7-3.3,9.1c0.8,1.7,2.1,2.9,3.9,3.5s3.6,0.5,5.2-0.2c1.7-0.8,2.9-2.1,3.5-3.9c0.6-1.7,0.5-3.6-0.2-5.2l0,0
			C47,27.4,45.6,26.1,43.9,25.5z"/>
		<circle class="st0" cx="41.6" cy="31.9" r="1.7"/>
		<path class="st0" d="M50,50L50,50c0.2,0.5,0,1.1-0.5,1.3l-16.9,7.2l-0.3-0.6l16.3-8.3C49.1,49.3,49.8,49.5,50,50z"/>
		<path class="st0" d="M29,66.3c-2.1-0.8-3.8-2.3-4.7-4.3c-2-4.2-0.1-9.2,4.1-11.1l0,0l0,0c2-0.9,4.3-1,6.4-0.3s3.8,2.3,4.7,4.3
			c0.9,2,1,4.3,0.3,6.4s-2.3,3.8-4.3,4.7C33.4,67,31.2,67.1,29,66.3z M34.3,52c-1.7-0.6-3.6-0.5-5.2,0.2l0,0
			c-3.4,1.6-4.9,5.7-3.3,9.1c0.8,1.7,2.1,2.9,3.9,3.5c1.7,0.6,3.6,0.5,5.2-0.2c1.7-0.8,2.9-2.1,3.5-3.9c0.6-1.7,0.5-3.6-0.2-5.2
			C37.3,53.9,36,52.6,34.3,52z"/>
		<circle class="st0" cx="31.9" cy="58.4" r="1.7"/>
		<path class="st0" d="M50,50L50,50c0.5-0.2,1.1,0,1.3,0.5l7.2,16.9l-0.6,0.3l-8.3-16.3C49.3,50.9,49.5,50.2,50,50z"/>
		<path class="st0" d="M55.6,76c-2.1-0.8-3.8-2.3-4.7-4.3l0,0l0,0c-0.9-2-1-4.3-0.3-6.4c0.8-2.1,2.3-3.8,4.3-4.7
			c2-0.9,4.3-1,6.4-0.3c2.1,0.8,3.8,2.3,4.7,4.3c0.9,2,1,4.3,0.3,6.4S64,74.7,62,75.7C59.9,76.6,57.7,76.7,55.6,76z M60.8,61.7
			c-1.7-0.6-3.6-0.5-5.2,0.2c-1.7,0.8-2.9,2.1-3.5,3.9c-0.6,1.7-0.5,3.6,0.2,5.2l0,0c0.8,1.7,2.1,2.9,3.9,3.5
			c1.7,0.6,3.6,0.5,5.2-0.2c1.7-0.8,2.9-2.1,3.5-3.9c0.6-1.7,0.5-3.6-0.2-5.2C63.9,63.5,62.5,62.3,60.8,61.7z"/>
		<circle class="st0" cx="58.4" cy="68.1" r="1.7"/>
		<path class="st0" d="M50,50L50,50c-0.2-0.5,0-1.1,0.5-1.3l16.9-7.2l0.3,0.6l-16.3,8.3C50.9,50.7,50.2,50.5,50,50z"/>
		<path class="st0" d="M65.2,49.5c-2.1-0.8-3.8-2.3-4.7-4.3c-0.9-2-1-4.3-0.3-6.4c0.8-2.1,2.3-3.8,4.3-4.7c2-0.9,4.3-1,6.4-0.3
			c2.1,0.8,3.8,2.3,4.7,4.3c0.9,2,1,4.3,0.3,6.4c-0.8,2.1-2.3,3.8-4.3,4.7l0,0l0,0C69.6,50.1,67.3,50.2,65.2,49.5z M70.4,35.1
			c-1.7-0.6-3.6-0.5-5.2,0.2c-1.7,0.8-2.9,2.1-3.5,3.9c-0.6,1.7-0.5,3.6,0.2,5.2c0.8,1.7,2.1,2.9,3.9,3.5c1.7,0.6,3.6,0.5,5.2-0.2
			l0,0c1.7-0.8,2.9-2.1,3.5-3.9c0.6-1.7,0.5-3.6-0.2-5.2C73.5,37,72.1,35.8,70.4,35.1z"/>
		<circle class="st0" cx="68.1" cy="41.6" r="1.7"/>
		<circle class="st0" cx="50" cy="50" r="3.9"/>
	</g>
</g>
</svg>
