<?xml version="1.0" encoding="utf-8"?>
<!-- Generator: Adobe Illustrator 22.1.0, SVG Export Plug-In . SVG Version: 6.00 Build 0)  -->
<svg version="1.1" id="图层_1" xmlns="http://www.w3.org/2000/svg" xmlns:xlink="http://www.w3.org/1999/xlink" x="0px" y="0px"
	 viewBox="0 0 100 100" style="enable-background:new 0 0 100 100;" xml:space="preserve">
<style type="text/css">
	.st0{fill:#FFFFFF;}
</style>
<g>
	<path class="st0" d="M54.5,47.4v-1.9h3.9l17.8-1.3c0.7,0,1.3-0.6,1.3-1.3v-3.3c0-1.8-1.4-3.3-3.2-3.3H60.9v-1.3
		c0-0.7-0.6-1.3-1.3-1.3h-1.3c-0.7,0-1.3,0.6-1.3,1.3v1.3h-2.6v-1.1c0-0.6,0-1.3-0.1-1.9c-0.4-2.9-1.7-10.7-4.3-10.7
		s-3.9,7.9-4.3,10.7c-0.1,0.6-0.1,1.3-0.1,1.9v1.1H43v-1.3c0-0.7-0.6-1.3-1.3-1.3h-1.3c-0.7,0-1.3,0.6-1.3,1.3v1.3H25.7
		c-1.8,0-3.2,1.5-3.2,3.3v3.3c0,0.7,0.6,1.3,1.3,1.3l17.8,1.3h3.9v2.1c0,1.8,0.1,3.7,0.4,5.5c0.5,3.1,1.2,10.1,2.1,15.8l-6.6,1.6
		c-0.5,0.1-0.9,0.6-0.9,1.1v3.7c0,0.5,0.4,0.9,0.9,0.9h8c0.2,0.8,0.5,1.3,0.7,1.3s0.4-0.5,0.7-1.3h8c0.5,0,0.9-0.4,0.9-0.9v-3.7
		c0-0.5-0.4-1-0.9-1.1L52,68.8c0.8-5.8,1.6-12.9,2.1-16.1C54.3,51,54.5,49.2,54.5,47.4z"/>
	<path class="st0" d="M9.4,50C9.4,27.6,27.6,9.4,50,9.4c9.6,0,18.4,3.4,25.4,9L66.7,27c-1,1-0.3,2.7,1.1,2.7l22.8,0
		c0.9,0,1.6-0.7,1.6-1.6l0-22.8c0-1.4-1.7-2.1-2.7-1.1L82,11.7C73.4,4.4,62.2,0,50,0C22.4,0,0,22.4,0,50c0,0.8,0,1.7,0.1,2.5
		c0.2,3.3,3.7,5.3,6.7,3.9c1.8-0.8,2.8-2.6,2.7-4.6C9.4,51.2,9.4,50.6,9.4,50z"/>
	<path class="st0" d="M99.9,47.5c-0.2-3.3-3.7-5.3-6.7-3.9c-1.8,0.8-2.8,2.6-2.7,4.6c0,0.6,0,1.2,0,1.8c0,22.4-18.2,40.6-40.6,40.6
		c-9.1,0-17.4-3-24.1-8l9-9c1-1,0.3-2.7-1.1-2.7l-22.8,0c-0.9,0-1.6,0.7-1.6,1.6l0,22.8c0,1.4,1.7,2.1,2.7,1.1l7.1-7.1
		C27.6,96,38.3,100,50,100c27.6,0,50-22.4,50-50C100,49.2,100,48.3,99.9,47.5z"/>
</g>
</svg>
