<?xml version="1.0" encoding="utf-8"?>
<!-- Generator: Adobe Illustrator 18.0.0, SVG Export Plug-In . SVG Version: 6.00 Build 0)  -->
<!DOCTYPE svg PUBLIC "-//W3C//DTD SVG 1.1//EN" "http://www.w3.org/Graphics/SVG/1.1/DTD/svg11.dtd">
<svg version="1.1" id="图层_1" xmlns="http://www.w3.org/2000/svg" xmlns:xlink="http://www.w3.org/1999/xlink" x="0px" y="0px"
	 viewBox="0 0 100 100" enable-background="new 0 0 100 100" xml:space="preserve">
<path fill="#FFFFFF" d="M96.7,43.9c4.5-4.5,4.5-11.8,0-16.2L72.3,3.3c-4.5-4.5-11.8-4.5-16.2,0L3.3,56.1c-4.5,4.5-4.5,11.8,0,16.2
	l24.3,24.3c2.3,2.3,5.3,3.4,8.3,3.3l0,0H100v-6.3H46.8L96.7,43.9z M60.1,7.4c2.2-2.2,5.9-2.2,8.1,0l22.3,22.3
	c3.3,3.3,3.3,8.8,0,12.2L68.3,64.2L35.8,31.7L60.1,7.4z M5.4,62.2l3.2-3.2l32.5,32.5l-3.2,3.2L5.4,62.2z"/>
</svg>
