<?xml version="1.0" encoding="utf-8"?>
<!-- Generator: Adobe Illustrator 18.0.0, SVG Export Plug-In . SVG Version: 6.00 Build 0)  -->
<!DOCTYPE svg PUBLIC "-//W3C//DTD SVG 1.1//EN" "http://www.w3.org/Graphics/SVG/1.1/DTD/svg11.dtd">
<svg version="1.1" id="图层_1" xmlns="http://www.w3.org/2000/svg" xmlns:xlink="http://www.w3.org/1999/xlink" x="0px" y="0px"
	 viewBox="0 0 96 96" enable-background="new 0 0 96 96" xml:space="preserve">
<g>
	<rect y="74" fill="#8EA6B1" width="96" height="12"/>
	<path fill="#8EA6B1" d="M20.9,53.4c0.6,0.5,1.5,0.7,2.3,0.4c42.8-14.2,57-26.9,68.1-38.6c1.1-1.2,0.8-3.1-0.7-3.8
		C80,6.1,67.5,17,63.1,19.9c-0.7,0.5-1.5,0.6-2.3,0.5l-37.6-5.8c-0.7-0.1-1.4,0.1-1.9,0.5l-7.8,6.6c-0.6,0.5-0.4,1.3,0.2,1.6
		L34,31.9c1,0.4,1.1,1.7,0.2,2.3c-3.4,2.1-8.3,5.1-10.5,6.5c-0.7,0.5-1.7,0.5-2.4,0.1l-8.4-4.6c-0.6-0.3-1.4-0.4-2.1-0.1l-6.2,2.5
		c-0.6,0.2-0.7,1-0.2,1.4C7.4,42.4,16.7,49.9,20.9,53.4z"/>
</g>
</svg>
