<?xml version="1.0" encoding="utf-8"?>
<!-- Generator: Adobe Illustrator 18.0.0, SVG Export Plug-In . SVG Version: 6.00 Build 0)  -->
<!DOCTYPE svg PUBLIC "-//W3C//DTD SVG 1.1//EN" "http://www.w3.org/Graphics/SVG/1.1/DTD/svg11.dtd">
<svg version="1.1" id="图层_1" xmlns="http://www.w3.org/2000/svg" xmlns:xlink="http://www.w3.org/1999/xlink" x="0px" y="0px"
	 viewBox="0 0 200 200" enable-background="new 0 0 200 200" xml:space="preserve">
<g>
	<g>
		<path fill="#FFFFFF" d="M99,192h1v-12h-1V192z M99,20h1V8h-1V20z M8,101h12v-1H8V101z M180,100v1h12v-1H180z"/>
	</g>
</g>
<g>
	<g>
		<path fill="#018DFF" d="M19.8,145.3l0.5,0.9l6.9-4l-0.5-0.9L19.8,145.3z M179.7,54.2l-0.5-0.9l-6.9,4l0.5,0.9L179.7,54.2z
			 M20.3,54.7l6.9,4l0.5-0.9l-6.9-4L20.3,54.7z M173.2,141.8l-0.5,0.9l6.9,4l0.5-0.9L173.2,141.8z M53.3,179.2l0.9,0.5l4-6.9
			l-0.9-0.5L53.3,179.2z M146.2,20.3l-0.9-0.5l-4,6.9l0.9,0.5L146.2,20.3z M53.8,20.8l4,6.9l0.9-0.5l-4-6.9L53.8,20.8z M141.8,173.2
			l4,6.9l0.9-0.5l-4-6.9L141.8,173.2z"/>
	</g>
</g>
<g>
	<g>
		<circle fill="none" stroke="#00A0E9" stroke-miterlimit="10" stroke-dasharray="3.02,3.02" cx="100" cy="100" r="50"/>
	</g>
</g>
<g enable-background="new    ">
	<path fill="#FFFFFF" d="M103.6,23.3h2.1v11.5h-2.3l-7.1-8.5v8.5h-2.1V23.3h2.3l7.1,8.5V23.3z"/>
</g>
<g enable-background="new    ">
	<path fill="#018DFF" d="M140.3,35.8V38c0,1-0.8,1.8-1.8,1.8h-6.4c-1,0-1.8-0.8-1.8-1.8v-0.4h1.5V38c0,0.2,0.1,0.3,0.3,0.3h6.4
		c0.2,0,0.3-0.1,0.3-0.3v-2.3c0-0.2-0.1-0.3-0.3-0.3h-6.4v-1.5h6c0.2,0,0.3-0.1,0.3-0.3v-2.1c0-0.2-0.1-0.3-0.3-0.3h-6
		c-0.2,0-0.3,0.1-0.3,0.3v0.6h-1.5v-0.6c0-1,0.8-1.8,1.8-1.8h6c1,0,1.8,0.8,1.8,1.8v2.1c0,0.3-0.1,0.5-0.2,0.8
		C140.1,34.7,140.3,35.2,140.3,35.8z"/>
	<path fill="#018DFF" d="M150.1,29.7c1,0,1.8,0.8,1.8,1.8V38c0,1-0.8,1.8-1.8,1.8h-6.4c-1,0-1.8-0.8-1.8-1.8v-6.4
		c0-1,0.8-1.8,1.8-1.8H150.1z M143.7,31.3c-0.2,0-0.3,0.1-0.3,0.3v5.2l6.6-5.5H143.7z M150.1,38.3c0.2,0,0.3-0.1,0.3-0.3v-5.2
		l-6.6,5.5H150.1z"/>
</g>
<g enable-background="new    ">
	<path fill="#018DFF" d="M153.9,64.2c1,0,1.8,0.8,1.8,1.8v2.3c0,1-0.8,1.8-1.8,1.8h-6.4c-1,0-1.8-0.8-1.8-1.8v-6.4
		c0-1,0.8-1.8,1.8-1.8c6.5,0,6.5,0,6.6,0v1.5h-6.6c-0.2,0-0.3,0.1-0.3,0.3v2c0,0.2,0.1,0.3,0.3,0.3h4.8H153.9z M154.2,66
		c0-0.2-0.1-0.3-0.3-0.3h-6.8v2.6c0,0.2,0.1,0.3,0.3,0.3h6.4c0.2,0,0.3-0.1,0.3-0.3V66z"/>
	<path fill="#018DFF" d="M165.4,60.1c1,0,1.8,0.8,1.8,1.8v6.4c0,1-0.8,1.8-1.8,1.8H159c-1,0-1.8-0.8-1.8-1.8v-6.4
		c0-1,0.8-1.8,1.8-1.8H165.4z M159,61.6c-0.2,0-0.3,0.1-0.3,0.3v5.2l6.6-5.5H159z M165.4,68.7c0.2,0,0.3-0.1,0.3-0.3v-5.2l-6.6,5.5
		H165.4z"/>
</g>
<g enable-background="new    ">
	<path fill="#018DFF" d="M130,159.8h1.8v10.1h-1.5v-8.1l-1.2,1.4h-2L130,159.8z"/>
	<path fill="#018DFF" d="M134.9,163.6c0,0.2,0.1,0.3,0.3,0.3h6.4c1,0,1.8,0.8,1.8,1.8v2.3c0,1-0.8,1.8-1.8,1.8h-6.4
		c-1,0-1.8-0.8-1.8-1.8v-0.6h1.5v0.6c0,0.2,0.1,0.3,0.3,0.3h6.4c0.2,0,0.3-0.1,0.3-0.3v-2.3c0-0.2-0.1-0.3-0.3-0.3h-8.3v-1.5h0
		c0-0.1,0-0.2,0-0.3v-3.8h10.1v1.5h-8.3c-0.2,0-0.3,0.1-0.3,0.3V163.6z"/>
	<path fill="#018DFF" d="M153.3,159.8c1,0,1.8,0.8,1.8,1.8v6.4c0,1-0.8,1.8-1.8,1.8h-6.4c-1,0-1.8-0.8-1.8-1.8v-6.4
		c0-1,0.8-1.8,1.8-1.8H153.3z M146.8,161.3c-0.2,0-0.3,0.1-0.3,0.3v5.2l6.6-5.5H146.8z M153.3,168.3c0.2,0,0.3-0.1,0.3-0.3v-5.2
		l-6.6,5.5H153.3z"/>
</g>
<g enable-background="new    ">
	<path fill="#018DFF" d="M145.3,129.1h1.8v10.1h-1.5v-8.1l-1.2,1.4h-2L145.3,129.1z"/>
	<path fill="#018DFF" d="M157,129.1c1,0,1.8,0.8,1.8,1.8v2.3c0,1-0.8,1.8-1.8,1.8h-6.4c-0.2,0-0.3,0.1-0.3,0.3v2
		c0,0.2,0.1,0.3,0.3,0.3h8.3v1.5h-10.1v-3.8c0-1,0.8-1.8,1.8-1.8h6.4c0.2,0,0.3-0.1,0.3-0.3v-2.3c0-0.2-0.1-0.3-0.3-0.3h-6.4
		c-0.2,0-0.3,0.1-0.3,0.3v0.6h-1.5v-0.6c0-1,0.8-1.8,1.8-1.8H157z"/>
	<path fill="#018DFF" d="M168.6,129.1c1,0,1.8,0.8,1.8,1.8v6.4c0,1-0.8,1.8-1.8,1.8h-6.4c-1,0-1.8-0.8-1.8-1.8v-6.4
		c0-1,0.8-1.8,1.8-1.8H168.6z M162.2,130.6c-0.2,0-0.3,0.1-0.3,0.3v5.2l6.6-5.5H162.2z M168.6,137.7c0.2,0,0.3-0.1,0.3-0.3v-5.2
		l-6.6,5.5H168.6z"/>
</g>
<g enable-background="new    ">
	<path fill="#FFFFFF" d="M177.2,95.2h-8.8v3.2h7.1v1.7h-7.1v3.2h8.8v1.7h-10.6V93.5h10.6V95.2z"/>
</g>
<g enable-background="new    ">
	<path fill="#018DFF" d="M53.7,35.8V38c0,1-0.8,1.8-1.8,1.8h-6.4c-1,0-1.8-0.8-1.8-1.8v-0.4h1.5V38c0,0.2,0.1,0.3,0.3,0.3h6.4
		c0.2,0,0.3-0.1,0.3-0.3v-2.3c0-0.2-0.1-0.3-0.3-0.3h-6.4v-1.5h6c0.2,0,0.3-0.1,0.3-0.3v-2.1c0-0.2-0.1-0.3-0.3-0.3h-6
		c-0.2,0-0.3,0.1-0.3,0.3v0.6h-1.5v-0.6c0-1,0.8-1.8,1.8-1.8h6c1,0,1.8,0.8,1.8,1.8v2.1c0,0.3-0.1,0.5-0.2,0.8
		C53.5,34.7,53.7,35.2,53.7,35.8z"/>
	<path fill="#018DFF" d="M65.3,35.8V38c0,1-0.8,1.8-1.8,1.8H57c-1,0-1.8-0.8-1.8-1.8v-0.4h1.5V38c0,0.2,0.1,0.3,0.3,0.3h6.4
		c0.2,0,0.3-0.1,0.3-0.3v-2.3c0-0.2-0.1-0.3-0.3-0.3H57v-1.5h6c0.2,0,0.3-0.1,0.3-0.3v-2.1c0-0.2-0.1-0.3-0.3-0.3h-6
		c-0.2,0-0.3,0.1-0.3,0.3v0.6h-1.5v-0.6c0-1,0.8-1.8,1.8-1.8h6c1,0,1.8,0.8,1.8,1.8v2.1c0,0.3-0.1,0.5-0.2,0.8
		C65,34.7,65.3,35.2,65.3,35.8z"/>
	<path fill="#018DFF" d="M75.1,29.7c1,0,1.8,0.8,1.8,1.8V38c0,1-0.8,1.8-1.8,1.8h-6.4c-1,0-1.8-0.8-1.8-1.8v-6.4
		c0-1,0.8-1.8,1.8-1.8H75.1z M68.6,31.3c-0.2,0-0.3,0.1-0.3,0.3v5.2l6.6-5.5H68.6z M75.1,38.3c0.2,0,0.3-0.1,0.3-0.3v-5.2l-6.6,5.5
		H75.1z"/>
</g>
<g enable-background="new    ">
	<path fill="#018DFF" d="M35,66.1v2.3c0,1-0.8,1.8-1.8,1.8h-6.4c-1,0-1.8-0.8-1.8-1.8v-0.4h1.5v0.4c0,0.2,0.1,0.3,0.3,0.3h6.4
		c0.2,0,0.3-0.1,0.3-0.3v-2.3c0-0.2-0.1-0.3-0.3-0.3h-6.4v-1.5h6c0.2,0,0.3-0.1,0.3-0.3v-2.1c0-0.2-0.1-0.3-0.3-0.3h-6
		c-0.2,0-0.3,0.1-0.3,0.3v0.6h-1.5v-0.6c0-1,0.8-1.8,1.8-1.8h6c1,0,1.8,0.8,1.8,1.8V64c0,0.3-0.1,0.5-0.2,0.8
		C34.8,65.1,35,65.6,35,66.1z"/>
	<path fill="#018DFF" d="M44.8,60.1c1,0,1.8,0.8,1.8,1.8v6.4c0,1-0.8,1.8-1.8,1.8h-6.4c-1,0-1.8-0.8-1.8-1.8v-6.4
		c0-1,0.8-1.8,1.8-1.8H44.8z M38.4,61.6c-0.2,0-0.3,0.1-0.3,0.3v5.2l6.6-5.5H38.4z M44.8,68.7c0.2,0,0.3-0.1,0.3-0.3v-5.2l-6.6,5.5
		H44.8z"/>
	<path fill="#018DFF" d="M56.5,60.1c1,0,1.8,0.8,1.8,1.8v6.4c0,1-0.8,1.8-1.8,1.8H50c-1,0-1.8-0.8-1.8-1.8v-6.4c0-1,0.8-1.8,1.8-1.8
		H56.5z M50,61.6c-0.2,0-0.3,0.1-0.3,0.3v5.2l6.6-5.5H50z M56.5,68.7c0.2,0,0.3-0.1,0.3-0.3v-5.2l-6.6,5.5H56.5z"/>
</g>
<g enable-background="new    ">
	<path fill="#018DFF" d="M54.9,159.8c1,0,1.8,0.8,1.8,1.8v2.3c0,1-0.8,1.8-1.8,1.8h-6.4c-0.2,0-0.3,0.1-0.3,0.3v2
		c0,0.2,0.1,0.3,0.3,0.3h8.3v1.5H46.7V166c0-1,0.8-1.8,1.8-1.8h6.4c0.2,0,0.3-0.1,0.3-0.3v-2.3c0-0.2-0.1-0.3-0.3-0.3h-6.4
		c-0.2,0-0.3,0.1-0.3,0.3v0.6h-1.5v-0.6c0-1,0.8-1.8,1.8-1.8H54.9z"/>
	<path fill="#018DFF" d="M60.4,159.8h1.8v10.1h-1.5v-8.1l-1.2,1.4h-2L60.4,159.8z"/>
	<path fill="#018DFF" d="M72,159.8c1,0,1.8,0.8,1.8,1.8v6.4c0,1-0.8,1.8-1.8,1.8h-6.4c-1,0-1.8-0.8-1.8-1.8v-6.4
		c0-1,0.8-1.8,1.8-1.8H72z M65.6,161.3c-0.2,0-0.3,0.1-0.3,0.3v5.2l6.6-5.5H65.6z M72,168.3c0.2,0,0.3-0.1,0.3-0.3v-5.2l-6.6,5.5H72
		z"/>
</g>
<g enable-background="new    ">
	<path fill="#018DFF" d="M33.9,129.1c1,0,1.8,0.8,1.8,1.8v2.3c0,1-0.8,1.8-1.8,1.8h-6.4c-0.2,0-0.3,0.1-0.3,0.3v2
		c0,0.2,0.1,0.3,0.3,0.3h8.3v1.5H25.6v-3.8c0-1,0.8-1.8,1.8-1.8h6.4c0.2,0,0.3-0.1,0.3-0.3v-2.3c0-0.2-0.1-0.3-0.3-0.3h-6.4
		c-0.2,0-0.3,0.1-0.3,0.3v0.6h-1.5v-0.6c0-1,0.8-1.8,1.8-1.8H33.9z"/>
	<path fill="#018DFF" d="M46.2,135.1v1.5h-1.5v2.6h-1.5v-2.6h-6.7v-1.5l6.7-6h1.5v6H46.2z M38.7,135.1h4.5v-3.6L38.7,135.1z"/>
	<path fill="#018DFF" d="M55.7,129.1c1,0,1.8,0.8,1.8,1.8v6.4c0,1-0.8,1.8-1.8,1.8h-6.4c-1,0-1.8-0.8-1.8-1.8v-6.4
		c0-1,0.8-1.8,1.8-1.8H55.7z M49.3,130.6c-0.2,0-0.3,0.1-0.3,0.3v5.2l6.6-5.5H49.3z M55.7,137.7c0.2,0,0.3-0.1,0.3-0.3v-5.2
		l-6.6,5.5H55.7z"/>
</g>
<g enable-background="new    ">
	<path fill="#FFFFFF" d="M39.5,93.5L35.3,105h-1.4l-3.3-9l-3.3,9l0,0l0,0h-1.4l-4.2-11.5h1.8l3.1,8.4l3.1-8.4h1.8l3.1,8.4l3.1-8.4
		H39.5z"/>
</g>
<g enable-background="new    ">
	<path fill="#FFFFFF" d="M105.8,168h-2.1v-0.9c0-0.1,0-0.1-0.1-0.1h-7.1c-0.1,0-0.1,0-0.1,0.1v2.4c0,0.1,0,0.1,0.1,0.1h7.1
		c1.2,0,2.2,1,2.2,2.2v2.4c0,1.2-1,2.2-2.2,2.2h-7.1c-1.2,0-2.2-1-2.2-2.2v-0.9h2.1v0.9c0,0.1,0,0.1,0.1,0.1h7.1c0,0,0.1,0,0.1-0.1
		v-2.4c0-0.1,0-0.1-0.1-0.1h-7.1c-1.2,0-2.2-1-2.2-2.2v-2.4c0-1.2,1-2.2,2.2-2.2h7.1c1.2,0,2.2,1,2.2,2.2V168z"/>
</g>
</svg>
