<?xml version="1.0" encoding="utf-8"?>
<!-- Generator: Adobe Illustrator 18.0.0, SVG Export Plug-In . SVG Version: 6.00 Build 0)  -->
<!DOCTYPE svg PUBLIC "-//W3C//DTD SVG 1.1//EN" "http://www.w3.org/Graphics/SVG/1.1/DTD/svg11.dtd">
<svg version="1.1" id="图层_1" xmlns="http://www.w3.org/2000/svg" xmlns:xlink="http://www.w3.org/1999/xlink" x="0px" y="0px"
	 viewBox="0 0 200 200" enable-background="new 0 0 200 200" xml:space="preserve">
<path fill="#01C6FF" d="M122,106.8v-4.1c0-0.4-0.2-0.7-0.6-0.9l-16.3-8.2c-0.7-0.3-1.1-1-1.1-1.8v-9.4c0-2-0.4-4.1-1.4-5.9
	c-0.7-1.3-1.6-2.4-2.6-2.4c-1.1,0-2,1.1-2.6,2.4c-0.9,1.8-1.4,3.8-1.4,5.9v9.4c0,0.8-0.4,1.5-1.1,1.8l-16.3,8.2
	c-0.3,0.2-0.6,0.5-0.6,0.9v4.1c0,0.6,0.6,1.1,1.2,1l15.7-3.5c0.6-0.1,1.2,0.3,1.2,0.9l0.9,12.6c0,0.2-0.1,0.3-0.2,0.4l-6.6,4.7
	c-0.1,0.1-0.2,0.2-0.2,0.4v1.6c0,0.6,0.5,1.1,1.1,1l6.6-0.8c0.2,0,0.4,0,0.6,0.1l1.3,0.6c0.3,0.1,0.6,0.1,0.9,0l1.3-0.6
	c0.2-0.1,0.4-0.1,0.6-0.1l6.6,0.8c0.6,0.1,1.1-0.4,1.1-1v-1.6c0-0.2-0.1-0.3-0.2-0.4l-6.6-4.7c-0.1-0.1-0.2-0.3-0.2-0.4l0.9-12.6
	c0-0.6,0.6-1,1.2-0.9l15.7,3.5C121.4,107.9,122,107.4,122,106.8z"/>
</svg>
