<?xml version="1.0" encoding="utf-8"?>
<!-- Generator: Adobe Illustrator 22.1.0, SVG Export Plug-In . SVG Version: 6.00 Build 0)  -->
<svg version="1.1" id="图层_1" xmlns="http://www.w3.org/2000/svg" xmlns:xlink="http://www.w3.org/1999/xlink" x="0px" y="0px"
	 viewBox="0 0 100 100" style="enable-background:new 0 0 100 100;" xml:space="preserve">
<style type="text/css">
	.st0{fill:#FFFFFF;}
</style>
<g>
	<path class="st0" d="M15,0v100h70V0H15z M80,95H50H20V5h30h30V95z"/>
	<path class="st0" d="M60,85c0-4.7-3.2-8.5-7.5-9.6V24.6c4.3-1.1,7.5-5,7.5-9.6c0-5.5-4.5-10-10-10S40,9.5,40,15
		c0,4.7,3.2,8.5,7.5,9.6v50.7c-4.3,1.1-7.5,5-7.5,9.6c0,5.5,4.5,10,10,10S60,90.5,60,85z"/>
</g>
</svg>
