<?xml version="1.0" encoding="utf-8"?>
<!-- Generator: Adobe Illustrator 18.0.0, SVG Export Plug-In . SVG Version: 6.00 Build 0)  -->
<!DOCTYPE svg PUBLIC "-//W3C//DTD SVG 1.1//EN" "http://www.w3.org/Graphics/SVG/1.1/DTD/svg11.dtd">
<svg version="1.1" id="图层_1" xmlns="http://www.w3.org/2000/svg" xmlns:xlink="http://www.w3.org/1999/xlink" x="0px" y="0px"
	 viewBox="0 0 100 100" enable-background="new 0 0 100 100" xml:space="preserve">
<path fill="#FFFFFF" d="M98.6,48.5v-1.7h-2.9v1.7h-1.4v2.9H71.4v-2.9c0-1.7-1.1-2.9-2.9-2.9H60l-1.4-2c-1.1-1.4-2.9-2.3-4-2.3h-8.9
	c-1.1,0-2.9,0.9-4,2.3l-1.7,2h-8.6c-1.7,0-2.9,1.1-2.9,2.9v2.9H5.7v-2.9H4.3v-1.7H1.4v1.7H0v8.6h5.7v-2.9h22.9v2.9h42.9v-2.9h22.9
	v2.9h5.7v-8.6H98.6z"/>
</svg>
