<?xml version="1.0" encoding="utf-8"?>
<!-- Generator: Adobe Illustrator 18.0.0, SVG Export Plug-In . SVG Version: 6.00 Build 0)  -->
<!DOCTYPE svg PUBLIC "-//W3C//DTD SVG 1.1//EN" "http://www.w3.org/Graphics/SVG/1.1/DTD/svg11.dtd">
<svg version="1.1" id="图层_1" xmlns="http://www.w3.org/2000/svg" xmlns:xlink="http://www.w3.org/1999/xlink" x="0px" y="0px"
	 viewBox="0 0 96 96" enable-background="new 0 0 96 96" xml:space="preserve">
<g>
	<g opacity="0.35">
		<path d="M91.1,26H87v-4.4c0-2.2-1.6-3.6-3.8-3.6H68v-4.3C68,7.3,62.3,2,55.8,2H40.2C33.7,2,28,7.3,28,13.8V18H12.8
			C10.6,18,9,19.4,9,21.6V26H4.9C2.8,26,1,27.3,1,29.5C1,31.7,2.8,33,4.9,33H13v51.3C13,90.7,18,96,24.5,96h47
			C78,96,83,90.7,83,84.3V33h8.1c2.2,0,3.9-1.3,3.9-3.5C95,27.3,93.2,26,91.1,26z M36,13.8c0-2.2,2-3.8,4.2-3.8h15.7
			c2.2,0,4.2,1.6,4.2,3.8V18H36V13.8z M75,84.3c0,2.2-1.3,3.8-3.5,3.8h-47c-2.2,0-3.5-1.6-3.5-3.8V33h54V84.3z"/>
		<path d="M48,80.3c2.2,0,4-1.8,4-3.9V45.1c0-2.2-1.8-3.9-4-3.9s-4,1.8-4,3.9v31.3C44,78.6,45.8,80.3,48,80.3z"/>
		<path d="M32,80.3c2.2,0,4-1.8,4-3.9V45.1c0-2.2-1.8-3.9-4-3.9s-4,1.8-4,3.9v31.3C28,78.6,29.8,80.3,32,80.3z"/>
		<path d="M64,80.3c2.2,0,4-1.8,4-3.9V45.1c0-2.2-1.8-3.9-4-3.9s-4,1.8-4,3.9v31.3C60,78.6,61.8,80.3,64,80.3z"/>
	</g>
	<g>
		<g>
			<path fill="#E43A3D" d="M91.1,25H87v-4.4c0-2.2-1.6-3.6-3.8-3.6H68v-4.3C68,6.3,62.3,1,55.8,1H40.2C33.7,1,28,6.3,28,12.8V17
				H12.8C10.6,17,9,18.4,9,20.6V25H4.9C2.8,25,1,26.3,1,28.5C1,30.7,2.8,32,4.9,32H13v51.3C13,89.7,18,95,24.5,95h47
				C78,95,83,89.7,83,83.3V32h8.1c2.2,0,3.9-1.3,3.9-3.5C95,26.3,93.2,25,91.1,25z M36,12.8c0-2.2,2-3.8,4.2-3.8h15.7
				C58,9,60,10.6,60,12.8V17H36V12.8z M75,83.3c0,2.2-1.3,3.8-3.5,3.8h-47c-2.2,0-3.5-1.6-3.5-3.8V32h54V83.3z"/>
			<path fill="#E43A3D" d="M48,79.3c2.2,0,4-1.8,4-3.9V44.1c0-2.2-1.8-3.9-4-3.9s-4,1.8-4,3.9v31.3C44,77.6,45.8,79.3,48,79.3z"/>
			<path fill="#E43A3D" d="M32,79.3c2.2,0,4-1.8,4-3.9V44.1c0-2.2-1.8-3.9-4-3.9s-4,1.8-4,3.9v31.3C28,77.6,29.8,79.3,32,79.3z"/>
			<path fill="#E43A3D" d="M64,79.3c2.2,0,4-1.8,4-3.9V44.1c0-2.2-1.8-3.9-4-3.9s-4,1.8-4,3.9v31.3C60,77.6,61.8,79.3,64,79.3z"/>
		</g>
	</g>
</g>
</svg>
