<?xml version="1.0" encoding="utf-8"?>
<!-- Generator: Adobe Illustrator 18.0.0, SVG Export Plug-In . SVG Version: 6.00 Build 0)  -->
<!DOCTYPE svg PUBLIC "-//W3C//DTD SVG 1.1//EN" "http://www.w3.org/Graphics/SVG/1.1/DTD/svg11.dtd">
<svg version="1.1" id="图层_1" xmlns="http://www.w3.org/2000/svg" xmlns:xlink="http://www.w3.org/1999/xlink" x="0px" y="0px"
	 viewBox="0 0 96 96" enable-background="new 0 0 96 96" xml:space="preserve">
<g>
	<rect y="8" fill="#FFFFFF" width="8" height="80"/>
	<rect x="88" y="8" fill="#FFFFFF" width="8" height="80"/>
	<path fill="#FFFFFF" d="M79.7,46.5c-0.2-0.5-0.5-0.9-0.9-1.3L67.5,33.9c-1.6-1.6-4.1-1.6-5.7,0c-1.6,1.6-1.6,4.1,0,5.7l4.5,4.5
		H29.7l4.5-4.5c1.6-1.6,1.6-4.1,0-5.7c-1.6-1.6-4.1-1.6-5.7,0L17.2,45.2c0,0,0,0,0,0c-0.4,0.4-0.6,0.8-0.8,1.3
		C16.1,47,16,47.5,16,48l0,0c0,0,0,0,0,0c0,0.5,0.1,1,0.3,1.5c0.2,0.5,0.5,0.9,0.8,1.3c0,0,0,0,0,0l11.3,11.3c1.6,1.6,4.1,1.6,5.7,0
		s1.6-4.1,0-5.7L29.7,52h36.7l-4.5,4.5c-1.6,1.6-1.6,4.1,0,5.7s4.1,1.6,5.7,0l11.3-11.3c0.4-0.4,0.7-0.8,0.9-1.3
		c0.2-0.5,0.3-1,0.3-1.5c0,0,0,0,0,0l0,0C80,47.5,79.9,47,79.7,46.5z"/>
</g>
</svg>
