<?xml version="1.0" encoding="utf-8"?>
<!-- Generator: Adobe Illustrator 21.0.2, SVG Export Plug-In . SVG Version: 6.00 Build 0)  -->
<svg version="1.1" id="图层_1" xmlns="http://www.w3.org/2000/svg" xmlns:xlink="http://www.w3.org/1999/xlink" x="0px" y="0px"
	 viewBox="0 0 100 100" style="enable-background:new 0 0 100 100;" xml:space="preserve">
<style type="text/css">
	.st0{fill:#FFFFFF;}
</style>
<g>
	<path class="st0" d="M50.2,60c0.8,2.4,2.4,3.6,5,4.9c2.6,1.3,7.7,3,8.9,3.1s2-1.2,2.6-3.1c0.4-1.4,27,10.3,31.8,8.2
		c0,0,3.2-0.7,0.2-4.5c-3-3.7-5-11-11.5-14.2c-7-3.4-15.2-4.1-49.9-16.2c-4-1.4-5.5-1.9-9.1-9c-3.5-7-7-19.3-7.9-20.6
		c-0.9-1.3-6.5-4.2-7.6-4c-0.2,6-2,23.8-2,25c-2-0.6-8.6-2.5-9.9-2.5c-0.5,1.5-1.2,3-0.8,3.1C3.5,32.2,32,52.1,50.2,60z"/>
	<rect x="0" y="89.1" class="st0" width="100" height="6.2"/>
</g>
</svg>
