<?xml version="1.0" encoding="utf-8"?>
<!-- Generator: Adobe Illustrator 18.0.0, SVG Export Plug-In . SVG Version: 6.00 Build 0)  -->
<!DOCTYPE svg PUBLIC "-//W3C//DTD SVG 1.0//EN" "http://www.w3.org/TR/2001/REC-SVG-20010904/DTD/svg10.dtd">
<svg version="1.0" id="图层_1" xmlns="http://www.w3.org/2000/svg" xmlns:xlink="http://www.w3.org/1999/xlink" x="0px" y="0px"
	 viewBox="0 0 283.5 283.5" enable-background="new 0 0 283.5 283.5" xml:space="preserve">
<g>
	
		<linearGradient id="SVGID_1_" gradientUnits="userSpaceOnUse" x1="-1112.4921" y1="134.0627" x2="-1074.375" y2="276.3176" gradientTransform="matrix(-1 0 -0.7321 1 -747.9124 0)">
		<stop  offset="0" style="stop-color:#000000;stop-opacity:0"/>
		<stop  offset="3.326422e-002" style="stop-color:#000000;stop-opacity:2.494816e-002"/>
		<stop  offset="1" style="stop-color:#000000;stop-opacity:0.75"/>
	</linearGradient>
	<path fill="url(#SVGID_1_)" d="M114.4,192.2c-26.7,38.3,42.8,53,30.5,91c43.8-38.2,130.8-52.7,157.6-91c22.2-31.7-2-57.5-53.9-57.5
		S136.6,160.5,114.4,192.2z"/>
	<path fill="#1D91E8" d="M99.3,215.7c18.3,19.3,35.3,40.3,42.6,67.5c6.1-27.2,22.8-48.1,41.3-67.5H99.3z"/>
	<linearGradient id="SVGID_2_" gradientUnits="userSpaceOnUse" x1="141.9865" y1="-0.2323" x2="141.9865" y2="188.7441">
		<stop  offset="0" style="stop-color:#15D5EC"/>
		<stop  offset="5.381370e-002" style="stop-color:#16CEEC"/>
		<stop  offset="0.2796" style="stop-color:#19B3EA"/>
		<stop  offset="0.5105" style="stop-color:#1BA0E9"/>
		<stop  offset="0.7475" style="stop-color:#1D95E8"/>
		<stop  offset="1" style="stop-color:#1D91E8"/>
	</linearGradient>
	<polygon fill="url(#SVGID_2_)" points="216.2,68.6 216.2,20 189.2,20 189.2,43.5 142,-0.2 34,99.8 66.4,99.8 66.4,188.7 
		217.6,188.7 217.6,99.8 250,99.8 	"/>
	<linearGradient id="SVGID_3_" gradientUnits="userSpaceOnUse" x1="141.9865" y1="188.7441" x2="141.9865" y2="82.4449">
		<stop  offset="0" style="stop-color:#0069AA"/>
		<stop  offset="1" style="stop-color:#002D6A"/>
	</linearGradient>
	<path fill="url(#SVGID_3_)" d="M182.5,123.6c0,27.4-34.4,38-40.5,65.2c-7.4-27.3-40.5-37.7-40.5-65.2c0-22.7,18.1-41.1,40.5-41.1
		S182.5,100.9,182.5,123.6z"/>
	<linearGradient id="SVGID_4_" gradientUnits="userSpaceOnUse" x1="141.9865" y1="102.6924" x2="141.9865" y2="143.1873">
		<stop  offset="0" style="stop-color:#15D5EC"/>
		<stop  offset="5.381370e-002" style="stop-color:#16CEEC"/>
		<stop  offset="0.2796" style="stop-color:#19B3EA"/>
		<stop  offset="0.5105" style="stop-color:#1BA0E9"/>
		<stop  offset="0.7475" style="stop-color:#1D95E8"/>
		<stop  offset="1" style="stop-color:#1D91E8"/>
	</linearGradient>
	<circle fill="url(#SVGID_4_)" cx="142" cy="122.9" r="20.2"/>
</g>
</svg>
