<?xml version="1.0" encoding="utf-8"?>
<!-- Generator: Adobe Illustrator 22.1.0, SVG Export Plug-In . SVG Version: 6.00 Build 0)  -->
<svg version="1.1" id="图层_1" xmlns="http://www.w3.org/2000/svg" xmlns:xlink="http://www.w3.org/1999/xlink" x="0px" y="0px"
	 viewBox="0 0 100 100" style="enable-background:new 0 0 100 100;" xml:space="preserve">
<style type="text/css">
	.st0{fill:#FFFFFF;}
</style>
<g>
	<path class="st0" d="M100,0H0v10h46.1L32.5,23.6c-1.5,1.5-1.5,3.8,0,5.3c1.5,1.5,3.8,1.5,5.3,0l8.5-8.5v40.1C39.8,62.2,35,68,35,75
		c0,8.3,6.7,15,15,15s15-6.7,15-15c0-7-4.8-12.8-11.3-14.5V20.6l8.4,8.4c1.5,1.5,3.8,1.5,5.3,0c1.5-1.5,1.5-3.8,0-5.3L55.2,11.4
		L53.8,10H100V0z M57.5,75c0,4.1-3.4,7.5-7.5,7.5s-7.5-3.4-7.5-7.5s3.4-7.5,7.5-7.5S57.5,70.9,57.5,75z"/>
	<polygon class="st0" points="0,100 100,100 100,90 50,90 0,90 	"/>
</g>
</svg>
