<?xml version="1.0" encoding="utf-8"?>
<!-- Generator: Adobe Illustrator 18.0.0, SVG Export Plug-In . SVG Version: 6.00 Build 0)  -->
<!DOCTYPE svg PUBLIC "-//W3C//DTD SVG 1.1//EN" "http://www.w3.org/Graphics/SVG/1.1/DTD/svg11.dtd">
<svg version="1.1" id="图层_1" xmlns="http://www.w3.org/2000/svg" xmlns:xlink="http://www.w3.org/1999/xlink" x="0px" y="0px"
	 viewBox="0 0 96 96" enable-background="new 0 0 96 96" xml:space="preserve">
<g>
	<g opacity="0.35">
		<path d="M48,2C28.5,2,12.8,17.8,12.8,37.3C12.8,56.7,48,96,48,96s35.3-39.3,35.3-58.8C83.3,17.8,67.5,2,48,2z M48,60.8
			c-13,0-23.5-10.5-23.5-23.5S35,13.8,48,13.8s23.5,10.5,23.5,23.5S61,60.8,48,60.8z"/>
		<polygon points="52,21 44,21 44,33 32,33 32,41 44,41 44,53 52,53 52,41 64,41 64,33 52,33 		"/>
	</g>
	<g>
		<g>
			<path fill="#FFFFFF" d="M48,1C28.5,1,12.8,16.8,12.8,36.3C12.8,55.7,48,95,48,95s35.3-39.3,35.3-58.8C83.3,16.8,67.5,1,48,1z
				 M48,59.8c-13,0-23.5-10.5-23.5-23.5S35,12.8,48,12.8s23.5,10.5,23.5,23.5S61,59.8,48,59.8z"/>
			<polygon fill="#FFFFFF" points="52,20 44,20 44,32 32,32 32,40 44,40 44,52 52,52 52,40 64,40 64,32 52,32 			"/>
		</g>
	</g>
</g>
</svg>
