<?xml version="1.0" encoding="utf-8"?>
<!-- Generator: Adobe Illustrator 18.0.0, SVG Export Plug-In . SVG Version: 6.00 Build 0)  -->
<!DOCTYPE svg PUBLIC "-//W3C//DTD SVG 1.0//EN" "http://www.w3.org/TR/2001/REC-SVG-20010904/DTD/svg10.dtd">
<svg version="1.0" id="图层_1" xmlns="http://www.w3.org/2000/svg" xmlns:xlink="http://www.w3.org/1999/xlink" x="0px" y="0px"
	 viewBox="0 0 283.5 283.5" enable-background="new 0 0 283.5 283.5" xml:space="preserve">
<g>
	
		<linearGradient id="SVGID_1_" gradientUnits="userSpaceOnUse" x1="-1112.6621" y1="134.295" x2="-1074.545" y2="276.5499" gradientTransform="matrix(-1 0 -0.7321 1 -747.9124 0)">
		<stop  offset="0" style="stop-color:#000000;stop-opacity:0"/>
		<stop  offset="3.326422e-002" style="stop-color:#000000;stop-opacity:2.494816e-002"/>
		<stop  offset="1" style="stop-color:#000000;stop-opacity:0.75"/>
	</linearGradient>
	<path fill="url(#SVGID_1_)" d="M114.4,192.5c-26.7,38.3,42.8,53,30.5,91c43.8-38.2,130.8-52.7,157.6-91c22.2-31.7-2-57.5-53.9-57.5
		S136.6,160.7,114.4,192.5z"/>
	<path fill="#FF7C1D" d="M99.3,216c18.3,19.3,35.3,40.3,42.6,67.5c6.1-27.2,22.8-48.1,41.3-67.5H99.3z"/>
	<linearGradient id="SVGID_2_" gradientUnits="userSpaceOnUse" x1="141.9865" y1="-4.758476e-009" x2="141.9865" y2="188.9764">
		<stop  offset="0" style="stop-color:#FFAC4A"/>
		<stop  offset="0.1513" style="stop-color:#FF9E3D"/>
		<stop  offset="0.4227" style="stop-color:#FF8B2B"/>
		<stop  offset="0.7022" style="stop-color:#FF8020"/>
		<stop  offset="1" style="stop-color:#FF7C1D"/>
	</linearGradient>
	<path fill="url(#SVGID_2_)" d="M248,189H36c-1.1,0-2-0.9-2-2V2c0-1.1,0.9-2,2-2h212c1.1,0,2,0.9,2,2v185
		C250,188.1,249.1,189,248,189z"/>
	<g id="_x35__2_">
		<g>
			
				<linearGradient id="SVGID_3_" gradientUnits="userSpaceOnUse" x1="107.9865" y1="158.4793" x2="107.9865" y2="30.4971" gradientTransform="matrix(1 0 0 1 34 0)">
				<stop  offset="0" style="stop-color:#EA5514"/>
				<stop  offset="1" style="stop-color:#943A00"/>
			</linearGradient>
			<path fill="url(#SVGID_3_)" d="M115.4,141.4l-14.7-14.7l42.8-42.4L123.3,64L81,107L66.3,92.3c-3.2-3.2-6.4-6.6-10.3-6.6
				c-3.9,0-7,3.1-7,7l0.1,58.2c0,2.1,0.9,3.9,2.3,5.1c1.3,1.4,3.1,2.3,5.1,2.3l58.2,0.1c3.8,0,7-3.1,7-7
				C121.8,147.7,117.3,143.3,115.4,141.4z M234.8,38.2c0-2.1-0.9-3.9-2.4-5.3c-1.3-1.4-3.1-2.4-5.2-2.4L168,30.5
				c-3.9,0-7.1,3.2-7.1,7.1c0,3.9,4.6,8.4,6.5,10.4l15,15.1l-42,41.7l20.2,20.2l41.7-41.8l15,15.1c3.2,3.3,6.5,6.7,10.4,6.7
				c3.9,0,7.1-3.2,7.1-7.1L234.8,38.2z"/>
		</g>
	</g>
</g>
</svg>
