<svg id="图层_1" data-name="图层 1" xmlns="http://www.w3.org/2000/svg" viewBox="0 0 103.8 156.95"><defs><style>.cls-1{fill:#4c4b4c;}</style></defs><title>light</title><path class="cls-1" d="M107.4,61.55A51.9,51.9,0,1,0,15.06,94.07h0S25.72,107,29.72,115.77a7.91,7.91,0,0,0,7.2,4.65H74.08a7.92,7.92,0,0,0,7.2-4.65C85.28,107,96,94.07,96,94.07h0A51.71,51.71,0,0,0,107.4,61.55Z" transform="translate(-3.6 -9.65)"/><rect class="cls-1" x="27.58" y="117.2" width="48.64" height="11.57" rx="5.78" ry="5.78"/><path class="cls-1" d="M77.64,145.54H33.35s-1,9.69,13,12.26v6s-.63,2.77,4.41,2.77h9.49c5.05,0,4.42-2.77,4.42-2.77v-6C78.67,155.23,77.64,145.54,77.64,145.54Z" transform="translate(-3.6 -9.65)"/></svg>