<?xml version="1.0" encoding="utf-8"?>
<!-- Generator: Adobe Illustrator 18.0.0, SVG Export Plug-In . SVG Version: 6.00 Build 0)  -->
<!DOCTYPE svg PUBLIC "-//W3C//DTD SVG 1.1//EN" "http://www.w3.org/Graphics/SVG/1.1/DTD/svg11.dtd">
<svg version="1.1" id="图层_1" xmlns="http://www.w3.org/2000/svg" xmlns:xlink="http://www.w3.org/1999/xlink" x="0px" y="0px"
	 viewBox="0 0 100 100" enable-background="new 0 0 100 100" xml:space="preserve">
<g>
	<path fill="#FFFFFF" d="M97.4,35.9H2.6C1,35.9-0.1,37,0,38.5l4,48c0.1,1.2,1.3,2.2,2.7,2.2h86.6c1.4,0,2.6-1,2.7-2.2l4-48
		C100.1,37,99,35.9,97.4,35.9z"/>
	<path fill="#FFFFFF" d="M9.2,28.6c0-1.4,1.1-2.5,2.5-2.5h76.5c1.4,0,2.5,1.1,2.5,2.5v2.2h4.6v-8.4c0-1.4-1.1-2.5-2.5-2.5H47.3
		c-2.4,0-4.6-1.3-5.8-3.4l-1.7-3.1c-0.6-1.1-2.2-2-3.6-2h-29c-1.4,0-2.5,1.1-2.5,2.5v5.9v9.4v1.6h4.6V28.6z"/>
</g>
</svg>
