<?xml version="1.0" encoding="utf-8"?>
<!-- Generator: Adobe Illustrator 18.0.0, SVG Export Plug-In . SVG Version: 6.00 Build 0)  -->
<!DOCTYPE svg PUBLIC "-//W3C//DTD SVG 1.1//EN" "http://www.w3.org/Graphics/SVG/1.1/DTD/svg11.dtd">
<svg version="1.1" id="图层_1" xmlns="http://www.w3.org/2000/svg" xmlns:xlink="http://www.w3.org/1999/xlink" x="0px" y="0px"
	 viewBox="0 0 100 100" enable-background="new 0 0 100 100" xml:space="preserve">
<g>
	<path fill="#FFFFFF" d="M80.6,80.6c0,3.1-2.5,5.6-5.6,5.6H13.9c-3.1,0-5.6-2.5-5.6-5.6V19.5c0-3.1,2.5-5.6,5.6-5.6h5.2
		c1.8-3.2,4.7-6,7.8-8.3H11.1C5,5.6,0,10.6,0,16.7v66.7c0,6.1,5,11.1,11.1,11.1h66.7c6.1,0,11.1-5,11.1-11.1V31.2
		c-2.5,0.6-5.5,1.3-8.3,2.1V80.6z"/>
	<path fill="#FFFFFF" d="M26.5,47C29.7,23.6,49.7,5.5,74,5.5c9.5,0,18.3,2.7,25.7,7.5c0.6,0.4,0.2,1.2-0.5,1
		c-3.8-1.3-7.8-1.9-12-1.9c-20,0-36.4,15.4-38.1,34.9h14.1L38.7,81.1L14.1,47H26.5z"/>
</g>
</svg>
