<?xml version="1.0" encoding="utf-8"?>
<!-- Generator: Adobe Illustrator 18.0.0, SVG Export Plug-In . SVG Version: 6.00 Build 0)  -->
<!DOCTYPE svg PUBLIC "-//W3C//DTD SVG 1.1//EN" "http://www.w3.org/Graphics/SVG/1.1/DTD/svg11.dtd">
<svg version="1.1" id="图层_1" xmlns="http://www.w3.org/2000/svg" xmlns:xlink="http://www.w3.org/1999/xlink" x="0px" y="0px"
	 viewBox="0 0 100 100" enable-background="new 0 0 100 100" xml:space="preserve">
<path fill="#FFFFFF" d="M83,39.6h-8.2V24.2h0C74.4,10.8,63.5,0,50,0C36.5,0,25.6,10.8,25.3,24.2h0v15.4H17c-3,0-5.5,2.5-5.5,5.5
	v49.5c0,3,2.5,5.5,5.5,5.5H83c3,0,5.5-2.5,5.5-5.5V45.1C88.5,42,86,39.6,83,39.6z M55.5,76.3v9.4c0,3-2.5,5.5-5.5,5.5
	s-5.5-2.5-5.5-5.5v-9.4c-4.9-2.1-8.2-7-8.2-12.6C36.3,56.1,42.4,50,50,50s13.7,6.1,13.7,13.7C63.7,69.4,60.3,74.2,55.5,76.3z
	 M33.5,39.6V24.7c0-9.1,7.4-16.5,16.5-16.5s16.5,7.4,16.5,16.5v14.8H33.5z"/>
</svg>
