<?xml version="1.0" encoding="utf-8"?>
<!-- Generator: Adobe Illustrator 18.0.0, SVG Export Plug-In . SVG Version: 6.00 Build 0)  -->
<!DOCTYPE svg PUBLIC "-//W3C//DTD SVG 1.1//EN" "http://www.w3.org/Graphics/SVG/1.1/DTD/svg11.dtd">
<svg version="1.1" id="图层_1" xmlns="http://www.w3.org/2000/svg" xmlns:xlink="http://www.w3.org/1999/xlink" x="0px" y="0px"
	 viewBox="0 0 100 100" enable-background="new 0 0 100 100" xml:space="preserve">
<g>
	<path fill="#FFFFFF" d="M93.5,49.5c0-10.4-4.3-19.8-11.2-26.5L30.1,75.2c6.7,6.9,16.1,11.2,26.5,11.2
		C76.9,86.4,93.5,69.8,93.5,49.5z"/>
	<path fill="#FFFFFF" d="M35.8,6.2c2.3,0,4.6,0.4,6.7,1l1.6-5.9C41.5,0.4,38.7,0,35.8,0C19.6,0,6.5,13.1,6.5,29.2
		c0,3.1,0.5,6,1.3,8.8l5.9-1.7c-0.7-2.2-1.1-4.6-1.1-7.1C12.7,16.5,23,6.2,35.8,6.2z"/>
	<path fill="#FFFFFF" d="M35.8,18.5c1.2,0,2.4,0.2,3.5,0.6l1.6-6c-1.6-0.5-3.3-0.8-5.1-0.8c-9.3,0-16.9,7.6-16.9,16.9
		c0,1.9,0.3,3.7,0.9,5.5l5.9-1.7c-0.4-1.2-0.7-2.5-0.7-3.8C25,23.3,29.8,18.5,35.8,18.5z"/>
	<path fill="#FFFFFF" d="M36.2,24.7c-3,0-5.4,2.4-5.4,5.4s2.4,5.4,5.4,5.4c0.7,0,1.3-0.1,1.9-0.4l12,15l6.5-6.5L41.4,31.4
		c0.1-0.4,0.2-0.8,0.2-1.3C41.6,27.1,39.2,24.7,36.2,24.7z"/>
	<path fill="#FFFFFF" d="M59.4,90.6l-5.5,9.4h39.2L83,81C76.5,86.5,68.4,90,59.4,90.6z"/>
</g>
</svg>
