<?xml version="1.0" encoding="utf-8"?>
<!-- Generator: Adobe Illustrator 18.0.0, SVG Export Plug-In . SVG Version: 6.00 Build 0)  -->
<!DOCTYPE svg PUBLIC "-//W3C//DTD SVG 1.1//EN" "http://www.w3.org/Graphics/SVG/1.1/DTD/svg11.dtd">
<svg version="1.1" id="图层_1" xmlns="http://www.w3.org/2000/svg" xmlns:xlink="http://www.w3.org/1999/xlink" x="0px" y="0px"
	 viewBox="0 0 100 100" enable-background="new 0 0 100 100" xml:space="preserve">
<g>
	<path fill="#FFFFFF" d="M67.7,70.8L79,82.2c-0.1,0.3-0.2,0.7-0.2,1c0,2.3,1.9,4.2,4.2,4.2s4.2-1.9,4.2-4.2c0-2.3-1.9-4.2-4.2-4.2
		c-0.4,0-0.7,0.1-1,0.2L70.3,67.5c0.4-1.1,0-2.4,0-3.8c0-2.6-7.7-5.1-7.7-7.2c0-1.6,0-11.8,0-17.7l18.7-18.1c0.3,0.1,1,0.2,1.3,0.2
		c2.3,0,4.3-1.9,4.3-4.2s-1.8-4.2-4.1-4.2s-4.1,1.9-4.1,4.2c0,0.4,0.1,0.7,0.2,1l-12,12.2c0.3-0.5,0.5-1.1,0.5-2
		c-1.3-3.9-10.7-7.1-13.9-7.1c-3.1,0-3.9,0-7,0s-12.6,3.3-13.9,7.1c0,0.7,0,1.2-0.1,1.7L20.9,17.9c0.1-0.3,0.2-0.7,0.2-1
		c0-2.3-1.9-4.2-4.2-4.2s-4.2,1.9-4.2,4.2s1.9,4.2,4.2,4.2c0.4,0,1.3-0.1,1.7-0.2l18.9,18.2c0,6,0,15.9,0,17.4
		c0,2.1-7.7,4.5-7.7,7.2c0,1.3-0.1,2.5,0.3,3.6l-12,11.8c-0.3-0.1-0.7-0.2-1.1-0.2c-2.3,0-4.2,1.9-4.2,4.2c0,2.3,1.9,4.2,4.2,4.2
		s4.2-1.9,4.2-4.2c0-0.4-0.1-0.7-0.2-1l11.3-11.3c0.1,0,0.2,0.1,0.4,0.1c1.9,0,17.5,0,17.5,0S65.8,70.9,67.7,70.8
		C67.6,70.9,67.6,70.8,67.7,70.8z"/>
	<path fill="#FFFFFF" d="M16.7,33.6v-4.2c-4.2,0-12.4-5.6-12.4-12.5S10,4.2,16.9,4.2s12.6,8.2,12.6,12.4h4.2C33.7,8.3,26.2,0,16.9,0
		S0.1,7.6,0.1,16.8C0.1,26.1,8.3,33.6,16.7,33.6z"/>
	<path fill="#FFFFFF" d="M83.2,4.2c6.9,0,12.5,5.8,12.5,12.7s-8.2,12.5-12.3,12.5v4.2c8.3,0,16.5-7.6,16.5-16.9
		C99.9,7.4,92,0,82.8,0S66.2,8.3,66.2,16.6h4.2C70.4,8.3,76.3,4.2,83.2,4.2z"/>
	<path fill="#FFFFFF" d="M16.8,95.8c-7,0-12.5-5.9-12.5-12.8s8.2-12.4,12.4-12.4v-4.2C8.3,66.4,0.1,74,0.1,83.3
		c0,9.2,7.7,16.7,17,16.7s16.6-8.3,16.6-16.6h-4.2C29.5,87.5,23.7,95.8,16.8,95.8z"/>
	<path fill="#FFFFFF" d="M83.4,66.5v4.2c4.2,0,12.3,5.6,12.3,12.5S90,95.8,83.1,95.8s-12.7-4.1-12.7-12.5h-4.2
		c0,8.3,7.5,16.6,16.7,16.6s16.9-7.5,16.9-16.8C99.9,74,91.7,66.5,83.4,66.5z"/>
</g>
</svg>
