<?xml version="1.0" encoding="utf-8"?>
<!-- Generator: Adobe Illustrator 18.0.0, SVG Export Plug-In . SVG Version: 6.00 Build 0)  -->
<!DOCTYPE svg PUBLIC "-//W3C//DTD SVG 1.1//EN" "http://www.w3.org/Graphics/SVG/1.1/DTD/svg11.dtd">
<svg version="1.1" id="图层_1" xmlns="http://www.w3.org/2000/svg" xmlns:xlink="http://www.w3.org/1999/xlink" x="0px" y="0px"
	 viewBox="0 0 100 100" enable-background="new 0 0 100 100" xml:space="preserve">
<g>
	<path fill="#FFFFFF" d="M98.7,48.9L53.1,3.3c-0.9-0.9-2-1.2-3.1-1.2c-1.1,0-2.3,0.3-3.1,1.2L1.3,48.9c-1.4,1.4-1.7,3.6-0.7,5.3
		c1.5,2.3,4.6,2.5,6.5,0.7l42.2-42.2c0.4-0.4,1.1-0.4,1.5,0l42.2,42.2c1.8,1.8,5,1.6,6.5-0.7C100.4,52.5,100.1,50.3,98.7,48.9z"/>
	<path fill="#FFFFFF" d="M9.4,60.4v34.4c0,1.7,1.4,3.1,3.1,3.1h26c0.6,0,1-0.5,1-1V61.5c0-0.6,0.5-1,1-1h18.8c0.6,0,1,0.5,1,1v35.4
		c0,0.6,0.5,1,1,1h26c1.7,0,3.1-1.4,3.1-3.1V60.4L50.7,20.5c-0.4-0.4-1.1-0.4-1.5,0L9.4,60.4z"/>
</g>
</svg>
