<?xml version="1.0" encoding="utf-8"?>
<!-- Generator: Adobe Illustrator 18.0.0, SVG Export Plug-In . SVG Version: 6.00 Build 0)  -->
<!DOCTYPE svg PUBLIC "-//W3C//DTD SVG 1.1//EN" "http://www.w3.org/Graphics/SVG/1.1/DTD/svg11.dtd">
<svg version="1.1" id="图层_1" xmlns="http://www.w3.org/2000/svg" xmlns:xlink="http://www.w3.org/1999/xlink" x="0px" y="0px"
	 viewBox="0 0 100 100" enable-background="new 0 0 100 100" xml:space="preserve">
<g>
	<path fill="#FFFFFF" d="M50,0C27.6,0,9.4,18.2,9.4,40.6C9.4,69.8,50,100,50,100s40.6-30.6,40.6-59.4C90.6,18.2,72.4,0,50,0z
		 M50,71.9c-17.3,0-31.3-14-31.3-31.3S32.7,9.4,50,9.4s31.3,14,31.3,31.3S67.3,71.9,50,71.9z"/>
	<path fill="#FFFFFF" d="M65.7,44.8H34.3c-0.6,0-1-0.4-1-1v-6.3c0-0.6,0.4-1,1-1h31.3c0.6,0,1,0.4,1,1v6.3
		C66.7,44.3,66.2,44.8,65.7,44.8z"/>
	<path fill="#FFFFFF" d="M54.2,25v31.3c0,0.6-0.4,1-1,1h-6.3c-0.6,0-1-0.4-1-1V25c0-0.6,0.4-1,1-1h6.3C53.7,24,54.2,24.4,54.2,25z"
		/>
</g>
</svg>
