<?xml version="1.0" encoding="utf-8"?>
<!-- Generator: Adobe Illustrator 18.0.0, SVG Export Plug-In . SVG Version: 6.00 Build 0)  -->
<!DOCTYPE svg PUBLIC "-//W3C//DTD SVG 1.1//EN" "http://www.w3.org/Graphics/SVG/1.1/DTD/svg11.dtd">
<svg version="1.1" id="图层_1" xmlns="http://www.w3.org/2000/svg" xmlns:xlink="http://www.w3.org/1999/xlink" x="0px" y="0px"
	 viewBox="0 0 100 100" enable-background="new 0 0 100 100" xml:space="preserve">
<g>
	<path fill="#FFFFFF" d="M50,38.5c-6.3,0-11.5,5.1-11.5,11.5S43.7,61.5,50,61.5S61.5,56.3,61.5,50S56.3,38.5,50,38.5z M50,55.2
		c-2.9,0-5.2-2.3-5.2-5.2s2.3-5.2,5.2-5.2s5.2,2.3,5.2,5.2S52.9,55.2,50,55.2z"/>
	<path fill="#FFFFFF" d="M97.9,45.8h-8.6c-1.9-18.5-16.7-33.3-35.2-35.2V2.1c0-1.1-0.9-2.1-2.1-2.1h-4.2c-1.1,0-2.1,0.9-2.1,2.1v8.6
		c-18.5,1.9-33.3,16.7-35.2,35.2H2.1c-1.1,0-2.1,0.9-2.1,2.1v4.2c0,1.1,0.9,2.1,2.1,2.1h8.6c1.9,18.5,16.7,33.3,35.2,35.2v8.6
		c0,1.1,0.9,2.1,2.1,2.1h4.2c1.1,0,2.1-0.9,2.1-2.1v-8.6c18.5-1.9,33.3-16.7,35.2-35.2h8.6c1.1,0,2.1-0.9,2.1-2.1v-4.2
		C100,46.8,99.1,45.8,97.9,45.8z M54.2,81v-3.9c0-1.1-0.9-2.1-2.1-2.1h-4.2c-1.1,0-2.1,0.9-2.1,2.1V81C31.9,79.1,20.9,68.1,19,54.2
		h3.9c1.1,0,2.1-0.9,2.1-2.1v-4.2c0-1.1-0.9-2.1-2.1-2.1H19C20.9,31.9,31.9,20.9,45.8,19v3.9c0,1.1,0.9,2.1,2.1,2.1h4.2
		c1.1,0,2.1-0.9,2.1-2.1V19C68.1,20.9,79.1,31.9,81,45.8h-3.9c-1.1,0-2.1,0.9-2.1,2.1v4.2c0,1.1,0.9,2.1,2.1,2.1H81
		C79.1,68.1,68.1,79.1,54.2,81z"/>
</g>
</svg>
