<?xml version="1.0" encoding="utf-8"?>
<!-- Generator: Adobe Illustrator 18.0.0, SVG Export Plug-In . SVG Version: 6.00 Build 0)  -->
<!DOCTYPE svg PUBLIC "-//W3C//DTD SVG 1.1//EN" "http://www.w3.org/Graphics/SVG/1.1/DTD/svg11.dtd">
<svg version="1.1" id="图层_1" xmlns="http://www.w3.org/2000/svg" xmlns:xlink="http://www.w3.org/1999/xlink" x="0px" y="0px"
	 viewBox="0 0 100 100" enable-background="new 0 0 100 100" xml:space="preserve">
<path fill="#FFFFFF" d="M32.7,64.6l39.2-22.6c2.9,2.1,6.9,2.5,10.2,0.6c4.5-2.6,6-8.3,3.4-12.8c-1.9-3.3-5.6-5-9.1-4.6l-5.5-9.5
	c2.1-2.9,2.5-6.9,0.6-10.2c-2.6-4.5-8.3-6-12.8-3.4c-3.3,1.9-5,5.6-4.6,9.1L14.9,33.8C12,31.6,8,31.3,4.7,33.2
	c-4.5,2.6-6,8.3-3.4,12.8s8.3,6,12.8,3.4c3.3-1.9,5-5.6,4.6-9.1l39.2-22.6c1.9,1.4,4.3,2,6.6,1.8l5.5,9.5c-1.4,1.9-2,4.3-1.8,6.6
	L28.9,58.1c-2.9-2.1-6.9-2.5-10.2-0.6c-4.5,2.6-6,8.3-3.4,12.8c1.9,3.3,5.6,5,9.1,4.6l5.5,9.5c-2.1,2.9-2.5,6.9-0.6,10.2
	c2.6,4.5,8.3,6,12.8,3.4c3.3-1.9,5-5.6,4.6-9.1l45-26l-1.9,6.9c-0.4,1.7,0.5,3.4,2.2,3.8c1.7,0.4,3.4-0.5,3.8-2.2l4-15.1
	c0.4-1.7-0.5-3.4-2.2-3.8l-15.1-4c-1.7-0.4-3.4,0.5-3.8,2.2c-0.4,1.7,0.5,3.4,2.2,3.8l6.9,1.9l-45,26c-1.9-1.4-4.3-2-6.6-1.8
	l-5.5-9.5C32.3,69.3,33,66.9,32.7,64.6z M11.7,45.3c-2.2,1.3-5.1,0.5-6.4-1.7C4,41.4,4.8,38.5,7,37.2s5.1-0.5,6.4,1.7
	C14.7,41.2,13.9,44,11.7,45.3z M61.1,6c2.2-1.3,5.1-0.5,6.4,1.7s0.5,5.1-1.7,6.4s-5.1,0.5-6.4-1.7S58.8,7.3,61.1,6z M75.1,30.3
	c2.2-1.3,5.1-0.5,6.4,1.7s0.5,5.1-1.7,6.4s-5.1,0.5-6.4-1.7S72.9,31.6,75.1,30.3z M21.1,61.5c2.2-1.3,5.1-0.5,6.4,1.7
	c1.3,2.2,0.5,5.1-1.7,6.4c-2.2,1.3-5.1,0.5-6.4-1.7C18.1,65.7,18.8,62.8,21.1,61.5z M39.8,94c-2.2,1.3-5.1,0.5-6.4-1.7
	c-1.3-2.2-0.5-5.1,1.7-6.4c2.2-1.3,5.1-0.5,6.4,1.7C42.8,89.8,42,92.7,39.8,94z"/>
</svg>
