<?xml version="1.0" encoding="utf-8"?>
<!-- Generator: Adobe Illustrator 18.0.0, SVG Export Plug-In . SVG Version: 6.00 Build 0)  -->
<!DOCTYPE svg PUBLIC "-//W3C//DTD SVG 1.1//EN" "http://www.w3.org/Graphics/SVG/1.1/DTD/svg11.dtd">
<svg version="1.1" id="图层_1" xmlns="http://www.w3.org/2000/svg" xmlns:xlink="http://www.w3.org/1999/xlink" x="0px" y="0px"
	 viewBox="0 0 96 96" enable-background="new 0 0 96 96" xml:space="preserve">
<g>
	<circle opacity="0.6" cx="48" cy="48" r="40.5"/>
	<path opacity="0.6" d="M48,0C21.5,0,0,21.5,0,48c0,26.5,21.5,48,48,48s48-21.5,48-48C96,21.5,74.5,0,48,0z M48,91.5
		C24,91.5,4.5,72,4.5,48C4.5,24,24,4.5,48,4.5S91.5,24,91.5,48C91.5,72,72,91.5,48,91.5z"/>
	<g>
		<g opacity="0.35">
			<path d="M38.8,55l19.9-11.5c1.3,1.2,3.2,1.4,4.7,0.5c1.9-1.1,2.6-3.6,1.5-5.5c-0.9-1.6-2.7-2.3-4.4-1.9l-3-5.2
				c1.2-1.3,1.4-3.2,0.5-4.7c-1.1-1.9-3.6-2.6-5.5-1.5c-1.6,0.9-2.3,2.7-1.9,4.4L30.8,41.1c-1.3-1.2-3.2-1.4-4.7-0.5
				c-1.9,1.1-2.6,3.6-1.5,5.5c1.1,1.9,3.6,2.6,5.5,1.5c1.6-0.9,2.3-2.7,1.9-4.4l19.9-11.5c1,0.9,2.3,1.3,3.6,1l3,5.2
				c-0.9,1-1.3,2.3-1,3.6L37.6,52.9c-1.3-1.2-3.2-1.4-4.7-0.5c-1.9,1.1-2.6,3.6-1.5,5.5c0.9,1.6,2.7,2.3,4.4,1.9l3,5.2
				c-1.2,1.3-1.4,3.2-0.5,4.7c1.1,1.9,3.6,2.6,5.5,1.5c1.6-0.9,2.3-2.7,1.9-4.4l23-13.3l-1.3,4.4c-0.2,0.7,0.2,1.3,0.9,1.5
				c0.7,0.2,1.4-0.2,1.6-0.9l2.2-7.2c0.1-0.4,0-0.7-0.1-1c-0.2-0.3-0.4-0.5-0.8-0.6l-7.3-1.7c-0.7-0.2-1.4,0.2-1.6,0.9
				c-0.2,0.7,0.2,1.3,0.9,1.5l4.5,1.1l-23,13.3c-1-0.9-2.3-1.3-3.6-1l-3-5.2C38.8,57.7,39.1,56.3,38.8,55z M29.2,46.1
				c-1.2,0.7-2.6,0.3-3.3-0.9c-0.7-1.2-0.3-2.6,0.9-3.3c1.2-0.7,2.6-0.3,3.3,0.9C30.8,44,30.4,45.5,29.2,46.1z M52.5,29.9
				c-0.7-1.2-0.3-2.6,0.9-3.3c1.2-0.7,2.6-0.3,3.3,0.9c0.7,1.2,0.3,2.6-0.9,3.3C54.7,31.5,53.2,31.1,52.5,29.9z M60.2,38.5
				c1.2-0.7,2.6-0.3,3.3,0.9c0.7,1.2,0.3,2.6-0.9,3.3c-1.2,0.7-2.6,0.3-3.3-0.9C58.7,40.6,59.1,39.2,60.2,38.5z M32.8,57.1
				c-0.7-1.2-0.3-2.6,0.9-3.3c1.2-0.7,2.6-0.3,3.3,0.9c0.7,1.2,0.3,2.6-0.9,3.3C34.9,58.7,33.5,58.3,32.8,57.1z M43.9,66.6
				c0.7,1.2,0.3,2.6-0.9,3.3c-1.2,0.7-2.6,0.3-3.3-0.9c-0.7-1.2-0.3-2.6,0.9-3.3C41.7,65,43.2,65.4,43.9,66.6z"/>
		</g>
		<g>
			<linearGradient id="SVGID_1_" gradientUnits="userSpaceOnUse" x1="48" y1="23.6633" x2="48" y2="70.8367">
				<stop  offset="0" style="stop-color:#2BFFA6"/>
				<stop  offset="1" style="stop-color:#34FFFF"/>
			</linearGradient>
			<path fill="url(#SVGID_1_)" d="M38.8,54l19.9-11.5c1.3,1.2,3.2,1.4,4.7,0.5c1.9-1.1,2.6-3.6,1.5-5.5c-0.9-1.6-2.7-2.3-4.4-1.9
				l-3-5.2c1.2-1.3,1.4-3.2,0.5-4.7c-1.1-1.9-3.6-2.6-5.5-1.5c-1.6,0.9-2.3,2.7-1.9,4.4L30.8,40.1c-1.3-1.2-3.2-1.4-4.7-0.5
				c-1.9,1.1-2.6,3.6-1.5,5.5c1.1,1.9,3.6,2.6,5.5,1.5c1.6-0.9,2.3-2.7,1.9-4.4l19.9-11.5c1,0.9,2.3,1.3,3.6,1l3,5.2
				c-0.9,1-1.3,2.3-1,3.6L37.6,51.9c-1.3-1.2-3.2-1.4-4.7-0.5c-1.9,1.1-2.6,3.6-1.5,5.5c0.9,1.6,2.7,2.3,4.4,1.9l3,5.2
				c-1.2,1.3-1.4,3.2-0.5,4.7c1.1,1.9,3.6,2.6,5.5,1.5c1.6-0.9,2.3-2.7,1.9-4.4l23-13.3l-1.3,4.4c-0.2,0.7,0.2,1.3,0.9,1.5
				c0.7,0.2,1.4-0.2,1.6-0.9l2.2-7.2c0.1-0.4,0-0.7-0.1-1c-0.2-0.3-0.4-0.5-0.8-0.6l-7.3-1.7c-0.7-0.2-1.4,0.2-1.6,0.9
				c-0.2,0.7,0.2,1.3,0.9,1.5l4.5,1.1l-23,13.3c-1-0.9-2.3-1.3-3.6-1l-3-5.2C38.8,56.7,39.1,55.3,38.8,54z M29.2,45.1
				c-1.2,0.7-2.6,0.3-3.3-0.9c-0.7-1.2-0.3-2.6,0.9-3.3c1.2-0.7,2.6-0.3,3.3,0.9C30.8,43,30.4,44.5,29.2,45.1z M52.5,28.9
				c-0.7-1.2-0.3-2.6,0.9-3.3c1.2-0.7,2.6-0.3,3.3,0.9c0.7,1.2,0.3,2.6-0.9,3.3C54.7,30.5,53.2,30.1,52.5,28.9z M60.2,37.5
				c1.2-0.7,2.6-0.3,3.3,0.9c0.7,1.2,0.3,2.6-0.9,3.3c-1.2,0.7-2.6,0.3-3.3-0.9C58.7,39.6,59.1,38.2,60.2,37.5z M32.8,56.1
				c-0.7-1.2-0.3-2.6,0.9-3.3c1.2-0.7,2.6-0.3,3.3,0.9c0.7,1.2,0.3,2.6-0.9,3.3C34.9,57.7,33.5,57.3,32.8,56.1z M43.9,65.6
				c0.7,1.2,0.3,2.6-0.9,3.3c-1.2,0.7-2.6,0.3-3.3-0.9c-0.7-1.2-0.3-2.6,0.9-3.3C41.7,64,43.2,64.4,43.9,65.6z"/>
		</g>
	</g>
</g>
</svg>
