<?xml version="1.0" encoding="utf-8"?>
<!-- Generator: Adobe Illustrator 18.0.0, SVG Export Plug-In . SVG Version: 6.00 Build 0)  -->
<!DOCTYPE svg PUBLIC "-//W3C//DTD SVG 1.1//EN" "http://www.w3.org/Graphics/SVG/1.1/DTD/svg11.dtd">
<svg version="1.1" id="图层_1" xmlns="http://www.w3.org/2000/svg" xmlns:xlink="http://www.w3.org/1999/xlink" x="0px" y="0px"
	 viewBox="0 0 100 100" enable-background="new 0 0 100 100" xml:space="preserve">
<g>
	<g>
		<path fill="#FFFFFF" d="M52.9,89.8c-8.2,0-15.1-5.2-15.4-14.8c0-0.4,0-6.3,0-6.3V38.5h14.6L30.2,15.6L7.3,38.5h14.6V75
			c0,0.3,0,0.7,0,1c0,13.1,7.2,24,20.2,24c10,0,19-5.9,22.5-14.6C64.3,85.6,56.9,89.8,52.9,89.8z"/>
	</g>
	<g>
		<path fill="#FFFFFF" d="M47.1,10.2c8.2,0,15.1,5.2,15.4,14.8c0,0.4,0,6.3,0,6.3v30.2H47.9l21.9,22.9l22.9-22.9H78.1V25
			c0-0.3,0-0.7,0-1c0-13.1-7.2-24-20.2-24c-10,0-19,5.9-22.5,14.6C35.7,14.4,43.1,10.2,47.1,10.2z"/>
	</g>
</g>
</svg>
