<?xml version="1.0" encoding="utf-8"?>
<!-- Generator: Adobe Illustrator 18.0.0, SVG Export Plug-In . SVG Version: 6.00 Build 0)  -->
<!DOCTYPE svg PUBLIC "-//W3C//DTD SVG 1.1//EN" "http://www.w3.org/Graphics/SVG/1.1/DTD/svg11.dtd">
<svg version="1.1" id="图层_1" xmlns="http://www.w3.org/2000/svg" xmlns:xlink="http://www.w3.org/1999/xlink" x="0px" y="0px"
	 viewBox="0 0 96 96" enable-background="new 0 0 96 96" xml:space="preserve">
<g>
	<circle opacity="0.6" cx="48" cy="48" r="40.5"/>
	<path opacity="0.6" d="M48,0C21.5,0,0,21.5,0,48c0,26.5,21.5,48,48,48s48-21.5,48-48C96,21.5,74.5,0,48,0z M48,91.5
		C24,91.5,4.5,72,4.5,48C4.5,24,24,4.5,48,4.5S91.5,24,91.5,48C91.5,72,72,91.5,48,91.5z"/>
	<g>
		<g opacity="0.35">
			<path d="M48,53.3l22.5-14.5L48,24.3L25.5,38.8l1.8,1.2L48,53.3z"/>
			<polygon points="64.7,45.6 64.1,45.3 62.6,47.5 63.1,47.9 64.4,48.7 65.3,49.2 48,60 30.7,49.2 31.6,48.7 33.4,47.5 31.9,45.3 
				30.1,46.4 25.5,49.2 48,63.3 70.5,49.2 65.9,46.4 			"/>
			<polygon points="62.6,46.6 62.6,46.6 62.6,46.6 			"/>
			<polygon points="64.7,54.6 64.1,54.3 62.6,56.5 63.1,56.9 64.4,57.7 65.3,58.2 48,69 30.7,58.2 31.6,57.7 33.4,56.5 31.9,54.3 
				30.1,55.4 25.5,58.2 48,72.3 70.5,58.2 65.9,55.4 			"/>
			<polygon points="62.6,56 62.6,56 62.6,56 			"/>
		</g>
		<g>
			<g>
				<linearGradient id="SVGID_1_" gradientUnits="userSpaceOnUse" x1="48" y1="23.25" x2="48" y2="52.3359">
					<stop  offset="0" style="stop-color:#2BFFA6"/>
					<stop  offset="1" style="stop-color:#34FFFF"/>
				</linearGradient>
				<path fill="url(#SVGID_1_)" d="M48,52.3l22.5-14.5L48,23.3L25.5,37.8l1.8,1.2L48,52.3z"/>
				<linearGradient id="SVGID_2_" gradientUnits="userSpaceOnUse" x1="48" y1="44.25" x2="48" y2="62.25">
					<stop  offset="0" style="stop-color:#2BFFA6"/>
					<stop  offset="1" style="stop-color:#34FFFF"/>
				</linearGradient>
				<polygon fill="url(#SVGID_2_)" points="64.7,44.6 64.1,44.3 62.6,46.5 63.1,46.9 64.4,47.7 65.3,48.2 48,59 30.7,48.2 
					31.6,47.7 33.4,46.5 31.9,44.3 30.1,45.4 25.5,48.2 48,62.3 70.5,48.2 65.9,45.4 				"/>
				<linearGradient id="SVGID_3_" gradientUnits="userSpaceOnUse" x1="62.5983" y1="45.6498" x2="62.5983" y2="45.6499">
					<stop  offset="0" style="stop-color:#2BFFA6"/>
					<stop  offset="1" style="stop-color:#34FFFF"/>
				</linearGradient>
				<polygon fill="url(#SVGID_3_)" points="62.6,45.6 62.6,45.6 62.6,45.6 				"/>
				<linearGradient id="SVGID_4_" gradientUnits="userSpaceOnUse" x1="48" y1="53.25" x2="48" y2="71.25">
					<stop  offset="0" style="stop-color:#2BFFA6"/>
					<stop  offset="1" style="stop-color:#34FFFF"/>
				</linearGradient>
				<polygon fill="url(#SVGID_4_)" points="64.7,53.6 64.1,53.3 62.6,55.5 63.1,55.9 64.4,56.7 65.3,57.2 48,68 30.7,57.2 
					31.6,56.7 33.4,55.5 31.9,53.3 30.1,54.4 25.5,57.2 48,71.3 70.5,57.2 65.9,54.4 				"/>
				<linearGradient id="SVGID_5_" gradientUnits="userSpaceOnUse" x1="62.5983" y1="54.9705" x2="62.5983" y2="54.9706">
					<stop  offset="0" style="stop-color:#2BFFA6"/>
					<stop  offset="1" style="stop-color:#34FFFF"/>
				</linearGradient>
				<polygon fill="url(#SVGID_5_)" points="62.6,55 62.6,55 62.6,55 				"/>
			</g>
		</g>
	</g>
</g>
</svg>
