<?xml version="1.0" encoding="utf-8"?>
<!-- Generator: Adobe Illustrator 18.0.0, SVG Export Plug-In . SVG Version: 6.00 Build 0)  -->
<!DOCTYPE svg PUBLIC "-//W3C//DTD SVG 1.1//EN" "http://www.w3.org/Graphics/SVG/1.1/DTD/svg11.dtd">
<svg version="1.1" id="图层_1" xmlns="http://www.w3.org/2000/svg" xmlns:xlink="http://www.w3.org/1999/xlink" x="0px" y="0px"
	 viewBox="0 0 100 100" enable-background="new 0 0 100 100" xml:space="preserve">
<g>
	<path fill="#FFFFFF" d="M50,60.6l46.9-30.3L50,0L3.1,30.3l3.8,2.5L50,60.6z"/>
	<polygon fill="#FFFFFF" points="84.7,44.5 83.6,43.8 80.4,48.5 81.5,49.2 84.1,50.8 86.1,52 50,74.5 13.9,52 15.8,50.9 19.6,48.5 
		16.4,43.8 12.6,46.1 3.1,52 50,81.3 96.9,52 87.3,46.1 	"/>
	<polygon fill="#FFFFFF" points="80.4,46.7 80.4,46.7 80.4,46.7 	"/>
	<polygon fill="#FFFFFF" points="84.7,63.2 83.6,62.5 80.4,67.3 81.5,68 84.1,69.6 86.1,70.8 50,93.3 13.9,70.8 15.8,69.6 
		19.6,67.2 16.4,62.5 12.6,64.9 3.1,70.8 50,100 96.9,70.8 87.3,64.8 	"/>
	<polygon fill="#FFFFFF" points="80.4,66.1 80.4,66.1 80.4,66.1 	"/>
</g>
</svg>
