<?xml version="1.0" encoding="utf-8"?>
<!-- Generator: Adobe Illustrator 18.0.0, SVG Export Plug-In . SVG Version: 6.00 Build 0)  -->
<!DOCTYPE svg PUBLIC "-//W3C//DTD SVG 1.0//EN" "http://www.w3.org/TR/2001/REC-SVG-20010904/DTD/svg10.dtd">
<svg version="1.0" id="图层_1" xmlns="http://www.w3.org/2000/svg" xmlns:xlink="http://www.w3.org/1999/xlink" x="0px" y="0px"
	 viewBox="0 0 100 100" enable-background="new 0 0 100 100" xml:space="preserve">
<path id="MICROPHONE__x2F__OFF_2_" fill-rule="evenodd" clip-rule="evenodd" fill="#E43A3D" d="M92,25.6L92,25.6L10.6,78.8l0,0l0,0
	l0,0c-0.4,0.2-0.8,0.4-1.3,0.4c-1.3,0-2.3-1-2.3-2.3c0-0.8,0.4-1.5,1.1-2l0,0l81.4-53.3l0,0l0,0l0,0c0.4-0.2,0.8-0.4,1.3-0.4
	c1.3,0,2.3,1,2.3,2.3C93,24.4,92.6,25.1,92,25.6z M31.3,43.7v-25C31.3,8.4,39.7,0,50.1,0c10.4,0,18.7,8.4,18.7,18.7v10.8L33.5,52.6
	C32.1,50,31.3,46.9,31.3,43.7z M15.7,45.3C15.7,45.3,15.7,45.3,15.7,45.3C15.7,45.3,15.7,45.3,15.7,45.3c0-2.6,2.1-4.7,4.7-4.7
	c2.6,0,4.7,2.1,4.7,4.7h0c0,4,1,7.8,2.6,11.1l-7.9,5.2C17.2,56.7,15.7,51.2,15.7,45.3z M45.1,61.8l23.5-15.4
	c-1.3,9.1-9.1,16-18.5,16C48.4,62.5,46.7,62.3,45.1,61.8z M29.8,90.6h15.6V79.3C39.2,78.5,33.6,76,29,72.4l8.5-5.5
	c3.7,2.2,8,3.5,12.7,3.5c0.1,0,0.1,0,0.2,0l0,0c0.7,0,1.4-0.1,2.1-0.1c0.4,0,0.8-0.1,1.1-0.1C65.7,68.4,75.1,58,75.1,45.3h0
	c0-2.6,2.1-4.7,4.7-4.7c2.6,0,4.7,2.1,4.7,4.7c0,0,0,0,0,0c0,0,0,0,0,0c0,17.4-12.9,31.7-29.7,34v11.3h15.6c2.6,0,4.7,2.1,4.7,4.7
	c0,2.6-2.1,4.7-4.7,4.7H54.5l0,0H29.8c-2.6,0-4.7-2.1-4.7-4.7C25.1,92.7,27.2,90.6,29.8,90.6z"/>
</svg>
