<?xml version="1.0" encoding="utf-8"?>
<!-- Generator: Adobe Illustrator 21.0.2, SVG Export Plug-In . SVG Version: 6.00 Build 0)  -->
<svg version="1.1" id="图层_1" xmlns="http://www.w3.org/2000/svg" xmlns:xlink="http://www.w3.org/1999/xlink" x="0px" y="0px"
	 viewBox="0 0 100 100" style="enable-background:new 0 0 100 100;" xml:space="preserve">
<style type="text/css">
	.st0{fill:url(#SVGID_1_);}
	.st1{fill:#FF7C1D;}
	.st2{fill:url(#SVGID_2_);}
</style>
<g>
	
		<linearGradient id="SVGID_1_" gradientUnits="userSpaceOnUse" x1="-1127.8427" y1="47.3763" x2="-1114.3959" y2="97.5607" gradientTransform="matrix(-1 0 -0.7321 1 -999.261 0)">
		<stop  offset="0" style="stop-color:#000000;stop-opacity:0"/>
		<stop  offset="3.326422e-02" style="stop-color:#000000;stop-opacity:2.494816e-02"/>
		<stop  offset="1" style="stop-color:#000000;stop-opacity:0.75"/>
	</linearGradient>
	<path class="st0" d="M40.3,67.9C30.8,81.4,55.4,86.6,51,100c15.5-13.5,46.1-18.6,55.6-32.1c7.8-11.2-0.7-20.3-19-20.3
		S48.1,56.7,40.3,67.9z"/>
	<path class="st1" d="M35,76.2C41.4,83,47.4,90.4,50,100c2.2-9.6,8-17,14.6-23.8H35z"/>
	<linearGradient id="SVGID_2_" gradientUnits="userSpaceOnUse" x1="49.9957" y1="0" x2="49.9957" y2="76.1905">
		<stop  offset="0" style="stop-color:#FFAC4A"/>
		<stop  offset="0.1513" style="stop-color:#FF9E3D"/>
		<stop  offset="0.4227" style="stop-color:#FF8B2B"/>
		<stop  offset="0.7022" style="stop-color:#FF8020"/>
		<stop  offset="1" style="stop-color:#FF7C1D"/>
	</linearGradient>
	<path class="st2" d="M88.1,38.1L88.1,38.1C88.1,17.1,71,0,50,0S11.9,17.1,11.9,38.1l0,0l33.4,32.6c0,0.2-0.1,0.5-0.1,0.8
		c0,2.6,2.1,4.8,4.8,4.8c2.6,0,4.8-2.1,4.8-4.8c0-0.3,0-0.5-0.1-0.8L88.1,38.1z M80.2,38.1L80.2,38.1L59.4,59.2
		c-0.4,0.4-1-0.1-0.8-0.5L71.2,32l0,0c0.9-0.7,2-1.1,3.1-1.1C77.6,31,80.2,34.2,80.2,38.1z M50,27.4c7,0,12.7,4.4,13.1,10.1
		c0,0.4-0.1,0.8-0.2,1.2L51.1,63.6c-0.4,0.9-1.7,0.9-2.2,0L37.2,38.6c-0.2-0.4-0.3-0.8-0.2-1.2C37.3,31.8,43,27.4,50,27.4z
		 M19.8,38.1c0-3.9,2.7-7.1,6-7.1c1.1,0,2.2,0.4,3.1,1.1l0,0l12.5,26.6c0.2,0.5-0.4,0.9-0.8,0.5L19.8,38.1L19.8,38.1z"/>
</g>
</svg>
