<?xml version="1.0" encoding="utf-8"?>
<!-- Generator: Adobe Illustrator 21.0.2, SVG Export Plug-In . SVG Version: 6.00 Build 0)  -->
<svg version="1.1" id="图层_1" xmlns="http://www.w3.org/2000/svg" xmlns:xlink="http://www.w3.org/1999/xlink" x="0px" y="0px"
	 viewBox="0 0 100 100" style="enable-background:new 0 0 100 100;" xml:space="preserve">
<style type="text/css">
	.st0{fill:#FFFFFF;}
</style>
<path class="st0" d="M100,50L100,50c0-27.6-22.4-50-50-50S0,22.4,0,50l0,0l43.9,42.8c-0.1,0.3-0.1,0.7-0.1,1c0,3.5,2.8,6.3,6.3,6.3
	s6.3-2.8,6.3-6.3c0-0.3,0-0.7-0.1-1L100,50z M89.7,50L89.7,50L62.4,77.7c-0.5,0.5-1.3-0.1-1-0.7L77.8,42l0,0
	c1.2-0.9,2.6-1.4,4.1-1.4C86.2,40.6,89.7,44.8,89.7,50z M50,35.9c9.1,0,16.6,5.8,17.2,13.2c0,0.5-0.1,1.1-0.3,1.5L51.4,83.4
	c-0.6,1.2-2.3,1.2-2.8,0L33.2,50.7c-0.2-0.5-0.4-1-0.3-1.5C33.4,41.8,40.9,35.9,50,35.9z M10.3,50c0-5.2,3.5-9.4,7.8-9.4
	c1.5,0,2.9,0.5,4.1,1.4l0,0l16.4,34.9c0.3,0.6-0.5,1.2-1,0.7L10.3,50L10.3,50z"/>
</svg>
