<?xml version="1.0" encoding="utf-8"?>
<!-- Generator: Adobe Illustrator 21.0.2, SVG Export Plug-In . SVG Version: 6.00 Build 0)  -->
<svg version="1.1" id="图层_1" xmlns="http://www.w3.org/2000/svg" xmlns:xlink="http://www.w3.org/1999/xlink" x="0px" y="0px"
	 viewBox="0 0 100 100" style="enable-background:new 0 0 100 100;" xml:space="preserve">
<style type="text/css">
	.st0{fill:url(#SVGID_1_);}
	.st1{fill-rule:evenodd;clip-rule:evenodd;fill:#FFFFFF;}
</style>
<g>
	<linearGradient id="SVGID_1_" gradientUnits="userSpaceOnUse" x1="50" y1="0" x2="50" y2="100">
		<stop  offset="0" style="stop-color:#8E87EA"/>
		<stop  offset="0.1895" style="stop-color:#857EDD"/>
		<stop  offset="0.5404" style="stop-color:#6D67BB"/>
		<stop  offset="1" style="stop-color:#484385"/>
	</linearGradient>
	<circle class="st0" cx="50" cy="50" r="50"/>
	<g>
		<g>
			<path class="st1" d="M51.1,26.6c3.9,0,7.1-3.1,7.1-7c0-3.9-3.2-7-7.1-7c-3.9,0-6.9,3.1-6.9,7C44.2,23.4,47.2,26.6,51.1,26.6z
				 M60.4,28.9H38.9c0,0-3.1-0.4-4.1,2.3v21.2c0,0,0.1,2.2,2.3,2.2c0,0,2.4,0,2.4-2.3V39.5c0,0,1.3-2.9,2.3,0.1l0,45.5
				c0,0-0.1,2.3,2.3,2.3l2.4,0c0,0,2.3,0,2.3-2.4V64c0,0,0.1-1.2,1.3-1.2c0,0,1.1,0.4,1.1,1.2v21.3c0,0,0,2.1,2.3,2.1h2.4
				c0,0,2.3-0.1,2.3-2.1V39.5c0,0,0.8-2.7,2.3,0l0.1,13c0,0-0.5,2.2,2.4,2.2c2.2,0,2.2-2.1,2.2-2.1l0-21.3
				C65.2,31.2,64.1,28.9,60.4,28.9z"/>
		</g>
	</g>
</g>
</svg>
