<?xml version="1.0" encoding="utf-8"?>
<!-- Generator: Adobe Illustrator 18.0.0, SVG Export Plug-In . SVG Version: 6.00 Build 0)  -->
<!DOCTYPE svg PUBLIC "-//W3C//DTD SVG 1.1//EN" "http://www.w3.org/Graphics/SVG/1.1/DTD/svg11.dtd">
<svg version="1.1" id="图层_1" xmlns="http://www.w3.org/2000/svg" xmlns:xlink="http://www.w3.org/1999/xlink" x="0px" y="0px"
	 viewBox="0 0 96 72" enable-background="new 0 0 96 72" xml:space="preserve">
<g>
	<path fill="#1A1F22" d="M96,72H0V0h90c3.3,0,6,2.7,6,6V72z"/>
	<g>
		<g opacity="0.35">
			<path d="M68.4,20.4H38.2c-0.5,0-0.9,0.4-0.9,0.9v22.2c0,0.5,0.4,0.9,0.9,0.9h30.2c0.5,0,0.9-0.4,0.9-0.9V21.3
				C69.3,20.8,68.9,20.4,68.4,20.4z M66.2,40.9c0,0.2-0.2,0.4-0.4,0.4H40.9c-0.2,0-0.4-0.2-0.4-0.4V24c0-0.2,0.2-0.4,0.4-0.4h24.9
				c0.2,0,0.4,0.2,0.4,0.4V40.9z"/>
			<path d="M54.2,47.1h-1.3c-0.5,0-0.9,0.4-0.9,0.9v2.7c0,0.2-0.2,0.4-0.4,0.4H30.2c-0.2,0-0.4-0.2-0.4-0.4V36.4
				c0-0.2,0.2-0.4,0.4-0.4h3.6c0.5,0,0.9-0.4,0.9-0.9v-1.3c0-0.5-0.4-0.9-0.9-0.9h-6.2c-0.5,0-0.9,0.4-0.9,0.9v19.6
				c0,0.5,0.4,0.9,0.9,0.9h26.7c0.5,0,0.9-0.4,0.9-0.9V48C55.1,47.5,54.7,47.1,54.2,47.1z"/>
			<path d="M64.4,26.4C64.4,26.4,64.4,26.4,64.4,26.4c-0.1-0.3-0.2-0.5-0.4-0.7v0c-0.2-0.2-0.4-0.3-0.7-0.4c0,0,0,0,0,0
				c-0.1,0-0.2,0-0.3,0l0,0H56c-0.7,0-1.3,0.6-1.3,1.3c0,0.7,0.6,1.3,1.3,1.3h3.9l-7.2,7.2c-0.5,0.5-0.5,1.4,0,1.9
				c0.5,0.5,1.4,0.5,1.9,0l7.2-7.2v3.9c0,0.7,0.6,1.3,1.3,1.3s1.3-0.6,1.3-1.3v-7.1l0,0C64.4,26.6,64.4,26.5,64.4,26.4z"/>
		</g>
		<g>
			<path fill="#8EA6B1" d="M68.4,19.1H38.2c-0.5,0-0.9,0.4-0.9,0.9v22.2c0,0.5,0.4,0.9,0.9,0.9h30.2c0.5,0,0.9-0.4,0.9-0.9V20
				C69.3,19.5,68.9,19.1,68.4,19.1z M66.2,39.6c0,0.2-0.2,0.4-0.4,0.4H40.9c-0.2,0-0.4-0.2-0.4-0.4V22.7c0-0.2,0.2-0.4,0.4-0.4h24.9
				c0.2,0,0.4,0.2,0.4,0.4V39.6z"/>
			<path fill="#8EA6B1" d="M54.2,45.8h-1.3c-0.5,0-0.9,0.4-0.9,0.9v2.7c0,0.2-0.2,0.4-0.4,0.4H30.2c-0.2,0-0.4-0.2-0.4-0.4V35.1
				c0-0.2,0.2-0.4,0.4-0.4h3.6c0.5,0,0.9-0.4,0.9-0.9v-1.3c0-0.5-0.4-0.9-0.9-0.9h-6.2c-0.5,0-0.9,0.4-0.9,0.9V52
				c0,0.5,0.4,0.9,0.9,0.9h26.7c0.5,0,0.9-0.4,0.9-0.9v-5.3C55.1,46.2,54.7,45.8,54.2,45.8z"/>
			<path fill="#8EA6B1" d="M64.4,25.1C64.4,25.1,64.4,25.1,64.4,25.1c-0.1-0.3-0.2-0.5-0.4-0.7v0c-0.2-0.2-0.4-0.3-0.7-0.4
				c0,0,0,0,0,0c-0.1,0-0.2,0-0.3,0l0,0H56c-0.7,0-1.3,0.6-1.3,1.3c0,0.7,0.6,1.3,1.3,1.3h3.9l-7.2,7.2c-0.5,0.5-0.5,1.4,0,1.9
				c0.5,0.5,1.4,0.5,1.9,0l7.2-7.2v3.9c0,0.7,0.6,1.3,1.3,1.3s1.3-0.6,1.3-1.3v-7.1l0,0C64.4,25.2,64.4,25.2,64.4,25.1z"/>
		</g>
	</g>
</g>
</svg>
