<?xml version="1.0" encoding="utf-8"?>
<!-- Generator: Adobe Illustrator 18.0.0, SVG Export Plug-In . SVG Version: 6.00 Build 0)  -->
<!DOCTYPE svg PUBLIC "-//W3C//DTD SVG 1.1//EN" "http://www.w3.org/Graphics/SVG/1.1/DTD/svg11.dtd">
<svg version="1.1" id="图层_1" xmlns="http://www.w3.org/2000/svg" xmlns:xlink="http://www.w3.org/1999/xlink" x="0px" y="0px"
	 viewBox="0 0 100 100" enable-background="new 0 0 100 100" xml:space="preserve">
<g>
	<path fill="#FFFFFF" d="M50.6,51.7l18.3-21.1H57.6C63.4,8.2,83.9,19,91.3,28c-16.8-43.3-52.8-17.6-50.1,2.6h-10L50.6,51.7z"/>
	<path fill="#FFFFFF" d="M67.3,45l-2.5,2.9c15.4,2.7,26.3,9.3,26.3,17.1c0,10.1-18.4,18.3-41.1,18.3S8.9,75.1,8.9,65
		c0-8,11.5-14.8,27.6-17.3l-2.7-2.9C14.2,48.3,0,58,0,69.5c0,14.4,22.4,26.1,50,26.1s50-11.7,50-26.1C100,58.2,86.4,48.6,67.3,45z"
		/>
	<polygon fill="#FFFFFF" points="31.1,52.8 25.6,75 41.7,75 42.8,63.9 57.2,63.9 58.3,75 74.4,75 68.9,52.8 56.1,52.8 56.7,58.3 
		43.3,58.3 43.9,52.8 	"/>
</g>
</svg>
