<svg id="图层_1" data-name="图层 1" xmlns="http://www.w3.org/2000/svg" viewBox="0 0 100 100"><defs><style>.cls-1{fill:#fff;}</style></defs><title>ruler</title><polygon class="cls-1" points="0 9.38 6.25 9.38 6.25 12.5 0 12.5 0 25 9.38 25 9.38 28.13 0 28.13 0 40.63 6.25 40.63 6.25 43.75 0 43.75 0 56.25 6.25 56.25 6.25 59.38 0 59.38 0 71.88 9.38 71.88 9.38 75 0 75 0 87.5 6.25 87.5 6.25 90.63 0 90.63 0 100 15.63 100 15.63 0 0 0 0 9.38"/><path class="cls-1" d="M100,100,21.88,0V21.88h6.25V25H21.88V37.5h6.25v3.13H21.88v12.5h6.25v3.13H21.88v12.5h6.25v3.13H21.88v12.5h6.25V87.5H21.88V100h9.38V93.75h3.13V100h12.5V93.75H50V100H62.5V93.75h3.13V100h12.5V93.75h3.13V100ZM34.38,87.5v-50l37.5,50Z"/></svg>