<?xml version="1.0" encoding="utf-8"?>
<!-- Generator: Adobe Illustrator 18.0.0, SVG Export Plug-In . SVG Version: 6.00 Build 0)  -->
<!DOCTYPE svg PUBLIC "-//W3C//DTD SVG 1.1//EN" "http://www.w3.org/Graphics/SVG/1.1/DTD/svg11.dtd">
<svg version="1.1" id="图层_1" xmlns="http://www.w3.org/2000/svg" xmlns:xlink="http://www.w3.org/1999/xlink" x="0px" y="0px"
	 viewBox="0 0 100 100" enable-background="new 0 0 100 100" xml:space="preserve">
<g>
	<path fill="#FFFFFF" d="M99.8,9.2c-6.4-4.1-14-6.4-22.1-6.4c-20.9,0-38.2,15.5-40.9,35.7H26.1l21.2,29.3l21.2-29.3H56.3
		c1.5-16.8,15.6-30,32.8-30c3.6,0,7,0.6,10.3,1.7C99.9,10.3,100.3,9.5,99.8,9.2z"/>
	<path fill="#FFFFFF" d="M7.4,48.9c0-1.1,0.9-2,2-2h13.3l-8.4-11.8H5.7c-1.1,0-2,0.9-2,2v4.7v7.5v1.3h3.7V48.9z"/>
	<path fill="#FFFFFF" d="M76.6,50.7v-6.8c0-1-0.8-1.8-1.8-2L71.2,47c1,0.1,1.7,0.9,1.7,2v1.7H76.6z"/>
	<path fill="#FFFFFF" d="M78.3,54.8H65.4L46.6,80.4L28.4,54.8H2.1c-1.2,0-2.1,0.9-2,2.1l3.2,38.6c0.1,1,1.1,1.7,2.2,1.7h69.5
		c1.1,0,2.1-0.8,2.2-1.7l3.2-38.6C80.4,55.8,79.5,54.8,78.3,54.8z"/>
</g>
</svg>
