<?xml version="1.0" encoding="utf-8"?>
<!-- Generator: Adobe Illustrator 18.0.0, SVG Export Plug-In . SVG Version: 6.00 Build 0)  -->
<!DOCTYPE svg PUBLIC "-//W3C//DTD SVG 1.0//EN" "http://www.w3.org/TR/2001/REC-SVG-20010904/DTD/svg10.dtd">
<svg version="1.0" id="图层_1" xmlns="http://www.w3.org/2000/svg" xmlns:xlink="http://www.w3.org/1999/xlink" x="0px" y="0px"
	 viewBox="0 0 283.5 283.5" enable-background="new 0 0 283.5 283.5" xml:space="preserve">
<g>
	<path fill="#FFFFFF" d="M43,192c0-34.3,27.8-62.2,62.2-62.2h42.1v-19c-12.6-6.5-26.9-10.3-42.1-10.3c-30,0-56.5,14.5-73.2,36.7
		v109.4c16.7,22.3,43.2,36.7,73.2,36.7c15.2,0,29.5-3.8,42.1-10.3v-19h-42.1C70.8,254.2,43,226.4,43,192z"/>
	<path fill="#FFFFFF" d="M150.9,129.8h21.2c-6.2-6.6-13.3-12.4-21.2-16.9V129.8z"/>
	<path fill="#FFFFFF" d="M150.9,271.1c7.9-4.6,15-10.3,21.2-16.9h-21.2V271.1z"/>
	<path fill="#FFFFFF" d="M247.8,155.4c0-45.1-27.3-83.7-66.2-100.6h33.3c5,0,9.1-4.1,9.1-9.1V9.1c0-5-4.1-9.1-9.1-9.1H68.6
		c-5,0-9.1,4.1-9.1,9.1v36.6c0,5,4.1,9.1,9.1,9.1h36.6v27.4h73.2v1.4c25.1,14.1,42.1,40.9,42.1,71.8h-1.8c-2,0-3.7,1.6-3.7,3.7v5.5
		h-12.7c-2.5-9.7-6.3-18.9-11.2-27.4h-85.8c-30.3,0-54.9,24.6-54.9,54.9s24.6,54.9,54.9,54.9h85.8c4.9-8.5,8.7-17.7,11.2-27.4h12.7
		v5.5c0,2,1.6,3.7,3.7,3.7h29.3c2,0,3.7-1.6,3.7-3.7v-65.8C251.5,157.1,249.8,155.4,247.8,155.4z"/>
</g>
</svg>
