<?xml version="1.0" encoding="utf-8"?>
<!-- Generator: Adobe Illustrator 18.0.0, SVG Export Plug-In . SVG Version: 6.00 Build 0)  -->
<!DOCTYPE svg PUBLIC "-//W3C//DTD SVG 1.0//EN" "http://www.w3.org/TR/2001/REC-SVG-20010904/DTD/svg10.dtd">
<svg version="1.0" id="图层_1" xmlns="http://www.w3.org/2000/svg" xmlns:xlink="http://www.w3.org/1999/xlink" x="0px" y="0px"
	 viewBox="0 0 283.5 283.5" enable-background="new 0 0 283.5 283.5" xml:space="preserve">
<g>
	<path fill="#FFFFFF" d="M141.7,0C63.5,0,0,63.5,0,141.7s63.5,141.7,141.7,141.7S283.5,220,283.5,141.7S220,0,141.7,0z M141.7,260.5
		C76.1,260.5,23,207.3,23,141.7S76.1,23,141.7,23s118.7,53.2,118.7,118.7S207.3,260.5,141.7,260.5z"/>
	<path fill="#E43A3D" d="M196.4,198.4H87c-1.1,0-2-0.9-2-2V87c0-1.1,0.9-2,2-2h109.4c1.1,0,2,0.9,2,2v109.4
		C198.4,197.5,197.5,198.4,196.4,198.4z"/>
</g>
</svg>
