<?xml version="1.0" encoding="utf-8"?>
<!-- Generator: Adobe Illustrator 22.1.0, SVG Export Plug-In . SVG Version: 6.00 Build 0)  -->
<svg version="1.1" id="图层_1" xmlns="http://www.w3.org/2000/svg" xmlns:xlink="http://www.w3.org/1999/xlink" x="0px" y="0px"
	 viewBox="0 0 100 100" style="enable-background:new 0 0 100 100;" xml:space="preserve">
<style type="text/css">
	.st0{fill:#FFFFFF;}
</style>
<g>
	<path class="st0" d="M20,27.5c0-4.1,3.4-7.5,7.5-7.5h45c4.1,0,7.5,3.4,7.5,7.5v5h5V25c0-5.5-4.5-10-10-10H25c-5.5,0-10,4.5-10,10
		v7.5h5V27.5z"/>
	<path class="st0" d="M80,72.5c0,4.1-3.4,7.5-7.5,7.5h-45c-4.1,0-7.5-3.4-7.5-7.5v-5h-5V75c0,5.5,4.5,10,10,10h50
		c5.5,0,10-4.5,10-10v-7.5h-5V72.5z"/>
	<rect y="47.5" class="st0" width="100" height="5"/>
</g>
</svg>
