<?xml version="1.0" encoding="utf-8"?>
<!-- Generator: Adobe Illustrator 22.1.0, SVG Export Plug-In . SVG Version: 6.00 Build 0)  -->
<svg version="1.1" id="图层_1" xmlns="http://www.w3.org/2000/svg" xmlns:xlink="http://www.w3.org/1999/xlink" x="0px" y="0px"
	 viewBox="0 0 100 100" style="enable-background:new 0 0 100 100;" xml:space="preserve">
<style type="text/css">
	.st0{fill:#FFFFFF;}
</style>
<g>
	<polygon class="st0" points="14.1,0 5.3,8.8 5.3,8.8 0,14.1 0,14.1 0,14.1 5.3,19.4 5.3,19.4 14.1,28.3 19.4,23 14.4,17.9 60,17.9 
		60,10.4 14.4,10.4 19.4,5.3 	"/>
	<polygon class="st0" points="85.9,100 94.7,91.2 94.7,91.2 100,85.9 100,85.9 100,85.9 94.7,80.6 94.7,80.6 85.9,71.7 80.6,77 
		85.6,82.1 40,82.1 40,89.6 85.6,89.6 80.6,94.7 	"/>
	<polygon class="st0" points="100,14.1 91.2,5.3 91.2,5.3 85.9,0 85.9,0 85.9,0 80.6,5.3 80.6,5.3 71.7,14.1 77,19.4 82.1,14.4 
		82.1,60 89.6,60 89.6,14.4 94.7,19.4 	"/>
	<polygon class="st0" points="0,85.9 8.8,94.7 8.8,94.7 14.1,100 14.1,100 14.1,100 19.4,94.7 19.4,94.7 28.3,85.9 23,80.6 
		17.9,85.6 17.9,40 10.4,40 10.4,85.6 5.3,80.6 	"/>
</g>
</svg>
