<?xml version="1.0" encoding="utf-8"?>
<!-- Generator: Adobe Illustrator 22.1.0, SVG Export Plug-In . SVG Version: 6.00 Build 0)  -->
<svg version="1.1" id="图层_1" xmlns="http://www.w3.org/2000/svg" xmlns:xlink="http://www.w3.org/1999/xlink" x="0px" y="0px"
	 viewBox="0 0 100 100" style="enable-background:new 0 0 100 100;" xml:space="preserve">
<style type="text/css">
	.st0{fill-rule:evenodd;clip-rule:evenodd;fill:#FFFFFF;}
</style>
<path class="st0" d="M15.2,91.3c-1.5,1.5-3.5,1.5-5,0c-1.5-1.5-1.5-4,0-5c1.6-1.5,3.5-1.5,5,0C16.7,87.3,16.7,89.8,15.2,91.3z
	 M94,84.3C61.9,52.2,61.9,52.2,61.9,52.2c0-0.5-0.5-0.5-1-1c6-6,6-6,6-6s0.5-0.5,0.5-1c7.6,3,16.6,1.5,22.6-4.5
	c4.5-4.5,6.4-10.6,5.9-17c0-0.5-0.5-1.5-1-1.5c-0.5,0-1.5,0-2,0.5c-10,10-10,10-10,10c-10.6-2.5-10.6-2.5-10.6-2.5
	c-3-10.5-3-10.5-3-10.5C79.4,8,79.4,8,79.4,8c0.5-0.5,1-1,0.5-2c0-0.5-0.5-1-1.6-1c-6-0.5-12.5,1.5-16.5,6c-6.5,6.1-8,15.1-5,22.6
	c-0.5,0.5-0.5,0.5-1,1c-8.5,8-8.5,8-8.5,8C32.3,27.1,32.3,27.1,32.3,27.1c-0.5,0-0.5-0.5-1-0.5c0.5-0.5,0.5-0.5,1-1
	c3,0.5,9.1-5.5,14-10.6C31.8,0,31.8,0,31.8,0c-7,6.5-11.5,11-11,14.6c-1.5,0.5-3,1.5-3.5,2.5c-2.5,2-2.5,2-2.5,2c-1,1.5-2,3-2,4.5
	c-0.5,0.5-0.5,0.5-1,1c-0.5,1-0.5,1-0.5,1c-1,1-1,1-1,1c-0.5,0.5-0.5,1.6-1,2l-0.5,0.5c-0.5,1-0.5,1-0.5,1c0,0.5-0.5,1-1,2
	c-0.5,1-1,2-1,3c0,0.5,0,0.5,0,0.5c-0.5,0.5-0.5,0.5-0.5,1c-0.5,1.5-0.5,1.5-0.5,1.5c0,1,0,2,0,2.5c0,0.5,0,0.5,0,0.5
	c-0.5,1-0.5,1.5-0.5,2.5v0.5v0.5c0.5,0,0.5,0.5,0.5,1c0,1,0,1,0,1c0,0.5,0,0.5,0,0.5c0,0.5,0,1,0.5,1.5c0.5,2.5,0.5,2.5,0.5,2.5
	c0.5,1,1,1.5,2,1.5c0.5,0,1-0.5,1-0.5c0.5-0.5,0.5-0.5,0.5-1c0.5-2.5,0.5-2.5,0.5-2.5c0-0.5,0-0.5,0-1c0-0.5,0.5-0.5,0.5-0.5
	c0-1,0-1,0-1c0-0.5,0-0.5,0.5-0.5v-0.5v-0.5c0.5-0.5,0.5-1,1-1.4v-0.5c0.5-0.5,0.5-0.5,1-1c0.5-1,0.5-1,0.5-1l0.5-0.5
	c0,0,0-0.5,0.5-0.5c0-0.5,0.5-1,1-1c0.5-0.5,0.5-0.5,0.5-0.5s0.5-0.5,1-1h0.5c0-0.5,0.5-0.5,0.5-0.5c0.5-0.5,0.5-0.5,1-0.5
	c1-0.5,1-0.5,1-0.5c0.5-0.5,0.5-0.5,0.5-0.5c0.5,0,0.5,0,1-0.5h0.5c0.5,0,0.5-0.5,0.5-0.5c0.5,0,0.5,0,0.5,0c0,0.5,0.5,1,0.5,1
	c15.5,15.5,15.5,15.5,15.5,15.5C6.7,81.8,6.7,81.8,6.7,81.8c-4,4-4.5,10.1-0.5,14c4,4,9.5,3,13.6-1c28.6-30.1,28.6-30.1,28.6-30.1
	s0.5,0,0.5,0.5c32.1,32.2,32.1,32.2,32.1,32.2c3.5,3.5,9.5,3.5,13.1,0C97.5,93.8,97.5,87.8,94,84.3z"/>
</svg>
