<?xml version="1.0" encoding="utf-8"?>
<!-- Generator: Adobe Illustrator 18.0.0, SVG Export Plug-In . SVG Version: 6.00 Build 0)  -->
<!DOCTYPE svg PUBLIC "-//W3C//DTD SVG 1.1//EN" "http://www.w3.org/Graphics/SVG/1.1/DTD/svg11.dtd">
<svg version="1.1" id="图层_1" xmlns="http://www.w3.org/2000/svg" xmlns:xlink="http://www.w3.org/1999/xlink" x="0px" y="0px"
	 viewBox="0 0 100 100" enable-background="new 0 0 100 100" xml:space="preserve">
<path fill="#FFFFFF" d="M83.3,38.9H33.6V16.7c0-4.6,3.7-8.3,8.3-8.3c4.6,0,8.3,3.7,8.3,8.3h8.3C58.6,7.5,51.1,0,41.9,0
	S25.3,7.5,25.3,16.7v22.2h-8.6c-3.1,0-5.6,2.5-5.6,5.6v50c0,3.1,2.5,5.6,5.6,5.6h66.7c3.1,0,5.6-2.5,5.6-5.6v-50
	C88.9,41.4,86.4,38.9,83.3,38.9z M55.6,76.1v9.5c0,3.1-2.5,5.6-5.6,5.6s-5.6-2.5-5.6-5.6v-9.5c-4.9-2.1-8.3-7-8.3-12.7
	c0-7.7,6.2-13.9,13.9-13.9s13.9,6.2,13.9,13.9C63.9,69,60.5,73.9,55.6,76.1z"/>
</svg>
