<?xml version="1.0" encoding="utf-8"?>
<!-- Generator: Adobe Illustrator 22.1.0, SVG Export Plug-In . SVG Version: 6.00 Build 0)  -->
<svg version="1.1" id="图层_1" xmlns="http://www.w3.org/2000/svg" xmlns:xlink="http://www.w3.org/1999/xlink" x="0px" y="0px"
	 viewBox="0 0 100 100" style="enable-background:new 0 0 100 100;" xml:space="preserve">
<style type="text/css">
	.st0{fill:#FFFFFF;}
</style>
<g>
	<polygon class="st0" points="15.6,24.9 4.2,4.2 12.5,0 26.1,24.7 13.6,49.3 26.1,72.8 12.6,100 4.1,96.1 15.6,72.9 3.1,49.4 	"/>
	<polygon class="st0" points="96.9,49.4 84.4,24.9 95.8,4.2 87.5,0 73.9,24.7 86.4,49.3 73.9,72.8 87.4,100 95.9,96.1 84.4,72.9 	
		"/>
	<polygon class="st0" points="49,24.9 60.4,4.2 52.1,0 38.5,24.7 51,49.3 38.5,72.8 52,100 60.5,96.1 49,72.9 61.5,49.4 	"/>
</g>
</svg>
