<?xml version="1.0" encoding="utf-8"?>
<!-- Generator: Adobe Illustrator 22.1.0, SVG Export Plug-In . SVG Version: 6.00 Build 0)  -->
<svg version="1.1" id="图层_1" xmlns="http://www.w3.org/2000/svg" xmlns:xlink="http://www.w3.org/1999/xlink" x="0px" y="0px"
	 viewBox="0 0 100 100" style="enable-background:new 0 0 100 100;" xml:space="preserve">
<style type="text/css">
	.st0{fill:#FFFFFF;}
</style>
<g>
	<path class="st0" d="M74.2,54.7v-2.9c0-1.4-1.2-2.6-2.6-2.6H5.8c-1.4,0-2.6,1.2-2.6,2.6v40c0,1.4,1.2,2.6,2.6,2.6h65.8
		c1.4,0,2.6-1.2,2.6-2.6v-2.9c0-1.9,2-3.2,3.7-2.3l18.3,9.2c1.7,0.9,3.7-0.4,3.7-2.3V50.1c0-1.9-2-3.2-3.7-2.3L77.9,57
		C76.2,57.9,74.2,56.6,74.2,54.7z"/>
	<path class="st0" d="M19.4,42.7c10.7,0,19.4-8.7,19.4-19.4S30,4,19.4,4S0,12.7,0,23.4S8.7,42.7,19.4,42.7z M19.4,12.1
		c6.2,0,11.3,5.1,11.3,11.3s-5.1,11.3-11.3,11.3S8.1,29.6,8.1,23.4S13.1,12.1,19.4,12.1z"/>
	<path class="st0" d="M58.1,42.7c10.7,0,19.4-8.7,19.4-19.4S68.8,4,58.1,4s-19.4,8.7-19.4,19.4S47.4,42.7,58.1,42.7z M58.1,12.1
		c6.2,0,11.3,5.1,11.3,11.3s-5.1,11.3-11.3,11.3s-11.3-5.1-11.3-11.3S51.8,12.1,58.1,12.1z"/>
</g>
</svg>
