<?xml version="1.0" encoding="utf-8"?>
<!-- Generator: Adobe Illustrator 18.0.0, SVG Export Plug-In . SVG Version: 6.00 Build 0)  -->
<!DOCTYPE svg PUBLIC "-//W3C//DTD SVG 1.0//EN" "http://www.w3.org/TR/2001/REC-SVG-20010904/DTD/svg10.dtd">
<svg version="1.0" id="图层_1" xmlns="http://www.w3.org/2000/svg" xmlns:xlink="http://www.w3.org/1999/xlink" x="0px" y="0px"
	 viewBox="0 0 100 100" enable-background="new 0 0 100 100" xml:space="preserve">
<path id="MICROPHONE_2_" fill-rule="evenodd" clip-rule="evenodd" fill="#FFFFFF" d="M84.4,45.3c0,17.4-12.9,31.7-29.7,34v11.3h15.6
	c2.6,0,4.7,2.1,4.7,4.7c0,2.6-2.1,4.7-4.7,4.7H50H29.7c-2.6,0-4.7-2.1-4.7-4.7c0-2.6,2.1-4.7,4.7-4.7h15.6V79.3
	c-16.8-2.3-29.7-16.6-29.7-34c0,0,0,0,0,0c0,0,0,0,0,0c0-2.6,2.1-4.7,4.7-4.7c2.6,0,4.7,2.1,4.7,4.7h0c0,13.8,11.2,25,25,25
	c13.8,0,25-11.2,25-25h0c0-2.6,2.1-4.7,4.7-4.7C82.3,40.6,84.4,42.7,84.4,45.3C84.4,45.3,84.4,45.3,84.4,45.3
	C84.4,45.3,84.4,45.3,84.4,45.3z M50,62.5L50,62.5c-10.4,0-18.7-8.4-18.7-18.8v-25C31.3,8.4,39.6,0,50,0l0,0
	c10.4,0,18.7,8.4,18.7,18.7v25C68.7,54.1,60.4,62.5,50,62.5z"/>
</svg>
