<?xml version="1.0" encoding="utf-8"?>
<!-- Generator: Adobe Illustrator 18.0.0, SVG Export Plug-In . SVG Version: 6.00 Build 0)  -->
<!DOCTYPE svg PUBLIC "-//W3C//DTD SVG 1.1//EN" "http://www.w3.org/Graphics/SVG/1.1/DTD/svg11.dtd">
<svg version="1.1" id="图层_1" xmlns="http://www.w3.org/2000/svg" xmlns:xlink="http://www.w3.org/1999/xlink" x="0px" y="0px"
	 viewBox="0 0 100 100" enable-background="new 0 0 100 100" xml:space="preserve">
<linearGradient id="SVGID_1_" gradientUnits="userSpaceOnUse" x1="-1123.1124" y1="55.1558" x2="-1110.3231" y2="7.4254" gradientTransform="matrix(-1.0417 0 0.7626 -1.0417 -1122.849 104.1667)">
	<stop  offset="0" style="stop-color:#000000;stop-opacity:0"/>
	<stop  offset="3.326422e-002" style="stop-color:#000000;stop-opacity:2.494816e-002"/>
	<stop  offset="1" style="stop-color:#000000;stop-opacity:0.75"/>
</linearGradient>
<path fill="url(#SVGID_1_)" d="M40.9,66.8c-8,14,12.9,19.4,9.2,33.2c13.2-14,39.4-19.3,47.4-33.2c6.7-11.6-0.5-20.9-16.2-20.9
	S47.6,55.2,40.9,66.8z"/>
<g>
	<g>
		<linearGradient id="SVGID_2_" gradientUnits="userSpaceOnUse" x1="49.9698" y1="18.7715" x2="49.9698" y2="71.5791">
			<stop  offset="0" style="stop-color:#15D5EC"/>
			<stop  offset="5.381370e-002" style="stop-color:#16CEEC"/>
			<stop  offset="0.2796" style="stop-color:#19B3EA"/>
			<stop  offset="0.5105" style="stop-color:#1BA0E9"/>
			<stop  offset="0.7475" style="stop-color:#1D95E8"/>
			<stop  offset="1" style="stop-color:#1D91E8"/>
		</linearGradient>
		<path fill="url(#SVGID_2_)" d="M77.2,25.9h-5.6v-0.7c0-3.5-2.9-6.4-6.4-6.4H49.8c-3.5,0-6.4,2.9-6.4,6.4v0.7H22.7
			c-3.5,0-6.4,2.9-6.4,6.4v32.8c0,3.5,2.9,6.4,6.4,6.4h54.5c3.5,0,6.4-2.9,6.4-6.4V32.4C83.7,28.8,80.8,25.9,77.2,25.9z M26.2,41
			c-2.7,0-4.9-2.2-4.9-4.9c0-2.7,2.2-4.9,4.9-4.9c2.7,0,4.9,2.2,4.9,4.9C31.1,38.8,28.9,41,26.2,41z M57.5,67.4
			c-10.3,0-18.6-8.3-18.6-18.6c0-10.3,8.3-18.6,18.6-18.6s18.6,8.3,18.6,18.6C76.1,59,67.8,67.4,57.5,67.4z"/>
		<linearGradient id="SVGID_3_" gradientUnits="userSpaceOnUse" x1="50.0302" y1="18.7715" x2="50.0302" y2="71.5791">
			<stop  offset="0" style="stop-color:#15D5EC"/>
			<stop  offset="5.381370e-002" style="stop-color:#16CEEC"/>
			<stop  offset="0.2796" style="stop-color:#19B3EA"/>
			<stop  offset="0.5105" style="stop-color:#1BA0E9"/>
			<stop  offset="0.7475" style="stop-color:#1D95E8"/>
			<stop  offset="1" style="stop-color:#1D91E8"/>
		</linearGradient>
		<path fill="url(#SVGID_3_)" d="M77.3,25.9h-5.6v-0.7c0-3.5-2.9-6.4-6.4-6.4H49.9c-3.5,0-6.4,2.9-6.4,6.4v0.7H22.8
			c-3.5,0-6.4,2.9-6.4,6.4v32.8c0,3.5,2.9,6.4,6.4,6.4h54.5c3.5,0,6.4-2.9,6.4-6.4V32.4C83.7,28.8,80.8,25.9,77.3,25.9z M26.3,41
			c-2.7,0-4.9-2.2-4.9-4.9c0-2.7,2.2-4.9,4.9-4.9c2.7,0,4.9,2.2,4.9,4.9C31.1,38.8,29,41,26.3,41z M57.6,67.4
			c-10.3,0-18.6-8.3-18.6-18.6c0-10.3,8.3-18.6,18.6-18.6s18.6,8.3,18.6,18.6C76.2,59,67.8,67.4,57.6,67.4z"/>
		<linearGradient id="SVGID_4_" gradientUnits="userSpaceOnUse" x1="57.4906" y1="35.7175" x2="57.4906" y2="61.7751">
			<stop  offset="0" style="stop-color:#15D5EC"/>
			<stop  offset="5.381370e-002" style="stop-color:#16CEEC"/>
			<stop  offset="0.2796" style="stop-color:#19B3EA"/>
			<stop  offset="0.5105" style="stop-color:#1BA0E9"/>
			<stop  offset="0.7475" style="stop-color:#1D95E8"/>
			<stop  offset="1" style="stop-color:#1D91E8"/>
		</linearGradient>
		<circle fill="url(#SVGID_4_)" cx="57.5" cy="48.7" r="13"/>
	</g>
	<linearGradient id="SVGID_5_" gradientUnits="userSpaceOnUse" x1="49.7888" y1="79.0968" x2="49.7888" y2="100">
		<stop  offset="0" style="stop-color:#15D5EC"/>
		<stop  offset="5.381370e-002" style="stop-color:#16CEEC"/>
		<stop  offset="0.2796" style="stop-color:#19B3EA"/>
		<stop  offset="0.5105" style="stop-color:#1BA0E9"/>
		<stop  offset="0.7475" style="stop-color:#1D95E8"/>
		<stop  offset="1" style="stop-color:#1D91E8"/>
	</linearGradient>
	<path fill="url(#SVGID_5_)" d="M36.8,79.1c5.7,6,10.9,12.5,13.2,20.9c1.9-8.4,7-14.9,12.7-20.9H36.8z"/>
</g>
</svg>
