<?xml version="1.0" encoding="utf-8"?>
<!-- Generator: Adobe Illustrator 18.0.0, SVG Export Plug-In . SVG Version: 6.00 Build 0)  -->
<!DOCTYPE svg PUBLIC "-//W3C//DTD SVG 1.0//EN" "http://www.w3.org/TR/2001/REC-SVG-20010904/DTD/svg10.dtd">
<svg version="1.0" id="图层_1" xmlns="http://www.w3.org/2000/svg" xmlns:xlink="http://www.w3.org/1999/xlink" x="0px" y="0px"
	 viewBox="0 0 100 100" enable-background="new 0 0 100 100" xml:space="preserve">
<linearGradient id="SVGID_1_" gradientUnits="userSpaceOnUse" x1="-1139.7296" y1="45.9186" x2="-1120.8979" y2="116.1995" gradientTransform="matrix(-0.7143 0 -0.5229 0.7143 -697.2349 14.5714)">
	<stop  offset="0" style="stop-color:#000000;stop-opacity:0"/>
	<stop  offset="3.326422e-002" style="stop-color:#000000;stop-opacity:2.494816e-002"/>
	<stop  offset="1" style="stop-color:#000000;stop-opacity:0.75"/>
</linearGradient>
<path fill="url(#SVGID_1_)" d="M39.2,67.9C29.7,81.4,54.3,86.6,49.9,100c15.5-13.5,46.2-18.6,55.6-32.1c7.8-11.2-0.7-20.3-19-20.3
	S47,56.7,39.2,67.9z"/>
<g>
	<text transform="matrix(1 0 0 1 38.1306 53.172)" fill="#FFFFFF" font-family="'Arial-BoldMT'" font-size="42.8571">3</text>
	
		<linearGradient id="SVGID_2_" gradientUnits="userSpaceOnUse" x1="49.6" y1="-20.4" x2="49.6" y2="72.98" gradientTransform="matrix(0.7143 0 0 0.7143 14.5714 14.5714)">
		<stop  offset="0" style="stop-color:#E255E3"/>
		<stop  offset="0.1079" style="stop-color:#D24FE5"/>
		<stop  offset="0.3207" style="stop-color:#B746E9"/>
		<stop  offset="0.5384" style="stop-color:#A440EB"/>
		<stop  offset="0.7619" style="stop-color:#993CED"/>
		<stop  offset="1" style="stop-color:#953BED"/>
	</linearGradient>
	<path fill="url(#SVGID_2_)" d="M83.4,9.5h-6.9V2.4c0-1.3-1-2.4-2.4-2.4h-31c-1.3,0-2.4,1.1-2.4,2.4v7.1h-24c-2.6,0-4.8,2.1-4.8,4.8
		v47.6c0,2.6,2.1,4.8,4.8,4.8h66.7c2.6,0,4.8-2.1,4.8-4.8V14.3C88.2,11.7,86.1,9.5,83.4,9.5z"/>
	
		<linearGradient id="SVGID_3_" gradientUnits="userSpaceOnUse" x1="61.71" y1="62.9" x2="61.71" y2="2.9001" gradientTransform="matrix(0.7143 0 0 0.7143 14.5714 14.5714)">
		<stop  offset="0" style="stop-color:#6C49AA"/>
		<stop  offset="1" style="stop-color:#2B2D7C"/>
	</linearGradient>
	<circle fill="url(#SVGID_3_)" cx="58.7" cy="38.1" r="21.4"/>
	
		<linearGradient id="SVGID_4_" gradientUnits="userSpaceOnUse" x1="61.71" y1="16.28" x2="61.71" y2="49.6" gradientTransform="matrix(0.7143 0 0 0.7143 14.5714 14.5714)">
		<stop  offset="0" style="stop-color:#E255E3"/>
		<stop  offset="0.1079" style="stop-color:#D24FE5"/>
		<stop  offset="0.3207" style="stop-color:#B746E9"/>
		<stop  offset="0.5384" style="stop-color:#A440EB"/>
		<stop  offset="0.7619" style="stop-color:#993CED"/>
		<stop  offset="1" style="stop-color:#953BED"/>
	</linearGradient>
	<circle fill="url(#SVGID_4_)" cx="58.7" cy="38.1" r="11.9"/>
	
		<linearGradient id="SVGID_5_" gradientUnits="userSpaceOnUse" x1="12.57" y1="22.9334" x2="12.57" y2="2.9334" gradientTransform="matrix(0.7143 0 0 0.7143 14.5714 14.5714)">
		<stop  offset="0" style="stop-color:#6C49AA"/>
		<stop  offset="1" style="stop-color:#2B2D7C"/>
	</linearGradient>
	<circle fill="url(#SVGID_5_)" cx="23.6" cy="23.8" r="7.1"/>
	<path fill="#953BED" d="M35.1,76.2c6.4,6.8,12.4,14.2,15,23.8c2.2-9.6,8-17,14.6-23.8H35.1z"/>
</g>
</svg>
