<?xml version="1.0" encoding="utf-8"?>
<!-- Generator: Adobe Illustrator 18.0.0, SVG Export Plug-In . SVG Version: 6.00 Build 0)  -->
<!DOCTYPE svg PUBLIC "-//W3C//DTD SVG 1.0//EN" "http://www.w3.org/TR/2001/REC-SVG-20010904/DTD/svg10.dtd">
<svg version="1.0" id="图层_1" xmlns="http://www.w3.org/2000/svg" xmlns:xlink="http://www.w3.org/1999/xlink" x="0px" y="0px"
	 viewBox="0 0 100 100" enable-background="new 0 0 100 100" xml:space="preserve">
<linearGradient id="SVGID_1_" gradientUnits="userSpaceOnUse" x1="-1139.9027" y1="56.067" x2="-1121.0775" y2="-14.189" gradientTransform="matrix(-0.7143 0 0.5229 -0.7143 -750.5707 87.43)">
	<stop  offset="0" style="stop-color:#000000;stop-opacity:0"/>
	<stop  offset="3.326422e-002" style="stop-color:#000000;stop-opacity:2.494816e-002"/>
	<stop  offset="1" style="stop-color:#000000;stop-opacity:0.75"/>
</linearGradient>
<path fill="url(#SVGID_1_)" d="M39.3,67.9C29.9,81.4,54.4,86.7,50.1,100c15.5-13.4,46.1-18.6,55.6-32.1c7.8-11.2-0.7-20.3-19-20.3
	S47.2,56.7,39.3,67.9z"/>
<g>
	<path fill="#FF7C1D" d="M35.2,76.2c6.4,6.9,12.5,14.1,15,23.8c2.2-9.7,8-16.9,14.6-23.8H35.2z"/>
	
		<linearGradient id="SVGID_2_" gradientUnits="userSpaceOnUse" x1="49.599" y1="122.3996" x2="49.599" y2="29.0681" gradientTransform="matrix(0.7143 0 0 -0.7143 14.5714 87.43)">
		<stop  offset="0" style="stop-color:#FFAC4A"/>
		<stop  offset="0.1513" style="stop-color:#FF9E3D"/>
		<stop  offset="0.4227" style="stop-color:#FF8B2B"/>
		<stop  offset="0.7022" style="stop-color:#FF8020"/>
		<stop  offset="1" style="stop-color:#FF7C1D"/>
	</linearGradient>
	<path fill="url(#SVGID_2_)" d="M83.5,9.5h-6.9V2.4c0-1.3-1-2.4-2.4-2.4H43.1c-1.3,0-2.4,1.1-2.4,2.4v7.1H16.7
		c-2.7,0-4.8,2.1-4.8,4.8v47.6c0,2.7,2.1,4.8,4.8,4.8h66.7c2.7,0,4.8-2.1,4.8-4.8V14.3C88.2,11.6,86.1,9.5,83.5,9.5z"/>
	
		<linearGradient id="SVGID_3_" gradientUnits="userSpaceOnUse" x1="61.751" y1="39.0679" x2="61.751" y2="99.0667" gradientTransform="matrix(0.7143 0 0 -0.7143 14.5714 87.43)">
		<stop  offset="0" style="stop-color:#EA5514"/>
		<stop  offset="1" style="stop-color:#943A00"/>
	</linearGradient>
	<circle fill="url(#SVGID_3_)" cx="58.7" cy="38.1" r="21.4"/>
	
		<linearGradient id="SVGID_4_" gradientUnits="userSpaceOnUse" x1="61.751" y1="85.7336" x2="61.751" y2="52.4009" gradientTransform="matrix(0.7143 0 0 -0.7143 14.5714 87.43)">
		<stop  offset="0" style="stop-color:#FFAC4A"/>
		<stop  offset="0.1513" style="stop-color:#FF9E3D"/>
		<stop  offset="0.4227" style="stop-color:#FF8B2B"/>
		<stop  offset="0.7022" style="stop-color:#FF8020"/>
		<stop  offset="1" style="stop-color:#FF7C1D"/>
	</linearGradient>
	<circle fill="url(#SVGID_4_)" cx="58.7" cy="38.1" r="11.9"/>
	
		<linearGradient id="SVGID_5_" gradientUnits="userSpaceOnUse" x1="12.7324" y1="80.6031" x2="12.7324" y2="100.6027" gradientTransform="matrix(0.7143 0 0 -0.7143 14.5714 87.43)">
		<stop  offset="0" style="stop-color:#EA5514"/>
		<stop  offset="1" style="stop-color:#943A00"/>
	</linearGradient>
	<circle fill="url(#SVGID_5_)" cx="23.7" cy="22.7" r="7.1"/>
</g>
</svg>
