<?xml version="1.0" encoding="utf-8"?>
<!-- Generator: Adobe Illustrator 18.0.0, SVG Export Plug-In . SVG Version: 6.00 Build 0)  -->
<!DOCTYPE svg PUBLIC "-//W3C//DTD SVG 1.1//EN" "http://www.w3.org/Graphics/SVG/1.1/DTD/svg11.dtd">
<svg version="1.1" id="图层_1" xmlns="http://www.w3.org/2000/svg" xmlns:xlink="http://www.w3.org/1999/xlink" x="0px" y="0px"
	 viewBox="0 0 96 96" enable-background="new 0 0 96 96" xml:space="preserve">
<linearGradient id="SVGID_1_" gradientUnits="userSpaceOnUse" x1="-1123.1124" y1="51.1558" x2="-1110.3231" y2="3.4254" gradientTransform="matrix(-1 0 0.7321 -1 -1075.0067 96)">
	<stop  offset="0" style="stop-color:#000000;stop-opacity:0"/>
	<stop  offset="3.326422e-002" style="stop-color:#000000;stop-opacity:2.494816e-002"/>
	<stop  offset="1" style="stop-color:#000000;stop-opacity:0.75"/>
</linearGradient>
<path fill="url(#SVGID_1_)" d="M39.3,64.1C31.6,77.5,51.7,82.7,48.1,96c12.7-13.4,37.8-18.5,45.5-31.9C100,53,93.1,44,78,44
	S45.7,53,39.3,64.1z"/>
<linearGradient id="SVGID_2_" gradientUnits="userSpaceOnUse" x1="48" y1="89" x2="48" y2="0" gradientTransform="matrix(1 0 0 -1 0 96)">
	<stop  offset="0" style="stop-color:#28EF56"/>
	<stop  offset="1" style="stop-color:#44B035"/>
</linearGradient>
<path fill="url(#SVGID_2_)" d="M48,96c8.5-23.1,34-33.3,34-55C82,22.2,66.8,7,48,7l0,0l0,0l0,0l0,0C29.2,7,14,22.2,14,41
	C14,62.7,39.5,72.9,48,96L48,96L48,96L48,96L48,96z"/>
<linearGradient id="SVGID_3_" gradientUnits="userSpaceOnUse" x1="48" y1="33" x2="48" y2="79" gradientTransform="matrix(1 0 0 -1 0 96)">
	<stop  offset="0" style="stop-color:#0DAD26"/>
	<stop  offset="1" style="stop-color:#095C16"/>
</linearGradient>
<circle fill="url(#SVGID_3_)" cx="48" cy="40" r="23"/>
</svg>
