<?xml version="1.0" encoding="utf-8"?>
<!-- Generator: Adobe Illustrator 18.0.0, SVG Export Plug-In . SVG Version: 6.00 Build 0)  -->
<!DOCTYPE svg PUBLIC "-//W3C//DTD SVG 1.1//EN" "http://www.w3.org/Graphics/SVG/1.1/DTD/svg11.dtd">
<svg version="1.1" id="图层_1" xmlns="http://www.w3.org/2000/svg" xmlns:xlink="http://www.w3.org/1999/xlink" x="0px" y="0px"
	 viewBox="0 0 96 96" enable-background="new 0 0 96 96" xml:space="preserve">
<linearGradient id="SVGID_1_" gradientUnits="userSpaceOnUse" x1="-1123.1401" y1="44.8525" x2="-1110.3507" y2="92.5833" gradientTransform="matrix(-1 0 -0.7321 1 -1004.7251 0)">
	<stop  offset="0" style="stop-color:#000000;stop-opacity:0"/>
	<stop  offset="3.326422e-002" style="stop-color:#000000;stop-opacity:2.494816e-002"/>
	<stop  offset="1" style="stop-color:#000000;stop-opacity:0.75"/>
</linearGradient>
<path fill="url(#SVGID_1_)" d="M39.3,64.1C31.6,77.5,51.7,82.7,48.1,96c12.7-13.4,37.8-18.5,45.5-31.9C100,53,93.1,44,78,44
	S45.7,53,39.3,64.1z"/>
<linearGradient id="SVGID_2_" gradientUnits="userSpaceOnUse" x1="39.3209" y1="8.119" x2="61.873" y2="92.2845">
	<stop  offset="0" style="stop-color:#FFAC4A"/>
	<stop  offset="0.1513" style="stop-color:#FF9E3D"/>
	<stop  offset="0.4227" style="stop-color:#FF8B2B"/>
	<stop  offset="0.7022" style="stop-color:#FF8020"/>
	<stop  offset="1" style="stop-color:#FF7C1D"/>
</linearGradient>
<path fill="url(#SVGID_2_)" d="M48,96c8.5-23.1,34-33.3,34-55C82,22.2,66.8,7,48,7c0,0,0,0,0,0c0,0,0,0,0,0s0,0,0,0c0,0,0,0,0,0
	C29.2,7,14,22.2,14,41C14,62.7,39.5,72.9,48,96C48,96,48,96,48,96C48,96,48,96,48,96C48,96,48,96,48,96C48,96,48,96,48,96z"/>
<linearGradient id="SVGID_3_" gradientUnits="userSpaceOnUse" x1="48" y1="63" x2="48" y2="17">
	<stop  offset="0" style="stop-color:#EA5514"/>
	<stop  offset="1" style="stop-color:#943A00"/>
</linearGradient>
<circle fill="url(#SVGID_3_)" cx="48" cy="40" r="23"/>
</svg>
