<?xml version="1.0" encoding="utf-8"?>
<!-- Generator: Adobe Illustrator 18.0.0, SVG Export Plug-In . SVG Version: 6.00 Build 0)  -->
<!DOCTYPE svg PUBLIC "-//W3C//DTD SVG 1.0//EN" "http://www.w3.org/TR/2001/REC-SVG-20010904/DTD/svg10.dtd">
<svg version="1.0" id="图层_1" xmlns="http://www.w3.org/2000/svg" xmlns:xlink="http://www.w3.org/1999/xlink" x="0px" y="0px"
	 viewBox="0 0 100 100" enable-background="new 0 0 100 100" xml:space="preserve">
<linearGradient id="SVGID_1_" gradientUnits="userSpaceOnUse" x1="-1139.7296" y1="45.9186" x2="-1120.8979" y2="116.1995" gradientTransform="matrix(-0.7143 0 -0.5229 0.7143 -697.2349 14.5714)">
	<stop  offset="0" style="stop-color:#000000;stop-opacity:0"/>
	<stop  offset="3.326422e-002" style="stop-color:#000000;stop-opacity:2.494816e-002"/>
	<stop  offset="1" style="stop-color:#000000;stop-opacity:0.75"/>
</linearGradient>
<path fill="url(#SVGID_1_)" d="M39.2,67.9C29.7,81.4,54.3,86.6,49.9,100c15.5-13.5,46.2-18.6,55.6-32.1c7.8-11.2-0.7-20.3-19-20.3
	S47,56.7,39.2,67.9z"/>
<g>
	<path fill="#31AE99" d="M35,76.2C41.5,83,47.5,90.4,50,100c2.2-9.6,8-17,14.6-23.8H35z"/>
	
		<linearGradient id="SVGID_2_" gradientUnits="userSpaceOnUse" x1="49.67" y1="62.9" x2="49.67" y2="2.8999" gradientTransform="matrix(0.7143 0 0 0.7143 14.5714 14.5714)">
		<stop  offset="0" style="stop-color:#007F5D"/>
		<stop  offset="0.2903" style="stop-color:#006F56"/>
		<stop  offset="0.6336" style="stop-color:#006452"/>
		<stop  offset="1" style="stop-color:#006050"/>
	</linearGradient>
	<circle fill="url(#SVGID_2_)" cx="50" cy="38.1" r="21.4"/>
	
		<linearGradient id="SVGID_3_" gradientUnits="userSpaceOnUse" x1="49.6" y1="-20.4" x2="49.6" y2="86.2666" gradientTransform="matrix(0.7143 0 0 0.7143 14.5714 14.5714)">
		<stop  offset="0" style="stop-color:#00FF8A"/>
		<stop  offset="0.1291" style="stop-color:#0CEB8E"/>
		<stop  offset="0.3368" style="stop-color:#1CD093"/>
		<stop  offset="0.5493" style="stop-color:#28BD96"/>
		<stop  offset="0.7675" style="stop-color:#2FB298"/>
		<stop  offset="1" style="stop-color:#31AE99"/>
	</linearGradient>
	<path fill="url(#SVGID_3_)" d="M80.4,43.5l7.5-0.9c0.2-1.5,0.3-3,0.3-4.5s-0.1-3.1-0.3-4.5l-7.5-0.9c-0.3,0-0.6-0.3-0.7-0.6l-1-3.6
		c-0.1-0.3,0-0.6,0.3-0.8l6.1-4.6c-1.2-2.8-2.7-5.4-4.5-7.9l-7,3c-0.3,0.1-0.6,0.1-0.9-0.2l-2.6-2.5c-0.2-0.2-0.3-0.6-0.2-0.9l3-7
		c-2.4-1.8-5.1-3.3-7.9-4.5l-4.6,6.1c-0.2,0.3-0.5,0.4-0.8,0.3l-3.6-1c-0.3-0.1-0.5-0.4-0.6-0.7l-0.9-7.5C53.1,0.1,51.5,0,50,0
		S47,0.1,45.5,0.3l-0.9,7.5c0,0.3-0.3,0.6-0.6,0.7l-3.6,1c-0.3,0.1-0.6,0-0.8-0.3L35,3.1c-2.8,1.2-5.4,2.7-7.9,4.5l3,7
		c0.1,0.3,0.1,0.6-0.2,0.9l-2.6,2.6c-0.2,0.2-0.6,0.3-0.9,0.2l-7-3c-1.8,2.4-3.3,5.1-4.5,7.9l6.1,4.6c0.3,0.2,0.4,0.5,0.3,0.8
		l-1,3.6c-0.1,0.3-0.4,0.5-0.7,0.6l-7.5,0.9c-0.2,1.5-0.3,3-0.3,4.5s0.1,3.1,0.3,4.5l7.5,0.9c0.3,0,0.6,0.3,0.7,0.6l1,3.6
		c0.1,0.3,0,0.6-0.3,0.8l-6,4.5c1.2,2.8,2.7,5.4,4.5,7.9l7-3c0.3-0.1,0.6-0.1,0.9,0.2l2.6,2.6c0.2,0.2,0.3,0.6,0.2,0.9l-3,7
		c2.4,1.8,5.1,3.3,7.9,4.5l4.6-6.1c0.2-0.3,0.5-0.4,0.8-0.3l3.6,1c0.3,0.1,0.5,0.4,0.6,0.7l0.9,7.5c1.5,0.2,3,0.3,4.5,0.3
		s3.1-0.1,4.5-0.3l0.9-7.5c0-0.3,0.3-0.6,0.6-0.7l3.6-1c0.3-0.1,0.6,0,0.8,0.3l4.6,6.1c2.8-1.2,5.4-2.7,7.9-4.5l-3-7
		c-0.1-0.3-0.1-0.6,0.2-0.9l2.6-2.6c0.2-0.2,0.6-0.3,0.9-0.2l7,3c1.8-2.4,3.3-5.1,4.5-7.9l-6.1-4.6c-0.3-0.2-0.4-0.5-0.3-0.8l1-3.6
		C79.8,43.8,80.1,43.6,80.4,43.5z M28.6,38.1c0-11,8.3-20.1,19-21.3v12.1c-4.1,1.1-7.1,4.8-7.1,9.2c0,0.9,0.2,1.7,0.4,2.5l-10.5,6.1
		C29.3,44,28.6,41.1,28.6,38.1z M50,59.5c-7.1,0-13.3-3.4-17.2-8.7l10.4-6c1.7,1.8,4.1,2.9,6.8,2.9c2.7,0,5.1-1.1,6.8-2.9l10.4,6
		C63.4,56.1,57.1,59.5,50,59.5z M69.6,46.7l-10.5-6.1c0.2-0.8,0.4-1.6,0.4-2.5c0-4.4-3-8.1-7.1-9.2V16.8c10.7,1.2,19,10.3,19,21.3
		C71.5,41.1,70.9,44,69.6,46.7z"/>
</g>
</svg>
