<?xml version="1.0" encoding="utf-8"?>
<!-- Generator: Adobe Illustrator 18.0.0, SVG Export Plug-In . SVG Version: 6.00 Build 0)  -->
<!DOCTYPE svg PUBLIC "-//W3C//DTD SVG 1.0//EN" "http://www.w3.org/TR/2001/REC-SVG-20010904/DTD/svg10.dtd">
<svg version="1.0" id="图层_1" xmlns="http://www.w3.org/2000/svg" xmlns:xlink="http://www.w3.org/1999/xlink" x="0px" y="0px"
	 viewBox="0 0 100 100" enable-background="new 0 0 100 100" xml:space="preserve">
<linearGradient id="SVGID_1_" gradientUnits="userSpaceOnUse" x1="-1139.8234" y1="56.2739" x2="-1120.9453" y2="-14.1794" gradientTransform="matrix(-0.7143 0 0.5229 -0.7143 -750.5707 87.43)">
	<stop  offset="0" style="stop-color:#000000;stop-opacity:0"/>
	<stop  offset="3.326422e-002" style="stop-color:#000000;stop-opacity:2.494816e-002"/>
	<stop  offset="1" style="stop-color:#000000;stop-opacity:0.75"/>
</linearGradient>
<path fill="url(#SVGID_1_)" d="M39.2,67.8C29.8,81.3,54.4,86.7,50,100c15.6-13.5,46.2-18.7,55.8-32.2c7.9-11.2-0.7-20.4-19.1-20.4
	S47.1,56.6,39.2,67.8z"/>
<g>
	<path fill="#FF7C1D" d="M34.9,76.1c6.5,6.9,12.5,14.2,15,23.9c2.2-9.7,8-17,14.6-23.9H34.9z"/>
	
		<linearGradient id="SVGID_2_" gradientUnits="userSpaceOnUse" x1="49.5007" y1="39.2271" x2="49.5007" y2="99.3944" gradientTransform="matrix(0.7143 0 0 -0.7143 14.5714 87.43)">
		<stop  offset="0" style="stop-color:#EA5514"/>
		<stop  offset="1" style="stop-color:#943A00"/>
	</linearGradient>
	<circle fill="url(#SVGID_2_)" cx="49.9" cy="37.9" r="21.5"/>
	
		<linearGradient id="SVGID_3_" gradientUnits="userSpaceOnUse" x1="49.599" y1="122.8209" x2="49.599" y2="15.8119" gradientTransform="matrix(0.7143 0 0 -0.7143 14.5714 87.43)">
		<stop  offset="0" style="stop-color:#FFAC4A"/>
		<stop  offset="0.1513" style="stop-color:#FF9E3D"/>
		<stop  offset="0.4227" style="stop-color:#FF8B2B"/>
		<stop  offset="0.7022" style="stop-color:#FF8020"/>
		<stop  offset="1" style="stop-color:#FF7C1D"/>
	</linearGradient>
	<path fill="url(#SVGID_3_)" d="M80.3,43.4l7.6-0.8c0.1-1.5,0.3-2.9,0.3-4.5c0-1.5-0.1-3.1-0.3-4.5l-7.6-0.8c-0.3,0-0.6-0.3-0.7-0.6
		l-1-3.7c-0.1-0.3,0-0.6,0.3-0.8L85,23c-1.3-2.8-2.7-5.5-4.5-7.9l-7,2.9c-0.3,0.1-0.6,0.1-0.8-0.1L70,15.4c-0.1-0.1-0.3-0.6-0.1-0.8
		l2.9-7c-2.4-1.8-5.1-3.4-7.9-4.5l-4.6,6.2c-0.1,0.3-0.6,0.4-0.8,0.3l-3.7-1c-0.3-0.1-0.6-0.4-0.6-0.7l-0.8-7.6
		C53.2,0.1,51.5,0,50.1,0c-1.5,0-3.1,0.1-4.5,0.3l-0.8,7.6c0,0.3-0.3,0.6-0.6,0.7l-3.7,1c-0.3,0.1-0.6,0-0.8-0.3L35,3.1
		c-2.8,1.3-5.5,2.7-7.9,4.5l2.9,7c0.1,0.3,0.1,0.6-0.1,0.8l-2.7,2.7c-0.1,0.1-0.6,0.3-0.8,0.1l-7-2.9c-1.8,2.4-3.4,5.1-4.5,7.9
		l6.2,4.6c0.3,0.1,0.4,0.6,0.3,0.8l-1,3.7c-0.1,0.3-0.4,0.6-0.7,0.6l-7.6,0.8c-0.1,1.5-0.3,2.9-0.3,4.5c0,1.5,0.1,3.1,0.3,4.5
		l7.6,0.8c0.3,0,0.6,0.3,0.7,0.6l1,3.7c0.1,0.3,0,0.6-0.3,0.8l-6.3,4.4c1.3,2.8,2.7,5.5,4.5,7.9l7-2.9c0.3-0.1,0.6-0.1,0.8,0.1
		l2.7,2.7c0.1,0.1,0.3,0.6,0.1,0.8l-2.9,7c2.4,1.8,5.1,3.4,7.9,4.5l4.6-6.2c0.1-0.3,0.6-0.4,0.8-0.3l3.7,1c0.3,0.1,0.6,0.4,0.6,0.7
		l0.8,7.6c1.5,0.1,2.9,0.3,4.5,0.3c1.5,0,3.1-0.1,4.5-0.3l0.8-7.6c0-0.3,0.3-0.6,0.6-0.7l3.7-1c0.3-0.1,0.6,0,0.8,0.3L65,73
		c2.8-1.3,5.5-2.7,7.9-4.5l-2.9-7c-0.1-0.3-0.1-0.6,0.1-0.8l2.7-2.7c0.1-0.1,0.6-0.3,0.8-0.1l7,2.9c1.8-2.4,3.4-5.1,4.5-7.9
		l-6.2-4.6c-0.3-0.1-0.4-0.6-0.3-0.8l1-3.7C79.7,43.7,80,43.4,80.3,43.4z M28.4,37.9c0-11.1,8.3-20.2,19.1-21.3v12.1
		c-4.1,1.1-7.2,4.8-7.2,9.3c0,0.8,0.1,1.7,0.4,2.5l-10.5,6C29,43.8,28.4,40.9,28.4,37.9z M49.9,59.4c-7.2,0-13.3-3.4-17.3-8.7
		l10.4-6c1.7,1.8,4.1,2.9,6.9,2.9c2.7,0,5.1-1.1,6.9-2.9l10.4,6C63.3,56,57.1,59.4,49.9,59.4z M69.6,46.5l-10.5-6.2
		c0.1-0.8,0.4-1.5,0.4-2.5c0-4.4-2.9-8.1-7.2-9.3V16.4C63,17.7,71.4,26.8,71.4,37.8C71.4,40.9,70.9,43.8,69.6,46.5z"/>
</g>
</svg>
