<?xml version="1.0" encoding="utf-8"?>
<!-- Generator: Adobe Illustrator 18.0.0, SVG Export Plug-In . SVG Version: 6.00 Build 0)  -->
<!DOCTYPE svg PUBLIC "-//W3C//DTD SVG 1.0//EN" "http://www.w3.org/TR/2001/REC-SVG-20010904/DTD/svg10.dtd">
<svg version="1.0" id="图层_1" xmlns="http://www.w3.org/2000/svg" xmlns:xlink="http://www.w3.org/1999/xlink" x="0px" y="0px"
	 viewBox="0 0 100 100" enable-background="new 0 0 100 100" xml:space="preserve">
<g>
	<path fill="#FFFFFF" d="M82.7,73.1H17.3c-4.2,0-7.7,3.5-7.7,7.7v11.5c0,4.2,3.5,7.7,7.7,7.7h65.4c4.2,0,7.7-3.5,7.7-7.7V80.8
		C90.4,76.5,86.9,73.1,82.7,73.1z"/>
	<path fill="#FFFFFF" d="M76.9,69.2c0-2.1-1.7-3.8-3.8-3.8H57.7c-2.1,0-3.8,1.7-3.8,3.8v0.1L76.9,69.2L76.9,69.2z"/>
	<path fill="#FFFFFF" d="M30.8,34.2v35.1h7.7V34.2c7.7-1.8,13.5-8.6,13.5-16.9C51.9,7.7,44.2,0,34.6,0S17.3,7.7,17.3,17.3
		C17.3,25.5,23.1,32.4,30.8,34.2z"/>
</g>
</svg>
