<?xml version="1.0" encoding="utf-8"?>
<!-- Generator: Adobe Illustrator 18.0.0, SVG Export Plug-In . SVG Version: 6.00 Build 0)  -->
<!DOCTYPE svg PUBLIC "-//W3C//DTD SVG 1.1//EN" "http://www.w3.org/Graphics/SVG/1.1/DTD/svg11.dtd">
<svg version="1.1" id="图层_1" xmlns="http://www.w3.org/2000/svg" xmlns:xlink="http://www.w3.org/1999/xlink" x="0px" y="0px"
	 viewBox="0 0 100 100" enable-background="new 0 0 100 100" xml:space="preserve">
<g>
	<path fill="#FFFFFF" d="M55.2,35.4H43.8V24c0-0.6-0.5-1-1-1h-6.3c-0.6,0-1,0.5-1,1v11.5H24c-0.6,0-1,0.5-1,1v6.3c0,0.6,0.5,1,1,1
		h11.5v11.5c0,0.6,0.5,1,1,1h6.3c0.6,0,1-0.5,1-1V43.8h11.5c0.6,0,1-0.5,1-1v-6.3C56.3,35.9,55.8,35.4,55.2,35.4z"/>
	<path fill="#FFFFFF" d="M77.9,67.6L75,70.5l-5.3-5.3c5.9-6.9,9.5-15.9,9.5-25.7C79.2,17.7,61.4,0,39.6,0S0,17.7,0,39.6
		s17.7,39.6,39.6,39.6c9.8,0,18.8-3.6,25.7-9.5l5.3,5.3l-2.9,2.9L89.7,100L100,89.7L77.9,67.6z M39.6,70.8
		c-17.3,0-31.3-14-31.3-31.3s14-31.3,31.3-31.3s31.3,14,31.3,31.3S56.8,70.8,39.6,70.8z"/>
</g>
</svg>
